<svg xmlns="http://www.w3.org/2000/svg" width="111.409" height="111.409" viewBox="0 0 111.409 111.409">
  <g id="Grupo_4320" data-name="Grupo 4320" transform="translate(11338.827 12757.409)">
    <rect id="Retângulo_741" data-name="Retângulo 741" width="111.409" height="111.409" transform="translate(-11338.827 -12757.409)" fill="none"/>
    <rect id="Retângulo_742" data-name="Retângulo 742" width="7.878" height="7.878" transform="translate(-11316.546 -12729.557) rotate(45)" fill="#4192d0"/>
    <rect id="Retângulo_743" data-name="Retângulo 743" width="7.878" height="7.878" transform="translate(-11333.257 -12712.846) rotate(45)" fill="#4192d0"/>
    <rect id="Retângulo_744" data-name="Retângulo 744" width="7.878" height="7.878" transform="translate(-11316.546 -12740.697) rotate(45.001)" fill="#4192d0"/>
    <rect id="Retângulo_745" data-name="Retângulo 745" width="7.878" height="7.878" transform="matrix(0.707, 0.707, -0.707, 0.707, -11333.257, -12757.408)" fill="#4192d0"/>
    <rect id="Retângulo_746" data-name="Retângulo 746" width="7.878" height="15.755" transform="translate(-11316.546 -12718.416) rotate(45.001)" fill="#2e3e91"/>
    <rect id="Retângulo_747" data-name="Retângulo 747" width="7.878" height="15.755" transform="matrix(0.707, 0.707, -0.707, 0.707, -11327.687, -12729.557)" fill="#2e3e91"/>
    <rect id="Retângulo_748" data-name="Retângulo 748" width="7.878" height="7.878" transform="translate(-11299.835 -12723.986) rotate(135)" fill="#4192d0"/>
    <path id="Caminho_3157" data-name="Caminho 3157" d="M205.5,257v11.141l5.57-5.57Z" transform="translate(-11544.326 -12992.128)" fill="#4192d0"/>
    <rect id="Retângulo_749" data-name="Retângulo 749" width="23.634" height="23.634" transform="translate(-11266.412 -12701.705) rotate(135)" fill="#4192d0"/>
    <rect id="Retângulo_750" data-name="Retângulo 750" width="7.878" height="7.878" transform="translate(-11299.835 -12735.127) rotate(134.999)" fill="#4192d0"/>
    <rect id="Retângulo_751" data-name="Retângulo 751" width="7.878" height="7.878" transform="translate(-11283.123 -12751.838) rotate(135)" fill="#4192d0"/>
    <rect id="Retângulo_752" data-name="Retângulo 752" width="7.878" height="15.755" transform="translate(-11294.265 -12707.275) rotate(134.999)" fill="#2e3e91"/>
    <rect id="Retângulo_753" data-name="Retângulo 753" width="7.878" height="15.755" transform="translate(-11283.124 -12718.416) rotate(135)" fill="#2e3e91"/>
    <rect id="Retângulo_754" data-name="Retângulo 754" width="7.878" height="15.755" transform="translate(-11305.405 -12740.697) rotate(-134.999)" fill="#2e3e91"/>
    <rect id="Retângulo_755" data-name="Retângulo 755" width="7.878" height="15.755" transform="translate(-11294.265 -12729.557) rotate(-135)" fill="#2e3e91"/>
    <rect id="Retângulo_756" data-name="Retângulo 756" width="7.878" height="15.755" transform="translate(-11327.687 -12751.838) rotate(-45.001)" fill="#2e3e91"/>
    <rect id="Retângulo_757" data-name="Retângulo 757" width="7.878" height="15.755" transform="matrix(0.707, -0.707, 0.707, 0.707, -11338.827, -12740.697)" fill="#2e3e91"/>
    <rect id="Retângulo_758" data-name="Retângulo 758" width="7.878" height="7.878" transform="translate(-11260.842 -12729.557) rotate(45)" fill="#4192d0"/>
    <rect id="Retângulo_759" data-name="Retângulo 759" width="7.878" height="7.878" transform="translate(-11260.842 -12740.697) rotate(45.001)" fill="#4192d0"/>
    <rect id="Retângulo_760" data-name="Retângulo 760" width="7.878" height="7.878" transform="translate(-11277.553 -12757.408) rotate(45)" fill="#4192d0"/>
    <rect id="Retângulo_761" data-name="Retângulo 761" width="7.878" height="15.755" transform="translate(-11260.842 -12718.416) rotate(45.001)" fill="#2e3e91"/>
    <rect id="Retângulo_762" data-name="Retângulo 762" width="7.878" height="15.755" transform="translate(-11271.982 -12729.557) rotate(45)" fill="#2e3e91"/>
    <rect id="Retângulo_763" data-name="Retângulo 763" width="7.878" height="7.878" transform="translate(-11244.131 -12723.986) rotate(135)" fill="#4192d0"/>
    <path id="Caminho_3158" data-name="Caminho 3158" d="M318.786,268.141V257l-5.57,5.57Z" transform="translate(-11546.205 -12992.128)" fill="#4192d0"/>
    <rect id="Retângulo_764" data-name="Retângulo 764" width="7.878" height="7.878" transform="translate(-11288.693 -12729.557) rotate(-44.999)" fill="#4192d0"/>
    <rect id="Retângulo_765" data-name="Retângulo 765" width="7.878" height="7.878" transform="translate(-11227.419 -12707.275) rotate(134.999)" fill="#4192d0"/>
    <rect id="Retângulo_766" data-name="Retângulo 766" width="7.878" height="7.878" transform="translate(-11244.13 -12735.127) rotate(134.999)" fill="#4192d0"/>
    <rect id="Retângulo_767" data-name="Retângulo 767" width="7.878" height="7.878" transform="translate(-11227.419 -12751.838) rotate(135)" fill="#4192d0"/>
    <rect id="Retângulo_768" data-name="Retângulo 768" width="7.878" height="15.755" transform="translate(-11238.56 -12707.275) rotate(134.999)" fill="#2e3e91"/>
    <rect id="Retângulo_769" data-name="Retângulo 769" width="7.878" height="15.755" transform="translate(-11227.419 -12718.416) rotate(135)" fill="#2e3e91"/>
    <rect id="Retângulo_770" data-name="Retângulo 770" width="7.878" height="15.755" transform="translate(-11249.701 -12740.697) rotate(-134.999)" fill="#2e3e91"/>
    <rect id="Retângulo_771" data-name="Retângulo 771" width="7.878" height="15.755" transform="translate(-11238.56 -12729.557) rotate(-135)" fill="#2e3e91"/>
    <rect id="Retângulo_772" data-name="Retângulo 772" width="7.878" height="15.755" transform="translate(-11271.982 -12751.838) rotate(-45.001)" fill="#2e3e91"/>
    <rect id="Retângulo_773" data-name="Retângulo 773" width="7.878" height="15.755" transform="translate(-11283.123 -12740.697) rotate(-45)" fill="#2e3e91"/>
    <rect id="Retângulo_774" data-name="Retângulo 774" width="7.878" height="7.878" transform="translate(-11316.546 -12673.853) rotate(45)" fill="#4192d0"/>
    <rect id="Retângulo_775" data-name="Retângulo 775" width="7.878" height="7.878" transform="matrix(0.707, 0.707, -0.707, 0.707, -11333.257, -12657.142)" fill="#4192d0"/>
    <rect id="Retângulo_776" data-name="Retângulo 776" width="7.878" height="7.878" transform="translate(-11316.546 -12684.993) rotate(45.001)" fill="#4192d0"/>
    <rect id="Retângulo_777" data-name="Retângulo 777" width="7.878" height="7.878" transform="matrix(0.707, 0.707, -0.707, 0.707, -11333.257, -12701.704)" fill="#4192d0"/>
    <rect id="Retângulo_778" data-name="Retângulo 778" width="7.878" height="15.755" transform="translate(-11316.546 -12662.712) rotate(45)" fill="#2e3e91"/>
    <rect id="Retângulo_779" data-name="Retângulo 779" width="7.878" height="15.755" transform="matrix(0.707, 0.707, -0.707, 0.707, -11327.687, -12673.853)" fill="#2e3e91"/>
    <rect id="Retângulo_780" data-name="Retângulo 780" width="7.878" height="7.878" transform="translate(-11299.835 -12668.282) rotate(135)" fill="#4192d0"/>
    <path id="Caminho_3159" data-name="Caminho 3159" d="M205.5,313.693v11.141l5.57-5.57Z" transform="translate(-11544.326 -12993.116)" fill="#4192d0"/>
    <rect id="Retângulo_781" data-name="Retângulo 781" width="7.878" height="7.878" transform="translate(-11283.123 -12651.571) rotate(135)" fill="#4192d0"/>
    <rect id="Retângulo_782" data-name="Retângulo 782" width="7.878" height="7.878" transform="translate(-11299.835 -12679.423) rotate(134.999)" fill="#4192d0"/>
    <rect id="Retângulo_783" data-name="Retângulo 783" width="7.878" height="15.755" transform="translate(-11294.265 -12651.571) rotate(135)" fill="#2e3e91"/>
    <rect id="Retângulo_784" data-name="Retângulo 784" width="7.878" height="15.755" transform="translate(-11283.124 -12662.712) rotate(135)" fill="#2e3e91"/>
    <rect id="Retângulo_785" data-name="Retângulo 785" width="7.878" height="15.755" transform="translate(-11305.405 -12684.993) rotate(-135)" fill="#2e3e91"/>
    <rect id="Retângulo_786" data-name="Retângulo 786" width="7.878" height="15.755" transform="translate(-11294.265 -12673.853) rotate(-135)" fill="#2e3e91"/>
    <rect id="Retângulo_787" data-name="Retângulo 787" width="7.878" height="15.755" transform="translate(-11327.687 -12696.134) rotate(-45)" fill="#2e3e91"/>
    <rect id="Retângulo_788" data-name="Retângulo 788" width="7.878" height="15.755" transform="matrix(0.707, -0.707, 0.707, 0.707, -11338.827, -12684.993)" fill="#2e3e91"/>
    <path id="Caminho_3160" data-name="Caminho 3160" d="M228.176,347.61h11.141l-5.57-5.57Z" transform="translate(-11544.722 -12993.61)" fill="#4192d0"/>
    <rect id="Retângulo_789" data-name="Retângulo 789" width="7.878" height="7.878" transform="translate(-11260.842 -12673.853) rotate(45)" fill="#4192d0"/>
    <rect id="Retângulo_790" data-name="Retângulo 790" width="7.878" height="7.878" transform="translate(-11277.553 -12657.142) rotate(45)" fill="#4192d0"/>
    <rect id="Retângulo_791" data-name="Retângulo 791" width="7.878" height="7.878" transform="translate(-11260.842 -12684.993) rotate(45.001)" fill="#4192d0"/>
    <rect id="Retângulo_792" data-name="Retângulo 792" width="7.878" height="15.755" transform="translate(-11260.842 -12662.712) rotate(45)" fill="#2e3e91"/>
    <rect id="Retângulo_793" data-name="Retângulo 793" width="7.878" height="15.755" transform="translate(-11271.982 -12673.853) rotate(45)" fill="#2e3e91"/>
    <rect id="Retângulo_794" data-name="Retângulo 794" width="7.878" height="7.878" transform="translate(-11244.131 -12668.282) rotate(135)" fill="#4192d0"/>
    <path id="Caminho_3161" data-name="Caminho 3161" d="M318.786,324.834V313.693l-5.57,5.57Z" transform="translate(-11546.205 -12993.116)" fill="#4192d0"/>
    <rect id="Retângulo_795" data-name="Retângulo 795" width="7.878" height="7.878" transform="translate(-11288.693 -12673.853) rotate(-45)" fill="#4192d0"/>
    <rect id="Retângulo_796" data-name="Retângulo 796" width="7.878" height="7.878" transform="translate(-11288.693 -12701.704) rotate(-45)" fill="#fff"/>
    <rect id="Retângulo_797" data-name="Retângulo 797" width="7.878" height="7.878" transform="translate(-11227.419 -12651.571) rotate(135)" fill="#4192d0"/>
    <rect id="Retângulo_798" data-name="Retângulo 798" width="7.878" height="7.878" transform="translate(-11244.13 -12679.423) rotate(134.999)" fill="#4192d0"/>
    <rect id="Retângulo_799" data-name="Retângulo 799" width="7.878" height="7.878" transform="translate(-11227.419 -12696.134) rotate(135)" fill="#4192d0"/>
    <rect id="Retângulo_800" data-name="Retângulo 800" width="7.878" height="15.755" transform="translate(-11238.56 -12651.571) rotate(135)" fill="#2e3e91"/>
    <rect id="Retângulo_801" data-name="Retângulo 801" width="7.878" height="15.755" transform="translate(-11227.419 -12662.712) rotate(135)" fill="#2e3e91"/>
    <rect id="Retângulo_802" data-name="Retângulo 802" width="7.878" height="15.755" transform="translate(-11249.701 -12684.993) rotate(-135)" fill="#2e3e91"/>
    <rect id="Retângulo_803" data-name="Retângulo 803" width="7.878" height="15.755" transform="translate(-11238.56 -12673.853) rotate(-135)" fill="#2e3e91"/>
    <rect id="Retângulo_804" data-name="Retângulo 804" width="7.878" height="15.755" transform="translate(-11271.982 -12696.134) rotate(-45)" fill="#2e3e91"/>
    <rect id="Retângulo_805" data-name="Retângulo 805" width="7.878" height="15.755" transform="translate(-11283.123 -12684.993) rotate(-45)" fill="#2e3e91"/>
    <path id="Caminho_3162" data-name="Caminho 3162" d="M284.869,347.61H296.01l-5.57-5.57Z" transform="translate(-11545.71 -12993.61)" fill="#4192d0"/>
    <g id="Grupo_4275" data-name="Grupo 4275" transform="translate(-11316.545 -12707.275)">
      <path id="Caminho_3163" data-name="Caminho 3163" d="M290.44,285.347l-5.57,5.57h0l5.57,5.57,5.57-5.57Z" transform="translate(-229.165 -285.347)" fill="#4192d0"/>
      <rect id="Retângulo_806" data-name="Retângulo 806" width="7.878" height="7.878" transform="translate(0 5.57) rotate(-44.999)" fill="#4192d0"/>
    </g>
  </g>
</svg>
