<svg xmlns="http://www.w3.org/2000/svg" width="111.409" height="111.409" viewBox="0 0 111.409 111.409">
  <g id="Grupo_4325" data-name="Grupo 4325" transform="translate(10954.31 12914)">
    <rect id="Retângulo_816" data-name="Retângulo 816" width="111.408" height="111.408" transform="translate(-10954.31 -12914)" fill="none"/>
    <path id="Caminho_3501" data-name="Caminho 3501" d="M699.256,178.189a4.579,4.579,0,0,0-1.3-3.985c-1.5-1.241-2.825-1.73-3.5-1.105s-.361,2.89,1.268,3.876S698.988,178.362,699.256,178.189Z" transform="translate(-11552.848 -12990.66)" fill="#2e3e91"/>
    <path id="Caminho_3502" data-name="Caminho 3502" d="M659.7,184.486a12.026,12.026,0,0,0-1.73-2.575,1.837,1.837,0,0,0-2.514-.726c-.808.457-.651,2.421.7,2.977A6.477,6.477,0,0,0,659.7,184.486Z" transform="translate(-11552.165 -12990.802)" fill="#2e3e91"/>
    <path id="Caminho_3503" data-name="Caminho 3503" d="M671.082,184.588a6.7,6.7,0,0,1-4.8-.505,9.664,9.664,0,0,1-3.205-2.77c-1.24-2.214-.646-3.7.322-4.414s2.992-.28,3.873,2.037a22.344,22.344,0,0,0,1.413,3.038C669.746,183.631,671.038,184.113,671.082,184.588Z" transform="translate(-11552.294 -12990.726)" fill="#2e3e91"/>
    <path id="Caminho_3504" data-name="Caminho 3504" d="M692.7,128.729c.039-.56,5.475-1.634,8.029-5.4a21.043,21.043,0,0,0,3.854-11.176c.16-2.661-.788-9.342-.788-12.564,0-2.693.964-4.36.935-3.427-.161,5.449,1.211,13.585,1.079,16.249a23.083,23.083,0,0,1-4.25,12.3c-1.281,1.771-.347,2.139.359,2.168.981.034,4.229,3.123,2.627,7.054-1.16,2.851-1.876,5.63-.713,7.052.522.639-6.342.913-5.96-6.807a6.947,6.947,0,0,1,1.966-4.824c.562-.6.281-2.9-.179-2.525a62.935,62.935,0,0,1-5.752,2.742C693.629,129.7,692.672,129.092,692.7,128.729Z" transform="translate(-11552.823 -12989.318)" fill="#2e3e91"/>
    <g id="Grupo_4305" data-name="Grupo 4305" transform="translate(-10877.162 -12864.158)">
      <path id="Caminho_3505" data-name="Caminho 3505" d="M687.629,128.987a6.5,6.5,0,1,1-8.693,2.972A6.5,6.5,0,0,1,687.629,128.987Z" transform="translate(-675.41 -125.725)" fill="#4192d0"/>
      <g id="Grupo_4304" data-name="Grupo 4304">
        <path id="Caminho_3506" data-name="Caminho 3506" d="M685.856,127.117c-2.083-.024-2.519-2.041-4.609-1.258-1.126.423-1.529,2.085-2.081,3.211s-2.223-.344-3.447,1.646,1.064,3.563,1.292,4.273c.555,1.716-1.309,1.35-.169,3.9s3.71,1.273,4.5,1.808.494,1.986,2.16,2.552,2.13-1.645,3.292-1.576c.769.048,1.514,1.691,3.371-.082s.752-2.229,1.218-4,2.7-2.361,2.522-4.739c-.1-1.34-2.232-1.845-2.736-2.342s-.308-3.436-1.716-4.327S686.923,127.129,685.856,127.117Zm1.809,2.805c1.67,1.169-.364,2.169-.087,2.675.411.734,2.291-.34,2.559,1.032.464,2.378-2.272,1.593-2.338,1.784-.215.605,1.7,1.638.509,2.819-1.42,1.4-1.959-1.131-2.56-1.009-.493.1.565,2.35-.881,2.555-1.968.27-1.158-2.41-1.543-2.627-.579-.336-2.4,2.225-3.429.3-1.007-1.9,1.815-1.578,1.746-2.22-.074-.7-3.368-.809-2.364-2.911.862-1.8,2.663.339,3.165-.013s-1.595-2.837.447-3.359,1.768,2.63,2.2,2.7C685.687,131.73,686.176,128.883,687.665,129.923Z" transform="translate(-675.359 -125.679)" fill="#2e3e91"/>
        <path id="Caminho_3507" data-name="Caminho 3507" d="M683.989,134.01a1.133,1.133,0,0,0,.662,1.437,1.256,1.256,0,0,0,1.638-.753,1.216,1.216,0,0,0-.591-1.38A1.266,1.266,0,0,0,683.989,134.01Z" transform="translate(-675.508 -125.811)" fill="#2e3e91"/>
      </g>
    </g>
    <g id="Grupo_4307" data-name="Grupo 4307" transform="translate(-10932.836 -12863.902)">
      <path id="Caminho_3508" data-name="Caminho 3508" d="M633.593,133.537a6.5,6.5,0,1,1-8.093-4.348A6.5,6.5,0,0,1,633.593,133.537Z" transform="translate(-618.735 -125.992)" fill="#4192d0"/>
      <g id="Grupo_4306" data-name="Grupo 4306">
        <path id="Caminho_3509" data-name="Caminho 3509" d="M633.719,130.983c-1.4-1.543-.036-3.683-2.033-4.681-1.076-.537-2.749.746-3.95,1.107s-1.261-1.863-3.552-1.407-1.886,3.205-2.252,3.855c-.879,1.574-1.88-.04-2.973,2.531s1.591,3.584,1.733,4.524-1.119,1.714-.4,3.319,2.655.442,3.395,1.34c.488.6-.208,2.26,2.354,2.415s2.145-.967,3.755-1.826,3.57.373,5.189-1.377c.917-.983-.166-2.891-.145-3.6s2.309-2.564,2-4.2S634.437,131.772,633.719,130.983Zm-.824,3.235c.279,2.019-1.838,1.21-2.019,1.756-.259.8,1.807,1.447.984,2.577-1.428,1.957-2.713-.583-2.9-.5-.589.254-.041,2.364-1.719,2.291-1.992-.088-.5-2.2-1-2.564-.407-.294-1.338,2.013-2.471,1.093-1.538-1.259.978-2.488.876-2.918-.147-.652-3.265-.247-2.552-2.31.7-2.028,2.392.256,2.815-.231.464-.532-1.7-3.017.525-3.713,1.908-.6,1.563,2.182,2.163,2.311s.993-3.1,2.766-1.957-.724,3.084-.479,3.447C630.224,134,632.643,132.418,632.895,134.217Z" transform="translate(-618.697 -125.94)" fill="#2e3e91"/>
        <path id="Caminho_3510" data-name="Caminho 3510" d="M627.536,134.248a1.134,1.134,0,0,0-.6,1.464,1.254,1.254,0,0,0,1.665.687,1.216,1.216,0,0,0,.61-1.373A1.266,1.266,0,0,0,627.536,134.248Z" transform="translate(-618.839 -126.083)" fill="#2e3e91"/>
      </g>
    </g>
    <g id="Grupo_4308" data-name="Grupo 4308" transform="translate(-10918.612 -12911.491)">
      <path id="Caminho_3511" data-name="Caminho 3511" d="M633.173,107.009a4.153,4.153,0,0,1,3.192.075c4.215,1.183,8.473,1.922,12.858,1.131a8.5,8.5,0,0,0,4.475-2.026c1.127-1.057,1.141-1.522.074-2.608a8.733,8.733,0,0,0-4.129-2.033c-3.23-.906-8.31-2.65-11.047-4.68a6.309,6.309,0,0,1-2.164-2.66c.863.251,1.481.809,2.167,1.014,10.491,4.175,22.648,5.321,33.688,2.293,1.055-.289,2.116-.566,3.154-.911a1.315,1.315,0,0,0,.889-1.982q-.7-1.738-1.476-3.444c-.088-.193-.371-.3-.571-.436-.174-.121-.456-.189-.52-.349-.361-.9-1.152-1.36-1.794-1.994a2.5,2.5,0,0,0-1.386-.69c-1.075-.253-2.123-.621-3.185-.928a3.021,3.021,0,0,0-.709-.1c-1.481-.063-2.964-.084-4.441-.192a1.53,1.53,0,0,1-1.073-.5c-.477-.759-1.082-.733-1.876-.77a44.276,44.276,0,0,1-5-.643c-1.529-.249-1.678-.512-3.187-.859a1.945,1.945,0,0,1-.975-.782c7.934.4,14.024-1.832,21.576-3.406q4.92-1.024,9.873-1.884c4.494-.776,6.53,1.775,7.016,5.405a49.253,49.253,0,0,1,.127,5.906c0,.337-.035.675-.067,1.216,1.138-1.11,2.109-2.111,3.135-3.048a9.641,9.641,0,0,1,7.142-2.64,42.044,42.044,0,0,0,4.823-.358,2.458,2.458,0,0,1-.365,1.02,4.23,4.23,0,0,0-.867,2.726,14.48,14.48,0,0,1-3.838,8.109c-1.3,1.522-2.731,2.939-4.183,4.488,2.211,2.384,1.751,5.078,1.025,7.936a14.5,14.5,0,0,1-8,9.608c-4.113,2.121-8.365,4-12.334,6.364-4.937,2.938-7.726,6.455-11.906,10.4-.125.118-.575-.2-.231-1.248,1.251-3.805,2.22-4.927,5.1-8.031,1.123-1.21,2.471-2.519,2.7-2.73,1.2-1.126,2.065-2.383,3.244-3.532a9.211,9.211,0,0,0,.763-.993,16.846,16.846,0,0,1,1.7-2.128,1.982,1.982,0,0,0,.73-1.5,4.721,4.721,0,0,1,.523-1.325c.141-.355.256-.718.393-1.075a9.442,9.442,0,0,0,.646-1.71,21.769,21.769,0,0,0,.254-3.077c0-.142-.461-.425-.708-.426-3.069-.006-6.158-.181-9.2.117a49.2,49.2,0,0,0-7.52,1.644,55.412,55.412,0,0,1-16.8,1.467,24.18,24.18,0,0,1-9.592-1.938c-.694-.335-1.362-.723-2.043-1.088Zm44.6,13.439c-.469.293-.926.606-1.407.874a48.838,48.838,0,0,0-8.279,5.422,35.507,35.507,0,0,0-2.987,3.277l.275.257c.359-.269.731-.521,1.073-.81a48.569,48.569,0,0,1,6-4.888,71.4,71.4,0,0,0,11.806-8.562c.251-.232.6-.522.623-.81.118-1.277,1.006-1.863,1.953-2.458a1.123,1.123,0,0,0,.534-.744,2.2,2.2,0,0,1,1.135-2.016c.683-.439,1.383-.852,2.052-1.313a2.105,2.105,0,0,0,1.1-2.244l-2.133,2.317c-.289-1.949,2.162-2.173,1.945-4.11l-2.2,1.965c-.217-1.155.523-1.815,1.1-2.533.5-.615.587-1.1-.372-1.39l-.56,1.178c-1.165-.685.07-1.3-.054-2.033l-3.974-.692c.017-.1.034-.192.051-.287a4.834,4.834,0,0,1,4.71.782c1.614,1.256,2.953,2.9,2.7,4.99a21.357,21.357,0,0,1-1.759,5.173,7.009,7.009,0,0,1-1.229,1.559l-.2-.149,1.743-3.84-.394-.255-2.958,2.41,1.633.143c-1.314,1.171-3.058,1.411-3.733,2.918l1.69.007c-4.43,2.878-5.355,3.6-6,4.989a34.053,34.053,0,0,0,9.444-6.071,12.049,12.049,0,0,0,3.78-7.283,5.4,5.4,0,0,0-2.918-5.832c-.72-.4-1.444-.8-2.167-1.2l.074-.295a6.855,6.855,0,0,1,1.489.157,2.313,2.313,0,0,0,2.367-.513,4.5,4.5,0,0,0,1.618-4.063,2.34,2.34,0,0,0-.549-1.218c-1.273-1.46-1.438-2.514-.527-4.224.321-.6.694-1.179,1.042-1.768l-.238-.219c-1.8,1.563-3.6,3.136-5.417,4.686a13.967,13.967,0,0,1-6.318,3.485,7.553,7.553,0,0,1,1.723-1.477,4.716,4.716,0,0,0,2.415-3.54,18.511,18.511,0,0,0-.23-7.361c-.831-3.388-2.852-4.646-6.3-4-2.393.447-4.774.955-7.158,1.453a10.705,10.705,0,0,0-1.162.381l.122.466c1.552-.349,3.111-.678,4.655-1.057.621-.153,1.2-.352,1.718.4l-1.842.893c1.867.263,3.471-.893,5.1.08l-2.708.917c1.638.886,3.146-.123,4.591.127.017.1.034.2.052.3l-2.694.852-.007.2,3.645.742-2.671,1.273.076.285,2.234.932-1.864,1.13.066.265,1.759.447-1.118,1.949c1.281.848,1.3.936.426,2a15.632,15.632,0,0,1-5.3,4.14,39.454,39.454,0,0,1-12.642,3.336c-2.158.276-4.32.505-6.481.756l.006.127,3.705.362c-.006.156-.011.311-.016.468l-7.5.38c3.449.89,6.93.311,10.4.453-3.727,1.093-7.662,1.527-10.927,3.864,2.924-.488,5.6-2.128,8.708-1.738L654.651,108l.076.326a2.687,2.687,0,0,0,.562,0c2.174-.45,4.395-.753,6.509-1.4,5.034-1.544,10.006-3.288,15.026-4.875a43.292,43.292,0,0,1,5.146-1.212,1.522,1.522,0,0,1,1.906.8l-2.505,1.052.083.263,3.937-.821.079.344c-1.557.687-3.562.661-4.537,2.876.854-.311,1.432-.531,2.015-.731s1.2-.641,1.887,0c-1.272,1.068-3.351.792-4.311,2.789.822-.346,1.357-.6,1.912-.8a15.361,15.361,0,0,1,1.732-.5c.534-.119,1.083-.169,1.624-.251-4.589,2.507-4.589,2.507-4.737,3.478l3.921-1.23.116.31c-1.379,1.055-3.511,1.121-4.344,3.162,2.785-.923,2.785-.923,3.358-.49-1.682.872-3.705,1.244-4.742,3.393.862-.261,1.512-.5,2.183-.649.639-.141,1.3-.188,1.95-.275l.023.31c-1.908,1.138-4.541,1.01-5.826,3.242.655-.17,1.247-.479,1.874-.665s1.308-.616,1.94.142c-2.718,1.543-5.728,2.507-8.1,4.968C675.034,121.21,676.182,120.037,677.774,120.449ZM664.464,85.186l-.033.234c1.214-.07,2.432-.1,3.641-.216,2.175-.205,4.343-.5,6.519-.674a11.721,11.721,0,0,1,2.172.22c-2.374.538-4.851.325-7.185,1.73l7.514-.2.018.365-4.081.736a4.958,4.958,0,0,0,.89.616,5.388,5.388,0,0,0,3.411.236,3.088,3.088,0,0,1,2.962.191l-5.37,1.018c2.027,1.122,4.035-.009,5.908.444l.061.307-4.645,1.043c1.71,1.336,3.639-.037,5.381.618-1.221,1.212-3.308.24-4.379,1.85,1.489.9,2.873-1.272,4.252.082.527-.427,1.068-.825,1.553-1.283a.862.862,0,0,0,.246-.692c-.213-.847-.551-1.681.646-2.475-1.38-.042-1.874-.457-1.582-1.538.069-.254-.211-.587-.278-.894-.142-.653-.251-1.315-.4-2.144-.795-.551-1.514-1.811-3.023-1.643-.124.014-.268-.295-.427-.423a1.072,1.072,0,0,0-.492-.28c-2.381-.22-4.766-.393-7.144-.632a10.808,10.808,0,0,0-4.478.522,39.134,39.134,0,0,1-4.2.959c-.726.148-1.469.218-2.2.324a22.136,22.136,0,0,0,9.358-.175,11.968,11.968,0,0,1,2.513-.115c-.048.358-.112.452-.192.469Q667.926,84.482,664.464,85.186ZM695.3,91.522a13.553,13.553,0,0,1,.818-1.413c.834-1.126,1.677-2.251,2.6-3.305a1.1,1.1,0,0,1,1.08-.126c.355.331.767.944.675,1.323-.116.472-.718.823-1.11,1.226l-1.105-1.083a12.63,12.63,0,0,0-1.767,7.679,15.479,15.479,0,0,0,5.087-7.576,2.117,2.117,0,0,0,.189-1.111c-.079-.244-.554-.359-.859-.534l1.206-1.38c-1.924.442-3.818-.075-5.141,1.547C695.848,88.143,694.786,89.505,695.3,91.522Zm-23.672,13.632.122.4c1.931-.069,3.864-.105,5.792-.216,1.851-.107,2.213-.8,1.366-2.565Zm8.981-10.7-.143-.228c-.88.353-2.031.127-2.666,1l.156.34Z" transform="translate(-633.173 -77.506)" fill="#2e3e91"/>
      <path id="Caminho_3512" data-name="Caminho 3512" d="M678.156,120.47c-1.593-.412-2.74.761-4.363,1.112,2.368-2.46,5.379-3.425,8.1-4.968-.632-.759-1.32-.326-1.94-.142s-1.218.5-1.874.665c1.284-2.232,3.917-2.1,5.826-3.242l-.023-.31c-.651.087-1.312.134-1.95.275-.671.148-1.322.388-2.183.649,1.037-2.149,3.06-2.521,4.742-3.393-.574-.432-.574-.432-3.358.49.833-2.041,2.965-2.107,4.344-3.162l-.116-.31-3.921,1.23c.147-.971.147-.971,4.737-3.478-.541.082-1.091.132-1.624.251a15.361,15.361,0,0,0-1.732.5c-.555.2-1.09.45-1.912.8.96-2,3.038-1.721,4.311-2.789-.687-.641-1.289-.205-1.887,0s-1.161.42-2.015.731c.976-2.215,2.98-2.189,4.537-2.876l-.079-.344-3.937.821-.083-.263,2.505-1.052a1.522,1.522,0,0,0-1.906-.8,43.292,43.292,0,0,0-5.146,1.212c-5.02,1.588-9.993,3.332-15.026,4.875-2.115.649-4.335.952-6.509,1.4a2.687,2.687,0,0,1-.562,0l-.076-.326,9.47-2.976c-3.112-.39-5.784,1.25-8.708,1.738,3.265-2.338,7.2-2.772,10.927-3.864-3.466-.141-6.947.437-10.4-.453l7.5-.38c0-.156.01-.311.016-.468l-3.705-.362-.006-.127c2.161-.251,4.323-.479,6.481-.756a39.454,39.454,0,0,0,12.642-3.336,15.632,15.632,0,0,0,5.3-4.14c.871-1.065.855-1.154-.426-2l1.118-1.949-1.759-.447-.066-.265,1.864-1.13-2.234-.932-.076-.285,2.671-1.273L682,83.87l.007-.2,2.694-.852c-.018-.1-.035-.2-.052-.3-1.445-.25-2.954.76-4.591-.127l2.708-.917c-1.631-.973-3.236.184-5.1-.08L679.5,80.5c-.518-.754-1.1-.555-1.718-.4-1.545.379-3.1.708-4.655,1.057l-.122-.466a10.705,10.705,0,0,1,1.162-.381c2.384-.5,4.765-1.006,7.158-1.453,3.443-.645,5.464.613,6.3,4a18.511,18.511,0,0,1,.23,7.361,4.716,4.716,0,0,1-2.415,3.54,7.553,7.553,0,0,0-1.723,1.477,13.967,13.967,0,0,0,6.318-3.485c1.817-1.55,3.612-3.123,5.417-4.686l.238.219c-.349.589-.721,1.164-1.042,1.768-.912,1.71-.747,2.764.527,4.224a2.34,2.34,0,0,1,.549,1.218,4.5,4.5,0,0,1-1.618,4.063,2.313,2.313,0,0,1-2.367.513,6.855,6.855,0,0,0-1.489-.157l-.074.295c.722.4,1.446.8,2.167,1.2a5.4,5.4,0,0,1,2.918,5.832,12.049,12.049,0,0,1-3.78,7.283,34.053,34.053,0,0,1-9.444,6.071c.649-1.394,1.574-2.112,6-4.989l-1.69-.007c.675-1.507,2.419-1.747,3.733-2.918l-1.633-.143,2.958-2.41.394.255-1.743,3.84.2.149a7.009,7.009,0,0,0,1.229-1.559,21.357,21.357,0,0,0,1.759-5.173c.258-2.093-1.081-3.735-2.7-4.99a4.834,4.834,0,0,0-4.71-.782c-.017.1-.034.191-.051.287l3.974.692c.124.729-1.111,1.348.054,2.033l.56-1.178c.959.294.871.775.372,1.39-.582.718-1.322,1.379-1.1,2.533l2.2-1.965c.216,1.937-2.234,2.161-1.945,4.11l2.133-2.317a2.105,2.105,0,0,1-1.1,2.244c-.668.461-1.369.873-2.052,1.313a2.2,2.2,0,0,0-1.135,2.016,1.123,1.123,0,0,1-.534.744c-.947.6-1.835,1.181-1.953,2.458-.026.288-.371.578-.623.81a71.4,71.4,0,0,1-11.806,8.562,48.569,48.569,0,0,0-6,4.888c-.342.289-.714.54-1.073.81l-.275-.257a35.507,35.507,0,0,1,2.987-3.277,48.838,48.838,0,0,1,8.279-5.422C677.23,121.076,677.687,120.762,678.156,120.47Z" transform="translate(-633.554 -77.527)" fill="#4192d0"/>
      <path id="Caminho_3513" data-name="Caminho 3513" d="M664.935,85.261q3.462-.707,6.923-1.42c.08-.017.143-.111.192-.469a11.968,11.968,0,0,0-2.513.115,22.136,22.136,0,0,1-9.358.175c.735-.106,1.478-.176,2.2-.324a39.134,39.134,0,0,0,4.2-.959,10.808,10.808,0,0,1,4.478-.522c2.378.239,4.763.412,7.144.632a1.072,1.072,0,0,1,.492.28c.159.129.3.437.427.423,1.509-.168,2.228,1.092,3.023,1.643.154.829.262,1.491.4,2.144.067.308.347.641.278.894-.292,1.081.2,1.5,1.582,1.538-1.2.794-.859,1.628-.646,2.475a.862.862,0,0,1-.246.692c-.485.458-1.027.856-1.553,1.283-1.379-1.354-2.763.814-4.252-.082,1.071-1.61,3.158-.639,4.379-1.85-1.742-.655-3.672.718-5.381-.618l4.645-1.043-.061-.307c-1.873-.453-3.881.678-5.908-.444l5.37-1.018a3.088,3.088,0,0,0-2.962-.191,5.388,5.388,0,0,1-3.411-.236,4.958,4.958,0,0,1-.89-.616l4.081-.736-.018-.365-7.514.2c2.334-1.405,4.811-1.192,7.185-1.73a11.721,11.721,0,0,0-2.172-.22c-2.176.175-4.344.469-6.519.674-1.209.115-2.427.146-3.641.216Z" transform="translate(-633.644 -77.581)" fill="#4192d0"/>
      <path id="Caminho_3514" data-name="Caminho 3514" d="M696.4,91.659c-.513-2.017.549-3.379,1.67-4.753,1.323-1.621,3.217-1.1,5.141-1.547L702,86.74c.3.175.78.29.859.534a2.117,2.117,0,0,1-.189,1.111,15.479,15.479,0,0,1-5.087,7.576,12.63,12.63,0,0,1,1.767-7.679l1.105,1.083c.392-.4.994-.755,1.11-1.226.092-.378-.32-.991-.675-1.323a1.1,1.1,0,0,0-1.08.126c-.922,1.054-1.765,2.179-2.6,3.305A13.553,13.553,0,0,0,696.4,91.659Z" transform="translate(-634.273 -77.643)" fill="#fff"/>
      <path id="Caminho_3515" data-name="Caminho 3515" d="M672.309,105.6l7.28-2.377c.847,1.763.485,2.458-1.366,2.565-1.928.111-3.861.147-5.792.216Z" transform="translate(-633.855 -77.954)" fill="#fff"/>
      <path id="Caminho_3516" data-name="Caminho 3516" d="M681.4,94.754l-2.653,1.115-.156-.34c.635-.876,1.785-.65,2.666-1Z" transform="translate(-633.965 -77.803)" fill="#4192d0"/>
    </g>
    <path id="Caminho_3517" data-name="Caminho 3517" d="M611.444,158.005l-.206-5.884.385-.048c.352,2.091.7,4.183,1.1,6.552.685-1.559-.029-2.869.106-4.376,1.257,2.088.926,4.4,1.918,6.421q.043-1.5.086-3c.868.919,1.052,1.883,1.088,5.742,1.143-1.031.665-2.446,1-3.632,1.294.748,1.3,2.258.188,4.553l2.34-2.421.352.248-1.645,2.986c8.1-3.074,13.83-8.639,18.871-15.171l-2.985,4.5.244.208c.49-.6,1-1.174,1.463-1.79s.891-1.3,1.334-1.945l.242.122c-.615,1.262-1.229,2.523-1.954,4.014l4.719-2.169.133.228-4.289,3.035.185.283c4.55-2.2,8.709-5.231,13.686-6.554-9.053,4.311-16.231,11.229-24.038,17.383L631.728,166l.11.358-3.174,1.2.015.206,6.751-.688.029.24-3.02,1.041.1.388,7.654-.781.053.387-4.609.86,0,.214,8.127.062.059.45-5.509,1.085.043.291,11.094-.559c.026.1.053.2.079.3l-5.634,1.4.03.133c1.467-.149,2.942-.251,4.4-.463s2.9-.535,4.355-.809l.092.376-4.18,1.037c4.336.272,8.466-1.184,12.716-1.659l.076.242c-1.229.443-2.44.954-3.692,1.318a48.537,48.537,0,0,1-15.922,1.738,54.7,54.7,0,0,1-6.492-1.019c-.776-.131-1.536-.387-2.314-.463-.841-.082-1.629-.016-2.238-.863-.261-.364-1-.406-1.53-.547-1.133-.3-2.284-.535-3.408-.867a5.625,5.625,0,0,0-3.566-.37c.968,1.537,2.609.46,3.975,1.249l-1.356.07c1.657,1.308,3.823-.047,5.348,1.393l-1.922-.056a1.067,1.067,0,0,0,1.285.858c.651-.07,1.292-.247,1.943-.316.593-.063,1.195-.045,1.793-.063l.021.339-3.253.332a1.623,1.623,0,0,0,1.669.875c.881-.091,1.752-.285,2.634-.371,1.019-.1,2.044-.132,3.067-.194l.066.487-3.6.849c.195.731.89.807,1.555.732,1.077-.119,2.141-.356,3.212-.532a21.258,21.258,0,0,1,6.951-.468,2.469,2.469,0,0,1,1.064.406c-1.11.333-2.213.7-3.333.991-2.38.627-4.746,1.338-7.159,1.8a13.643,13.643,0,0,1-10.21-2.384c-1.628-1.057-3.258-2.113-4.9-3.144a15.531,15.531,0,0,0-1.45-.717l-.249.3,1.643,1.581c-.982.572-1.852,1.152-2.785,1.607a4.835,4.835,0,0,1-4.791-.452c-.823-.483-1.625-1-2.438-1.5a6.419,6.419,0,0,0-5.016-.907l-.1-.276c.792-.384,1.57-.8,2.381-1.144.966-.408,1.98-.706,2.937-1.135a2.783,2.783,0,0,0,1.75-2.038c-1.665-1.057-3.352-2.017-4.916-3.148A8.923,8.923,0,0,1,604,159.294a10.144,10.144,0,0,1,.363-3.863,19.192,19.192,0,0,1,1.687-3.756c-.084,2.188-.775,4.355.294,6.522l.061-3.282.318-.1a10.035,10.035,0,0,1,.7,1.869c.195,1.165.215,2.358.369,3.532a7.043,7.043,0,0,0,.436,1.31l.279-.065-.248-2.432.344-.121q.927,2.2,1.856,4.4l.478-.148-.336-1.644.1-.192a3.955,3.955,0,0,1,.863.871c.34.669.5,1.43.846,2.1a7.078,7.078,0,0,0,.973,1.2l.341-.212-1-2.661c1.682.635.958,2.917,2.979,3.614-.53-1.31-.948-2.386-1.41-3.442-.074-.168-.347-.248-.528-.369-.483-.324-.968-.647-1.449-.973-.629-.425-1.256-.854-1.872-1.273-.569-.756-1.165-1.551-1.765-2.344-.115-.152-.29-.278-.354-.448a19.532,19.532,0,0,1-1.16-3.305,7.313,7.313,0,0,1,.074-3.162,19.9,19.9,0,0,1,1.938-4.328l-.629,8.927.479.05q.366-2.615.73-5.228c.62,2.555.229,5.237,1.3,7.678Z" transform="translate(-11551.275 -12990.202)" fill="#4192d0"/>
    <path id="Caminho_3518" data-name="Caminho 3518" d="M602.887,179.117c.27-.664.662-1.475.931-2.326a3.2,3.2,0,0,1,2.985-2.439,5.352,5.352,0,0,1,3.725,1.013c-1.18-.015-2.36-.037-3.54-.04a5.611,5.611,0,0,0-.975.1c-.511.09-1.086.1-.992.9s.639,1.507,1.326,1.44c.219-.021.5-.336.585-.576a3.454,3.454,0,0,0,.039-1.036c1.44-.147,2.834-.3,4.229-.42a.787.787,0,0,1,.514.219,8.987,8.987,0,0,1,1.117,1.1c1.215,1.549,1.093,2.052-.7,2.778a9.689,9.689,0,0,1-8.192-.5A3.583,3.583,0,0,0,602.887,179.117Z" transform="translate(-11551.257 -12990.686)" fill="#fff"/>
    <path id="Caminho_3519" data-name="Caminho 3519" d="M637.194,160.368q-.848,1.468-1.7,2.937c-.2.34-.411.671-.611,1.009-.8,1.345-.8,1.345-2.425.614l4.444-4.767Z" transform="translate(-11551.772 -12990.438)" fill="#fff"/>
    <path id="Caminho_3520" data-name="Caminho 3520" d="M704.348,174.411a2.944,2.944,0,0,0,.777-2.122c-.109-.873.827-1.09.758-1.6s.244-3.633-.766-4.432-.7-2.47,0-3.378a6.2,6.2,0,0,0,1.061-3.778c-.182-.909-.672-5.595-5.167-5.195s-5.694,3.851-5.513,6.139a12.179,12.179,0,0,0,3.814,7.81,20.568,20.568,0,0,1,4.04,5.3A12.727,12.727,0,0,0,704.348,174.411Z" transform="translate(-11552.872 -12990.329)" fill="#4192d0"/>
    <path id="Caminho_3521" data-name="Caminho 3521" d="M696.246,182.65a2.936,2.936,0,0,1-2.122.777c-.872-.108-1.091.828-1.6.76s-3.633.244-4.432-.766-2.47-.7-3.378,0a6.2,6.2,0,0,1-3.778,1.061c-.909-.182-5.595-.672-5.195-5.168s3.851-5.693,6.139-5.512a12.179,12.179,0,0,1,7.81,3.814,20.567,20.567,0,0,0,5.3,4.04A12.645,12.645,0,0,1,696.246,182.65Z" transform="translate(-11552.527 -12990.677)" fill="#4192d0"/>
    <path id="Caminho_3522" data-name="Caminho 3522" d="M663.809,149.723l.046-.021C663.858,149.724,663.843,149.731,663.809,149.723Z" transform="translate(-11552.319 -12990.257)" fill="#2e3e91"/>
    <path id="Caminho_3523" data-name="Caminho 3523" d="M703.5,178.086c.6.2,2.534-.6,2.962-2.564,0,0,.307-18.56-.227-19.876s-3.236-2.806-4.6-2.933c-1.786-.165-3.888,1.018-3.959.8-.379-1.188-1.907-1.63-3.353-1.356s-2.868,2.477-3.677,3.6-1.708,1-2.085.678.065-1.812-.039-1.942-1.46-.5-2.112,2.112,2.372,3.389,3.78,3.024,2.56-2.949,3.233-3.233c.538-.228-1.393,3.256-1.425,5.591-.033,2.445,2,4.029,1.812,4.644s-.646.525-.245.791a1.869,1.869,0,0,0,2.2-1c.4-1-.233-3.034.563-1.029a35.357,35.357,0,0,0,6.163,8.523C704.085,175.47,702.9,177.886,703.5,178.086Zm-.014-5.877c-1.085-2-5.585-6.495-6.495-8.314s-1.971-5.357.1-7.48,4.321-2.3,6.318-1.111a4.575,4.575,0,0,1,2.428,4.4c-.177,1.592-2.22,3.906-4.26,3.321-1.7-.487-3.178-2.4-2.273-3.909a2.049,2.049,0,0,1,2.746-1.026c.6.449.116.374-.433.727-.954.612-.482,1.642.048,1.617s1.668,0,1.8-1.263c.12-1.106-.358-2.042-1.956-2.326a2.891,2.891,0,0,0-3.411,2.4,5.831,5.831,0,0,0,1.743,5.18,27.165,27.165,0,0,0,3.614,2.1,3.939,3.939,0,0,1,1.744,2.451c.076.934-.127.479-1.011,0s-1.592-.379-1.516-.2,1.112.809,1.415,1.566a5.49,5.49,0,0,1,.16,2.974C703.988,173.675,703.964,173.094,703.483,172.21Z" transform="translate(-11552.712 -12990.298)" fill="#2e3e91"/>
    <path id="Caminho_3524" data-name="Caminho 3524" d="M695.766,180.651a35.341,35.341,0,0,0-8.524-6.163c-2-.8.029-.162,1.03-.563a1.87,1.87,0,0,0,1-2.2c-.266-.4-.176.059-.791.245s-2.2-1.845-4.645-1.812c-2.334.031-5.818,1.963-5.591,1.425.285-.673,2.868-1.825,3.234-3.233s-.418-4.432-3.024-3.78-2.242,2.007-2.113,2.112,1.617-.339,1.943.039.443,1.277-.678,2.085-3.324,2.229-3.6,3.677.168,2.974,1.356,3.353c.222.071-.961,2.172-.8,3.959.127,1.367,1.616,4.068,2.933,4.6s19.876.227,19.876.227c1.963-.428,2.763-2.362,2.563-2.962S697.327,182.25,695.766,180.651Zm-.6,1.764a5.489,5.489,0,0,1-2.974-.16c-.758-.3-1.389-1.339-1.566-1.415s-.278.632.2,1.516.935,1.087,0,1.011a3.939,3.939,0,0,1-2.45-1.744,27.164,27.164,0,0,0-2.1-3.614,5.832,5.832,0,0,0-5.18-1.743,2.893,2.893,0,0,0-2.4,3.411c.285,1.6,1.22,2.076,2.326,1.956,1.263-.137,1.238-1.274,1.263-1.8s-1-1-1.617-.048c-.352.548-.277,1.034-.726.433a2.049,2.049,0,0,1,1.026-2.746c1.512-.9,3.421.573,3.908,2.273.586,2.041-1.728,4.084-3.32,4.26a4.575,4.575,0,0,1-4.4-2.428c-1.188-2-1.011-4.246,1.111-6.318s5.661-1.011,7.48-.1,6.315,5.41,8.314,6.495C694.951,182.129,695.532,182.153,695.17,182.415Z" transform="translate(-11552.496 -12990.515)" fill="#2e3e91"/>
    <path id="Caminho_3525" data-name="Caminho 3525" d="M596.842,83.068a5.141,5.141,0,0,0,1.279-.221,12.657,12.657,0,0,1,1.072,4.9,32.927,32.927,0,0,1-.7,6.4c-.187.9-.374,4.385.983,5.526s3.54.963,3.874.334,1.079-2.257.833-2.941.6.028.82.71-.52,3.991-1.886,4.784-2.514,1.229-3.226.956-.273.055-.026.574a9.971,9.971,0,0,1,.824,3.2,10.36,10.36,0,0,1-2.3,3.99c-1.149,1.121-1.217,1.034-1.554,1.115Z" transform="translate(-11551.151 -12989.091)" fill="#2e3e91"/>
    <path id="Caminho_3526" data-name="Caminho 3526" d="M596.842,105.1v4.72c1.256-.046,1.549-1.335,1.587-2.309A3.548,3.548,0,0,0,596.842,105.1Z" transform="translate(-11551.151 -12989.479)" fill="#4192d0"/>
    <path id="Caminho_3527" data-name="Caminho 3527" d="M609.7,91.485c-.785.091-1.195,1.755-.336,2.352a1.262,1.262,0,0,0,2.016-.6A1.374,1.374,0,0,0,609.7,91.485Z" transform="translate(-11551.361 -12989.241)" fill="#4192d0"/>
    <path id="Caminho_3528" data-name="Caminho 3528" d="M604.956,74.953a5.154,5.154,0,0,1-.22,1.28,12.667,12.667,0,0,0,4.9,1.072,32.854,32.854,0,0,0,6.4-.7c.906-.186,4.385-.373,5.526.984s.964,3.54.334,3.874-2.257,1.079-2.941.833.027.6.711.819,3.99-.519,4.783-1.886,1.23-2.515.957-3.226.054-.273.574-.028a9.96,9.96,0,0,0,3.2.825,10.35,10.35,0,0,0,3.99-2.3c1.121-1.148,1.034-1.217,1.116-1.554Z" transform="translate(-11551.289 -12988.953)" fill="#2e3e91"/>
    <path id="Caminho_3529" data-name="Caminho 3529" d="M626.983,74.953H631.7c-.047,1.256-1.336,1.549-2.31,1.588A3.554,3.554,0,0,1,626.983,74.953Z" transform="translate(-11551.677 -12988.953)" fill="#4192d0"/>
    <path id="Caminho_3530" data-name="Caminho 3530" d="M613.558,88c.091-.786,1.755-1.195,2.352-.336a1.262,1.262,0,0,1-.6,2.016A1.374,1.374,0,0,1,613.558,88Z" transform="translate(-11551.442 -12989.166)" fill="#4192d0"/>
    <path id="Caminho_3531" data-name="Caminho 3531" d="M645.023,86.781c-.1-.411,2.249-3.788-.388-4.559s-2.388,3.4-2.731,3.681-1.874-2.553-3.575-.859.552,2.624.611,3.04c.026.175-.789-.168-1.84-.576-1.391-.54-2.623-1.181-4.492-1.793a5.781,5.781,0,0,0,2.032-1.05c.213-.166.615.241,1.288-.15.52-.3,1.6-1.037,1.285-3.518s.257-2.924.586-3.169.365-.466-.053-.481a3.3,3.3,0,0,0-3.192,1.81c-.9,1.764-1.123,3.528-.547,4.375.234.345-.423,1.07-.787,1.206a3.364,3.364,0,0,1-2.723.332.4.4,0,0,0-.1-.014,16.217,16.217,0,0,0-2.244-.668,11.541,11.541,0,0,0-6.991.756h0c-2.373.911-4.127,2.5-4.348,4.839a5.182,5.182,0,0,0,1.931,4.15c-1.082-.147-2.173-.444-3.263-.543.1,1.091.4,2.182.543,3.264a5.178,5.178,0,0,0-4.151-1.931c-2.341.221-3.928,1.975-4.839,4.347h0a11.54,11.54,0,0,0-.757,6.991,16.318,16.318,0,0,0,.669,2.245.355.355,0,0,0,.013.1,3.366,3.366,0,0,1-.331,2.722c-.137.366-.862,1.022-1.207.787-.846-.575-2.611-.351-4.375.548a3.3,3.3,0,0,0-1.81,3.191c.016.419.237.382.481.054s.689-.9,3.17-.587,3.216-.764,3.518-1.284c.39-.673-.017-1.075.149-1.289a5.755,5.755,0,0,0,1.05-2.031c.441,1.884,1.118,5.077.89,6.552a7.852,7.852,0,0,1-1.558,4.074c-.614.128-1.234-2.74-3.228-1.4s.492,3.391.145,3.674-4.874-.362-4.631,2.379,4.5.67,4.884.851-1.8,4.475,1.312,4.442,1.752-3.657,2.076-3.893,2.456,2.117,3.508.643c1.252-1.751-.775-2.634-.751-3.031s2.1-1.75.8-3.145-3.225.437-3.407-.074a31.569,31.569,0,0,0,1.494-4.526,19.255,19.255,0,0,0-.883-7.258,31.307,31.307,0,0,1-1.09-3.674,11.236,11.236,0,0,1,.169-4.716,8.632,8.632,0,0,0,.635,3,12.543,12.543,0,0,0,2.051,3.017,1.009,1.009,0,0,1,.01.966,1.956,1.956,0,0,0-.08,2.233c.625,1.052,3.182,1.565,2.922,2.83-.148.72.836-.326,1.064-.833.512-1.142-1.257-3.615-1.2-3.7s3.556,1.532,4.857-.308c.558-.792.818-1.349.368-.988-.738.594-2.833-.951-4.117-1.329a2.425,2.425,0,0,0-2.051.2c-.34.075-.98.417-1.252.278a5.977,5.977,0,0,1-2.04-3.265,14.231,14.231,0,0,1-.41-3.2c.355-1.975,1.992-4.069,2.825-4.192,2.049-.3,1.814,1.617,3.6,2.384a5.162,5.162,0,0,0,1.463.37,4.623,4.623,0,0,1-1.2,2.214,4.326,4.326,0,0,0,2.539.026c.684-.366.79-.926,1.458-1.838a67.757,67.757,0,0,1,3.845,5.775,24.446,24.446,0,0,1,2.428,6.04c.09.493-.43.64-.872.99s-1.632.335-2.268,2.4-.242,6.448-1.868,6.732c-.988.175.124.46,1.884.623,4.092.376,4.926-5.881,5.112-5.861s2.329,5.013,4.587,5.624c1,.271,3.566.173,2.308-.436-2.209-1.069-.562-4.9-1.6-6.866a4.33,4.33,0,0,0-3.536-2.372,2.255,2.255,0,0,1-1.489-1.084c-.139-.262-.525-.2-1.594-2.866a33.808,33.808,0,0,0-3.855-6.662.468.468,0,0,0-.049-.06,30.885,30.885,0,0,0-3.276-4.8c2.4,2.444,8.314,6.393,12.254,6.966,4.8.7,9.087-.255,8.912-.4-5.949-4.934-9.047-2.2-12.164-2.672a13,13,0,0,1-6.565-3.388c.913-.668,1.859-1.04,2.225-1.723a4.318,4.318,0,0,0-.026-2.539,4.619,4.619,0,0,1-2.214,1.2,5.146,5.146,0,0,0-.37-1.462c-.767-1.785-2.682-1.55-2.384-3.6.122-.834,2.217-2.47,4.191-2.826a14.241,14.241,0,0,1,3.2.41,5.991,5.991,0,0,1,3.265,2.041c.138.271-.2.911-.279,1.252a2.429,2.429,0,0,0-.2,2.051c.378,1.284,1.925,3.379,1.329,4.117-.36.45.2.189.988-.369,1.839-1.3.224-4.8.309-4.857s2.555,1.71,3.7,1.2c.508-.228,1.554-1.212.833-1.065-1.265.26-1.776-2.3-2.83-2.921a1.952,1.952,0,0,0-2.232.08,1.011,1.011,0,0,1-.967-.01,12.466,12.466,0,0,0-3.017-2.052,8.647,8.647,0,0,0-3-.634,11.238,11.238,0,0,1,4.717-.17,31.613,31.613,0,0,1,3.674,1.09c2.246.73,3.7,1.546,5.25,2.145,1.113.431,2.068.658,2.227.755.466.278-1.707,1.808-.591,3.356s2.849-.231,3.241-.176.865,2.213,2.827,1.326c1.652-.744-.241-3.3.053-3.566s3.58,1.771,4.223-1.277S645.123,87.191,645.023,86.781Zm-39.187,39.174a1.184,1.184,0,0,1-.878-1.246,1.148,1.148,0,0,1,1.121-1.113,1.188,1.188,0,0,1,1.287,1.1A1.286,1.286,0,0,1,605.836,125.954ZM642.278,89.56a1.188,1.188,0,0,1-.83-1.478,1.149,1.149,0,0,1,1.311-.882c.543.145,1.025.428,1.05,1.1A1.286,1.286,0,0,1,642.278,89.56Z" transform="translate(-11551.192 -12988.995)" fill="#2e3e91"/>
    <path id="Caminho_3532" data-name="Caminho 3532" d="M610.547,85.784c1.285-.076,6.121-2.059,6.027-4.931-.03-.925.123-1.346-1.342-.88s-7.178-.669-10.1-1.993c-.145-.066-1.154,1.666-2.359,2.841l-.033.03c-.011.012-.02.024-.031.034-1.173,1.2-2.906,2.213-2.84,2.359,1.323,2.921,2.457,8.634,1.992,10.1s-.044,1.312.88,1.342c2.872.094,4.857-4.743,4.931-6.027.038-.637.629.636,3.326.843a.492.492,0,0,0,.312-.08h0a.492.492,0,0,0,.08-.312C611.184,86.413,609.911,85.822,610.547,85.784Z" transform="translate(-11551.204 -12989.006)" fill="#2e3e91"/>
    <path id="Caminho_3533" data-name="Caminho 3533" d="M602.345,74.953a13.3,13.3,0,0,1-.731,2.352,7.1,7.1,0,0,1-2.421,2.42,13.184,13.184,0,0,1-2.351.731V81.6a7.8,7.8,0,0,0,6.642-6.642Z" transform="translate(-11551.151 -12988.953)" fill="#2e3e91"/>
    <path id="Caminho_3534" data-name="Caminho 3534" d="M596.842,74.953V79.7a7.4,7.4,0,0,0,3.181-1.567,7.4,7.4,0,0,0,1.567-3.181Z" transform="translate(-11551.151 -12988.953)" fill="#4192d0"/>
    <path id="Caminho_3535" data-name="Caminho 3535" d="M708.235,182.438s.067.945-.608-.3c-.65-1.2-2.988-1.567-4.3-.7-.87,1.314-.506,3.651.7,4.3,1.249.675.3.607.3.607s-4.556-.8-4.556,1.811h10.276V177.882C707.435,177.882,708.235,182.438,708.235,182.438Z" transform="translate(-11552.946 -12990.748)" fill="#2e3e91"/>
    <path id="Caminho_3536" data-name="Caminho 3536" d="M626.846,115.862s.867,6.022.865,7.872.14,1.558.14,1.558a3.643,3.643,0,0,1,.883.092c.328.1.258-.658-.128-4.318s-.6-5.789-.6-5.789Z" transform="translate(-11551.675 -12989.656)" fill="#2e3e91"/>
    <path id="Caminho_3537" data-name="Caminho 3537" d="M651.724,124.882a5.152,5.152,0,0,0-2.492,4.333c.1,1.377.857,4.852,5.149,4.733s5.163-2.629,5.406-3.944a5.724,5.724,0,0,0-2.042-5.018A6.314,6.314,0,0,0,651.724,124.882Z" transform="translate(-11552.064 -12989.812)" fill="#2e3e91"/>
    <path id="Caminho_3538" data-name="Caminho 3538" d="M667.237,167.468a12.865,12.865,0,0,0-6.133,1.451c-2.946,1.246-6.008.767-9.029.911-.5.024-1.021-.509-1.553-.734a2.2,2.2,0,0,0-.867-.149c-1.017.02-2.036.045-3.049.127-.542.043-.935.06-1.088-.622a1.159,1.159,0,0,0-1.378-.967c-.741.063-1.492.013-2.193.013-1.029-2.3-2.9-1.034-4.287-1.382l-2.357-1.408c.424-.82.94-1.733,1.381-2.68a18.8,18.8,0,0,1,6.867-7.835,58.536,58.536,0,0,1,17.7-7.476c2.28-.6,4.6-1.07,7.155-1.66a37.712,37.712,0,0,0-12.824,1.557c-3.556,1.031-7.016,2.389-10.523,3.588a10.614,10.614,0,0,1-4.706.867c-1.072-.124-1.677-.68-1.661-1.7A12.214,12.214,0,0,1,639.1,146c.473-1.531,1.257-2.963,1.819-4.471a31.217,31.217,0,0,0,1.939-7.628,25.277,25.277,0,0,0,.469-2.987,10.746,10.746,0,0,1,4.3-8.073,9.163,9.163,0,0,1,8.491-1.528,9.551,9.551,0,0,1,4.673,2.918c1.279,1.31,1.406,1.2,2.026,1.138,1.05-.1,2.926-2.165,3.537-3.166s.334-3.561-1.334-3.839-2.838-1.2-3.45.539-1.467,2.334-2.377,1.542c-.725-.63,1.969-3.284,1.607-4.57-.346-1.229-2.839-2.033-4.286-2.089s-2.287,1.24-2.176,3.131-.111,2.135-1.057,1.986-1.686-.539-1.4-2.654-1.049-2.559-2.44-2.448-4.284,1.112-4.4,2.393,2.234,3.337,1.729,3.967c-.878,1.1-1.229,2.042-1.563,1.486s-1.115-2.841-2.186-2.809c-.67.02-2.713,1.9-2.713,2.956s1.168,1.52,2.019,2.4c.367.381.952,1.385.6,1.957-.569.925-1.263-.678-2.037-.2-.424.263-.239,1.526.026,2.321.294.881,1.441.628,1.218,1.693-2.7,12.91-10.044,23.428-20.65,31.19a11.829,11.829,0,0,1-2-1.328c-.256-.666-.5-1.3-1.271-1.578-.282-.1-.488-.427-.715-.664-.783-.821-1.564-1.645-2.335-2.477a2.564,2.564,0,0,1-.213-.422q-.707-1.15-1.426-2.293a14.573,14.573,0,0,1-.867-1.37c-.322-.669-.566-1.377-.836-2.071a4.07,4.07,0,0,1-.264-.8,8.039,8.039,0,0,0-.294-2.006,3.57,3.57,0,0,1,.054-2.916c.856-2.374,1.67-4.767,2.372-7.191a16.57,16.57,0,0,0,.313-3.057l-.429-.2a6.129,6.129,0,0,0-.946,1.168c-.795,1.692-1.463,3.445-2.286,5.123-2.345,4.783-4.751,9.536-7.116,14.309a8.5,8.5,0,0,0-1.189,4.815,10.457,10.457,0,0,0,5.92,8.413c1.153.6,2.321,1.166,3.481,1.748-.014.114-.026.229-.04.343a35.612,35.612,0,0,1-3.371,1.217,6.619,6.619,0,0,0-5.282,6.015,2.785,2.785,0,0,1-1.13,1.873,13.2,13.2,0,0,0-1.184,1.227c.061.083.121.165.181.249.751-.077,1.5-.188,2.254-.214a1.643,1.643,0,0,1,.985.251,6.269,6.269,0,0,0,5.226,1.136,21.553,21.553,0,0,0,3.8-1.008,57.776,57.776,0,0,1,9.979-2.659,3.519,3.519,0,0,1,2.976.57,12.619,12.619,0,0,0,6.356,2.48,23.846,23.846,0,0,0,8.564-1.148q9.343-2.973,18.656-6.037c3.585-1.182,3.922-1.383,7.483-2.637a4.956,4.956,0,0,0,2.427-2.651A16.328,16.328,0,0,0,667.237,167.468Zm-32.3-4.972c-.2.34-.411.671-.611,1.009-.8,1.345-.8,1.345-2.425.614l4.444-4.767.288.207Q635.788,161.027,634.94,162.5Zm-22.85,16.285a9.689,9.689,0,0,1-8.192-.5,3.583,3.583,0,0,0-1.053-.216c.27-.664.662-1.475.931-2.326a3.2,3.2,0,0,1,2.985-2.439,5.352,5.352,0,0,1,3.725,1.013c-1.18-.015-2.36-.037-3.54-.04a5.611,5.611,0,0,0-.975.1c-.511.09-1.086.1-.992.9s.639,1.507,1.326,1.44c.219-.021.5-.336.585-.576a3.454,3.454,0,0,0,.039-1.036c1.44-.147,2.834-.3,4.229-.42a.787.787,0,0,1,.514.219,8.987,8.987,0,0,1,1.117,1.1C614,177.552,613.881,178.055,612.089,178.781Zm45.536-6.719A48.535,48.535,0,0,1,641.7,173.8a54.683,54.683,0,0,1-6.493-1.019c-.776-.131-1.536-.387-2.314-.463-.841-.082-1.629-.016-2.238-.863-.261-.364-1-.406-1.53-.547-1.133-.3-2.284-.535-3.408-.867a5.625,5.625,0,0,0-3.566-.37c.968,1.537,2.609.46,3.975,1.249l-1.356.071c1.657,1.307,3.823-.048,5.348,1.392l-1.922-.056a1.067,1.067,0,0,0,1.285.858c.651-.07,1.292-.247,1.943-.316.593-.063,1.195-.045,1.793-.063l.021.339-3.253.332a1.623,1.623,0,0,0,1.669.875c.881-.091,1.752-.285,2.634-.371,1.019-.1,2.044-.132,3.067-.194.022.163.044.325.066.487l-3.6.849c.195.731.89.807,1.555.732,1.077-.119,2.141-.356,3.212-.532a21.258,21.258,0,0,1,6.951-.468,2.469,2.469,0,0,1,1.064.406c-1.11.333-2.213.7-3.333.991-2.38.627-4.746,1.338-7.159,1.8a13.643,13.643,0,0,1-10.21-2.384c-1.628-1.057-3.258-2.113-4.9-3.144a15.531,15.531,0,0,0-1.45-.717l-.249.3,1.643,1.581c-.982.572-1.852,1.152-2.785,1.607a4.835,4.835,0,0,1-4.791-.452c-.823-.483-1.625-1-2.438-1.5a6.419,6.419,0,0,0-5.016-.907l-.1-.276c.792-.384,1.57-.8,2.381-1.144.966-.409,1.98-.706,2.937-1.135a2.783,2.783,0,0,0,1.75-2.038c-1.665-1.057-3.352-2.017-4.916-3.148a8.923,8.923,0,0,1-4.035-5.967,10.144,10.144,0,0,1,.363-3.863,19.192,19.192,0,0,1,1.687-3.756c-.083,2.188-.774,4.355.294,6.522q.031-1.64.061-3.282l.318-.1a10.052,10.052,0,0,1,.7,1.868c.195,1.166.215,2.359.369,3.533a7.043,7.043,0,0,0,.436,1.31l.279-.065-.248-2.432.344-.121q.927,2.2,1.856,4.4l.478-.148-.336-1.644.1-.192a3.955,3.955,0,0,1,.863.871c.34.669.5,1.43.846,2.1a7.078,7.078,0,0,0,.973,1.2l.341-.212-1-2.661c1.682.635.958,2.917,2.979,3.614-.53-1.31-.948-2.386-1.41-3.442-.074-.168-.347-.248-.528-.369-.483-.324-.968-.647-1.449-.973-.629-.426-1.256-.854-1.872-1.273-.569-.756-1.165-1.551-1.765-2.344-.115-.152-.29-.278-.354-.448a19.532,19.532,0,0,1-1.16-3.305,7.313,7.313,0,0,1,.074-3.162,19.9,19.9,0,0,1,1.938-4.328q-.314,4.464-.629,8.927l.479.05q.366-2.615.73-5.228c.62,2.555.229,5.237,1.3,7.678h.386l-.206-5.884.385-.048c.352,2.091.7,4.183,1.1,6.552.685-1.559-.029-2.869.106-4.376,1.257,2.088.926,4.4,1.918,6.421q.043-1.5.086-3c.868.919,1.052,1.883,1.088,5.742,1.143-1.031.665-2.446,1-3.632,1.294.748,1.3,2.258.188,4.553l2.34-2.421.352.248-1.645,2.986c8.1-3.074,13.83-8.639,18.871-15.171l-2.985,4.5.244.208c.49-.6,1-1.174,1.463-1.79s.891-1.3,1.334-1.945l.242.122c-.615,1.262-1.229,2.523-1.954,4.014l4.719-2.169.133.228-4.289,3.035.185.283c4.55-2.2,8.709-5.231,13.686-6.554-9.053,4.311-16.23,11.229-24.038,17.383l5.957-1.294.11.358-3.174,1.2.015.206,6.751-.688.029.24-3.02,1.041.1.388,7.654-.781.053.387-4.609.86,0,.214,8.127.062.059.45-5.509,1.085.043.291,11.094-.559c.026.1.053.2.079.3l-5.634,1.4.03.133c1.467-.149,2.942-.251,4.4-.463s2.9-.535,4.355-.809l.092.376-4.18,1.037c4.336.272,8.466-1.184,12.716-1.659l.076.242C660.088,171.188,658.878,171.7,657.625,172.063Z" transform="translate(-11551.214 -12989.63)" fill="#2e3e91"/>
    <path id="Caminho_3539" data-name="Caminho 3539" d="M663.527,132.692c-2.512,2.778-4.83,4.1-7.5,4.414a13.084,13.084,0,0,1-8.019-1.647c-1.94-1.136-2.183-1.315-2.732-1.244-.219.028-.442,1.209-.319,1.289.46.3,1.311.239,1.622.7s.045,1.013-.328,1.51-.234,1.811.45,1.874,2.074.623,2.129-1.352c.043-1.555,2.038-.512,1.851-.2s-1.492,1.7-.994,2.406,2.352,1.7,2.979,1.512a3.209,3.209,0,0,0,1.427-2.365c.07-.87,1.686-.87,1.623-.559a12.693,12.693,0,0,0-.559,2.344c0,.7,2.881,1.1,3.441.58s.413-1.8.164-2.552,1.344-2.155,1.679-1.3c.6,1.528,1.126,2.522,2.486,1.8,1.9-1.005.863-2.175.556-3.232s.82-1.7,1.342-2.222,1.21-1.67.65-2.211S664.785,131.3,663.527,132.692Z" transform="translate(-11551.99 -12989.943)" fill="#2e3e91"/>
    <path id="Caminho_3540" data-name="Caminho 3540" d="M651.25,129.393a3.606,3.606,0,0,0,1.979,2.673c.871.355,3.2.977,4.287-1.433s-.214-3.641-.953-4.169a4.122,4.122,0,0,0-3.623-.37A3.561,3.561,0,0,0,651.25,129.393Z" transform="translate(-11552.1 -12989.84)" fill="#4192d0"/>
    <path id="Caminho_3541" data-name="Caminho 3541" d="M687.35,163.65c-.866-.88-2.475-1.843-3.859-2.942-1.891-1.5-3.545-2.889-4.606-3.623-2.961-2.051-8.742-3.269-14.71.9-.158.11-.571.644-.939.318s-.618-2.272,2.977-3.38.144-.692.3-1.3,2.918-1.11,4.965-.877c.545.062,1.5.144,1.94.191,2.233.235,3,.172,4.558-.7,1.812-1.009,3.549-3.007,2.839-4.781a2.172,2.172,0,0,0-3.548-.728,1.806,1.806,0,0,0,1.09,3.045c.149.035.086.389-.035.6A3.478,3.478,0,0,1,675.5,152.2a20.7,20.7,0,0,1-5.2-.672,14.248,14.248,0,0,0-6.945-.04c-4.266,1.287-7.328,3.546-8.168,8.419-.073.423-.23.615-.643.27a18.41,18.41,0,0,1-1.156-2.6c-.51-.014-.607,2.38-.58,2.751.1,1.378,2.409,2.346,3.383,2.914,0-.04-.009-.081-.013-.116-.288-2.335.942-5.567,1.667-5.8,2.11-.678.681,3.982.656,5.269-.028,1.452.471,2.346,2.327,1.786,1.448-.437,5.9,1.18,6.025-.222.115-1.333-.279-1.924-1.7-2.327s1.85-4.123,1.892-3.478c.128,2.044,1.916-1.138,3.58-1.521a10.363,10.363,0,0,1,7.46.848c1.961,1.093,3.09,3.328,3.826,4.232a30.23,30.23,0,0,0,3.181,4.143c1.817,1.7,3.968,2.328,4.351,1.917C689.783,167.619,688.7,165.026,687.35,163.65Z" transform="translate(-11552.127 -12990.193)" fill="#2e3e91"/>
    <path id="Caminho_3542" data-name="Caminho 3542" d="M603.762,88.339c-.1,1.5-.138,2.587-.227,2.939s1.912-1.782,2.122-4.206.491-2.424.7-2.634a18.153,18.153,0,0,1,3.334-.527,4.878,4.878,0,0,0,3.088-1.65c.315-.385-.532-.142-2.257-.283a21.281,21.281,0,0,1-5.38-1.225c-.286-.187-1.559,1.123-2.574,2.281C602.462,83.155,603.872,86.764,603.762,88.339Z" transform="translate(-11551.251 -12989.054)" fill="#4192d0"/>
  </g>
</svg>
