<svg xmlns="http://www.w3.org/2000/svg" width="111.408" height="111.408" viewBox="0 0 111.408 111.408">
  <g id="Grupo_4323" data-name="Grupo 4323" transform="translate(11082.483 12757.409)">
    <g id="Grupo_4240" data-name="Grupo 4240" transform="translate(-11026.779 -12701.705)">
      <rect id="Retângulo_729" data-name="Retângulo 729" width="55.704" height="55.704" fill="none"/>
      <path id="Caminho_2776" data-name="Caminho 2776" d="M545.238,291.772H524.263l-.294.152-.016-.017-.112.286v20.975s.121.4.312.313a34.277,34.277,0,0,1,2.924-4.368c1.846-2.142,5.181-3.006,6.85-3.319s4.713,1.131,4.9.984c.146-.182-1.273-3.248-.96-4.918s1.176-5,3.318-6.85a34.187,34.187,0,0,1,4.368-2.924C545.638,291.894,545.238,291.772,545.238,291.772ZM530.5,305.7c-.844.665-4.337,2.833-4.955,3.519s-.4,1.776-.514,1.647a2.258,2.258,0,0,1-.119-3.037,13.983,13.983,0,0,1,2.16-1.851s-.412-.241-1.115-.738a4.737,4.737,0,0,1-1.492-2.659c-.223-1.012.514-2.641,1.775-2.7a1.432,1.432,0,0,1,1.3,2.169c-.533.874-1.424-.085-1.424-.085s-.206,0,.171.583a3.328,3.328,0,0,0,2.548.951c1.022.008,1.584-.589,2.135-1.517a4.69,4.69,0,0,0,.463-3.207,5.091,5.091,0,0,0-1.938-3.585c-.827-.679-1.955-.892-2.528-.319-.554.554-.765,1.623.95,3.2s2.915,1.44,2.915,1.44l-.2,1.812s-.555.259-2.58-1.091a6.823,6.823,0,0,1-3.122-3.74c-.337-1.27-.446-2.642.285-3.372.967-.968,2.889-.8,4.25.114,1.459.975,2.978,2.5,3.527,6.483A6.941,6.941,0,0,1,530.5,305.7Zm10.734-12.171c-.686.618-2.853,4.111-3.519,4.955a7.369,7.369,0,0,1-4.123,2.442,12.958,12.958,0,0,0,.1-1.817c.1-.049.2-.1.306-.159.929-.551,1.525-1.113,1.517-2.135a3.328,3.328,0,0,0-.951-2.548c-.583-.377-.583-.171-.583-.171s.96.891.086,1.424a1.473,1.473,0,0,1-1.554-.05,8.279,8.279,0,0,0-.611-1.113,1.2,1.2,0,0,1,0-.133c.059-1.261,1.688-2,2.7-1.775a4.737,4.737,0,0,1,2.659,1.492c.5.7.738,1.115.738,1.115a13.985,13.985,0,0,1,1.851-2.16,2.258,2.258,0,0,1,3.037.119C543.006,293.123,541.917,292.909,541.23,293.526Z" transform="translate(-523.099 -291.029)" fill="#2e3e91"/>
      <circle id="Elipse_81" data-name="Elipse 81" cx="1.812" cy="1.812" r="1.812" transform="translate(10.625 10.601)" fill="#4192d0"/>
      <circle id="Elipse_82" data-name="Elipse 82" cx="1.352" cy="1.352" r="1.352" transform="translate(41.257 41.233)" fill="#2e3e91"/>
      <path id="Caminho_2777" data-name="Caminho 2777" d="M543.043,312.164a.866.866,0,1,0,.074-1.14A.81.81,0,0,0,543.043,312.164Z" transform="translate(-523.43 -291.36)" fill="#2e3e91"/>
      <path id="Caminho_2778" data-name="Caminho 2778" d="M568.162,336.069a2.484,2.484,0,1,1,0-3.513A2.485,2.485,0,0,1,568.162,336.069Zm-3.183-3.183a2.018,2.018,0,1,0,2.855,0A2.02,2.02,0,0,0,564.978,332.886Z" transform="translate(-523.798 -291.728)" fill="#2e3e91"/>
      <path id="Caminho_2779" data-name="Caminho 2779" d="M548.715,310.5c-.1.086.24.257.205.635s-.562.5-1.116.149c-.618-.392-1.23-.889-2.17-.344a2.567,2.567,0,0,1-2.645,2.645c-.545.94-.048,1.552.344,2.17.352.554.228,1.083-.149,1.116s-.549-.309-.635-.205a1.353,1.353,0,0,0,.892,1.612,1.457,1.457,0,0,0,1.972-.823,2.134,2.134,0,0,0-.085-1.887c-.264-.264.5-.326.549-.189a3.769,3.769,0,0,0,.729,1.432c.42.369,2.281.275,2.509.254.022-.227.116-2.088-.253-2.508a3.768,3.768,0,0,0-1.432-.729c-.138-.051-.077-.814.189-.549a2.137,2.137,0,0,0,1.886.086,1.459,1.459,0,0,0,.823-1.973A1.353,1.353,0,0,0,548.715,310.5Z" transform="translate(-523.424 -291.355)" fill="#2e3e91"/>
      <path id="Caminho_2780" data-name="Caminho 2780" d="M546.68,323.714c-.092.022-.31.065-.258.013a1.848,1.848,0,0,0-.614-2.518c-2.353-1.02-2.567,1.71-2.567,1.71s-1.432-1.72-2.742-.4c-1.291,1.3-.629,2.179-.177,2.577a.108.108,0,0,1-.068.189c-.5.026-1.488.468-1.156,1.955.506,2.268,2.194,1.588,2.194,1.588a1.794,1.794,0,0,0,1.343,2.211,1.844,1.844,0,0,0,2.252-1.282.143.143,0,0,1,.228-.056c.381.329,1.24,1.444,2.471.224a1.709,1.709,0,0,0-.056-2.541.14.14,0,0,1,.07-.23,1.666,1.666,0,0,0,1.43-1.762A1.713,1.713,0,0,0,546.68,323.714Zm-1.671,3.237a1.287,1.287,0,1,1,0-1.821A1.287,1.287,0,0,1,545.009,326.95Z" transform="translate(-523.364 -291.539)" fill="#4192d0"/>
      <path id="Caminho_2781" data-name="Caminho 2781" d="M546.876,325.194a3.5,3.5,0,0,0-1.006.2,1.859,1.859,0,0,0-.417-.639,1.829,1.829,0,0,0-.465-.329,3.966,3.966,0,0,1,.159-.8.291.291,0,0,0-.547-.2,4.213,4.213,0,0,0-.174.811,1.861,1.861,0,0,0-1.517.436c-.37-.38-.565-.63-.567-.632a.291.291,0,0,0-.462.355,8.489,8.489,0,0,0,.639.711s.01.006.015.01a1.868,1.868,0,0,0-.245,1.241,3.41,3.41,0,0,1-1.129.353.291.291,0,1,0,.03.582,3.874,3.874,0,0,0,1.279-.377,1.846,1.846,0,0,0,.34.484,1.867,1.867,0,0,0,.57.385c-.025.144-.068.422-.1.831a.291.291,0,0,0,.265.314.288.288,0,0,0,.231-.085.284.284,0,0,0,.084-.181c.03-.35.066-.594.089-.737a1.86,1.86,0,0,0,1.148-.254,3.293,3.293,0,0,1,.693.759.29.29,0,0,0,.4.11.3.3,0,0,0,.063-.047.292.292,0,0,0,.047-.349,3.656,3.656,0,0,0-.751-.857,1.856,1.856,0,0,0,.447-1.324,3.01,3.01,0,0,1,.872-.191.291.291,0,1,0,.014-.583Zm-1.834,1.8a1.287,1.287,0,1,1-.518-2.13.286.286,0,0,0,.134.049,1.273,1.273,0,0,1,.384.26A1.289,1.289,0,0,1,545.041,326.989Z" transform="translate(-523.396 -291.578)" fill="#2e3e91"/>
      <path id="Caminho_2782" data-name="Caminho 2782" d="M577.128,331.108c-.959-.434-1.389-.553-1.121-.687.585-.291,1.866-1.081,1.866-1.081v-8.27a36.268,36.268,0,0,0-.8-8.215c-1-4.766-4.253-9.584-4.275-9.906s.558.516,1.483.8,1.934-.258,1.826-.452-.546-.054-.771-1.158a2.578,2.578,0,0,0-2.623-2.494c-1.591-.109-2.127-.753-2.288-1.214s-.547-.677,1.974-.175a4.653,4.653,0,0,0,4.2-.824c.387-.344,1.569-3.029,1.222-3.892s-2.059-1.028-3-.808a9.187,9.187,0,0,0-3.159,1.74,4.157,4.157,0,0,1-2.2.768c.172-.172,2.621-1.246,2.471-2.471s-1.827-.967-1.912-.795-.258,1.676-3.266,1.633-5.651-1.1-11.485-1.645-9.808,1.107-13.289,4.589a8.274,8.274,0,0,0-.949,10.524,5.143,5.143,0,0,0,.723.743c-.256.3-.521.59-.8.874l-.222.222q-.411.4-.84.769a5.147,5.147,0,0,0-.743-.723,8.272,8.272,0,0,0-10.524.949c-3.481,3.48-5.137,7.455-4.589,13.288s1.6,8.478,1.645,11.486-1.461,3.18-1.633,3.266-.429,1.762.795,1.912,2.3-2.3,2.471-2.471a4.153,4.153,0,0,1-.768,2.2,9.2,9.2,0,0,0-1.74,3.16c-.22.939-.055,2.652.808,3s3.549-.834,3.892-1.221a4.654,4.654,0,0,0,.824-4.2c-.5-2.522-.287-2.136.175-1.974s1.105.7,1.214,2.288a2.579,2.579,0,0,0,2.495,2.623c1.1.225.965.664,1.158.771s.731-.9.452-1.827-1.118-1.5-.795-1.483,5.139,3.279,9.905,4.276a36.268,36.268,0,0,0,8.215.8h8.27s.79-1.281,1.081-1.866c.134-.268.253.162.687,1.121.312.689,1.593.889,1.819.839-.275-.032-1.54-2.1-1.042-3.264a17.21,17.21,0,0,0-.4-2.641s-.973-1.337-1.885-.029c-.615.881.456,1.542.456,1.542s-.794.85-5.412,2.387a15.88,15.88,0,0,1-8.252.237c-1.422-.232-1.483-.433-1.493-.483a24.294,24.294,0,0,0,3.482-.145,19.573,19.573,0,0,1,3.685-.532,4.57,4.57,0,0,1,1.771.344,1.078,1.078,0,0,0,.468-1.265c-.239-.716-1.185-1.8-1.752-1.832s.9-.08,1.383-.109a9.008,9.008,0,0,0,3.265-1.693c.826-.766,1.653-1.872,2.2-2.06s-1.115-1.552-2.051-1.552-.189-.1.166-.235a19.45,19.45,0,0,0,1.763-1.566c.591-.473.956-.463,1.193-.247s.541-.265.581-.62a1.166,1.166,0,0,0-1.556-1.123,4.48,4.48,0,0,0-1.53.7,2.909,2.909,0,0,0,.365-1.453,10.8,10.8,0,0,0-.63-2.566,10.19,10.19,0,0,0,2.535.658,2.9,2.9,0,0,0,1.453-.365,4.481,4.481,0,0,0-.7,1.53,1.166,1.166,0,0,0,1.123,1.556c.355-.039.837-.345.621-.582s-.227-.6.246-1.192a19.477,19.477,0,0,0,1.567-1.764c.138-.354.234-1.1.234-.165s1.364,2.6,1.552,2.051,1.294-1.374,2.06-2.2a8.993,8.993,0,0,0,1.693-3.265c.029-.488.08-1.951.109-1.383s1.115,1.513,1.831,1.752a1.076,1.076,0,0,0,1.265-.468,4.569,4.569,0,0,1-.344-1.771,19.513,19.513,0,0,1,.533-3.685,24.2,24.2,0,0,0,.144-3.482c.05.01.252.072.483,1.493a15.878,15.878,0,0,1-.236,8.252c-1.537,4.618-2.388,5.412-2.388,5.412s-.66-1.071-1.542-.456c-1.308.912.028,1.885.028,1.885a17.206,17.206,0,0,0,2.642.4c1.161-.5,3.232.766,3.264,1.042C578.019,332.7,577.817,331.419,577.128,331.108ZM547.381,298.14c.116-.033.234-.064.354-.092a19.441,19.441,0,0,1-1.071,4.921,1.879,1.879,0,0,0-1.21-.245,18.388,18.388,0,0,0,1.035-4.255A7.406,7.406,0,0,1,547.381,298.14Zm-4.512,4.12a5.963,5.963,0,0,1,2.995-3.488,17.685,17.685,0,0,1-1.1,4.122,2.028,2.028,0,0,0-1.309,2.6c-.018.028-.037.056-.055.085A5.089,5.089,0,0,1,542.87,302.26Zm-1.719,7.063,0,0,.086-.086.016-.015h0l.125-.125,0,0q.45-.457.862-.937a3.762,3.762,0,0,0,1.2.5c-.391.477-.807.94-1.251,1.386h0l-.1.1q-.647.638-1.337,1.2a3.761,3.761,0,0,0-.5-1.2C540.556,309.888,540.856,309.61,541.15,309.322Zm-6.8,1.461a5.082,5.082,0,0,1,3.321.528c-.028.018-.056.037-.084.054a2.028,2.028,0,0,0-2.6,1.31,17.745,17.745,0,0,1-4.121,1.1A5.961,5.961,0,0,1,534.349,310.783Zm-4.12,4.512a7.415,7.415,0,0,1,.328-.892,18.382,18.382,0,0,0,4.255-1.035,1.886,1.886,0,0,0,.245,1.21,19.4,19.4,0,0,1-4.921,1.07C530.165,315.528,530.2,315.41,530.229,315.3Zm37.853-.387a19.806,19.806,0,0,0-2.119,4.3c-.422,1.422-.116,3.555.083,3.537,1.014-.087,1.833-.935,1.839-.688.012.444-.9,1.479-.913,2.44a8.746,8.746,0,0,1-1.929,1.252,2.933,2.933,0,0,1-3.458-.525,2.04,2.04,0,0,1-.616-1.954c.13-.87,1.03-1.582,1.6-1.436.532.135.934.91,1.1.836a1.312,1.312,0,0,0,.7-.977,2.345,2.345,0,0,0-.914-1.94c-.213-1.939-3.066-2.217-4.772-.968-1.647,1.206-2.028,3.634-2.233,3.875s-.292-.257-.446-.721-1.1-2.2-2.232-2.231a2.262,2.262,0,0,0-1.586.389l0,0a2.283,2.283,0,0,0-.385,1.581c.036,1.134,1.769,2.077,2.232,2.232s.96.24.72.445-2.67.587-3.875,2.234c-1.249,1.707-.971,4.559.969,4.772a2.339,2.339,0,0,0,1.94.913,1.311,1.311,0,0,0,.976-.7c.074-.161-.7-.564-.836-1.1-.146-.573.566-1.474,1.436-1.6a2.041,2.041,0,0,1,1.953.617,2.933,2.933,0,0,1,.525,3.458,8.663,8.663,0,0,1-1.252,1.928c-.961.019-2,.926-2.44.914-.248-.007.6-.826.688-1.839.018-.2-2.115-.505-3.537-.083A19.764,19.764,0,0,0,547,336a11.155,11.155,0,0,1-7.463.76,17.9,17.9,0,0,1-5.431-2.486.426.426,0,0,1-.232-.5,4.468,4.468,0,0,0,.078-.566,9.165,9.165,0,0,0,5.489,1.9,6.189,6.189,0,0,0,5.021-1.744,6.045,6.045,0,0,0,1.62-2.881,2,2,0,0,0,1.611-.7,2.121,2.121,0,0,0,.31-2.814,2.361,2.361,0,0,0,.7-.476,2.1,2.1,0,0,0,.588-1.643,2.316,2.316,0,0,0-.84-1.831,2.344,2.344,0,0,0-1.529-.411,2.981,2.981,0,0,0-.03-.862,1.988,1.988,0,0,0-1.138-1.528,2.086,2.086,0,0,0-2.5.275,2.629,2.629,0,0,0-.583.946,2.5,2.5,0,0,0-1.262-.454,2.022,2.022,0,0,0-1.539.645h0l0,0a2.6,2.6,0,0,0-.907,1.881.673.673,0,0,1-.181,1.267,2.089,2.089,0,0,0-.454,2.059,2.611,2.611,0,0,0,1.228,1.873,1.962,1.962,0,0,0,.912.222,2.233,2.233,0,0,0,1.771,2.095,2.149,2.149,0,0,0,2.206-.544,2.874,2.874,0,0,0,.435-.567,2.613,2.613,0,0,0,.752.459,5.644,5.644,0,0,1-6.153,4.266,9.857,9.857,0,0,1-5.575-2.248,5.286,5.286,0,0,0-1.113-2.306c-.255-.328,1.367,1.279,2.578,2.041a6.417,6.417,0,0,0,3.774,1,2.628,2.628,0,0,0,1.452-.4,5.9,5.9,0,0,0-1.47-2.934,11.594,11.594,0,0,0-4.453-2.219,7.118,7.118,0,0,1-2.007-.757c-.519-.369.962.379,2.32.263a2.186,2.186,0,0,0,1.712-1.941,2.59,2.59,0,0,0-.9-2.139c-.257-.128-.368.691-1.6.686-.912,0-2.107-.679-3.217-2.167a7.249,7.249,0,0,1-.945-5.274,20.017,20.017,0,0,0,5.412-1.18,2.922,2.922,0,0,0,4.109-.056,4.184,4.184,0,0,0,1.287-2.97,20.041,20.041,0,0,0,1.62-1.428l0,0,.036-.036c.021-.021.042-.038.062-.059l0,0,.057-.056h0l.02-.02.053-.054,0,0a19.785,19.785,0,0,0,1.45-1.645,4.184,4.184,0,0,0,2.97-1.287,2.921,2.921,0,0,0,.056-4.109,20.018,20.018,0,0,0,1.18-5.412,7.247,7.247,0,0,1,5.274.945c1.489,1.11,2.163,2.305,2.167,3.217,0,1.235-.814,1.347-.685,1.6a2.59,2.59,0,0,0,2.139.9,2.187,2.187,0,0,0,1.942-1.712c.115-1.358-.634-2.839-.263-2.32a7.187,7.187,0,0,1,.757,2.006,11.565,11.565,0,0,0,2.219,4.454,5.9,5.9,0,0,0,2.933,1.47,2.628,2.628,0,0,0,.4-1.452,6.422,6.422,0,0,0-.994-3.774c-.762-1.211-2.37-2.834-2.042-2.578a5.286,5.286,0,0,0,2.306,1.113,9.857,9.857,0,0,1,2.248,5.575,5.644,5.644,0,0,1-4.266,6.153,2.589,2.589,0,0,0-.459-.752,2.876,2.876,0,0,0,.567-.435,2.151,2.151,0,0,0,.545-2.206,2.233,2.233,0,0,0-2.1-1.771,1.95,1.95,0,0,0-.222-.912,2.609,2.609,0,0,0-1.873-1.228,2.086,2.086,0,0,0-2.058.454.673.673,0,0,1-1.267.181,2.6,2.6,0,0,0-1.881.907l0,0h0a2.022,2.022,0,0,0-.645,1.539,2.5,2.5,0,0,0,.454,1.262,2.638,2.638,0,0,0-.946.583,2.086,2.086,0,0,0-.275,2.5,1.992,1.992,0,0,0,1.528,1.138,2.984,2.984,0,0,0,.862.03,2.338,2.338,0,0,0,.412,1.529,2.309,2.309,0,0,0,1.83.839,2.092,2.092,0,0,0,1.643-.587,2.341,2.341,0,0,0,.476-.7,2.121,2.121,0,0,0,2.814-.31,2,2,0,0,0,.7-1.611,6.062,6.062,0,0,0,2.881-1.62,6.2,6.2,0,0,0,1.744-5.021,9.179,9.179,0,0,0-1.9-5.489,4.439,4.439,0,0,0,.565-.078.426.426,0,0,1,.5.232,17.85,17.85,0,0,1,2.486,5.431A11.156,11.156,0,0,1,568.082,314.908Zm-29.248,11.817a1.6,1.6,0,0,1,.312-1.575,1.343,1.343,0,0,1,.843-.38.113.113,0,0,0,.073-.031.107.107,0,0,0,0-.157c-.452-.4-1.114-1.282.177-2.577l0,0c1.311-1.311,2.739.408,2.739.408a2.789,2.789,0,0,1,.644-1.545,1.6,1.6,0,0,1,1.924-.165,1.848,1.848,0,0,1,.614,2.518c-.052.052.166.009.258-.013a1.713,1.713,0,0,1,2.349,1.672,1.559,1.559,0,0,1-.434,1.245,2.08,2.08,0,0,1-1,.517.149.149,0,0,0-.066.036.141.141,0,0,0,0,.194,1.71,1.71,0,0,1,.064,2.533l-.008.008c-1.231,1.22-2.09.105-2.471-.224a.143.143,0,0,0-.2.007.135.135,0,0,0-.032.049,2.645,2.645,0,0,1-.555.872,1.637,1.637,0,0,1-1.7.411,1.794,1.794,0,0,1-1.343-2.211S539.34,328.993,538.834,326.726ZM555.3,314.069a1.85,1.85,0,0,1-2.519-.614,1.6,1.6,0,0,1,.165-1.924,2.788,2.788,0,0,1,1.545-.644s-1.719-1.429-.408-2.739l0,0c1.3-1.291,2.179-.629,2.578-.177a.106.106,0,0,0,.156,0,.108.108,0,0,0,.031-.073,1.339,1.339,0,0,1,.381-.843,1.6,1.6,0,0,1,1.574-.313c2.269.507,1.588,2.2,1.588,2.2a1.793,1.793,0,0,1,2.211,1.343,1.638,1.638,0,0,1-.41,1.7,2.656,2.656,0,0,1-.872.555.15.15,0,0,0-.049.031.145.145,0,0,0-.007.2c.33.381,1.445,1.24.225,2.471l-.008.008a1.709,1.709,0,0,1-2.533-.064.141.141,0,0,0-.194,0,.132.132,0,0,0-.036.066,2.082,2.082,0,0,1-.518,1,1.558,1.558,0,0,1-1.245.434,1.712,1.712,0,0,1-1.671-2.349C555.313,314.235,555.356,314.017,555.3,314.069Z" transform="translate(-523.1 -291.03)" fill="#2e3e91"/>
      <path id="Caminho_2783" data-name="Caminho 2783" d="M575,344.769a16,16,0,0,0-3.857-2.789c-.908-.36.013-.073.466-.254a.847.847,0,0,0,.453-1c-.121-.181-.081.027-.359.111s-.994-.835-2.1-.82c-1.056.015-2.632.888-2.529.646.129-.306,1.3-.826,1.463-1.463s-.19-2.005-1.369-1.711-1.015.908-.956.955.732-.153.879.018.2.579-.307.944-1.5,1.008-1.628,1.663a1.264,1.264,0,0,0,.613,1.517c.1.032-.434.984-.36,1.792a3.218,3.218,0,0,0,1.326,2.082c.6.242,8.994.1,8.994.1a1.411,1.411,0,0,0,1.16-1.341C576.8,344.955,575.705,345.492,575,344.769Zm-.27.8a2.483,2.483,0,0,1-1.345-.073c-.343-.137-.629-.605-.709-.64s-.126.285.091.686.423.491,0,.457a1.782,1.782,0,0,1-1.108-.789,12.389,12.389,0,0,0-.949-1.635,2.641,2.641,0,0,0-2.344-.789,1.309,1.309,0,0,0-1.087,1.544c.129.723.552.939,1.052.885.572-.062.56-.577.572-.817s-.455-.454-.732-.022c-.159.249-.126.468-.329.2a.928.928,0,0,1,.465-1.243c.684-.41,1.547.258,1.769,1.028.264.924-.782,1.848-1.5,1.929a2.073,2.073,0,0,1-1.991-1.1,2.179,2.179,0,0,1,.5-2.858c.961-.938,2.562-.458,3.385-.046s2.858,2.448,3.762,2.939C574.629,345.437,574.893,345.449,574.728,345.567Z" transform="translate(-523.819 -291.826)" fill="#2e3e91"/>
      <path id="Caminho_2784" data-name="Caminho 2784" d="M534.426,341.1c.194-.312-3.389-3.086-4.648-4.985s-2.923-4.637-3.141-5.056,1.38,3.29,1.664,3.879,1.4,3.683,1.007,5.849a12.446,12.446,0,0,1-2.181,4.437,1.065,1.065,0,0,0-.037.736,6.37,6.37,0,0,0,2.083-1.109,4.188,4.188,0,0,0,.9-3.537,21.315,21.315,0,0,1-.358-2.575c.024-.414,1.661.183,1.778.6a19.687,19.687,0,0,0,.807,2.957,2.756,2.756,0,0,0,1.831,1.226,2.034,2.034,0,0,1,1.143.4c.1.1.454-.521.05-1.261S534.3,341.31,534.426,341.1Z" transform="translate(-523.147 -291.714)" fill="#4192d0"/>
      <path id="Caminho_2785" data-name="Caminho 2785" d="M537.389,310.844a5.466,5.466,0,0,0-4.426-.861,9.529,9.529,0,0,0-5.253,3.6,15.171,15.171,0,0,0-2.389,9.55,23.017,23.017,0,0,0,8.795,15.433c2.265,1.853,7.12,4.334,10.356,4.722a20.144,20.144,0,0,0,6.368-.09c1.416-.232,3.782-.327,3.782-.327a3.411,3.411,0,0,1,1.2.224c.211.112.483-.688.055-1.216a2.366,2.366,0,0,0-1.888-.891.992.992,0,0,1-1.047-.6,20.592,20.592,0,0,1,2.444-.349,6.231,6.231,0,0,0,3.455-1.334,21,21,0,0,0,2.145-2.2,2.866,2.866,0,0,0-2.145-1.022,6.288,6.288,0,0,0-3.07.492c-1.888.679-3.539,1.7-3.964,1.776s-.835.013-.2-.324a6.722,6.722,0,0,0,2.132-1.708c.412-.637.787-1.151.706-1.224a6.807,6.807,0,0,0-2.74.038,13.8,13.8,0,0,0-3.653,1.7c-.857.573-3.336,2.1-4.624,2.269a13.573,13.573,0,0,1-6.547-.536,17.741,17.741,0,0,1-5.661-3.841,24.635,24.635,0,0,1-3.94-6.434c-.637-1.809-1.347-4.39-1.16-4.6s1.073,3.342,1.671,4.514a15.184,15.184,0,0,0,3.55,4.629c1.459,1.06,2.2,1.357,2.215,1.181.088-.781-.04-1.374-1.142-3.248-.294-.5-.047-.336.111-.272.388.158,2.006,1.577,2.761,2.069a5.488,5.488,0,0,0,3.2,1.2c1.26-.112,1.608-.261,1.7-.4a4.421,4.421,0,0,0-2.01-2.938,12.967,12.967,0,0,0-3.528-1.365c-1.377-.5-2.309-.931-2.508-1.505s-.145-.789.091-.627a4.186,4.186,0,0,0,1.958.711,2.029,2.029,0,0,0,1.7-.873,2.309,2.309,0,0,0-.026-1.995c-.175-.25-.175-.175-.623.1a4.592,4.592,0,0,1-4.47-1.912,7.5,7.5,0,0,1-.878-6.778,7.208,7.208,0,0,1,3.09-4.291c1.459-.811,2.432-.986,3.367-.648S537.664,311.018,537.389,310.844Zm3.952,29.72c3.725.859,9.442-.157,9.991-.171s-.573.435-.573.435c-.773.119-6.539,1.444-10.425.147a25.4,25.4,0,0,1-8.565-5.405c-.478-.461-.611-.726-.016-.2A25.392,25.392,0,0,0,541.341,340.563ZM528.8,314.117a8.382,8.382,0,0,0-1.027,8.5,12.955,12.955,0,0,0,4.594,6.038s.035.255-.353.14a14.123,14.123,0,0,1-4.9-6.137,8.819,8.819,0,0,1,.6-7.729C528.491,313.73,529.034,313.886,528.8,314.117Z" transform="translate(-523.123 -291.344)" fill="#4192d0"/>
      <path id="Caminho_2786" data-name="Caminho 2786" d="M560.092,330.959a.113.113,0,0,0,.22-.037,5.224,5.224,0,0,0-1.852-3.654,4.334,4.334,0,0,0-5.921-.45c-1.672,1.35-1.677,2.4-1.481,3.525.131.746.885,1.2.965,1.112a3.108,3.108,0,0,1-.016-1.454c.258-.906.6-.308.4.371a1.842,1.842,0,0,0,.954,1.956c.841.324,1.2.066,1.311-.048s-.47-.145-.728-.857-.064-1.391.888-2.343a2.732,2.732,0,0,1,2.991-.371A3.416,3.416,0,0,1,560.092,330.959Z" transform="translate(-523.572 -291.624)" fill="#4192d0"/>
      <path id="Caminho_2787" data-name="Caminho 2787" d="M560.915,309.2s.681-1.688-1.588-2.2c-1.488-.332-1.929.658-1.955,1.156a.108.108,0,0,1-.189.068c-.4-.452-1.281-1.114-2.577.177-1.316,1.311.4,2.742.4,2.742s-2.73.214-1.71,2.567a1.849,1.849,0,0,0,2.519.614c.051-.052.008.166-.014.258a1.713,1.713,0,0,0,1.672,2.349,1.668,1.668,0,0,0,1.763-1.43.139.139,0,0,1,.229-.07,1.71,1.71,0,0,0,2.542.056c1.22-1.231.1-2.09-.225-2.471a.145.145,0,0,1,.056-.229,1.842,1.842,0,0,0,1.282-2.251A1.793,1.793,0,0,0,560.915,309.2Zm-1.808,3.781a1.378,1.378,0,1,1,0-1.948A1.377,1.377,0,0,1,559.107,312.98Z" transform="translate(-523.609 -291.294)" fill="#4192d0"/>
      <path id="Caminho_2788" data-name="Caminho 2788" d="M557.584,315.069a.292.292,0,0,0,.286-.3,2.987,2.987,0,0,1,.192-.875,1.855,1.855,0,0,0,1.323-.447,3.659,3.659,0,0,0,.857.751.292.292,0,0,0,.349-.047.3.3,0,0,0,.047-.063.29.29,0,0,0-.11-.4,3.324,3.324,0,0,1-.759-.693,1.862,1.862,0,0,0,.255-1.149c.143-.024.387-.059.737-.088a.289.289,0,0,0,.182-.085.291.291,0,0,0-.231-.5c-.409.035-.687.079-.831.1a1.866,1.866,0,0,0-.385-.57,1.847,1.847,0,0,0-.484-.34,3.845,3.845,0,0,0,.377-1.279.291.291,0,0,0-.582-.033,3.39,3.39,0,0,1-.353,1.133,1.863,1.863,0,0,0-1.241.245s0-.011-.01-.015a8.511,8.511,0,0,0-.711-.639.291.291,0,0,0-.355.462s.252.2.632.567a1.861,1.861,0,0,0-.436,1.517,4.124,4.124,0,0,0-.811.174.291.291,0,0,0,.2.547,3.97,3.97,0,0,1,.8-.159,1.774,1.774,0,0,0,.968.88,3.548,3.548,0,0,0-.2,1.007A.292.292,0,0,0,557.584,315.069Zm-.322-2.12a1.272,1.272,0,0,1-.26-.384.286.286,0,0,0-.049-.134,1.277,1.277,0,1,1,.31.518Z" transform="translate(-523.648 -291.326)" fill="#2e3e91"/>
      <path id="Caminho_2789" data-name="Caminho 2789" d="M577.319,344.8a1.408,1.408,0,0,0,1.341-1.159s.139-8.4-.1-8.994a3.218,3.218,0,0,0-2.082-1.326c-.809-.075-1.76.46-1.792.36a1.266,1.266,0,0,0-1.517-.614c-.654.125-1.3,1.121-1.663,1.628s-.772.455-.944.308.03-.82-.018-.879-.66-.224-.955.956,1.074,1.534,1.711,1.368,1.158-1.333,1.463-1.462c.244-.1-.631,1.473-.646,2.529-.015,1.106.9,1.824.82,2.1s-.292.238-.111.358a.848.848,0,0,0,1-.452c.181-.453-.106-1.374.254-.466a15.965,15.965,0,0,0,2.789,3.857C577.585,343.612,577.048,344.7,577.319,344.8Zm-.006-2.659c-.491-.9-2.527-2.939-2.939-3.762s-.892-2.424.046-3.385a2.179,2.179,0,0,1,2.858-.5,2.071,2.071,0,0,1,1.1,1.991c-.081.721-1.005,1.768-1.929,1.5-.769-.22-1.437-1.084-1.028-1.768a.927.927,0,0,1,1.243-.465c.271.2.052.17-.2.329-.431.277-.218.743.022.732s.755,0,.817-.572c.055-.5-.161-.924-.885-1.052a1.309,1.309,0,0,0-1.544,1.087,2.638,2.638,0,0,0,.789,2.343,12.216,12.216,0,0,0,1.636.949,1.788,1.788,0,0,1,.789,1.109c.033.423-.058.217-.458,0s-.72-.171-.686-.091.5.367.64.709a2.483,2.483,0,0,1,.073,1.345C577.542,342.8,577.53,342.536,577.313,342.136Z" transform="translate(-523.896 -291.749)" fill="#2e3e91"/>
      <path id="Caminho_2790" data-name="Caminho 2790" d="M573.194,302.333c-.312.194-3.086-3.389-4.985-4.648s-4.637-2.923-5.056-3.142,3.29,1.381,3.879,1.665,3.683,1.4,5.849,1.007a12.446,12.446,0,0,0,4.437-2.181,1.065,1.065,0,0,1,.736-.037,6.38,6.38,0,0,1-1.109,2.083,4.191,4.191,0,0,1-3.537.9,21.116,21.116,0,0,0-2.575-.358c-.414.024.183,1.661.6,1.778a19.653,19.653,0,0,1,2.957.806,2.765,2.765,0,0,1,1.227,1.832,2.033,2.033,0,0,0,.4,1.143c.1.1-.521.453-1.26.05S573.4,302.2,573.194,302.333Z" transform="translate(-523.784 -291.077)" fill="#4192d0"/>
      <path id="Caminho_2791" data-name="Caminho 2791" d="M542.737,304.249c-.337-.935-.162-1.908.648-3.367a7.2,7.2,0,0,1,4.292-3.09,7.5,7.5,0,0,1,6.777.878,4.587,4.587,0,0,1,1.912,4.469c-.274.449-.349.449-.1.624a2.308,2.308,0,0,0,2,.025,2.028,2.028,0,0,0,.873-1.7,4.186,4.186,0,0,0-.711-1.957c-.162-.237.054-.291.627-.091s1,1.132,1.505,2.508a12.949,12.949,0,0,0,1.365,3.527,4.42,4.42,0,0,0,2.938,2.011c.138-.087.287-.436.4-1.7a5.488,5.488,0,0,0-1.2-3.2c-.492-.756-1.911-2.373-2.069-2.761-.064-.158-.228-.4.272-.111,1.875,1.1,2.467,1.23,3.248,1.142.176-.02-.121-.756-1.18-2.215a15.2,15.2,0,0,0-4.63-3.55c-1.172-.6-4.726-1.484-4.514-1.671s2.793.524,4.6,1.16a24.635,24.635,0,0,1,6.434,3.94,17.723,17.723,0,0,1,3.841,5.662,13.559,13.559,0,0,1,.536,6.547c-.163,1.288-1.7,3.767-2.268,4.624a13.8,13.8,0,0,0-1.7,3.653,6.806,6.806,0,0,0-.038,2.74c.074.082.589-.294,1.224-.705a6.739,6.739,0,0,0,1.709-2.132c.336-.636.4-.225.324.2s-1.1,2.075-1.777,3.964a6.285,6.285,0,0,0-.492,3.069,2.866,2.866,0,0,0,1.022,2.145,21.008,21.008,0,0,0,2.2-2.145,6.223,6.223,0,0,0,1.334-3.455,20.819,20.819,0,0,1,.349-2.444.993.993,0,0,1,.6,1.047,2.362,2.362,0,0,0,.89,1.888c.529.428,1.329.156,1.216-.055a3.411,3.411,0,0,1-.224-1.2s.1-2.367.327-3.782a20.146,20.146,0,0,0,.09-6.368c-.387-3.237-2.869-8.092-4.722-10.356a23.018,23.018,0,0,0-15.432-8.795,15.167,15.167,0,0,0-9.55,2.389,9.526,9.526,0,0,0-3.6,5.253,5.466,5.466,0,0,0,.861,4.426C543.111,305.571,543.074,305.184,542.737,304.249Zm24.727-4.589c-.528-.6-.262-.462.2.015a25.411,25.411,0,0,1,5.405,8.565c1.3,3.887-.027,9.652-.146,10.426,0,0-.449,1.122-.435.573s1.029-6.267.17-9.991A25.405,25.405,0,0,0,567.464,299.66Zm-20.44-4.036a8.819,8.819,0,0,1,7.729-.6,14.121,14.121,0,0,1,6.137,4.9c.116.388-.139.353-.139.353a12.941,12.941,0,0,0-6.038-4.593,8.379,8.379,0,0,0-8.5,1.027C545.979,296.941,545.823,296.4,547.024,295.624Z" transform="translate(-523.414 -291.053)" fill="#4192d0"/>
      <path id="Caminho_2792" data-name="Caminho 2792" d="M563.052,328a.113.113,0,0,1-.037.22,5.23,5.23,0,0,1-3.654-1.852,4.334,4.334,0,0,1-.45-5.921c1.35-1.672,2.4-1.678,3.525-1.481.746.131,1.2.885,1.112.964a3.116,3.116,0,0,0-1.454-.015c-.906.258-.308.6.371.4a1.842,1.842,0,0,1,1.956.954c.324.841.066,1.2-.047,1.31s-.146-.469-.858-.727-1.391-.064-2.343.888a2.732,2.732,0,0,0-.371,2.991A3.421,3.421,0,0,0,563.052,328Z" transform="translate(-523.693 -291.502)" fill="#4192d0"/>
    </g>
    <g id="Grupo_4241" data-name="Grupo 4241" transform="translate(-11026.779 -12757.409)">
      <rect id="Retângulo_730" data-name="Retângulo 730" width="55.704" height="55.704" transform="translate(0 55.704) rotate(-90)" fill="none"/>
      <path id="Caminho_2793" data-name="Caminho 2793" d="M523.842,268.478v20.975l.151.293-.017.017.287.112h20.975s.4-.122.312-.313a34.189,34.189,0,0,1-4.368-2.924c-2.142-1.845-3.006-5.18-3.318-6.849s1.13-4.713.984-4.9c-.182-.147-3.249,1.273-4.919.96s-5-1.176-6.85-3.319a34.275,34.275,0,0,1-2.924-4.368C523.963,268.078,523.842,268.478,523.842,268.478Zm13.924,14.742c.666.843,2.834,4.337,3.52,4.954s1.775.4,1.647.515a2.258,2.258,0,0,1-3.037.119,14,14,0,0,1-1.852-2.161s-.24.412-.737,1.115a4.735,4.735,0,0,1-2.659,1.493c-1.012.223-2.642-.515-2.7-1.775a1.433,1.433,0,0,1,2.169-1.3c.874.532-.086,1.424-.086,1.424s0,.206.584-.172a3.334,3.334,0,0,0,.951-2.548c.008-1.021-.589-1.583-1.517-2.134a4.694,4.694,0,0,0-3.208-.464,5.086,5.086,0,0,0-3.584,1.939c-.68.826-.892,1.955-.319,2.528.553.554,1.622.765,3.2-.95s1.441-2.916,1.441-2.916l1.811.2s.259.556-1.091,2.58a6.825,6.825,0,0,1-3.74,3.123c-1.269.336-2.641.446-3.372-.285-.967-.968-.8-2.889.114-4.25.975-1.459,2.5-2.979,6.483-3.527A6.938,6.938,0,0,1,537.766,283.221ZM525.6,272.485c.617.687,4.111,2.853,4.954,3.52a7.364,7.364,0,0,1,2.442,4.122,13.1,13.1,0,0,0-1.816-.1c-.049-.1-.1-.2-.159-.306-.551-.928-1.113-1.525-2.135-1.517a3.334,3.334,0,0,0-2.548.951c-.377.584-.172.584-.172.584s.892-.961,1.424-.085a1.475,1.475,0,0,1-.049,1.554,8.019,8.019,0,0,0-1.114.611c-.043,0-.086,0-.133,0-1.26-.059-2-1.689-1.775-2.7a4.73,4.73,0,0,1,1.493-2.658c.7-.5,1.115-.738,1.115-.738a14.005,14.005,0,0,1-2.161-1.852,2.258,2.258,0,0,1,.119-3.037C525.193,270.711,524.979,271.8,525.6,272.485Z" transform="translate(-523.099 -234.913)" fill="#2e3e91"/>
      <circle id="Elipse_83" data-name="Elipse 83" cx="1.812" cy="1.812" r="1.812" transform="translate(10.601 41.456)" fill="#4192d0"/>
      <circle id="Elipse_84" data-name="Elipse 84" cx="1.352" cy="1.352" r="1.352" transform="translate(41.233 11.744)" fill="#2e3e91"/>
      <path id="Caminho_2794" data-name="Caminho 2794" d="M544.234,271.03a.866.866,0,1,0-1.14-.075A.812.812,0,0,0,544.234,271.03Z" transform="translate(-523.43 -234.939)" fill="#2e3e91"/>
      <path id="Caminho_2795" data-name="Caminho 2795" d="M568.139,245.851a2.484,2.484,0,1,1-3.513,0A2.486,2.486,0,0,1,568.139,245.851Zm-3.183,3.184a2.018,2.018,0,1,0,0-2.854A2.02,2.02,0,0,0,564.955,249.035Z" transform="translate(-523.797 -234.512)" fill="#2e3e91"/>
      <path id="Caminho_2796" data-name="Caminho 2796" d="M542.572,265.246c.085.1.256-.241.635-.206s.5.563.149,1.117c-.392.618-.889,1.23-.344,2.17a2.566,2.566,0,0,1,2.645,2.644c.94.545,1.552.049,2.169-.344.554-.352,1.083-.227,1.117.15s-.308.548-.206.635a1.354,1.354,0,0,0,1.612-.892,1.459,1.459,0,0,0-.822-1.973,2.14,2.14,0,0,0-1.888.086c-.264.264-.326-.5-.189-.549a3.764,3.764,0,0,0,1.433-.729c.368-.421.274-2.282.253-2.508-.227-.022-2.088-.116-2.508.253a3.808,3.808,0,0,0-.729,1.433c-.051.138-.814.076-.548-.189a2.141,2.141,0,0,0,.085-1.887,1.458,1.458,0,0,0-1.973-.823A1.352,1.352,0,0,0,542.572,265.246Z" transform="translate(-523.424 -234.832)" fill="#2e3e91"/>
      <path id="Caminho_2797" data-name="Caminho 2797" d="M555.783,267.244c.021.091.065.31.013.258a1.849,1.849,0,0,0-2.519.614c-1.02,2.352,1.71,2.566,1.71,2.566s-1.72,1.433-.4,2.743c1.295,1.29,2.178.628,2.577.176a.108.108,0,0,1,.189.068c.026.5.468,1.489,1.954,1.156,2.269-.506,1.588-2.194,1.588-2.194a1.793,1.793,0,0,0,2.211-1.343,1.842,1.842,0,0,0-1.281-2.252.143.143,0,0,1-.057-.228c.33-.382,1.445-1.24.225-2.471a1.71,1.71,0,0,0-2.541.055.139.139,0,0,1-.23-.07,1.667,1.667,0,0,0-1.763-1.429A1.712,1.712,0,0,0,555.783,267.244Zm3.236,1.671a1.287,1.287,0,1,1-1.821,0A1.287,1.287,0,0,1,559.019,268.916Z" transform="translate(-523.608 -234.856)" fill="#4192d0"/>
      <path id="Caminho_2798" data-name="Caminho 2798" d="M557.264,267.114a3.476,3.476,0,0,0,.2,1.007,1.784,1.784,0,0,0-.968.88,3.977,3.977,0,0,1-.8-.158.291.291,0,0,0-.2.547,4.218,4.218,0,0,0,.81.174,1.863,1.863,0,0,0,.437,1.516,8.454,8.454,0,0,1-.633.568.292.292,0,0,0-.053.408.288.288,0,0,0,.408.053,8.573,8.573,0,0,0,.711-.638s.006-.01.011-.015a1.867,1.867,0,0,0,1.241.245,3.414,3.414,0,0,1,.353,1.132.291.291,0,1,0,.581-.032,3.861,3.861,0,0,0-.376-1.28,1.759,1.759,0,0,0,.869-.91c.144.026.424.069.831.1a.291.291,0,1,0,.05-.58c-.351-.03-.594-.066-.737-.089a1.866,1.866,0,0,0-.255-1.148,3.274,3.274,0,0,1,.759-.693.292.292,0,0,0,.11-.4.308.308,0,0,0-.048-.063.291.291,0,0,0-.349-.047,3.616,3.616,0,0,0-.856.75,1.861,1.861,0,0,0-1.323-.446,3,3,0,0,1-.192-.875.288.288,0,0,0-.086-.211.29.29,0,0,0-.5.2Zm1.794,1.835a1.287,1.287,0,1,1-2.13.518.286.286,0,0,0,.049-.134,1.25,1.25,0,0,1,.26-.384A1.289,1.289,0,0,1,559.058,268.949Z" transform="translate(-523.647 -234.89)" fill="#2e3e91"/>
      <path id="Caminho_2799" data-name="Caminho 2799" d="M563.177,236.014c-.434.959-.552,1.389-.686,1.12-.291-.585-1.082-1.866-1.082-1.866H553.14a36.333,36.333,0,0,0-8.216.8c-4.766,1-9.583,4.254-9.905,4.276s.516-.559.795-1.483-.257-1.934-.451-1.827-.055.546-1.158.772a2.578,2.578,0,0,0-2.495,2.622c-.109,1.592-.752,2.127-1.214,2.289s-.676.547-.175-1.974a4.658,4.658,0,0,0-.823-4.2c-.344-.386-3.03-1.568-3.892-1.221s-1.029,2.059-.809,3a9.2,9.2,0,0,0,1.74,3.159,4.153,4.153,0,0,1,.768,2.2c-.172-.173-1.246-2.621-2.47-2.471s-.968,1.826-.8,1.912,1.676.257,1.633,3.266-1.1,5.651-1.644,11.485,1.107,9.808,4.588,13.289a8.275,8.275,0,0,0,10.524.949,5.107,5.107,0,0,0,.744-.723c.3.255.589.521.872.8l.222.222q.4.411.769.841a5.1,5.1,0,0,0-.723.743,8.274,8.274,0,0,0,.949,10.524c3.481,3.48,7.455,5.137,13.289,4.588s8.478-1.6,11.485-1.644,3.18,1.461,3.266,1.633,1.762.429,1.912-.8-2.3-2.3-2.471-2.47a4.157,4.157,0,0,1,2.2.768,9.187,9.187,0,0,0,3.159,1.74c.94.22,2.653.054,3-.809s-.835-3.548-1.221-3.892a4.658,4.658,0,0,0-4.2-.823c-2.521.5-2.135.287-1.974-.175s.7-1.105,2.288-1.214a2.578,2.578,0,0,0,2.623-2.495c.225-1.1.664-.965.772-1.158s-.9-.73-1.827-.451-1.5,1.117-1.483.795,3.279-5.139,4.276-9.905a36.329,36.329,0,0,0,.795-8.216v-8.269s-1.281-.791-1.866-1.082c-.268-.134.162-.252,1.121-.686.69-.311.89-1.593.84-1.819-.032.275-2.1,1.54-3.264,1.042a17.2,17.2,0,0,0-2.642.4s-1.336.972-.029,1.885c.881.615,1.543-.457,1.543-.457s.85.795,2.387,5.413a15.873,15.873,0,0,1,.236,8.251c-.231,1.422-.433,1.484-.483,1.493a24.024,24.024,0,0,0-.144-3.481,19.59,19.59,0,0,1-.533-3.685,4.569,4.569,0,0,1,.344-1.771,1.076,1.076,0,0,0-1.264-.468c-.717.239-1.8,1.184-1.832,1.752s-.08-.9-.109-1.383a8.982,8.982,0,0,0-1.692-3.265c-.767-.826-1.872-1.653-2.061-2.2s-1.552,1.114-1.552,2.051-.1.189-.234-.166a19.739,19.739,0,0,0-1.566-1.764c-.474-.591-.464-.955-.247-1.192s-.266-.541-.621-.581a1.166,1.166,0,0,0-1.123,1.556,4.457,4.457,0,0,0,.7,1.529,2.9,2.9,0,0,0-1.453-.365,10.814,10.814,0,0,0-2.565.631,10.239,10.239,0,0,0,.658-2.535,2.909,2.909,0,0,0-.365-1.454,4.435,4.435,0,0,0,1.529.7,1.166,1.166,0,0,0,1.556-1.123c-.039-.355-.344-.838-.581-.621s-.6.227-1.192-.247a19.569,19.569,0,0,0-1.764-1.566c-.355-.138-1.1-.234-.166-.234s2.6-1.364,2.051-1.553-1.374-1.294-2.2-2.06a8.981,8.981,0,0,0-3.265-1.692c-.487-.029-1.95-.08-1.383-.11s1.513-1.114,1.752-1.831a1.076,1.076,0,0,0-.468-1.264,4.574,4.574,0,0,1-1.771.343,19.585,19.585,0,0,1-3.685-.532,24.019,24.019,0,0,0-3.481-.144c.01-.05.072-.253,1.493-.483a15.874,15.874,0,0,1,8.251.236c4.619,1.537,5.413,2.387,5.413,2.387s-1.072.661-.457,1.543c.913,1.308,1.885-.029,1.885-.029a17.216,17.216,0,0,0,.4-2.642c-.5-1.161.766-3.232,1.042-3.264C564.769,235.124,563.488,235.324,563.177,236.014ZM530.21,265.76c-.033-.115-.064-.233-.093-.353a19.392,19.392,0,0,1,4.921,1.071,1.886,1.886,0,0,0-.245,1.21,18.264,18.264,0,0,0-4.255-1.035A7.036,7.036,0,0,1,530.21,265.76Zm4.119,4.513a5.963,5.963,0,0,1-3.487-3,17.733,17.733,0,0,1,4.121,1.1,2.029,2.029,0,0,0,2.6,1.309c.029.018.056.037.083.055A5.093,5.093,0,0,1,534.329,270.273Zm7.063,1.719,0,0-.086-.085-.015-.017h0l-.126-.125,0,0q-.458-.451-.938-.863a3.737,3.737,0,0,0,.5-1.2q.716.587,1.386,1.251h0l.1.1q.64.647,1.2,1.337a3.727,3.727,0,0,0-1.2.5C541.958,272.587,541.679,272.286,541.391,271.991Zm1.461,6.8a5.087,5.087,0,0,1,.528-3.321c.018.029.037.055.055.084a2.029,2.029,0,0,0,1.309,2.6,17.683,17.683,0,0,1,1.1,4.121A5.965,5.965,0,0,1,542.852,278.794Zm4.513,4.12a7.2,7.2,0,0,1-.893-.329,18.315,18.315,0,0,0-1.035-4.254,1.885,1.885,0,0,0,1.21-.245,19.437,19.437,0,0,1,1.071,4.921C547.6,282.976,547.48,282.946,547.365,282.914Zm-.388-37.854a19.791,19.791,0,0,0,4.3,2.12c1.423.422,3.555.116,3.538-.083-.087-1.014-.935-1.833-.689-1.84.444-.011,1.48.9,2.441.914a8.754,8.754,0,0,1,1.252,1.929,2.933,2.933,0,0,1-.526,3.458,2.041,2.041,0,0,1-1.953.616c-.871-.13-1.582-1.031-1.436-1.6.136-.532.911-.934.836-1.1a1.309,1.309,0,0,0-.976-.7,2.339,2.339,0,0,0-1.94.914c-1.94.212-2.217,3.065-.968,4.771,1.206,1.648,3.635,2.028,3.874,2.234s-.257.292-.72.446-2.2,1.1-2.232,2.232a2.268,2.268,0,0,0,.39,1.586l0,0a2.282,2.282,0,0,0,1.58.385c1.135-.036,2.078-1.769,2.232-2.232s.24-.96.446-.72.587,2.669,2.233,3.874c1.707,1.249,4.56.972,4.772-.968a2.341,2.341,0,0,0,.914-1.94,1.309,1.309,0,0,0-.7-.976c-.162-.075-.565.7-1.1.836-.573.145-1.473-.566-1.6-1.436a2.041,2.041,0,0,1,.616-1.953,2.931,2.931,0,0,1,3.458-.525,8.75,8.75,0,0,1,1.929,1.251c.019.961.925,2,.913,2.441-.006.247-.825-.6-1.839-.689-.2-.017-.505,2.115-.083,3.538a19.792,19.792,0,0,0,2.12,4.3,11.16,11.16,0,0,1,.76,7.463,17.861,17.861,0,0,1-2.486,5.431.424.424,0,0,1-.5.231,4.719,4.719,0,0,0-.565-.077,9.183,9.183,0,0,0,1.9-5.489,6.191,6.191,0,0,0-1.744-5.021,6.056,6.056,0,0,0-2.881-1.621,2,2,0,0,0-.7-1.61,2.122,2.122,0,0,0-2.815-.31,2.332,2.332,0,0,0-.475-.7,2.1,2.1,0,0,0-1.644-.588,2.119,2.119,0,0,0-2.24,2.369,2.957,2.957,0,0,0-.863.03,1.99,1.99,0,0,0-1.528,1.138,2.087,2.087,0,0,0,.275,2.5,2.616,2.616,0,0,0,.947.582,2.487,2.487,0,0,0-.454,1.263,2.019,2.019,0,0,0,.644,1.539h0l0,0a2.594,2.594,0,0,0,1.881.907,1.833,1.833,0,0,0,.927-.292,1.857,1.857,0,0,0,.34.474,2.09,2.09,0,0,0,2.058.454,2.615,2.615,0,0,0,1.874-1.228,1.963,1.963,0,0,0,.221-.912,2.234,2.234,0,0,0,2.1-1.771,2.151,2.151,0,0,0-.545-2.206,2.876,2.876,0,0,0-.567-.435,2.6,2.6,0,0,0,.459-.752,5.643,5.643,0,0,1,4.266,6.152,9.861,9.861,0,0,1-2.248,5.576,5.293,5.293,0,0,0-2.306,1.112c-.328.256,1.279-1.367,2.042-2.578a6.418,6.418,0,0,0,.994-3.773,2.624,2.624,0,0,0-.4-1.452,5.889,5.889,0,0,0-2.933,1.469,11.584,11.584,0,0,0-2.219,4.454,7.2,7.2,0,0,1-.757,2.007c-.37.518.378-.963.263-2.321a2.187,2.187,0,0,0-1.942-1.711,2.586,2.586,0,0,0-2.139.9c-.129.256.691.368.685,1.6,0,.912-.678,2.107-2.167,3.217a7.24,7.24,0,0,1-5.273.944,19.971,19.971,0,0,0-1.181-5.411,2.92,2.92,0,0,0-.056-4.109,4.178,4.178,0,0,0-2.97-1.287,20.059,20.059,0,0,0-1.427-1.621h0l-.036-.036-.058-.063,0,0-.056-.056h0l-.021-.019-.053-.054,0,0a20.108,20.108,0,0,0-1.646-1.449,4.176,4.176,0,0,0-1.287-2.97,2.92,2.92,0,0,0-4.109-.056A19.972,19.972,0,0,0,530,264.812a7.243,7.243,0,0,1,.944-5.274c1.11-1.488,2.306-2.162,3.217-2.166,1.236-.006,1.348.814,1.6.685a2.588,2.588,0,0,0,.9-2.139,2.186,2.186,0,0,0-1.711-1.942c-1.358-.115-2.839.634-2.321.263a7.166,7.166,0,0,1,2.007-.757,11.6,11.6,0,0,0,4.454-2.219,5.89,5.89,0,0,0,1.469-2.933,2.612,2.612,0,0,0-1.452-.4,6.418,6.418,0,0,0-3.773.994c-1.211.761-2.835,2.37-2.578,2.041a5.283,5.283,0,0,0,1.112-2.306,9.862,9.862,0,0,1,5.576-2.247,5.645,5.645,0,0,1,6.153,4.265,2.64,2.64,0,0,0-.753.459,2.9,2.9,0,0,0-.435-.566,2.149,2.149,0,0,0-2.206-.545,2.234,2.234,0,0,0-1.771,2.1,1.944,1.944,0,0,0-.911.221,2.612,2.612,0,0,0-1.229,1.874,2.091,2.091,0,0,0,.454,2.058,1.855,1.855,0,0,0,.474.34,1.834,1.834,0,0,0-.292.927,2.594,2.594,0,0,0,.907,1.881l0,0h0a2.022,2.022,0,0,0,1.539.644,2.492,2.492,0,0,0,1.263-.454,2.616,2.616,0,0,0,.582.947,2.088,2.088,0,0,0,2.5.275,1.99,1.99,0,0,0,1.138-1.528,2.993,2.993,0,0,0,.03-.863,2.342,2.342,0,0,0,1.529-.411,2.312,2.312,0,0,0,.84-1.831,2.1,2.1,0,0,0-.588-1.643,2.332,2.332,0,0,0-.7-.475,2.122,2.122,0,0,0-.309-2.815,2,2,0,0,0-1.611-.7,6.051,6.051,0,0,0-1.621-2.881,6.191,6.191,0,0,0-5.021-1.744,9.174,9.174,0,0,0-5.488,1.9,4.932,4.932,0,0,0-.078-.566.423.423,0,0,1,.231-.5,17.861,17.861,0,0,1,5.431-2.486A11.155,11.155,0,0,1,546.977,245.059Zm11.817,29.249A1.6,1.6,0,0,1,557.22,274a1.347,1.347,0,0,1-.381-.844.1.1,0,0,0-.031-.072.106.106,0,0,0-.156,0c-.4.452-1.282,1.114-2.577-.176l0,0c-1.311-1.311.408-2.74.408-2.74a2.792,2.792,0,0,1-1.545-.643,1.6,1.6,0,0,1-.165-1.924,1.849,1.849,0,0,1,2.519-.614c.052.051.008-.167-.013-.258a1.712,1.712,0,0,1,1.671-2.349,1.556,1.556,0,0,1,1.245.434,2.085,2.085,0,0,1,.518.994.128.128,0,0,0,.036.066.139.139,0,0,0,.193,0,1.71,1.71,0,0,1,2.533-.063l.008.008c1.22,1.231.105,2.089-.225,2.471a.144.144,0,0,0,.007.2.147.147,0,0,0,.05.032,2.622,2.622,0,0,1,.872.555,1.637,1.637,0,0,1,.41,1.7,1.793,1.793,0,0,1-2.211,1.343S561.063,273.8,558.794,274.308Zm-12.656-16.471a1.85,1.85,0,0,1-.614,2.519,1.6,1.6,0,0,1-1.924-.165,2.794,2.794,0,0,1-.643-1.545s-1.43,1.718-2.74.407l0,0c-1.29-1.295-.628-2.178-.176-2.577a.107.107,0,0,0,0-.157.11.11,0,0,0-.072-.031,1.336,1.336,0,0,1-.843-.38,1.6,1.6,0,0,1-.313-1.574c.506-2.269,2.194-1.588,2.194-1.588a1.793,1.793,0,0,1,1.343-2.211,1.636,1.636,0,0,1,1.7.41,2.612,2.612,0,0,1,.555.872.147.147,0,0,0,.032.05.143.143,0,0,0,.2.006c.382-.329,1.24-1.444,2.471-.224l.008.008a1.71,1.71,0,0,1-.063,2.533.14.14,0,0,0,0,.194.128.128,0,0,0,.066.036,2.091,2.091,0,0,1,.994.517,1.556,1.556,0,0,1,.434,1.245,1.712,1.712,0,0,1-2.349,1.672C546.305,257.829,546.087,257.786,546.138,257.838Z" transform="translate(-523.1 -234.338)" fill="#2e3e91"/>
      <path id="Caminho_2800" data-name="Caminho 2800" d="M576.838,238.894a15.97,15.97,0,0,0-2.789,3.857c-.361.907-.074-.013-.255-.466a.846.846,0,0,0-1-.453c-.181.121.028.08.111.359s-.834.994-.819,2.1c.014,1.056.888,2.633.645,2.53-.3-.129-.825-1.3-1.463-1.463s-2.005.189-1.711,1.369.909,1.014.956.956-.153-.732.018-.879.578-.2.943.307,1.009,1.5,1.664,1.628a1.267,1.267,0,0,0,1.518-.613c.031-.1.984.434,1.791.36a3.219,3.219,0,0,0,2.082-1.327c.243-.6.1-8.994.1-8.994A1.409,1.409,0,0,0,577.3,237C577.024,237.094,577.561,238.188,576.838,238.894Zm.8.269a2.486,2.486,0,0,1-.072,1.346c-.138.343-.606.629-.641.708s.286.126.686-.091.492-.423.458,0a1.781,1.781,0,0,1-.789,1.109,12.217,12.217,0,0,0-1.635.949,2.636,2.636,0,0,0-.789,2.344,1.309,1.309,0,0,0,1.544,1.087c.723-.129.939-.552.885-1.053-.062-.571-.577-.56-.816-.571s-.454.454-.023.732c.249.159.468.126.2.328a.927.927,0,0,1-1.243-.464c-.41-.684.259-1.549,1.029-1.769.924-.264,1.847.782,1.928,1.5a2.071,2.071,0,0,1-1.1,1.991,2.179,2.179,0,0,1-2.859-.5c-.937-.96-.458-2.562-.046-3.385s2.449-2.857,2.939-3.761C577.507,239.263,577.518,239,577.636,239.163Z" transform="translate(-523.895 -234.37)" fill="#2e3e91"/>
      <path id="Caminho_2801" data-name="Caminho 2801" d="M573.171,279.518c-.313-.194-3.086,3.388-4.985,4.648s-4.637,2.923-5.057,3.141,3.29-1.38,3.879-1.664,3.684-1.4,5.849-1.008a12.448,12.448,0,0,1,4.437,2.182,1.068,1.068,0,0,0,.736.036,6.392,6.392,0,0,0-1.108-2.083,4.194,4.194,0,0,0-3.538-.9,21.487,21.487,0,0,1-2.575.358c-.413-.024.183-1.661.6-1.778a19.7,19.7,0,0,0,2.957-.807,2.765,2.765,0,0,0,1.226-1.832,2.032,2.032,0,0,1,.4-1.142c.1-.1-.521-.454-1.26-.05S573.378,279.645,573.171,279.518Z" transform="translate(-523.783 -235.092)" fill="#4192d0"/>
      <path id="Caminho_2802" data-name="Caminho 2802" d="M542.913,276.078a5.466,5.466,0,0,0-.86,4.426,9.527,9.527,0,0,0,3.6,5.253,15.161,15.161,0,0,0,9.55,2.388,23.018,23.018,0,0,0,15.433-8.794c1.852-2.265,4.334-7.12,4.721-10.356a20.152,20.152,0,0,0-.09-6.369c-.231-1.415-.327-3.782-.327-3.782a3.383,3.383,0,0,1,.225-1.2c.112-.212-.688-.484-1.217-.055a2.362,2.362,0,0,0-.89,1.888.994.994,0,0,1-.6,1.047,20.8,20.8,0,0,1-.35-2.445,6.221,6.221,0,0,0-1.334-3.454,21.021,21.021,0,0,0-2.194-2.145,2.864,2.864,0,0,0-1.023,2.145,6.313,6.313,0,0,0,.492,3.07c.68,1.888,1.7,3.539,1.777,3.964s.013.835-.324.2a6.718,6.718,0,0,0-1.709-2.132c-.636-.412-1.151-.787-1.223-.706a6.786,6.786,0,0,0,.038,2.739,13.788,13.788,0,0,0,1.7,3.654c.572.857,2.1,3.335,2.268,4.624a13.572,13.572,0,0,1-.536,6.547,17.768,17.768,0,0,1-3.841,5.661,24.658,24.658,0,0,1-6.435,3.94c-1.808.636-4.389,1.347-4.6,1.159s3.342-1.072,4.514-1.67a15.214,15.214,0,0,0,4.63-3.55c1.06-1.459,1.356-2.2,1.18-2.216-.78-.087-1.374.041-3.248,1.143-.5.294-.336.047-.271-.111.157-.389,1.576-2.006,2.069-2.762a5.492,5.492,0,0,0,1.2-3.2c-.113-1.26-.262-1.608-.4-1.7a4.418,4.418,0,0,0-2.938,2.01,12.958,12.958,0,0,0-1.364,3.528c-.5,1.377-.931,2.309-1.505,2.508s-.789.145-.627-.091a4.18,4.18,0,0,0,.71-1.958,2.028,2.028,0,0,0-.873-1.7,2.312,2.312,0,0,0-2,.025c-.25.175-.174.175.1.624a4.589,4.589,0,0,1-1.913,4.469,7.5,7.5,0,0,1-6.777.879,7.207,7.207,0,0,1-4.292-3.091c-.811-1.459-.984-2.432-.648-3.366S543.087,275.8,542.913,276.078Zm29.719-3.952c.859-3.725-.157-9.442-.17-9.992s.435.574.435.574c.119.773,1.443,6.538.147,10.425a25.426,25.426,0,0,1-5.405,8.565c-.461.477-.726.61-.2.016A25.419,25.419,0,0,0,572.632,272.126Zm-26.445,12.539a8.382,8.382,0,0,0,8.5,1.027,12.971,12.971,0,0,0,6.039-4.593s.255-.035.138.352a14.12,14.12,0,0,1-6.137,4.9,8.816,8.816,0,0,1-7.728-.6C545.8,284.975,545.955,284.433,546.187,284.666Z" transform="translate(-523.413 -234.64)" fill="#4192d0"/>
      <path id="Caminho_2803" data-name="Caminho 2803" d="M563.029,253.844a.113.113,0,0,0-.038-.22,5.224,5.224,0,0,0-3.653,1.852,4.334,4.334,0,0,0-.451,5.921c1.351,1.672,2.4,1.677,3.525,1.48.746-.13,1.2-.885,1.112-.964a3.106,3.106,0,0,1-1.454.016c-.9-.259-.307-.6.372-.4a1.843,1.843,0,0,0,1.956-.953c.323-.842.065-1.2-.048-1.311s-.145.469-.857.728-1.392.064-2.344-.888a2.734,2.734,0,0,1-.37-2.991A3.416,3.416,0,0,1,563.029,253.844Z" transform="translate(-523.693 -234.66)" fill="#4192d0"/>
      <path id="Caminho_2804" data-name="Caminho 2804" d="M541.268,253.007s-1.688-.681-2.194,1.588c-.332,1.487.657,1.929,1.156,1.955a.107.107,0,0,1,.067.188c-.451.4-1.113,1.282.177,2.577,1.311,1.317,2.743-.4,2.743-.4s.214,2.73,2.566,1.71a1.849,1.849,0,0,0,.614-2.519c-.052-.051.167-.008.258.013a1.712,1.712,0,0,0,2.349-1.672,1.666,1.666,0,0,0-1.429-1.762.139.139,0,0,1-.07-.23,1.71,1.71,0,0,0,.055-2.541c-1.231-1.22-2.089-.105-2.471.225a.144.144,0,0,1-.228-.057,1.843,1.843,0,0,0-2.252-1.281A1.793,1.793,0,0,0,541.268,253.007Zm3.782,1.807a1.378,1.378,0,1,1-1.949,0A1.38,1.38,0,0,1,545.05,254.814Z" transform="translate(-523.363 -234.609)" fill="#4192d0"/>
      <path id="Caminho_2805" data-name="Caminho 2805" d="M547.138,256.416a.292.292,0,0,0-.3-.285,3.01,3.01,0,0,1-.875-.192,1.858,1.858,0,0,0-.447-1.324,3.586,3.586,0,0,0,.751-.856.291.291,0,0,0-.047-.349.305.305,0,0,0-.063-.048.292.292,0,0,0-.4.11,3.271,3.271,0,0,1-.693.759,1.867,1.867,0,0,0-1.148-.254c-.024-.142-.059-.386-.089-.737a.291.291,0,1,0-.58.05c.034.408.078.687.1.831a1.759,1.759,0,0,0-.91.869,3.863,3.863,0,0,0-1.28-.376.291.291,0,1,0-.032.581,3.417,3.417,0,0,1,1.132.353,1.867,1.867,0,0,0,.245,1.241.081.081,0,0,0-.015.011,8.542,8.542,0,0,0-.638.711.288.288,0,0,0,.053.408.292.292,0,0,0,.408-.053,8.237,8.237,0,0,1,.568-.633,1.86,1.86,0,0,0,1.516.436,4.2,4.2,0,0,0,.174.811.291.291,0,0,0,.547-.2,3.979,3.979,0,0,1-.158-.8,1.783,1.783,0,0,0,.88-.968,3.479,3.479,0,0,0,1.007.2A.291.291,0,0,0,547.138,256.416Zm-2.12.323a1.249,1.249,0,0,1-.384.26.285.285,0,0,0-.134.049,1.277,1.277,0,1,1,.518-.31Z" transform="translate(-523.396 -234.648)" fill="#2e3e91"/>
      <path id="Caminho_2806" data-name="Caminho 2806" d="M576.865,236.62a1.409,1.409,0,0,0-1.159-1.34s-8.4-.139-8.994.1a3.216,3.216,0,0,0-1.327,2.082c-.075.808.461,1.76.36,1.791a1.267,1.267,0,0,0-.613,1.518c.124.654,1.121,1.3,1.628,1.663s.454.772.307.943-.819-.029-.879.018-.224.661.956.956,1.534-1.074,1.369-1.711-1.334-1.158-1.463-1.463c-.1-.244,1.474.631,2.53.645,1.106.016,1.823-.9,2.1-.819s.238.292.359.111a.846.846,0,0,0-.453-1c-.453-.181-1.373.106-.466-.254a15.972,15.972,0,0,0,3.857-2.788C575.681,236.354,576.775,236.892,576.865,236.62Zm-2.66.006c-.9.491-2.939,2.527-3.761,2.939s-2.425.892-3.385-.045a2.179,2.179,0,0,1-.5-2.859,2.071,2.071,0,0,1,1.991-1.1c.72.081,1.767,1,1.5,1.928-.22.769-1.085,1.438-1.769,1.029a.927.927,0,0,1-.464-1.243c.2-.271.169-.052.328.2.278.431.744.218.732-.022s0-.756-.571-.817c-.5-.054-.925.162-1.052.885a1.308,1.308,0,0,0,1.086,1.544,2.635,2.635,0,0,0,2.344-.789,12.226,12.226,0,0,0,.949-1.635,1.785,1.785,0,0,1,1.109-.789c.423-.034.217.057,0,.458s-.172.72-.091.686.366-.5.708-.641a2.487,2.487,0,0,1,1.346-.073C574.869,236.4,574.606,236.408,574.205,236.625Z" transform="translate(-523.818 -234.339)" fill="#2e3e91"/>
      <path id="Caminho_2807" data-name="Caminho 2807" d="M534.4,240.642c.194.313-3.388,3.086-4.648,4.985s-2.923,4.637-3.141,5.057,1.381-3.29,1.664-3.879,1.4-3.684,1.008-5.849a12.449,12.449,0,0,0-2.182-4.437,1.068,1.068,0,0,1-.036-.736,6.391,6.391,0,0,1,2.083,1.108,4.194,4.194,0,0,1,.9,3.538,21.482,21.482,0,0,0-.358,2.575c.024.413,1.661-.183,1.778-.6a19.7,19.7,0,0,1,.807-2.958,2.765,2.765,0,0,1,1.831-1.226,2.031,2.031,0,0,0,1.142-.4c.1-.1.454.521.051,1.26S534.275,240.434,534.4,240.642Z" transform="translate(-523.147 -234.349)" fill="#4192d0"/>
      <path id="Caminho_2808" data-name="Caminho 2808" d="M536.318,270.767c-.934.336-1.907.162-3.366-.648a7.207,7.207,0,0,1-3.091-4.292,7.5,7.5,0,0,1,.878-6.777,4.592,4.592,0,0,1,4.47-1.913c.449.274.449.35.623.1a2.308,2.308,0,0,0,.026-2,2.028,2.028,0,0,0-1.7-.873,4.18,4.18,0,0,0-1.958.71c-.237.162-.291-.053-.091-.627s1.132-1,2.508-1.505a12.96,12.96,0,0,0,3.528-1.364,4.418,4.418,0,0,0,2.01-2.938c-.087-.138-.436-.287-1.7-.4a5.482,5.482,0,0,0-3.2,1.2c-.756.493-2.373,1.912-2.762,2.069-.158.065-.4.229-.111-.271,1.1-1.875,1.23-2.468,1.142-3.248-.02-.176-.756.12-2.215,1.18a15.2,15.2,0,0,0-3.55,4.63c-.6,1.172-1.484,4.726-1.67,4.514s.524-2.793,1.159-4.6a24.657,24.657,0,0,1,3.94-6.435,17.753,17.753,0,0,1,5.661-3.841,13.572,13.572,0,0,1,6.547-.535c1.289.163,3.767,1.7,4.624,2.268a13.787,13.787,0,0,0,3.654,1.7,6.784,6.784,0,0,0,2.739.038c.082-.073-.294-.588-.7-1.223a6.73,6.73,0,0,0-2.133-1.709c-.636-.337-.224-.4.2-.324s2.075,1.1,3.964,1.777a6.313,6.313,0,0,0,3.07.492,2.864,2.864,0,0,0,2.145-1.023,21.022,21.022,0,0,0-2.145-2.194,6.221,6.221,0,0,0-3.454-1.334,20.788,20.788,0,0,1-2.445-.35.994.994,0,0,1,1.047-.6,2.363,2.363,0,0,0,1.888-.89c.429-.529.157-1.329-.055-1.217a3.406,3.406,0,0,1-1.2.225s-2.367-.1-3.782-.327a20.15,20.15,0,0,0-6.369-.09c-3.237.387-8.091,2.869-10.356,4.721a23.018,23.018,0,0,0-8.794,15.433,15.162,15.162,0,0,0,2.388,9.551,9.528,9.528,0,0,0,5.253,3.6,5.467,5.467,0,0,0,4.426-.86C537.641,270.393,537.253,270.43,536.318,270.767Zm-4.589-24.727c-.6.528-.461.261.016-.2a25.427,25.427,0,0,1,8.565-5.405c3.887-1.3,9.652.029,10.425.147,0,0,1.122.448.574.435s-6.267-1.029-9.992-.17A25.42,25.42,0,0,0,531.729,246.04Zm-4.036,20.439a8.816,8.816,0,0,1-.6-7.728,14.121,14.121,0,0,1,4.9-6.137c.387-.117.352.139.352.139a12.964,12.964,0,0,0-4.593,6.039,8.38,8.38,0,0,0,1.026,8.5C529.011,267.526,528.468,267.68,527.693,266.479Z" transform="translate(-523.123 -234.386)" fill="#4192d0"/>
      <path id="Caminho_2809" data-name="Caminho 2809" d="M560.068,250.931a.113.113,0,0,1,.22.038,5.224,5.224,0,0,1-1.852,3.653,4.334,4.334,0,0,1-5.921.451c-1.672-1.35-1.677-2.4-1.48-3.525.13-.746.885-1.2.964-1.112a3.1,3.1,0,0,0-.016,1.454c.259.9.6.308.4-.372a1.843,1.843,0,0,1,.953-1.956c.842-.323,1.2-.065,1.311.048s-.469.145-.728.857-.064,1.392.888,2.344a2.732,2.732,0,0,0,2.991.37A3.416,3.416,0,0,0,560.068,250.931Z" transform="translate(-523.571 -234.586)" fill="#4192d0"/>
    </g>
    <g id="Grupo_4242" data-name="Grupo 4242" transform="translate(-11082.483 -12757.409)">
      <rect id="Retângulo_731" data-name="Retângulo 731" width="55.704" height="55.704" transform="translate(55.704 55.704) rotate(180)" fill="none"/>
      <path id="Caminho_2810" data-name="Caminho 2810" d="M500.547,289.874h20.976l.293-.151.016.016.113-.286V268.478s-.122-.4-.313-.313a34.271,34.271,0,0,1-2.924,4.368c-1.846,2.143-5.181,3.007-6.85,3.319s-4.713-1.131-4.9-.984c-.146.182,1.273,3.248.961,4.919s-1.177,5-3.319,6.849a34.183,34.183,0,0,1-4.368,2.924C500.147,289.753,500.547,289.874,500.547,289.874Zm14.742-13.924c.844-.666,4.337-2.834,4.955-3.52s.4-1.775.514-1.647a2.258,2.258,0,0,1,.119,3.037,13.983,13.983,0,0,1-2.16,1.851s.412.241,1.115.738a4.731,4.731,0,0,1,1.491,2.659c.223,1.012-.514,2.641-1.774,2.7a1.432,1.432,0,0,1-1.3-2.169c.532-.874,1.424.085,1.424.085s.205,0-.172-.583a3.332,3.332,0,0,0-2.548-.951c-1.022-.008-1.584.589-2.135,1.517a4.691,4.691,0,0,0-.463,3.208,5.089,5.089,0,0,0,1.938,3.584c.827.679,1.956.892,2.529.319.553-.554.764-1.623-.951-3.2s-2.915-1.44-2.915-1.44l.2-1.811s.555-.26,2.58,1.091a6.818,6.818,0,0,1,3.122,3.739c.337,1.27.446,2.642-.285,3.372-.967.968-2.889.8-4.25-.113-1.459-.976-2.978-2.5-3.527-6.484A6.939,6.939,0,0,1,515.29,275.951Zm-10.734,12.17c.686-.618,2.853-4.111,3.52-4.955a7.36,7.36,0,0,1,4.122-2.441,12.946,12.946,0,0,0-.1,1.816c-.1.049-.2.1-.306.159-.929.551-1.525,1.113-1.517,2.135a3.332,3.332,0,0,0,.951,2.548c.583.377.583.172.583.172s-.96-.892-.085-1.424a1.473,1.473,0,0,1,1.554.049,8.2,8.2,0,0,0,.612,1.113c0,.044,0,.087,0,.134-.06,1.26-1.689,2-2.7,1.774a4.731,4.731,0,0,1-2.659-1.492c-.5-.7-.738-1.115-.738-1.115a13.983,13.983,0,0,1-1.851,2.16,2.257,2.257,0,0,1-3.037-.119C502.781,288.523,503.868,288.738,504.555,288.121Z" transform="translate(-466.983 -234.913)" fill="#2e3e91"/>
      <path id="Caminho_2811" data-name="Caminho 2811" d="M511.677,277.07a1.811,1.811,0,1,0,0,2.562A1.811,1.811,0,0,0,511.677,277.07Z" transform="translate(-467.128 -235.059)" fill="#4192d0"/>
      <circle id="Elipse_85" data-name="Elipse 85" cx="1.352" cy="1.352" r="1.352" transform="translate(11.744 11.768)" fill="#2e3e91"/>
      <path id="Caminho_2812" data-name="Caminho 2812" d="M503.1,269.839a.866.866,0,1,0-.075,1.14A.811.811,0,0,0,503.1,269.839Z" transform="translate(-467.008 -234.939)" fill="#2e3e91"/>
      <path id="Caminho_2813" data-name="Caminho 2813" d="M477.921,245.875a2.484,2.484,0,1,1,0,3.513A2.486,2.486,0,0,1,477.921,245.875Zm3.184,3.184a2.018,2.018,0,1,0-2.854,0A2.021,2.021,0,0,0,481.1,249.059Z" transform="translate(-466.581 -234.512)" fill="#2e3e91"/>
      <path id="Caminho_2814" data-name="Caminho 2814" d="M497.315,271.388c.1-.086-.24-.257-.205-.635s.562-.5,1.116-.149c.618.392,1.23.889,2.17.344a2.567,2.567,0,0,1,2.645-2.645c.545-.94.048-1.552-.344-2.171-.352-.554-.228-1.082.149-1.116s.549.309.635.205a1.353,1.353,0,0,0-.892-1.612,1.457,1.457,0,0,0-1.972.823,2.139,2.139,0,0,0,.086,1.887c.264.264-.5.325-.549.189a3.764,3.764,0,0,0-.729-1.433c-.42-.368-2.281-.275-2.508-.254-.022.228-.115,2.089.253,2.508a3.764,3.764,0,0,0,1.433.729c.137.052.076.814-.189.549a2.139,2.139,0,0,0-1.887-.085,1.459,1.459,0,0,0-.823,1.972A1.353,1.353,0,0,0,497.315,271.388Z" transform="translate(-466.901 -234.832)" fill="#2e3e91"/>
      <path id="Caminho_2815" data-name="Caminho 2815" d="M499.313,258.139c.092-.022.31-.065.258-.013a1.848,1.848,0,0,0,.615,2.518c2.352,1.021,2.566-1.709,2.566-1.709s1.432,1.72,2.742.4c1.291-1.3.629-2.179.177-2.577a.108.108,0,0,1,.068-.189c.5-.026,1.489-.468,1.156-1.954-.507-2.269-2.2-1.589-2.2-1.589a1.794,1.794,0,0,0-1.343-2.211,1.842,1.842,0,0,0-2.251,1.282.144.144,0,0,1-.229.056c-.381-.329-1.24-1.444-2.471-.224a1.709,1.709,0,0,0,.056,2.541.139.139,0,0,1-.07.23,1.667,1.667,0,0,0-1.43,1.762A1.713,1.713,0,0,0,499.313,258.139Zm1.671-3.237a1.287,1.287,0,1,1,0,1.821A1.289,1.289,0,0,1,500.985,254.9Z" transform="translate(-466.926 -234.61)" fill="#4192d0"/>
      <path id="Caminho_2816" data-name="Caminho 2816" d="M499.184,256.737a3.526,3.526,0,0,0,1.007-.2,1.784,1.784,0,0,0,.88.968,3.885,3.885,0,0,1-.159.8.292.292,0,0,0,.548.2,4.31,4.31,0,0,0,.174-.811,1.86,1.86,0,0,0,1.516-.436c.37.38.565.63.567.632a.291.291,0,0,0,.462-.355,8.491,8.491,0,0,0-.639-.711s-.01-.006-.015-.01a1.863,1.863,0,0,0,.245-1.241,3.39,3.39,0,0,1,1.133-.353.291.291,0,1,0-.033-.582,3.9,3.9,0,0,0-1.279.377,1.759,1.759,0,0,0-.91-.869c.025-.145.068-.423.1-.832a.291.291,0,0,0-.5-.23.287.287,0,0,0-.085.181c-.029.351-.066.594-.089.737a1.86,1.86,0,0,0-1.148.254,3.324,3.324,0,0,1-.693-.759.292.292,0,0,0-.4-.11.306.306,0,0,0-.063.048.292.292,0,0,0-.047.349,3.666,3.666,0,0,0,.751.856,1.858,1.858,0,0,0-.447,1.324,3.025,3.025,0,0,1-.875.192.287.287,0,0,0-.211.085.3.3,0,0,0-.085.2A.292.292,0,0,0,499.184,256.737Zm1.834-1.8a1.287,1.287,0,1,1,.519,2.131.273.273,0,0,0-.135-.049,1.28,1.28,0,0,1-.384-2.082Z" transform="translate(-466.96 -234.649)" fill="#2e3e91"/>
      <path id="Caminho_2817" data-name="Caminho 2817" d="M468.083,249.966c.959.433,1.389.552,1.121.686-.585.291-1.866,1.081-1.866,1.081V260a36.274,36.274,0,0,0,.8,8.216c1,4.765,4.254,9.583,4.275,9.905s-.558-.516-1.483-.795-1.934.257-1.826.451.546.054.771,1.158a2.578,2.578,0,0,0,2.623,2.494c1.592.109,2.127.753,2.288,1.214s.547.677-1.974.175a4.656,4.656,0,0,0-4.2.824c-.387.344-1.569,3.029-1.222,3.892s2.06,1.029,3,.808a9.186,9.186,0,0,0,3.159-1.739,4.161,4.161,0,0,1,2.2-.769c-.172.172-2.621,1.247-2.471,2.471s1.827.967,1.912.795.258-1.675,3.266-1.633,5.652,1.1,11.485,1.645,9.808-1.107,13.289-4.589A8.272,8.272,0,0,0,504.17,274a5.145,5.145,0,0,0-.723-.743c.256-.3.522-.589.8-.873l.222-.223q.411-.4.84-.768a5.2,5.2,0,0,0,.743.723,8.274,8.274,0,0,0,10.524-.95c3.481-3.48,5.137-7.454,4.589-13.288s-1.6-8.478-1.645-11.485,1.461-3.181,1.633-3.266.429-1.762-.795-1.912-2.3,2.3-2.471,2.47a4.153,4.153,0,0,1,.768-2.2,9.189,9.189,0,0,0,1.74-3.159c.22-.94.055-2.653-.808-3s-3.548.835-3.892,1.221a4.657,4.657,0,0,0-.824,4.2c.5,2.521.288,2.135-.175,1.973s-1.105-.7-1.214-2.288a2.578,2.578,0,0,0-2.494-2.623c-1.1-.225-.965-.664-1.158-.771s-.731.9-.452,1.827,1.118,1.5.8,1.483-5.14-3.279-9.905-4.276a36.337,36.337,0,0,0-8.216-.8h-8.27s-.79,1.281-1.081,1.866c-.134.268-.253-.162-.686-1.12-.312-.69-1.594-.89-1.82-.84.275.032,1.54,2.1,1.042,3.264a17.318,17.318,0,0,0,.4,2.641s.972,1.337,1.884.028c.615-.88-.456-1.542-.456-1.542s.794-.85,5.412-2.387a15.891,15.891,0,0,1,8.252-.237c1.422.232,1.484.434,1.493.483a24.28,24.28,0,0,0-3.482.145,19.578,19.578,0,0,1-3.684.532,4.557,4.557,0,0,1-1.771-.344,1.078,1.078,0,0,0-.469,1.265c.239.717,1.185,1.8,1.752,1.832s-.9.08-1.383.11a8.988,8.988,0,0,0-3.265,1.692c-.826.766-1.653,1.872-2.2,2.06s1.115,1.553,2.051,1.553.19.1-.165.234a19.438,19.438,0,0,0-1.764,1.566c-.591.473-.956.463-1.192.247s-.542.265-.582.62a1.166,1.166,0,0,0,1.556,1.123,4.459,4.459,0,0,0,1.53-.7,2.908,2.908,0,0,0-.365,1.453,10.8,10.8,0,0,0,.63,2.566,10.181,10.181,0,0,0-2.535-.658,2.908,2.908,0,0,0-1.453.365,4.482,4.482,0,0,0,.7-1.53,1.166,1.166,0,0,0-1.123-1.556c-.355.039-.837.345-.621.582s.227.6-.246,1.192a19.616,19.616,0,0,0-1.567,1.764c-.138.355-.234,1.1-.234.165s-1.364-2.6-1.552-2.051-1.294,1.374-2.06,2.2a9.009,9.009,0,0,0-1.693,3.265c-.029.488-.08,1.951-.109,1.384s-1.115-1.513-1.832-1.753a1.076,1.076,0,0,0-1.265.469,4.564,4.564,0,0,1,.344,1.771,19.6,19.6,0,0,1-.532,3.685,24.26,24.26,0,0,0-.145,3.481c-.05-.01-.252-.072-.483-1.493a15.866,15.866,0,0,1,.237-8.251c1.536-4.619,2.387-5.413,2.387-5.413s.66,1.071,1.542.457c1.308-.913-.028-1.885-.028-1.885a17.316,17.316,0,0,0-2.642-.4c-1.161.5-3.231-.765-3.263-1.041C467.193,248.373,467.394,249.653,468.083,249.966Zm29.747,32.967c-.116.033-.234.064-.354.092a19.435,19.435,0,0,1,1.071-4.92,1.886,1.886,0,0,0,1.21.244,18.385,18.385,0,0,0-1.035,4.255A7.409,7.409,0,0,1,497.83,282.933Zm4.512-4.12a5.963,5.963,0,0,1-2.995,3.488,17.7,17.7,0,0,1,1.1-4.122,2.027,2.027,0,0,0,1.309-2.6c.018-.028.037-.056.055-.085A5.089,5.089,0,0,1,502.342,278.813Zm1.719-7.063,0,0-.086.085-.016.015h0l-.126.125,0,0q-.45.457-.862.937a3.763,3.763,0,0,0-1.2-.5c.391-.477.807-.94,1.251-1.386h0l.1-.1q.647-.638,1.337-1.2a3.766,3.766,0,0,0,.5,1.2C504.656,271.184,504.356,271.462,504.061,271.75Zm6.8-1.46a5.088,5.088,0,0,1-3.321-.529c.029-.017.056-.037.085-.054a2.029,2.029,0,0,0,2.6-1.309,17.689,17.689,0,0,1,4.122-1.1A5.965,5.965,0,0,1,510.863,270.29Zm4.12-4.513a7.392,7.392,0,0,1-.328.892A18.336,18.336,0,0,0,510.4,267.7a1.879,1.879,0,0,0-.245-1.21,19.36,19.36,0,0,1,4.921-1.071C515.046,265.544,515.016,265.662,514.983,265.777Zm-37.853.388a19.766,19.766,0,0,0,2.119-4.3c.423-1.422.116-3.554-.083-3.537-1.014.087-1.833.935-1.839.688-.012-.444.9-1.479.914-2.44a8.7,8.7,0,0,1,1.928-1.252,2.933,2.933,0,0,1,3.458.525,2.04,2.04,0,0,1,.616,1.954c-.13.87-1.03,1.582-1.6,1.436-.532-.135-.934-.91-1.1-.836a1.309,1.309,0,0,0-.7.977,2.343,2.343,0,0,0,.913,1.94c.213,1.94,3.066,2.217,4.772.968,1.648-1.206,2.028-3.634,2.233-3.875s.292.257.446.721,1.1,2.2,2.232,2.232a2.265,2.265,0,0,0,1.586-.39l0,0a2.279,2.279,0,0,0,.385-1.58c-.036-1.135-1.769-2.078-2.231-2.232s-.961-.241-.721-.446,2.67-.587,3.875-2.234c1.249-1.707.972-4.559-.968-4.771a2.34,2.34,0,0,0-1.94-.914,1.311,1.311,0,0,0-.977.7c-.074.162.7.565.836,1.1.146.572-.566,1.473-1.436,1.6a2.04,2.04,0,0,1-1.954-.617,2.931,2.931,0,0,1-.525-3.457,8.715,8.715,0,0,1,1.252-1.929c.961-.019,2-.926,2.44-.914.248.007-.6.826-.688,1.839-.018.2,2.115.506,3.537.084a19.771,19.771,0,0,0,4.3-2.12,11.15,11.15,0,0,1,7.463-.76,17.877,17.877,0,0,1,5.431,2.485.426.426,0,0,1,.232.5,4.5,4.5,0,0,0-.078.566,9.179,9.179,0,0,0-5.489-1.9,6.19,6.19,0,0,0-5.021,1.744,6.057,6.057,0,0,0-1.62,2.881,2,2,0,0,0-1.611.7,2.121,2.121,0,0,0-.31,2.814,2.379,2.379,0,0,0-.7.476,2.092,2.092,0,0,0-.587,1.643,2.311,2.311,0,0,0,.839,1.831,2.344,2.344,0,0,0,1.529.411,2.954,2.954,0,0,0,.031.863,1.989,1.989,0,0,0,1.137,1.528,2.089,2.089,0,0,0,2.5-.275,2.632,2.632,0,0,0,.583-.947,2.489,2.489,0,0,0,1.263.454,2.021,2.021,0,0,0,1.538-.644h0l0,0a2.6,2.6,0,0,0,.907-1.881,1.841,1.841,0,0,0-.293-.928,1.828,1.828,0,0,0,.474-.339,2.087,2.087,0,0,0,.454-2.059,2.611,2.611,0,0,0-1.228-1.873,1.948,1.948,0,0,0-.912-.221,2.232,2.232,0,0,0-1.771-2.1,2.149,2.149,0,0,0-2.206.545,2.872,2.872,0,0,0-.435.566,2.6,2.6,0,0,0-.752-.459,5.645,5.645,0,0,1,6.153-4.266,9.864,9.864,0,0,1,5.575,2.248,5.281,5.281,0,0,0,1.113,2.306c.255.328-1.367-1.279-2.578-2.041a6.428,6.428,0,0,0-3.774-1,2.621,2.621,0,0,0-1.452.4,5.9,5.9,0,0,0,1.47,2.933,11.591,11.591,0,0,0,4.454,2.219,7.155,7.155,0,0,1,2.006.757c.519.37-.962-.379-2.32-.263a2.186,2.186,0,0,0-1.712,1.942,2.594,2.594,0,0,0,.9,2.139c.257.129.369-.691,1.6-.685.912,0,2.107.678,3.217,2.166a7.248,7.248,0,0,1,.945,5.274,19.972,19.972,0,0,0-5.411,1.181,2.921,2.921,0,0,0-4.11.056,4.184,4.184,0,0,0-1.287,2.969,20.256,20.256,0,0,0-1.62,1.428l0,0-.036.036c-.02.021-.042.038-.062.059l0,0-.057.057h0l-.02.021-.053.053,0,0a19.778,19.778,0,0,0-1.45,1.645,4.188,4.188,0,0,0-2.97,1.287,2.922,2.922,0,0,0-.056,4.11,20.008,20.008,0,0,0-1.18,5.411,7.238,7.238,0,0,1-5.274-.945c-1.489-1.109-2.163-2.305-2.167-3.217,0-1.235.814-1.347.686-1.6a2.591,2.591,0,0,0-2.139-.906,2.188,2.188,0,0,0-1.943,1.712c-.115,1.358.634,2.839.263,2.32a7.187,7.187,0,0,1-.757-2.006,11.571,11.571,0,0,0-2.219-4.454,5.9,5.9,0,0,0-2.933-1.47,2.628,2.628,0,0,0-.4,1.452,6.414,6.414,0,0,0,1,3.774c.762,1.211,2.369,2.835,2.041,2.578a5.283,5.283,0,0,0-2.306-1.112,9.865,9.865,0,0,1-2.248-5.576,5.644,5.644,0,0,1,4.266-6.153,2.6,2.6,0,0,0,.459.753,2.871,2.871,0,0,0-.567.434,2.15,2.15,0,0,0-.544,2.207,2.232,2.232,0,0,0,2.095,1.77,1.95,1.95,0,0,0,.222.912,2.609,2.609,0,0,0,1.873,1.228,2.087,2.087,0,0,0,2.059-.454,1.858,1.858,0,0,0,.339-.474,1.838,1.838,0,0,0,.927.293,2.6,2.6,0,0,0,1.882-.907l0,0h0a2.021,2.021,0,0,0,.645-1.538,2.5,2.5,0,0,0-.454-1.263,2.61,2.61,0,0,0,.946-.583,2.086,2.086,0,0,0,.275-2.5,1.989,1.989,0,0,0-1.528-1.137,2.95,2.95,0,0,0-.862-.031,2.343,2.343,0,0,0-.411-1.529,2.316,2.316,0,0,0-1.831-.839,2.1,2.1,0,0,0-1.643.587,2.351,2.351,0,0,0-.476.7,2.12,2.12,0,0,0-2.814.309,2,2,0,0,0-.7,1.611,6.055,6.055,0,0,0-2.88,1.62,6.194,6.194,0,0,0-1.745,5.022,9.178,9.178,0,0,0,1.9,5.488,4.643,4.643,0,0,0-.565.078.426.426,0,0,1-.5-.232,17.862,17.862,0,0,1-2.486-5.431A11.152,11.152,0,0,1,477.129,266.165Zm29.249-11.817a1.6,1.6,0,0,1-.313,1.574,1.338,1.338,0,0,1-.843.38.115.115,0,0,0-.073.031.107.107,0,0,0,0,.157c.452.4,1.114,1.282-.177,2.577l0,0c-1.31,1.311-2.739-.407-2.739-.407a2.791,2.791,0,0,1-.644,1.545,1.6,1.6,0,0,1-1.924.164,1.848,1.848,0,0,1-.614-2.518c.052-.052-.166-.009-.258.013a1.713,1.713,0,0,1-2.349-1.672,1.562,1.562,0,0,1,.434-1.245,2.093,2.093,0,0,1,1-.517.139.139,0,0,0,.066-.036.141.141,0,0,0,0-.194,1.709,1.709,0,0,1-.064-2.533l.008-.008c1.231-1.22,2.09-.105,2.471.224a.141.141,0,0,0,.228-.056,2.645,2.645,0,0,1,.555-.872,1.639,1.639,0,0,1,1.7-.411,1.794,1.794,0,0,1,1.343,2.211S505.871,252.079,506.378,254.348ZM489.907,267a1.848,1.848,0,0,1,2.519.614,1.6,1.6,0,0,1-.165,1.923,2.788,2.788,0,0,1-1.545.644s1.719,1.43.408,2.739l0,0c-1.3,1.29-2.179.628-2.578.176a.108.108,0,0,0-.188.068,1.34,1.34,0,0,1-.381.843,1.6,1.6,0,0,1-1.574.313c-2.269-.507-1.588-2.2-1.588-2.2a1.793,1.793,0,0,1-2.211-1.343,1.639,1.639,0,0,1,.41-1.7,2.636,2.636,0,0,1,.873-.554.153.153,0,0,0,.049-.032.145.145,0,0,0,.007-.2c-.329-.381-1.445-1.24-.225-2.47l.009-.009a1.71,1.71,0,0,1,2.533.064.14.14,0,0,0,.194,0,.138.138,0,0,0,.035-.066,2.092,2.092,0,0,1,.518-1,1.561,1.561,0,0,1,1.245-.434,1.712,1.712,0,0,1,1.671,2.349C489.9,266.837,489.856,267.055,489.907,267Z" transform="translate(-466.407 -234.338)" fill="#2e3e91"/>
      <path id="Caminho_2818" data-name="Caminho 2818" d="M470.963,237.1a16,16,0,0,0,3.857,2.789c.908.36-.013.074-.466.254a.846.846,0,0,0-.452,1c.12.182.08-.027.358-.11s1,.834,2.1.819c1.056-.014,2.632-.888,2.529-.645-.129.3-1.3.825-1.462,1.462s.189,2.006,1.368,1.711,1.015-.908.956-.955-.731.153-.879-.018-.2-.578.308-.944,1.5-1.008,1.628-1.663a1.266,1.266,0,0,0-.614-1.517c-.1-.032.434-.984.36-1.791a3.218,3.218,0,0,0-1.326-2.083c-.6-.242-8.994-.1-8.994-.1a1.412,1.412,0,0,0-1.16,1.341C469.164,236.915,470.257,236.377,470.963,237.1Zm.27-.8a2.483,2.483,0,0,1,1.345.073c.343.137.629.606.709.641s.126-.286-.091-.687-.423-.491,0-.457a1.784,1.784,0,0,1,1.109.789,12.285,12.285,0,0,0,.949,1.635,2.636,2.636,0,0,0,2.343.789,1.309,1.309,0,0,0,1.087-1.544c-.129-.723-.552-.939-1.052-.885-.572.062-.56.577-.572.817s.455.454.732.022c.16-.248.126-.468.329-.2a.928.928,0,0,1-.465,1.243c-.684.409-1.548-.259-1.768-1.029-.265-.924.782-1.848,1.5-1.928a2.072,2.072,0,0,1,1.991,1.1,2.18,2.18,0,0,1-.5,2.859c-.961.937-2.562.457-3.385.045s-2.857-2.448-3.762-2.939C471.333,236.432,471.069,236.42,471.233,236.3Z" transform="translate(-466.439 -234.34)" fill="#2e3e91"/>
      <path id="Caminho_2819" data-name="Caminho 2819" d="M511.587,240.666c-.194.312,3.389,3.086,4.648,4.985s2.923,4.637,3.142,5.056-1.381-3.29-1.665-3.879-1.4-3.683-1.007-5.848a12.452,12.452,0,0,1,2.181-4.438,1.062,1.062,0,0,0,.037-.735,6.37,6.37,0,0,0-2.083,1.108,4.189,4.189,0,0,0-.9,3.537,21.371,21.371,0,0,1,.359,2.576c-.025.413-1.661-.183-1.779-.6a19.691,19.691,0,0,0-.806-2.957,2.764,2.764,0,0,0-1.832-1.226,2.038,2.038,0,0,1-1.143-.4c-.1-.1-.453.521-.05,1.261S511.715,240.458,511.587,240.666Z" transform="translate(-467.162 -234.349)" fill="#4192d0"/>
      <path id="Caminho_2820" data-name="Caminho 2820" d="M508.147,270.591a5.462,5.462,0,0,0,4.426.861,9.529,9.529,0,0,0,5.253-3.6,15.171,15.171,0,0,0,2.389-9.55,23.017,23.017,0,0,0-8.795-15.433c-2.264-1.853-7.12-4.334-10.356-4.721a20.182,20.182,0,0,0-6.368.089c-1.415.232-3.782.327-3.782.327a3.389,3.389,0,0,1-1.2-.224c-.211-.112-.483.688-.055,1.216a2.363,2.363,0,0,0,1.888.891.992.992,0,0,1,1.047.6,20.588,20.588,0,0,1-2.444.349,6.239,6.239,0,0,0-3.455,1.334,21.1,21.1,0,0,0-2.145,2.2,2.866,2.866,0,0,0,2.145,1.023,6.309,6.309,0,0,0,3.07-.492c1.888-.68,3.54-1.7,3.964-1.777s.835-.013.2.324a6.722,6.722,0,0,0-2.132,1.708c-.412.637-.786,1.152-.706,1.224a6.807,6.807,0,0,0,2.74-.038,13.8,13.8,0,0,0,3.653-1.7c.857-.573,3.336-2.1,4.624-2.269a13.573,13.573,0,0,1,6.547.536,17.741,17.741,0,0,1,5.662,3.841,24.641,24.641,0,0,1,3.94,6.435c.637,1.808,1.347,4.389,1.16,4.6s-1.073-3.343-1.671-4.515a15.183,15.183,0,0,0-3.55-4.629c-1.459-1.06-2.2-1.357-2.215-1.18-.088.78.04,1.374,1.142,3.247.294.5.047.336-.111.272-.388-.158-2.005-1.577-2.761-2.069a5.488,5.488,0,0,0-3.2-1.2c-1.26.112-1.608.262-1.7.4a4.421,4.421,0,0,0,2.01,2.938,12.968,12.968,0,0,0,3.528,1.365c1.377.5,2.309.931,2.509,1.505s.145.789-.091.627a4.176,4.176,0,0,0-1.957-.71,2.023,2.023,0,0,0-1.7.873,2.306,2.306,0,0,0,.025,1.995c.175.25.175.175.624-.1a4.591,4.591,0,0,1,4.469,1.913,7.5,7.5,0,0,1,.878,6.777,7.2,7.2,0,0,1-3.09,4.291c-1.459.811-2.432.986-3.367.648S507.873,270.417,508.147,270.591ZM504.2,240.872c-3.724-.859-9.442.156-9.991.17s.573-.435.573-.435c.774-.119,6.539-1.444,10.426-.147a25.421,25.421,0,0,1,8.565,5.405c.477.461.61.726.015.2A25.392,25.392,0,0,0,504.2,240.872Zm12.539,26.445a8.381,8.381,0,0,0,1.027-8.5,12.948,12.948,0,0,0-4.594-6.038s-.035-.255.353-.14a14.135,14.135,0,0,1,4.9,6.137,8.819,8.819,0,0,1-.6,7.729C517.045,267.7,516.5,267.549,516.735,267.317Z" transform="translate(-466.709 -234.386)" fill="#4192d0"/>
      <path id="Caminho_2821" data-name="Caminho 2821" d="M485.913,250.955a.113.113,0,0,0-.22.038,5.228,5.228,0,0,0,1.852,3.653,4.335,4.335,0,0,0,5.921.451c1.672-1.351,1.677-2.4,1.481-3.525-.131-.746-.885-1.2-.964-1.113a3.118,3.118,0,0,1,.015,1.454c-.258.906-.6.308-.4-.371a1.842,1.842,0,0,0-.954-1.956c-.841-.324-1.2-.065-1.31.048s.469.145.727.857.064,1.392-.888,2.343a2.732,2.732,0,0,1-2.991.371A3.419,3.419,0,0,1,485.913,250.955Z" transform="translate(-466.729 -234.587)" fill="#4192d0"/>
      <path id="Caminho_2822" data-name="Caminho 2822" d="M485.076,272.656s-.68,1.688,1.588,2.2c1.488.332,1.93-.657,1.955-1.156a.108.108,0,0,1,.189-.068c.4.452,1.281,1.114,2.577-.176,1.316-1.312-.4-2.743-.4-2.743s2.73-.214,1.71-2.566a1.847,1.847,0,0,0-2.518-.614c-.052.051-.009-.167.013-.258a1.713,1.713,0,0,0-1.672-2.35,1.666,1.666,0,0,0-1.762,1.43.14.14,0,0,1-.23.07,1.71,1.71,0,0,0-2.541-.055c-1.221,1.23-.105,2.089.224,2.47a.145.145,0,0,1-.056.229,1.843,1.843,0,0,0-1.282,2.252A1.794,1.794,0,0,0,485.076,272.656Zm1.808-3.781a1.378,1.378,0,1,1,0,1.949A1.377,1.377,0,0,1,486.884,268.875Z" transform="translate(-466.679 -234.857)" fill="#4192d0"/>
      <path id="Caminho_2823" data-name="Caminho 2823" d="M488.486,266.853a.288.288,0,0,0-.2.085.294.294,0,0,0-.085.211,3.01,3.01,0,0,1-.191.876,1.851,1.851,0,0,0-1.324.446,3.691,3.691,0,0,0-.856-.751.294.294,0,0,0-.35.048.257.257,0,0,0-.047.063.289.289,0,0,0,.11.4,3.315,3.315,0,0,1,.759.694,1.858,1.858,0,0,0-.254,1.148c-.142.024-.387.059-.737.089a.291.291,0,0,0,.049.58c.409-.035.687-.078.831-.1a1.855,1.855,0,0,0,.385.57,1.825,1.825,0,0,0,.484.34,3.885,3.885,0,0,0-.377,1.279.291.291,0,1,0,.582.033,3.39,3.39,0,0,1,.353-1.133,1.862,1.862,0,0,0,1.241-.244s0,.01.01.015a8.577,8.577,0,0,0,.711.638.291.291,0,1,0,.355-.461s-.252-.2-.632-.568a1.86,1.86,0,0,0,.436-1.516,4.3,4.3,0,0,0,.811-.174.291.291,0,0,0-.2-.547,3.938,3.938,0,0,1-.8.158,1.83,1.83,0,0,0-.329-.465,1.856,1.856,0,0,0-.639-.416,3.509,3.509,0,0,0,.2-1.007A.291.291,0,0,0,488.486,266.853Zm.322,2.119a1.273,1.273,0,0,1,.26.384.289.289,0,0,0,.049.135,1.277,1.277,0,1,1-.31-.519Z" transform="translate(-466.718 -234.891)" fill="#2e3e91"/>
      <path id="Caminho_2824" data-name="Caminho 2824" d="M468.689,237.028a1.41,1.41,0,0,0-1.341,1.159s-.139,8.4.1,8.994a3.223,3.223,0,0,0,2.082,1.327c.809.075,1.76-.461,1.792-.361a1.266,1.266,0,0,0,1.517.614c.655-.124,1.3-1.121,1.663-1.628s.773-.454.944-.307-.029.819.018.878.66.224.955-.955-1.073-1.534-1.711-1.369-1.157,1.334-1.463,1.463c-.243.1.631-1.474.646-2.53.015-1.106-.9-1.823-.82-2.1s.292-.237.111-.358a.846.846,0,0,0-1,.453c-.182.452.105,1.373-.254.466a15.982,15.982,0,0,0-2.789-3.858C468.423,238.212,468.961,237.118,468.689,237.028Zm.006,2.659c.491.9,2.527,2.939,2.939,3.762s.892,2.424-.046,3.385a2.178,2.178,0,0,1-2.858.5,2.073,2.073,0,0,1-1.1-1.991c.081-.72,1.005-1.768,1.929-1.5.769.22,1.438,1.084,1.028,1.769a.926.926,0,0,1-1.243.464c-.271-.2-.052-.169.2-.329.431-.277.218-.743-.022-.731s-.755,0-.817.571c-.054.5.162.924.885,1.052a1.309,1.309,0,0,0,1.544-1.086,2.64,2.64,0,0,0-.789-2.344,12.281,12.281,0,0,0-1.635-.949,1.784,1.784,0,0,1-.789-1.109c-.034-.423.057-.217.457,0s.72.172.686.091-.5-.366-.64-.709a2.483,2.483,0,0,1-.073-1.345C468.466,239.023,468.478,239.287,468.7,239.687Z" transform="translate(-466.409 -234.37)" fill="#2e3e91"/>
      <path id="Caminho_2825" data-name="Caminho 2825" d="M472.712,279.541c.312-.194,3.086,3.389,4.985,4.648s4.637,2.923,5.056,3.142-3.29-1.381-3.879-1.664a8.816,8.816,0,0,0-10.286,1.173,1.065,1.065,0,0,1-.736.037,6.379,6.379,0,0,1,1.109-2.083,4.192,4.192,0,0,1,3.537-.9,21.554,21.554,0,0,0,2.575.358c.414-.025-.183-1.662-.6-1.779a19.561,19.561,0,0,1-2.957-.806,2.764,2.764,0,0,1-1.226-1.831,2.038,2.038,0,0,0-.4-1.143c-.1-.1.521-.453,1.261-.05S472.5,279.669,472.712,279.541Z" transform="translate(-466.418 -235.093)" fill="#4192d0"/>
      <path id="Caminho_2826" data-name="Caminho 2826" d="M502.836,277.149c.337.935.162,1.908-.648,3.367a7.2,7.2,0,0,1-4.292,3.09,7.492,7.492,0,0,1-6.777-.878,4.589,4.589,0,0,1-1.912-4.469c.274-.449.349-.449.1-.624a2.31,2.31,0,0,0-1.995-.025,2.029,2.029,0,0,0-.873,1.7,4.186,4.186,0,0,0,.711,1.957c.162.238-.054.292-.627.092s-1-1.133-1.505-2.509a12.963,12.963,0,0,0-1.365-3.527,4.423,4.423,0,0,0-2.938-2.011c-.138.087-.287.437-.4,1.7a5.488,5.488,0,0,0,1.2,3.2c.492.756,1.911,2.373,2.069,2.761.064.159.228.406-.272.111-1.875-1.1-2.467-1.23-3.248-1.142-.176.02.121.756,1.18,2.215a15.2,15.2,0,0,0,4.63,3.55c1.172.6,4.726,1.485,4.514,1.671s-2.792-.524-4.6-1.159a24.64,24.64,0,0,1-6.434-3.941,17.747,17.747,0,0,1-3.841-5.661,13.574,13.574,0,0,1-.536-6.547c.164-1.289,1.7-3.768,2.268-4.625a13.758,13.758,0,0,0,1.7-3.653,6.8,6.8,0,0,0,.038-2.739c-.074-.082-.589.293-1.224.7a6.722,6.722,0,0,0-1.708,2.132c-.337.637-.4.225-.324-.2s1.1-2.075,1.776-3.964a6.286,6.286,0,0,0,.492-3.07,2.861,2.861,0,0,0-1.022-2.144,20.951,20.951,0,0,0-2.2,2.144,6.231,6.231,0,0,0-1.334,3.455,20.592,20.592,0,0,1-.349,2.444.991.991,0,0,1-.6-1.047,2.363,2.363,0,0,0-.891-1.887c-.529-.429-1.328-.157-1.216.055a3.383,3.383,0,0,1,.224,1.2s-.1,2.367-.327,3.782a20.143,20.143,0,0,0-.09,6.368c.388,3.238,2.869,8.092,4.722,10.356a23.007,23.007,0,0,0,15.433,8.795,15.171,15.171,0,0,0,9.551-2.388,9.533,9.533,0,0,0,3.6-5.253,5.467,5.467,0,0,0-.861-4.427C502.462,275.827,502.5,276.213,502.836,277.149Zm-24.726,4.589c.527.6.261.462-.2-.015a25.412,25.412,0,0,1-5.405-8.565c-1.3-3.887.028-9.652.147-10.426,0,0,.448-1.122.434-.573s-1.028,6.267-.169,9.991A25.391,25.391,0,0,0,478.11,281.737Zm20.439,4.036a8.818,8.818,0,0,1-7.729.6,14.121,14.121,0,0,1-6.137-4.9c-.116-.387.14-.353.14-.353a12.948,12.948,0,0,0,6.038,4.593,8.383,8.383,0,0,0,8.5-1.026C499.595,284.457,499.75,285,498.549,285.774Z" transform="translate(-466.455 -234.64)" fill="#4192d0"/>
      <path id="Caminho_2827" data-name="Caminho 2827" d="M483,253.868a.113.113,0,0,1,.037-.22,5.226,5.226,0,0,1,3.654,1.852,4.333,4.333,0,0,1,.45,5.92c-1.35,1.673-2.4,1.678-3.524,1.481-.747-.13-1.2-.885-1.113-.964a3.1,3.1,0,0,0,1.454.015c.906-.258.308-.6-.371-.4a1.842,1.842,0,0,1-1.956-.954c-.324-.841-.066-1.2.048-1.31s.145.469.857.727,1.391.064,2.343-.887a2.732,2.732,0,0,0,.371-2.991A3.417,3.417,0,0,0,483,253.868Z" transform="translate(-466.656 -234.66)" fill="#4192d0"/>
    </g>
    <g id="Grupo_4243" data-name="Grupo 4243" transform="translate(-11082.483 -12701.705)">
      <rect id="Retângulo_732" data-name="Retângulo 732" width="55.704" height="55.704" transform="translate(55.704 0) rotate(90)" fill="none"/>
      <path id="Caminho_2828" data-name="Caminho 2828" d="M521.944,313.168V292.194l-.152-.293.017-.017-.286-.112H500.547s-.4.122-.312.313a34.181,34.181,0,0,1,4.368,2.924c2.142,1.846,3.006,5.18,3.319,6.85s-1.131,4.712-.984,4.9c.181.146,3.248-1.273,4.918-.961s5,1.177,6.85,3.319a34.272,34.272,0,0,1,2.924,4.368C521.823,313.568,521.944,313.168,521.944,313.168ZM508.02,298.426c-.666-.843-2.833-4.336-3.52-4.954s-1.775-.4-1.647-.515a2.259,2.259,0,0,1,3.037-.119A14,14,0,0,1,507.743,295s.24-.412.737-1.115a4.735,4.735,0,0,1,2.659-1.492c1.012-.223,2.642.515,2.7,1.775a1.432,1.432,0,0,1-2.168,1.3c-.875-.532.085-1.424.085-1.424s0-.205-.584.172a3.334,3.334,0,0,0-.951,2.548c-.008,1.022.589,1.584,1.517,2.135a4.7,4.7,0,0,0,3.208.463,5.088,5.088,0,0,0,3.585-1.939c.679-.826.891-1.955.318-2.528-.553-.553-1.622-.765-3.2.95s-1.441,2.916-1.441,2.916l-1.811-.2s-.259-.556,1.091-2.58a6.819,6.819,0,0,1,3.74-3.122c1.269-.337,2.641-.446,3.372.284.968.968.8,2.889-.114,4.251-.975,1.459-2.5,2.978-6.483,3.527A6.939,6.939,0,0,1,508.02,298.426Zm12.17,10.735c-.617-.686-4.111-2.853-4.954-3.52a7.364,7.364,0,0,1-2.442-4.122,12.954,12.954,0,0,0,1.817.1c.049.1.1.2.159.306.551.929,1.113,1.525,2.134,1.517a3.334,3.334,0,0,0,2.548-.951c.378-.584.172-.584.172-.584s-.892.961-1.424.086a1.473,1.473,0,0,1,.05-1.554,8.186,8.186,0,0,0,1.113-.612c.044,0,.086,0,.133,0,1.26.059,2,1.689,1.774,2.7a4.732,4.732,0,0,1-1.492,2.659c-.7.5-1.115.737-1.115.737a14,14,0,0,1,2.161,1.852,2.258,2.258,0,0,1-.119,3.037C520.592,310.936,520.808,309.847,520.19,309.161Z" transform="translate(-466.983 -291.029)" fill="#2e3e91"/>
      <circle id="Elipse_86" data-name="Elipse 86" cx="1.812" cy="1.812" r="1.812" transform="translate(41.48 10.625)" fill="#4192d0"/>
      <circle id="Elipse_87" data-name="Elipse 87" cx="1.352" cy="1.352" r="1.352" transform="translate(11.768 41.257)" fill="#2e3e91"/>
      <path id="Caminho_2829" data-name="Caminho 2829" d="M501.908,310.973a.866.866,0,1,0,1.141.075A.812.812,0,0,0,501.908,310.973Z" transform="translate(-467.009 -291.361)" fill="#2e3e91"/>
      <path id="Caminho_2830" data-name="Caminho 2830" d="M477.944,336.093a2.484,2.484,0,1,1,3.513,0A2.488,2.488,0,0,1,477.944,336.093Zm3.183-3.183a2.018,2.018,0,1,0,0,2.854A2.02,2.02,0,0,0,481.128,332.909Z" transform="translate(-466.581 -291.728)" fill="#2e3e91"/>
      <path id="Caminho_2831" data-name="Caminho 2831" d="M503.457,316.645c-.085-.1-.256.241-.634.206s-.5-.563-.15-1.117c.392-.617.889-1.23.344-2.169a2.566,2.566,0,0,1-2.644-2.645c-.941-.545-1.552-.048-2.171.344-.554.352-1.083.228-1.117-.149s.309-.549.206-.635a1.351,1.351,0,0,0-1.612.891,1.458,1.458,0,0,0,.823,1.973,2.141,2.141,0,0,0,1.887-.085c.264-.265.326.5.189.548a3.8,3.8,0,0,0-1.433.729c-.368.421-.274,2.281-.253,2.508.227.022,2.088.116,2.508-.253a3.8,3.8,0,0,0,.729-1.433c.051-.138.814-.076.548.189a2.141,2.141,0,0,0-.085,1.887,1.458,1.458,0,0,0,1.973.823A1.351,1.351,0,0,0,503.457,316.645Z" transform="translate(-466.901 -291.355)" fill="#2e3e91"/>
      <path id="Caminho_2832" data-name="Caminho 2832" d="M490.208,314.61c-.021-.091-.064-.31-.013-.258a1.85,1.85,0,0,0,2.519-.614c1.02-2.352-1.71-2.566-1.71-2.566s1.72-1.432.4-2.743c-1.3-1.29-2.178-.628-2.577-.176a.108.108,0,0,1-.188-.068c-.027-.5-.469-1.489-1.955-1.156-2.269.507-1.588,2.194-1.588,2.194a1.793,1.793,0,0,0-2.211,1.343,1.843,1.843,0,0,0,1.282,2.252.145.145,0,0,1,.056.229c-.33.381-1.445,1.24-.225,2.47a1.71,1.71,0,0,0,2.541-.055.139.139,0,0,1,.23.07,1.668,1.668,0,0,0,1.763,1.43A1.713,1.713,0,0,0,490.208,314.61Zm-3.236-1.67a1.288,1.288,0,1,1,1.821,0A1.288,1.288,0,0,1,486.972,312.94Z" transform="translate(-466.679 -291.294)" fill="#4192d0"/>
      <path id="Caminho_2833" data-name="Caminho 2833" d="M488.806,314.807a3.485,3.485,0,0,0-.2-1.007,1.774,1.774,0,0,0,.968-.88,3.958,3.958,0,0,1,.8.158.291.291,0,0,0,.2-.547,4.305,4.305,0,0,0-.81-.174,1.864,1.864,0,0,0-.437-1.516,8.463,8.463,0,0,1,.633-.568.291.291,0,0,0-.355-.461,8.574,8.574,0,0,0-.711.638s-.006.011-.01.015a1.868,1.868,0,0,0-1.241-.245,3.4,3.4,0,0,1-.354-1.132.291.291,0,1,0-.581.033,3.869,3.869,0,0,0,.376,1.279,1.759,1.759,0,0,0-.869.91c-.144-.026-.423-.069-.831-.1a.291.291,0,1,0-.05.58c.351.03.594.066.737.089a1.859,1.859,0,0,0,.255,1.148,3.305,3.305,0,0,1-.76.694.291.291,0,0,0-.11.4.281.281,0,0,0,.048.063.291.291,0,0,0,.349.047,3.6,3.6,0,0,0,.856-.75,1.852,1.852,0,0,0,1.323.446,3,3,0,0,1,.192.875.291.291,0,1,0,.582.012Zm-1.794-1.834a1.288,1.288,0,1,1,2.13-.519.286.286,0,0,0-.049.135,1.272,1.272,0,0,1-.26.384A1.289,1.289,0,0,1,487.012,312.972Z" transform="translate(-466.718 -291.326)" fill="#2e3e91"/>
      <path id="Caminho_2834" data-name="Caminho 2834" d="M482.035,345.058c.434-.958.552-1.388.686-1.12.291.585,1.082,1.866,1.082,1.866h8.269a36.332,36.332,0,0,0,8.216-.8c4.766-1,9.583-4.254,9.905-4.276s-.516.559-.795,1.483.258,1.934.451,1.827.055-.546,1.158-.771a2.579,2.579,0,0,0,2.495-2.623c.109-1.592.752-2.127,1.214-2.288s.676-.548.175,1.973a4.657,4.657,0,0,0,.823,4.2c.344.386,3.03,1.568,3.892,1.221s1.029-2.059.809-3a9.206,9.206,0,0,0-1.74-3.159,4.152,4.152,0,0,1-.768-2.2c.172.172,1.246,2.621,2.471,2.471s.967-1.827.795-1.913-1.676-.257-1.633-3.266,1.1-5.651,1.644-11.485-1.107-9.808-4.588-13.288a8.274,8.274,0,0,0-10.524-.95,5.15,5.15,0,0,0-.743.723c-.3-.255-.59-.521-.874-.8l-.222-.222q-.4-.411-.769-.84a5.148,5.148,0,0,0,.723-.743,8.275,8.275,0,0,0-.949-10.525c-3.481-3.48-7.455-5.136-13.289-4.588s-8.477,1.6-11.485,1.645-3.18-1.461-3.266-1.633-1.762-.43-1.912.795,2.3,2.3,2.471,2.47a4.158,4.158,0,0,1-2.2-.768,9.2,9.2,0,0,0-3.159-1.74c-.94-.22-2.653-.054-3,.809s.835,3.548,1.222,3.892a4.656,4.656,0,0,0,4.2.824c2.521-.5,2.135-.288,1.974.175s-.7,1.1-2.288,1.214a2.578,2.578,0,0,0-2.623,2.495c-.225,1.1-.664.965-.771,1.158s.9.73,1.826.451,1.5-1.117,1.483-.795-3.279,5.14-4.275,9.905a36.276,36.276,0,0,0-.8,8.216v8.27s1.281.79,1.866,1.081c.268.134-.162.253-1.121.686-.689.312-.89,1.593-.84,1.819.032-.275,2.1-1.539,3.264-1.042a17.2,17.2,0,0,0,2.642-.4s1.336-.972.029-1.885c-.881-.614-1.542.457-1.542.457s-.851-.794-2.388-5.413a15.874,15.874,0,0,1-.236-8.251c.232-1.422.433-1.484.483-1.493a24.181,24.181,0,0,0,.144,3.481,19.519,19.519,0,0,1,.533,3.685,4.563,4.563,0,0,1-.344,1.771,1.075,1.075,0,0,0,1.265.468c.716-.239,1.8-1.184,1.832-1.752s.08.9.109,1.383a8.988,8.988,0,0,0,1.693,3.266c.766.825,1.871,1.652,2.06,2.2s1.552-1.114,1.552-2.05.1-.19.234.165a19.616,19.616,0,0,0,1.567,1.764c.473.591.463.955.246,1.192s.266.541.621.582a1.166,1.166,0,0,0,1.123-1.557,4.468,4.468,0,0,0-.7-1.529,2.9,2.9,0,0,0,1.453.365,10.814,10.814,0,0,0,2.565-.631,10.233,10.233,0,0,0-.658,2.536,2.907,2.907,0,0,0,.365,1.453,4.456,4.456,0,0,0-1.529-.7,1.166,1.166,0,0,0-1.556,1.123c.039.355.345.837.581.62s.6-.226,1.192.247a19.575,19.575,0,0,0,1.764,1.566c.355.139,1.1.234.166.234s-2.6,1.364-2.051,1.553,1.374,1.294,2.2,2.06a8.981,8.981,0,0,0,3.265,1.692c.487.03,1.951.08,1.383.11s-1.513,1.114-1.752,1.832a1.077,1.077,0,0,0,.468,1.265,4.57,4.57,0,0,1,1.771-.344,19.586,19.586,0,0,1,3.685.532,24.264,24.264,0,0,0,3.481.145c-.01.049-.071.252-1.493.483a15.877,15.877,0,0,1-8.251-.237c-4.618-1.537-5.413-2.387-5.413-2.387s1.072-.66.457-1.542c-.913-1.309-1.885.028-1.885.028a17.206,17.206,0,0,0-.4,2.641c.5,1.162-.766,3.232-1.042,3.264C480.442,345.949,481.723,345.748,482.035,345.058ZM515,315.312c.032.115.064.233.092.353a19.349,19.349,0,0,1-4.921-1.071,1.885,1.885,0,0,0,.245-1.21,18.313,18.313,0,0,0,4.255,1.036A7.4,7.4,0,0,1,515,315.312Zm-4.12-4.512a5.958,5.958,0,0,1,3.487,2.995,17.683,17.683,0,0,1-4.121-1.1,2.029,2.029,0,0,0-2.6-1.309c-.029-.017-.055-.036-.084-.054A5.081,5.081,0,0,1,510.883,310.8Zm-7.063-1.719,0,0,.086.085.015.017h0l.125.125,0,0q.458.45.938.862a3.745,3.745,0,0,0-.5,1.2q-.716-.587-1.386-1.251h0l-.1-.1c-.426-.43-.827-.877-1.2-1.336a3.766,3.766,0,0,0,1.2-.5C503.254,308.486,503.532,308.786,503.82,309.081Zm-1.461-6.8a5.091,5.091,0,0,1-.528,3.322c-.018-.028-.037-.056-.055-.085a2.028,2.028,0,0,0-1.309-2.6,17.7,17.7,0,0,1-1.1-4.122A5.964,5.964,0,0,1,502.359,302.279Zm-4.512-4.119a7.234,7.234,0,0,1,.892.328,18.314,18.314,0,0,0,1.035,4.254,1.892,1.892,0,0,0-1.21.245,19.437,19.437,0,0,1-1.071-4.92C497.613,298.1,497.731,298.126,497.847,298.16Zm.387,37.853a19.79,19.79,0,0,0-4.3-2.12c-1.423-.422-3.555-.115-3.538.084.088,1.013.935,1.832.689,1.839-.444.012-1.479-.9-2.441-.914a8.726,8.726,0,0,1-1.251-1.929,2.932,2.932,0,0,1,.525-3.458,2.04,2.04,0,0,1,1.953-.616c.871.13,1.582,1.031,1.436,1.6-.136.531-.911.933-.836,1.1a1.309,1.309,0,0,0,.976.7,2.336,2.336,0,0,0,1.94-.914c1.94-.212,2.217-3.065.968-4.771-1.206-1.648-3.634-2.028-3.874-2.234s.257-.292.72-.446,2.2-1.1,2.232-2.232a2.268,2.268,0,0,0-.39-1.586l0,0a2.283,2.283,0,0,0-1.58-.385c-1.135.036-2.078,1.77-2.232,2.232s-.24.961-.446.72-.587-2.669-2.233-3.874c-1.707-1.249-4.559-.972-4.772.968a2.343,2.343,0,0,0-.914,1.94,1.308,1.308,0,0,0,.7.976c.161.075.564-.7,1.1-.836.573-.145,1.473.567,1.6,1.436a2.04,2.04,0,0,1-.616,1.954,2.933,2.933,0,0,1-3.458.525,8.741,8.741,0,0,1-1.929-1.252c-.018-.961-.925-2-.913-2.441.006-.247.825.6,1.839.689.2.017.505-2.115.083-3.537a19.81,19.81,0,0,0-2.119-4.3,11.154,11.154,0,0,1-.76-7.463,17.842,17.842,0,0,1,2.486-5.43.424.424,0,0,1,.5-.232,4.87,4.87,0,0,0,.565.078,9.175,9.175,0,0,0-1.9,5.488,6.194,6.194,0,0,0,1.744,5.021,6.056,6.056,0,0,0,2.881,1.621,2,2,0,0,0,.7,1.611,2.12,2.12,0,0,0,2.814.309,2.334,2.334,0,0,0,.476.7,2.1,2.1,0,0,0,1.643.587,2.118,2.118,0,0,0,2.24-2.369,2.922,2.922,0,0,0,.863-.03,1.99,1.99,0,0,0,1.528-1.138,2.087,2.087,0,0,0-.275-2.5,2.621,2.621,0,0,0-.946-.582,2.5,2.5,0,0,0,.454-1.263,2.021,2.021,0,0,0-.645-1.538h0l0,0a2.6,2.6,0,0,0-1.881-.907.674.674,0,0,1-1.267-.181,2.084,2.084,0,0,0-2.058-.454,2.606,2.606,0,0,0-1.873,1.228,1.947,1.947,0,0,0-.222.911,2.234,2.234,0,0,0-2.1,1.771,2.152,2.152,0,0,0,.545,2.207,2.872,2.872,0,0,0,.567.434,2.6,2.6,0,0,0-.459.753A5.644,5.644,0,0,1,478.5,307.4a9.865,9.865,0,0,1,2.248-5.576,5.282,5.282,0,0,0,2.306-1.112c.328-.256-1.279,1.367-2.042,2.578a6.418,6.418,0,0,0-.994,3.773,2.63,2.63,0,0,0,.4,1.453,5.9,5.9,0,0,0,2.933-1.47,11.571,11.571,0,0,0,2.219-4.454,7.187,7.187,0,0,1,.757-2.006c.37-.519-.378.962-.263,2.32A2.187,2.187,0,0,0,488,304.62a2.585,2.585,0,0,0,2.139-.9c.129-.256-.69-.368-.685-1.6,0-.911.678-2.107,2.167-3.216a7.236,7.236,0,0,1,5.273-.945,20.047,20.047,0,0,0,1.181,5.411,2.922,2.922,0,0,0,.056,4.11,4.183,4.183,0,0,0,2.97,1.286,19.887,19.887,0,0,0,1.427,1.621h0l.036.036c.021.021.038.042.059.063l0,0,.056.056h0l.021.02.053.053,0,0a20.319,20.319,0,0,0,1.646,1.45,4.18,4.18,0,0,0,1.287,2.97,2.921,2.921,0,0,0,4.109.055,19.981,19.981,0,0,0,5.411,1.181,7.243,7.243,0,0,1-.944,5.274c-1.11,1.488-2.305,2.163-3.217,2.166-1.236.006-1.348-.814-1.6-.685a2.588,2.588,0,0,0-.9,2.139,2.186,2.186,0,0,0,1.712,1.942c1.357.116,2.838-.634,2.32-.263a7.165,7.165,0,0,1-2.007.757,11.6,11.6,0,0,0-4.454,2.219,5.89,5.89,0,0,0-1.469,2.933,2.616,2.616,0,0,0,1.452.4,6.42,6.42,0,0,0,3.773-1c1.212-.762,2.835-2.369,2.579-2.041a5.281,5.281,0,0,0-1.113,2.306,9.869,9.869,0,0,1-5.576,2.248,5.644,5.644,0,0,1-6.152-4.266,2.625,2.625,0,0,0,.752-.459,2.872,2.872,0,0,0,.435.566,2.149,2.149,0,0,0,2.206.545,2.234,2.234,0,0,0,1.771-2.095,1.965,1.965,0,0,0,.912-.222,2.614,2.614,0,0,0,1.228-1.873,2.092,2.092,0,0,0-.454-2.059.673.673,0,0,1-.182-1.267,2.6,2.6,0,0,0-.907-1.881l0,0h0a2.026,2.026,0,0,0-1.539-.644,2.489,2.489,0,0,0-1.262.454,2.641,2.641,0,0,0-.583-.947,2.09,2.09,0,0,0-2.5-.275,1.99,1.99,0,0,0-1.138,1.528,2.99,2.99,0,0,0-.03.863,2.342,2.342,0,0,0-1.529.411,2.315,2.315,0,0,0-.84,1.831,2.1,2.1,0,0,0,.588,1.643,2.366,2.366,0,0,0,.7.476,2.121,2.121,0,0,0,.31,2.814,2,2,0,0,0,1.611.7,6.041,6.041,0,0,0,1.62,2.881,6.188,6.188,0,0,0,5.021,1.744,9.182,9.182,0,0,0,5.489-1.9,4.769,4.769,0,0,0,.077.566.423.423,0,0,1-.231.5,17.873,17.873,0,0,1-5.431,2.487A11.155,11.155,0,0,1,498.234,336.013Zm-11.817-29.249a1.6,1.6,0,0,1,1.574.313,1.337,1.337,0,0,1,.381.843.1.1,0,0,0,.031.072.106.106,0,0,0,.156,0c.4-.452,1.282-1.114,2.577.176l0,0c1.311,1.31-.408,2.739-.408,2.739a2.792,2.792,0,0,1,1.545.643,1.6,1.6,0,0,1,.165,1.924,1.85,1.85,0,0,1-2.519.614c-.051-.051-.008.167.013.258a1.713,1.713,0,0,1-1.671,2.35,1.557,1.557,0,0,1-1.245-.435,2.085,2.085,0,0,1-.518-.994.127.127,0,0,0-.036-.066.14.14,0,0,0-.194,0,1.71,1.71,0,0,1-2.533.063l-.008-.008c-1.22-1.23-.105-2.089.225-2.47a.145.145,0,0,0-.007-.2.153.153,0,0,0-.049-.032,2.624,2.624,0,0,1-.872-.555,1.636,1.636,0,0,1-.41-1.7,1.793,1.793,0,0,1,2.211-1.343S484.148,307.271,486.417,306.764Zm12.656,16.471a1.848,1.848,0,0,1,.614-2.518,1.6,1.6,0,0,1,1.924.165,2.79,2.79,0,0,1,.643,1.544s1.43-1.717,2.74-.407l0,0c1.29,1.3.628,2.178.177,2.577a.107.107,0,0,0,0,.157.11.11,0,0,0,.072.031,1.34,1.34,0,0,1,.844.38,1.6,1.6,0,0,1,.313,1.575c-.506,2.268-2.194,1.588-2.194,1.588a1.794,1.794,0,0,1-1.343,2.211,1.637,1.637,0,0,1-1.7-.411,2.628,2.628,0,0,1-.555-.872.148.148,0,0,0-.032-.05.143.143,0,0,0-.2-.006c-.382.329-1.24,1.444-2.471.224l-.008-.008a1.71,1.71,0,0,1,.063-2.533.139.139,0,0,0,0-.194.144.144,0,0,0-.066-.036,2.091,2.091,0,0,1-.994-.517,1.559,1.559,0,0,1-.434-1.245,1.712,1.712,0,0,1,2.349-1.672C498.906,323.244,499.125,323.287,499.073,323.235Z" transform="translate(-466.408 -291.031)" fill="#2e3e91"/>
      <path id="Caminho_2835" data-name="Caminho 2835" d="M469.17,342.929a15.972,15.972,0,0,0,2.788-3.857c.361-.907.074.014.254.466a.846.846,0,0,0,1,.453c.181-.121-.027-.08-.111-.358s.835-1,.819-2.1c-.014-1.056-.888-2.632-.645-2.53.3.129.826,1.3,1.463,1.463s2.005-.189,1.711-1.369-.909-1.014-.956-.955.153.731-.018.878-.578.2-.943-.307-1.009-1.5-1.663-1.628a1.267,1.267,0,0,0-1.518.614c-.031.1-.983-.435-1.791-.361a3.219,3.219,0,0,0-2.082,1.327c-.242.6-.1,8.994-.1,8.994a1.409,1.409,0,0,0,1.34,1.159C468.985,344.729,468.447,343.635,469.17,342.929Zm-.8-.269a2.486,2.486,0,0,1,.072-1.346c.138-.343.606-.629.641-.708s-.286-.126-.686.091-.492.423-.458,0a1.785,1.785,0,0,1,.789-1.109,12.286,12.286,0,0,0,1.636-.949,2.64,2.64,0,0,0,.789-2.344,1.31,1.31,0,0,0-1.545-1.086c-.723.129-.939.552-.885,1.052.062.571.577.56.817.571s.453-.454.022-.731c-.249-.16-.468-.127-.2-.329a.927.927,0,0,1,1.243.464c.41.684-.259,1.549-1.029,1.769-.924.265-1.847-.782-1.928-1.5a2.071,2.071,0,0,1,1.1-1.991,2.178,2.178,0,0,1,2.858.5c.937.96.458,2.562.046,3.385s-2.449,2.857-2.939,3.762C468.5,342.56,468.49,342.824,468.373,342.659Z" transform="translate(-466.409 -291.749)" fill="#2e3e91"/>
      <path id="Caminho_2836" data-name="Caminho 2836" d="M472.735,302.357c.313.194,3.086-3.389,4.985-4.649s4.637-2.923,5.057-3.141-3.29,1.38-3.879,1.664-3.684,1.4-5.849,1.008a12.478,12.478,0,0,1-4.437-2.181,1.065,1.065,0,0,0-.736-.037,6.38,6.38,0,0,0,1.109,2.083,4.191,4.191,0,0,0,3.537.9,21.48,21.48,0,0,1,2.575-.358c.413.024-.183,1.661-.6,1.778a19.7,19.7,0,0,0-2.958.807,2.767,2.767,0,0,0-1.226,1.831,2.024,2.024,0,0,1-.4,1.142c-.1.1.521.454,1.26.051S472.527,302.229,472.735,302.357Z" transform="translate(-466.419 -291.078)" fill="#4192d0"/>
      <path id="Caminho_2837" data-name="Caminho 2837" d="M502.661,305.32a5.47,5.47,0,0,0,.86-4.427,9.522,9.522,0,0,0-3.6-5.253,15.168,15.168,0,0,0-9.551-2.388,23.013,23.013,0,0,0-15.433,8.795c-1.852,2.264-4.334,7.119-4.721,10.356a20.144,20.144,0,0,0,.09,6.368c.231,1.415.327,3.782.327,3.782a3.384,3.384,0,0,1-.225,1.2c-.112.212.689.484,1.217.055a2.362,2.362,0,0,0,.89-1.887.993.993,0,0,1,.6-1.047,20.72,20.72,0,0,1,.35,2.444,6.218,6.218,0,0,0,1.334,3.454A20.918,20.918,0,0,0,477,328.913a2.861,2.861,0,0,0,1.023-2.145,6.3,6.3,0,0,0-.492-3.07c-.679-1.888-1.7-3.539-1.777-3.963s-.012-.836.324-.2a6.739,6.739,0,0,0,1.709,2.132c.636.412,1.151.786,1.223.7a6.784,6.784,0,0,0-.038-2.739,13.752,13.752,0,0,0-1.7-3.653c-.572-.857-2.1-3.336-2.268-4.625a13.562,13.562,0,0,1,.536-6.547,17.746,17.746,0,0,1,3.84-5.661,24.635,24.635,0,0,1,6.435-3.941c1.808-.636,4.389-1.346,4.6-1.159s-3.342,1.072-4.514,1.671a15.2,15.2,0,0,0-4.63,3.55c-1.06,1.458-1.356,2.194-1.18,2.215.78.088,1.374-.04,3.248-1.142.5-.295.336-.048.271.111-.157.388-1.576,2.005-2.069,2.761a5.488,5.488,0,0,0-1.2,3.2c.112,1.259.261,1.608.4,1.7a4.425,4.425,0,0,0,2.938-2.011,12.955,12.955,0,0,0,1.364-3.527c.5-1.377.932-2.31,1.505-2.509s.789-.145.627.092a4.176,4.176,0,0,0-.71,1.957,2.028,2.028,0,0,0,.872,1.7,2.312,2.312,0,0,0,2-.025c.25-.175.175-.175-.1-.624a4.59,4.59,0,0,1,1.913-4.469,7.492,7.492,0,0,1,6.777-.878,7.2,7.2,0,0,1,4.292,3.09c.811,1.459.985,2.432.648,3.367S502.486,305.595,502.661,305.32Zm-29.72,3.952c-.859,3.724.157,9.441.17,9.991s-.435-.573-.435-.573c-.119-.774-1.443-6.539-.146-10.426a25.405,25.405,0,0,1,5.4-8.565c.461-.477.727-.61.2-.016A25.417,25.417,0,0,0,472.941,309.272Zm26.445-12.54a8.38,8.38,0,0,0-8.5-1.026,12.941,12.941,0,0,0-6.038,4.593s-.255.034-.14-.353a14.121,14.121,0,0,1,6.137-4.9,8.812,8.812,0,0,1,7.728.6C499.773,296.422,499.619,296.965,499.386,296.732Z" transform="translate(-466.456 -291.054)" fill="#4192d0"/>
      <path id="Caminho_2838" data-name="Caminho 2838" d="M483.024,328.022a.113.113,0,0,0,.038.22,5.224,5.224,0,0,0,3.653-1.852,4.333,4.333,0,0,0,.451-5.92c-1.35-1.673-2.4-1.678-3.525-1.481-.746.13-1.2.885-1.112.964a3.1,3.1,0,0,1,1.454-.015c.906.258.308.6-.372.4a1.841,1.841,0,0,0-1.955.953c-.324.842-.066,1.2.047,1.311s.145-.469.858-.727,1.391-.064,2.343.887a2.732,2.732,0,0,1,.37,2.991A3.416,3.416,0,0,1,483.024,328.022Z" transform="translate(-466.656 -291.502)" fill="#4192d0"/>
      <path id="Caminho_2839" data-name="Caminho 2839" d="M504.726,328.846s1.688.68,2.194-1.589c.332-1.487-.657-1.929-1.155-1.954a.108.108,0,0,1-.068-.189c.452-.4,1.113-1.282-.177-2.577-1.311-1.317-2.742.4-2.742.4s-.215-2.73-2.567-1.709a1.848,1.848,0,0,0-.614,2.518c.052.052-.167.009-.258-.013a1.712,1.712,0,0,0-2.349,1.672,1.667,1.667,0,0,0,1.429,1.762.139.139,0,0,1,.07.23,1.71,1.71,0,0,0-.055,2.541c1.231,1.22,2.089.105,2.471-.224a.143.143,0,0,1,.228.056,1.843,1.843,0,0,0,2.252,1.282A1.794,1.794,0,0,0,504.726,328.846Zm-3.781-1.808a1.378,1.378,0,1,1,1.948,0A1.378,1.378,0,0,1,500.945,327.038Z" transform="translate(-466.926 -291.539)" fill="#4192d0"/>
      <path id="Caminho_2840" data-name="Caminho 2840" d="M498.922,325.515a.3.3,0,0,0,.086.2.287.287,0,0,0,.211.085,3.032,3.032,0,0,1,.875.192,1.858,1.858,0,0,0,.447,1.323,3.638,3.638,0,0,0-.751.856.29.29,0,0,0,.047.349.3.3,0,0,0,.063.048.292.292,0,0,0,.4-.11,3.3,3.3,0,0,1,.693-.759,1.86,1.86,0,0,0,1.148.254c.024.142.06.386.089.737a.291.291,0,1,0,.58-.049c-.034-.409-.078-.687-.1-.832a1.864,1.864,0,0,0,.57-.384,1.836,1.836,0,0,0,.339-.484,3.864,3.864,0,0,0,1.28.376.291.291,0,1,0,.032-.581,3.389,3.389,0,0,1-1.132-.353,1.867,1.867,0,0,0-.245-1.241s.011-.006.015-.01a8.713,8.713,0,0,0,.639-.711.291.291,0,0,0-.462-.355s-.2.252-.568.632a1.859,1.859,0,0,0-1.516-.436,4.211,4.211,0,0,0-.174-.811.291.291,0,0,0-.547.2,3.934,3.934,0,0,1,.158.8,1.835,1.835,0,0,0-.464.33,1.855,1.855,0,0,0-.417.638,3.522,3.522,0,0,0-1.006-.2A.291.291,0,0,0,498.922,325.515Zm2.12-.322a1.283,1.283,0,0,1,.384-.261.266.266,0,0,0,.134-.049,1.279,1.279,0,1,1-.518.31Z" transform="translate(-466.96 -291.578)" fill="#2e3e91"/>
      <path id="Caminho_2841" data-name="Caminho 2841" d="M469.1,345.25a1.412,1.412,0,0,0,1.16,1.341s8.4.139,8.993-.1a3.22,3.22,0,0,0,1.327-2.083c.075-.808-.46-1.759-.36-1.791a1.267,1.267,0,0,0,.613-1.518c-.124-.654-1.12-1.3-1.628-1.663s-.454-.773-.307-.944.82.029.879-.018.224-.66-.956-.956-1.534,1.074-1.369,1.711,1.334,1.158,1.463,1.463c.1.244-1.474-.631-2.53-.645-1.106-.015-1.823.9-2.1.819s-.238-.292-.359-.11a.846.846,0,0,0,.453,1c.453.181,1.373-.105.466.254a16,16,0,0,0-3.857,2.788C470.281,345.516,469.187,344.979,469.1,345.25Zm2.66-.006c.9-.491,2.939-2.527,3.762-2.939s2.424-.892,3.384.045a2.179,2.179,0,0,1,.5,2.859,2.073,2.073,0,0,1-1.992,1.1c-.72-.08-1.767-1-1.5-1.928.221-.769,1.085-1.437,1.769-1.029a.927.927,0,0,1,.464,1.243c-.2.272-.169.052-.328-.2-.277-.432-.744-.219-.732.022s0,.755.572.816c.5.054.924-.162,1.052-.885a1.309,1.309,0,0,0-1.087-1.544,2.638,2.638,0,0,0-2.344.789,12.214,12.214,0,0,0-.949,1.635,1.782,1.782,0,0,1-1.109.789c-.423.034-.217-.057,0-.457s.172-.721.091-.687-.366.5-.708.641a2.487,2.487,0,0,1-1.346.073C471.093,345.472,471.356,345.461,471.757,345.244Z" transform="translate(-466.44 -291.826)" fill="#2e3e91"/>
      <path id="Caminho_2842" data-name="Caminho 2842" d="M511.611,341.125c-.194-.312,3.389-3.086,4.649-4.985s2.923-4.637,3.141-5.057-1.38,3.29-1.664,3.879-1.4,3.684-1.008,5.849a12.465,12.465,0,0,0,2.182,4.438,1.068,1.068,0,0,1,.037.735,6.371,6.371,0,0,1-2.084-1.108,4.192,4.192,0,0,1-.9-3.537,21.3,21.3,0,0,0,.358-2.576c-.024-.413-1.661.183-1.778.6a19.7,19.7,0,0,1-.807,2.957,2.765,2.765,0,0,1-1.831,1.226,2.041,2.041,0,0,0-1.143.4c-.1.1-.454-.521-.05-1.26S511.738,341.333,511.611,341.125Z" transform="translate(-467.162 -291.714)" fill="#4192d0"/>
      <path id="Caminho_2843" data-name="Caminho 2843" d="M509.219,310.668c.935-.337,1.907-.162,3.366.648a7.2,7.2,0,0,1,3.091,4.291,7.5,7.5,0,0,1-.878,6.777,4.591,4.591,0,0,1-4.47,1.913c-.449-.274-.449-.349-.623-.1a2.308,2.308,0,0,0-.026,2,2.026,2.026,0,0,0,1.7.872,4.176,4.176,0,0,0,1.958-.71c.237-.162.291.053.091.627s-1.132,1-2.509,1.505a12.935,12.935,0,0,0-3.528,1.365,4.416,4.416,0,0,0-2.01,2.938c.087.137.436.286,1.7.4a5.488,5.488,0,0,0,3.2-1.2c.755-.492,2.373-1.912,2.761-2.069.158-.064.4-.228.111.272-1.1,1.874-1.23,2.467-1.142,3.247.02.176.756-.12,2.215-1.18a15.186,15.186,0,0,0,3.55-4.63c.6-1.171,1.484-4.725,1.67-4.514s-.524,2.793-1.159,4.6a24.642,24.642,0,0,1-3.94,6.435,17.741,17.741,0,0,1-5.662,3.841,13.573,13.573,0,0,1-6.547.536c-1.288-.164-3.767-1.7-4.624-2.269a13.789,13.789,0,0,0-3.654-1.7,6.8,6.8,0,0,0-2.739-.038c-.082.073.294.588.705,1.223a6.7,6.7,0,0,0,2.132,1.709c.636.337.224.4-.2.324s-2.075-1.1-3.964-1.777a6.311,6.311,0,0,0-3.07-.492,2.864,2.864,0,0,0-2.145,1.023,21.1,21.1,0,0,0,2.145,2.2,6.236,6.236,0,0,0,3.454,1.334,20.619,20.619,0,0,1,2.445.349.993.993,0,0,1-1.047.6,2.366,2.366,0,0,0-1.888.89c-.429.53-.157,1.329.055,1.217a3.39,3.39,0,0,1,1.2-.224s2.366.1,3.782.327a20.18,20.18,0,0,0,6.368.089c3.237-.387,8.091-2.869,10.356-4.721a23.023,23.023,0,0,0,8.795-15.433,15.171,15.171,0,0,0-2.389-9.551,9.529,9.529,0,0,0-5.253-3.6,5.462,5.462,0,0,0-4.426.861C507.9,311.041,508.283,311,509.219,310.668Zm4.589,24.726c.6-.527.461-.261-.016.2A25.412,25.412,0,0,1,505.227,341c-3.887,1.3-9.652-.029-10.425-.147,0,0-1.122-.448-.574-.435s6.267,1.029,9.992.17A25.4,25.4,0,0,0,513.807,335.394Zm4.036-20.439a8.818,8.818,0,0,1,.6,7.729,14.115,14.115,0,0,1-4.9,6.136c-.387.117-.352-.139-.352-.139a12.963,12.963,0,0,0,4.593-6.039,8.38,8.38,0,0,0-1.027-8.5C516.527,313.91,517.068,313.754,517.844,314.955Z" transform="translate(-466.71 -291.344)" fill="#4192d0"/>
      <path id="Caminho_2844" data-name="Caminho 2844" d="M485.937,330.983a.113.113,0,0,1-.22-.038,5.224,5.224,0,0,1,1.852-3.653,4.334,4.334,0,0,1,5.921-.451c1.672,1.351,1.677,2.4,1.481,3.525-.131.746-.885,1.2-.965,1.112a3.1,3.1,0,0,0,.016-1.453c-.258-.906-.6-.308-.4.371a1.841,1.841,0,0,1-.953,1.956c-.841.324-1.2.065-1.311-.048s.47-.145.728-.857.064-1.392-.888-2.343a2.732,2.732,0,0,0-2.991-.371A3.416,3.416,0,0,0,485.937,330.983Z" transform="translate(-466.73 -291.624)" fill="#4192d0"/>
    </g>
  </g>
</svg>
