<svg xmlns="http://www.w3.org/2000/svg" width="111.413" height="111.408" viewBox="0 0 111.413 111.408">
  <g id="Grupo_4321" data-name="Grupo 4321" transform="translate(11210.658 12757.409)">
    <g id="Grupo_4216" data-name="Grupo 4216" transform="translate(-11210.658 -12757.409)">
      <path id="Caminho_2699" data-name="Caminho 2699" d="M351.639,270.018c.868.081,3.41.79,4.424,2.146s1.079,2.738,1.513,3.608a1.411,1.411,0,0,0,1.884.579,1.545,1.545,0,0,0,.8-.7c.184-.29-.382.185-.856-.105a34.567,34.567,0,0,1-2.475-3.357,7.169,7.169,0,0,0-3.5-2.054A4.046,4.046,0,0,0,351.639,270.018Z" transform="translate(-336.216 -234.945)" fill="#fff"/>
      <path id="Caminho_3618" data-name="Caminho 3618" d="M0,0H55.7V55.7H0Z" transform="translate(0 0.001)" fill="none"/>
      <path id="Caminho_2700" data-name="Caminho 2700" d="M385.815,234.324l-.031,2.057c-.055.68-1.136,1.56-2.5,1.707-2.223.237-6.468-.019-11.158,3.8A18.693,18.693,0,0,0,365,257.976a13.814,13.814,0,0,0,.835,3.287,2.843,2.843,0,0,1-.163.713c-.2.407-.309.3-.309.3a9.664,9.664,0,0,1-3.373-4.041,19.284,19.284,0,0,1-1.275-5.437,4.2,4.2,0,0,0,2.762-2.257c.991-2.07.8-3.683.413-5.976s.264-3.915,1.355-3.9a1.57,1.57,0,0,1,1.553,1.664c-.055.684-.314,1.128-.185,1.22s.8-.717.8-1.734a3.273,3.273,0,0,0-2.261-3.194,3.675,3.675,0,0,0-4.037,1.411c-.1.124-.577-.612-1.23-1.106a8.845,8.845,0,0,0-2.327-1.233,10.942,10.942,0,0,0-2.188,1.745,5.976,5.976,0,0,0-.864,1.178c-.147.13-1.177-.752-2.106-.76a3.44,3.44,0,0,0-3.079,2.022,3.2,3.2,0,0,0,.418,3.776c.739.759,1.262.687,1.262.687s.082-.132-.363-.52-1.4-2.022-.195-2.913c.828-.611,1.46-.645,2.57.779s.908,3.881,1.743,5.869a5.112,5.112,0,0,0,5.036,3.48,21.077,21.077,0,0,0,1.59,5.418,16.494,16.494,0,0,0,3.414,4.371l-.326.339a16.479,16.479,0,0,0-4.37-3.412,21.033,21.033,0,0,0-5.418-1.59,5.112,5.112,0,0,0-3.48-5.036c-1.988-.836-4.445-.635-5.869-1.744s-1.39-1.741-.779-2.569c.891-1.207,2.525-.249,2.913.195s.52.362.52.362.072-.522-.687-1.262a3.2,3.2,0,0,0-3.776-.418,3.442,3.442,0,0,0-2.022,3.08c.009.928.89,1.957.76,2.106a5.93,5.93,0,0,0-1.178.864,10.911,10.911,0,0,0-1.745,2.188,8.846,8.846,0,0,0,1.233,2.327c.494.653,1.23,1.135,1.106,1.23a3.675,3.675,0,0,0-1.411,4.037,3.273,3.273,0,0,0,3.194,2.261c1.017,0,1.827-.669,1.734-.8s-.536.129-1.22.185a1.571,1.571,0,0,1-1.664-1.553c-.018-1.091,1.6-1.744,3.9-1.356s3.9.58,5.975-.412a4.2,4.2,0,0,0,2.257-2.762,19.277,19.277,0,0,1,5.437,1.275,9.663,9.663,0,0,1,4.042,3.373s.1.112-.3.309a2.843,2.843,0,0,1-.713.163,13.869,13.869,0,0,0-3.287-.836,18.7,18.7,0,0,0-16.084,7.129c-3.823,4.69-3.568,8.935-3.8,11.158-.145,1.366-1.027,2.447-1.706,2.5l-2.074.03v5.832h10.946a20.315,20.315,0,0,1,2.35-10.721c2.875-5.031,5.839-6.824,6.249-7.028a12.6,12.6,0,0,1,.937,2.16,8.2,8.2,0,0,0-2.765,9.039c1.825,5.749,8.984,6.081,12.909,3.261a13.014,13.014,0,0,0,5.166-13.917c.18-.868.464-.966.464-.966a6.805,6.805,0,0,1,1.633,1.734,19.583,19.583,0,0,1,2.091,5.941c.367,3.434,1.348,3.751,2.022,3.969s2.134-.265,2.28-1.067c.126-.694.4-.783.451-.687s1.255,2.108,2.357,2.51a2.109,2.109,0,0,0,2.523-.326l-.008-.008a2.123,2.123,0,0,0,.325-2.522c-.4-1.1-2.414-2.309-2.51-2.357s-.006-.325.687-.451c.8-.146,1.283-1.606,1.067-2.28s-.534-1.656-3.969-2.022a19.611,19.611,0,0,1-5.941-2.091,6.8,6.8,0,0,1-1.734-1.633s.1-.284.966-.464a13.016,13.016,0,0,0,13.918-5.166c2.819-3.925,2.488-11.084-3.262-12.909a8.2,8.2,0,0,0-9.039,2.765,12.6,12.6,0,0,1-2.16-.937c.205-.41,2-3.374,7.029-6.249a20.312,20.312,0,0,1,10.72-2.35v-10.93Zm-13.192,36.588,0,.008-1.211.935c-1.319-3.441-4.483-5.868-7.52-7.228l1.286-1.358,1.062-1.006c1.36,3.036,3.787,6.2,7.229,7.52Z" transform="translate(-335.943 -234.323)" fill="#2e3e91"/>
      <path id="Caminho_2701" data-name="Caminho 2701" d="M370.961,272.308a12.747,12.747,0,0,0-4.318-5.145,15.082,15.082,0,0,0-9.274-2.869,18.234,18.234,0,0,0-9.224,3.3c-1.3.878.123.071,2.669-.087a16.312,16.312,0,0,1,7.758,1.439,9.22,9.22,0,0,1,4.933,4.388,6.709,6.709,0,0,1,.527,4.565c-.6,1.614.527-1.633-.843-4.336a8.674,8.674,0,0,0-4.722-4.16,19.732,19.732,0,0,0-7.623-1.422,10.25,10.25,0,0,0-5.111,1.754c-1.751,1.064-3.774,4.118-4.4,6.668,0,0,2.886-4.611,6.3-5.723,2.87-.934,4.955-1,7.56.89,1.167.848,1.663,3.132,1.976,3.973a1.65,1.65,0,0,0,2.788.463,3.331,3.331,0,0,0,.64-1.042,8.7,8.7,0,0,0-.312,3.255,2.883,2.883,0,0,0,2.9,2.821,3.092,3.092,0,0,0,3.144-2.965,3.919,3.919,0,0,0-1.115-3.021,3.025,3.025,0,0,0,1.661-.379,2.657,2.657,0,0,0,1.394-2.809,3.226,3.226,0,0,0-2.352-2.363,15.291,15.291,0,0,0-2.475-.423,6.507,6.507,0,0,1,2.564.078,3.408,3.408,0,0,1,2.738,2.559c.669,2.937-2.625,3.748-2.625,3.748a4,4,0,0,1,.516,3.522c-.961,2.6-2.5,2.522-3.427,2.556a3.129,3.129,0,0,1-3.176-2.371,5.369,5.369,0,0,1-.127-2.633,1.56,1.56,0,0,1-.8.449,1.943,1.943,0,0,1-.91-.014,6.1,6.1,0,0,0-.764,4.156,6.216,6.216,0,0,0,3.534,4.482,6.89,6.89,0,0,0,6.823-.825,12.2,12.2,0,0,0,3.634-6.444A10.265,10.265,0,0,0,370.961,272.308Zm-9.619-5.7c-.307.765.119,1.476.022,1.51a1.465,1.465,0,0,1,1.036-2.587C362.447,265.628,361.647,265.848,361.342,266.613Zm1.5.506a3.64,3.64,0,0,0-.382,1.563,1.689,1.689,0,0,1,1.668-2.53C364.149,266.253,363.335,266.37,362.842,267.119Z" transform="translate(-336.037 -234.845)" fill="#4192d0"/>
      <path id="Caminho_2702" data-name="Caminho 2702" d="M357.537,270.584c1.37.984,3.178,2.7,3.406,3.985s-.315,2.475-.157,3.6a2.786,2.786,0,0,0,1.9,2.633,2.923,2.923,0,0,0,3.491-1.754,3.44,3.44,0,0,0-.6-3.424c-.948-1.352-.457-.808-.071-.756a2.643,2.643,0,0,0,2.581-1.439,2.287,2.287,0,0,0-.633-2.844,4.769,4.769,0,0,0-3.37-1.123c-1.58.087,0,.418.6,1.089,1.071,1.211,1.948,2.677.344,4.077-.155.136.249,1.231.192,2.269a3.021,3.021,0,0,1-1.112,2.1c-.363.137-.565-2.127-1.494-3.8a12.379,12.379,0,0,0-3.3-3.642A9.812,9.812,0,0,0,357.537,270.584Z" transform="translate(-336.32 -234.936)" fill="#fff"/>
      <path id="Caminho_2703" data-name="Caminho 2703" d="M349.084,234.323H335.943v13.137a2.4,2.4,0,0,0,2.381-.813c1.145-1.212.942-3.121.808-3.973s-.313-1.482-.2-1.5,1.212,1.459,2.469,1.707a2.506,2.506,0,0,0,2.5-.578,2.537,2.537,0,0,0,.579-2.52c-.247-1.258-1.728-2.358-1.707-2.47s.651.068,1.5.2,2.762.336,3.974-.809A2.434,2.434,0,0,0,349.084,234.323Z" transform="translate(-335.943 -234.323)" fill="#2e3e91"/>
      <path id="Caminho_2704" data-name="Caminho 2704" d="M379.964,269.784a12.205,12.205,0,0,0,6.444-3.635,6.89,6.89,0,0,0,.825-6.823,6.216,6.216,0,0,0-4.481-3.534,6.1,6.1,0,0,0-4.157.764,1.943,1.943,0,0,1,.014.91,1.562,1.562,0,0,1-.448.8,5.364,5.364,0,0,1,2.632.127,3.13,3.13,0,0,1,2.372,3.176c-.033.925.046,2.466-2.557,3.427a4,4,0,0,1-3.521-.516s-.812,3.295-3.749,2.625a3.411,3.411,0,0,1-2.559-2.738,6.527,6.527,0,0,1-.078-2.564,15.289,15.289,0,0,0,.423,2.475,3.227,3.227,0,0,0,2.363,2.352,2.656,2.656,0,0,0,2.809-1.394,3.014,3.014,0,0,0,.379-1.661,3.918,3.918,0,0,0,3.021,1.114,3.091,3.091,0,0,0,2.965-3.143,2.883,2.883,0,0,0-2.821-2.9,8.709,8.709,0,0,0-3.255.312,3.329,3.329,0,0,0,1.042-.64,1.65,1.65,0,0,0-.462-2.787c-.842-.313-3.126-.809-3.974-1.976-1.892-2.6-1.825-4.69-.889-7.56,1.112-3.415,5.722-6.3,5.722-6.3-2.55.628-5.6,2.651-6.667,4.4a10.25,10.25,0,0,0-1.755,5.111,19.732,19.732,0,0,0,1.422,7.623,8.682,8.682,0,0,0,4.16,4.722c2.7,1.369,5.95.246,4.336.842a6.694,6.694,0,0,1-4.564-.527,9.216,9.216,0,0,1-4.389-4.932,16.323,16.323,0,0,1-1.439-7.758c.158-2.546.966-3.968.088-2.669a18.212,18.212,0,0,0-3.3,9.224,15.078,15.078,0,0,0,2.868,9.274,12.753,12.753,0,0,0,5.145,4.318A10.265,10.265,0,0,0,379.964,269.784Zm-12.81-9.02a1.465,1.465,0,0,1,2.587-1.037c-.033.1-.745-.327-1.509-.022S367.247,260.812,367.155,260.764Zm.616,1.729a1.689,1.689,0,0,1,2.53-1.668,3.64,3.64,0,0,0-1.563.382C367.99,261.7,367.872,262.513,367.771,262.493Z" transform="translate(-336.465 -234.417)" fill="#4192d0"/>
      <path id="Caminho_2705" data-name="Caminho 2705" d="M372.2,255.9c.983,1.37,2.7,3.178,3.984,3.406s2.475-.315,3.6-.157a2.786,2.786,0,0,1,2.632,1.9,2.923,2.923,0,0,1-1.754,3.491,3.44,3.44,0,0,1-3.424-.6c-1.352-.948-.808-.457-.755-.071a2.647,2.647,0,0,1-1.439,2.581,2.287,2.287,0,0,1-2.844-.633,4.768,4.768,0,0,1-1.124-3.37c.087-1.58.418,0,1.089.6,1.212,1.071,2.676,1.948,4.077.344.136-.155,1.231.249,2.269.192a3.019,3.019,0,0,0,2.1-1.112c.137-.363-2.127-.565-3.8-1.5a12.361,12.361,0,0,1-3.642-3.3A9.745,9.745,0,0,1,372.2,255.9Z" transform="translate(-336.556 -234.699)" fill="#fff"/>
      <path id="Caminho_2706" data-name="Caminho 2706" d="M343.616,239.16a14.1,14.1,0,0,0-5.56-3.866c-1.175-.441-1.48-.342-1.48-.342a3.438,3.438,0,0,0,.353,1.485A14.111,14.111,0,0,0,340.8,242a2,2,0,0,0,2.821-2.837Z" transform="translate(-335.954 -234.334)" fill="#4192d0"/>
    </g>
    <g id="Grupo_4217" data-name="Grupo 4217" transform="translate(-11154.949 -12757.408)">
      <path id="Caminho_2707" data-name="Caminho 2707" d="M413.523,250.02c-.08.867-.79,3.41-2.146,4.423s-2.738,1.08-3.607,1.514a1.411,1.411,0,0,0-.58,1.883,1.548,1.548,0,0,0,.7.8c.29.184-.184-.382.106-.856a34.374,34.374,0,0,1,3.356-2.475,7.162,7.162,0,0,0,2.055-3.5A4.027,4.027,0,0,0,413.523,250.02Z" transform="translate(-392.892 -234.597)" fill="#fff"/>
      <path id="Caminho_3619" data-name="Caminho 3619" d="M0,0H55.7V55.7H0Z" transform="translate(55.704 0) rotate(90)" fill="none"/>
      <path id="Caminho_2708" data-name="Caminho 2708" d="M448.345,284.195l-2.058-.03c-.679-.055-1.56-1.136-1.706-2.5-.238-2.223.019-6.468-3.8-11.158a18.7,18.7,0,0,0-16.084-7.129,13.857,13.857,0,0,0-3.287.836,2.833,2.833,0,0,1-.713-.163c-.407-.2-.3-.309-.3-.309a9.655,9.655,0,0,1,4.042-3.373,19.274,19.274,0,0,1,5.436-1.275,4.2,4.2,0,0,0,2.258,2.762c2.07.991,3.683.8,5.975.412s3.915.265,3.9,1.356a1.571,1.571,0,0,1-1.664,1.553c-.684-.056-1.127-.314-1.219-.185s.716.8,1.733.8a3.274,3.274,0,0,0,3.2-2.261,3.676,3.676,0,0,0-1.411-4.037c-.124-.1.611-.577,1.106-1.23a8.865,8.865,0,0,0,1.232-2.327,10.932,10.932,0,0,0-1.744-2.188,5.924,5.924,0,0,0-1.179-.864c-.13-.148.752-1.178.761-2.106a3.444,3.444,0,0,0-2.023-3.08,3.2,3.2,0,0,0-3.776.418c-.758.74-.686,1.262-.686,1.262s.131.083.52-.362,2.022-1.4,2.912-.195c.612.828.645,1.46-.779,2.569s-3.88.908-5.869,1.744a5.112,5.112,0,0,0-3.479,5.036,21.022,21.022,0,0,0-5.418,1.59,16.5,16.5,0,0,0-4.372,3.413l-.339-.325a16.471,16.471,0,0,0,3.413-4.37,21.076,21.076,0,0,0,1.59-5.418,5.112,5.112,0,0,0,5.036-3.48c.835-1.988.634-4.445,1.743-5.869s1.741-1.391,2.57-.779c1.206.89.249,2.525-.2,2.913s-.362.52-.362.52.523.071,1.262-.687a3.2,3.2,0,0,0,.418-3.776,3.441,3.441,0,0,0-3.08-2.022c-.928.009-1.957.89-2.1.76a5.978,5.978,0,0,0-.864-1.178,10.941,10.941,0,0,0-2.188-1.745,8.845,8.845,0,0,0-2.327,1.233c-.654.494-1.135,1.229-1.23,1.106a3.677,3.677,0,0,0-4.037-1.412,3.275,3.275,0,0,0-2.261,3.2c0,1.017.668,1.827.8,1.734s-.13-.536-.185-1.22a1.57,1.57,0,0,1,1.552-1.664c1.092-.019,1.744,1.6,1.356,3.9s-.579,3.9.413,5.975a4.2,4.2,0,0,0,2.762,2.258,19.284,19.284,0,0,1-1.275,5.437,9.664,9.664,0,0,1-3.373,4.041s-.112.105-.309-.3a2.836,2.836,0,0,1-.164-.713,13.831,13.831,0,0,0,.836-3.287,18.692,18.692,0,0,0-7.129-16.084c-4.69-3.824-8.934-3.568-11.157-3.8-1.366-.146-2.447-1.028-2.5-1.707l-.031-2.073h-5.832V245.27a20.315,20.315,0,0,1,10.721,2.35c5.031,2.874,6.824,5.839,7.028,6.249a12.549,12.549,0,0,1-2.159.936,8.2,8.2,0,0,0-9.039-2.764c-5.75,1.825-6.081,8.984-3.262,12.909a13.015,13.015,0,0,0,13.917,5.166c.869.18.966.464.966.464a6.8,6.8,0,0,1-1.734,1.633,19.591,19.591,0,0,1-5.94,2.091c-3.435.366-3.752,1.348-3.969,2.022s.264,2.133,1.067,2.28c.693.126.782.4.686.45s-2.108,1.256-2.509,2.358a2.109,2.109,0,0,0,.325,2.523l.009-.008a2.121,2.121,0,0,0,2.521.325c1.1-.4,2.31-2.414,2.358-2.51s.324-.006.451.687c.145.8,1.605,1.283,2.279,1.067s1.656-.535,2.023-3.969a19.583,19.583,0,0,1,2.091-5.941,6.785,6.785,0,0,1,1.633-1.734s.284.1.463.966a13.015,13.015,0,0,0,5.167,13.917c3.924,2.82,11.083,2.488,12.908-3.261a8.2,8.2,0,0,0-2.764-9.039,12.521,12.521,0,0,1,.937-2.16c.409.2,3.374,2,6.249,7.028a20.32,20.32,0,0,1,2.349,10.721h10.931ZM411.758,271l-.009,0-.935-1.211c3.441-1.32,5.868-4.484,7.229-7.52l1.358,1.286,1.006,1.062c-3.036,1.36-6.2,3.787-7.521,7.229Z" transform="translate(-392.641 -234.324)" fill="#2e3e91"/>
      <path id="Caminho_2709" data-name="Caminho 2709" d="M410.96,269.342a12.758,12.758,0,0,0,5.146-4.318,15.085,15.085,0,0,0,2.868-9.274,18.222,18.222,0,0,0-3.3-9.224c-.877-1.3-.07.123.087,2.668a16.3,16.3,0,0,1-1.439,7.759,9.212,9.212,0,0,1-4.388,4.932,6.7,6.7,0,0,1-4.564.527c-1.615-.6,1.632.527,4.336-.842a8.682,8.682,0,0,0,4.16-4.722,19.733,19.733,0,0,0,1.422-7.623,10.26,10.26,0,0,0-1.755-5.111c-1.064-1.752-4.118-3.774-6.667-4.4,0,0,4.61,2.886,5.722,6.3.935,2.87,1,4.956-.889,7.561-.849,1.167-3.132,1.662-3.974,1.976a1.65,1.65,0,0,0-.462,2.788,3.318,3.318,0,0,0,1.041.639,8.716,8.716,0,0,0-3.255-.311,2.882,2.882,0,0,0-2.82,2.9,3.091,3.091,0,0,0,2.965,3.143,3.918,3.918,0,0,0,3.021-1.114,3.018,3.018,0,0,0,.378,1.661,2.656,2.656,0,0,0,2.81,1.393,3.224,3.224,0,0,0,2.363-2.352,15.268,15.268,0,0,0,.423-2.474,6.523,6.523,0,0,1-.078,2.564,3.413,3.413,0,0,1-2.56,2.739c-2.937.668-3.748-2.625-3.748-2.625a4,4,0,0,1-3.522.516c-2.6-.961-2.522-2.5-2.556-3.428a3.13,3.13,0,0,1,2.372-3.176,5.379,5.379,0,0,1,2.632-.127,1.549,1.549,0,0,1-.448-.8,1.932,1.932,0,0,1,.013-.909,6.093,6.093,0,0,0-4.156-.764,6.214,6.214,0,0,0-4.481,3.534,6.885,6.885,0,0,0,.825,6.823,12.2,12.2,0,0,0,6.443,3.634A10.264,10.264,0,0,0,410.96,269.342Zm5.7-9.62c-.764-.307-1.476.12-1.509.022a1.465,1.465,0,0,1,2.586,1.037C417.641,260.827,417.421,260.028,416.656,259.722Zm-.505,1.5a3.623,3.623,0,0,0-1.563-.382,1.689,1.689,0,0,1,2.53,1.668C417.016,262.529,416.9,261.716,416.151,261.223Z" transform="translate(-392.719 -234.418)" fill="#4192d0"/>
      <path id="Caminho_2710" data-name="Caminho 2710" d="M412.869,255.918c-.983,1.37-2.7,3.178-3.984,3.406s-2.475-.315-3.6-.158a2.788,2.788,0,0,0-2.633,1.9,2.924,2.924,0,0,0,1.755,3.491,3.445,3.445,0,0,0,3.424-.6c1.351-.948.808-.457.755-.071a2.643,2.643,0,0,0,1.439,2.58,2.286,2.286,0,0,0,2.844-.632,4.768,4.768,0,0,0,1.124-3.37c-.088-1.58-.418,0-1.089.6-1.212,1.071-2.677,1.948-4.078.345-.135-.155-1.23.249-2.269.192a3.022,3.022,0,0,1-2.1-1.112c-.137-.363,2.126-.565,3.8-1.5a12.352,12.352,0,0,0,3.643-3.3A9.743,9.743,0,0,0,412.869,255.918Z" transform="translate(-392.813 -234.7)" fill="#fff"/>
      <path id="Caminho_2711" data-name="Caminho 2711" d="M449.1,247.465V234.324H435.963a2.4,2.4,0,0,0,.812,2.381c1.212,1.145,3.121.942,3.973.808s1.482-.314,1.5-.2-1.459,1.212-1.706,2.469a2.5,2.5,0,0,0,.577,2.5,2.538,2.538,0,0,0,2.521.579c1.258-.248,2.357-1.729,2.469-1.707s-.067.651-.2,1.5-.337,2.761.808,3.973A2.434,2.434,0,0,0,449.1,247.465Z" transform="translate(-393.395 -234.324)" fill="#2e3e91"/>
      <path id="Caminho_2712" data-name="Caminho 2712" d="M413.336,278.345a12.2,12.2,0,0,0,3.634,6.444,6.888,6.888,0,0,0,6.822.825,6.214,6.214,0,0,0,3.534-4.482,6.093,6.093,0,0,0-.764-4.156,1.937,1.937,0,0,1-.909.014,1.554,1.554,0,0,1-.8-.449,5.384,5.384,0,0,1-.127,2.633,3.129,3.129,0,0,1-3.176,2.371c-.926-.033-2.466.047-3.428-2.556a4,4,0,0,1,.517-3.522s-3.295-.812-2.625-3.748a3.408,3.408,0,0,1,2.738-2.559,6.508,6.508,0,0,1,2.564-.078,15.274,15.274,0,0,0-2.475.423,3.224,3.224,0,0,0-2.352,2.363,2.655,2.655,0,0,0,1.393,2.809,3.029,3.029,0,0,0,1.662.379,3.915,3.915,0,0,0-1.115,3.021,3.092,3.092,0,0,0,3.144,2.965,2.883,2.883,0,0,0,2.9-2.821,8.729,8.729,0,0,0-.312-3.255,3.309,3.309,0,0,0,.64,1.042,1.649,1.649,0,0,0,2.787-.463c.313-.841.81-3.126,1.977-3.973,2.6-1.893,4.69-1.825,7.56-.89,3.415,1.112,6.3,5.723,6.3,5.723-.629-2.55-2.651-5.6-4.4-6.668a10.247,10.247,0,0,0-5.11-1.754,19.741,19.741,0,0,0-7.624,1.422,8.669,8.669,0,0,0-4.721,4.16c-1.37,2.7-.247,5.95-.843,4.336a6.709,6.709,0,0,1,.527-4.565,9.221,9.221,0,0,1,4.932-4.388,16.315,16.315,0,0,1,7.759-1.439c2.545.158,3.967.966,2.668.087a18.231,18.231,0,0,0-9.224-3.3,15.081,15.081,0,0,0-9.273,2.869,12.748,12.748,0,0,0-4.319,5.145A10.272,10.272,0,0,0,413.336,278.345Zm9.019-12.81a1.465,1.465,0,0,1,1.037,2.587c-.1-.034.328-.745.022-1.51S422.307,265.628,422.354,265.536Zm-1.728.616a1.689,1.689,0,0,1,1.667,2.53,3.623,3.623,0,0,0-.382-1.563C421.418,266.37,420.605,266.253,420.626,266.152Z" transform="translate(-392.997 -234.846)" fill="#4192d0"/>
      <path id="Caminho_2713" data-name="Caminho 2713" d="M427.563,270.584c-1.369.984-3.178,2.7-3.406,3.985s.316,2.475.158,3.6a2.787,2.787,0,0,1-1.9,2.633,2.924,2.924,0,0,1-3.491-1.754,3.443,3.443,0,0,1,.6-3.424c.947-1.352.456-.808.07-.756a2.641,2.641,0,0,1-2.58-1.439,2.288,2.288,0,0,1,.632-2.844,4.77,4.77,0,0,1,3.37-1.123c1.58.087,0,.418-.6,1.089-1.071,1.211-1.948,2.677-.344,4.077.154.136-.249,1.231-.192,2.269a3.025,3.025,0,0,0,1.111,2.1c.363.137.565-2.127,1.5-3.8a12.352,12.352,0,0,1,3.3-3.642A9.792,9.792,0,0,1,427.563,270.584Z" transform="translate(-393.062 -234.937)" fill="#fff"/>
      <path id="Caminho_2714" data-name="Caminho 2714" d="M444.365,242a14.109,14.109,0,0,0,3.866-5.561c.441-1.175.342-1.479.342-1.479a3.438,3.438,0,0,0-1.485.353,14.1,14.1,0,0,0-5.561,3.866A2,2,0,0,0,444.365,242Z" transform="translate(-393.486 -234.335)" fill="#4192d0"/>
    </g>
    <g id="Grupo_4218" data-name="Grupo 4218" transform="translate(-11154.949 -12701.705)">
      <path id="Caminho_2715" data-name="Caminho 2715" d="M433.483,311.9c-.867-.08-3.409-.79-4.423-2.146s-1.079-2.738-1.514-3.607a1.409,1.409,0,0,0-1.883-.58,1.545,1.545,0,0,0-.8.7c-.185.29.382-.184.856.105a34.682,34.682,0,0,1,2.475,3.357,7.162,7.162,0,0,0,3.5,2.054A4.039,4.039,0,0,0,433.483,311.9Z" transform="translate(-393.202 -291.267)" fill="#fff"/>
      <rect id="Ret창ngulo_718" data-name="Ret창ngulo 718" width="55.704" height="55.704" transform="translate(55.704 55.704) rotate(180)" fill="none"/>
      <path id="Caminho_2716" data-name="Caminho 2716" d="M398.473,346.719l.031-2.057c.055-.679,1.136-1.56,2.5-1.707,2.223-.237,6.467.02,11.157-3.8a18.692,18.692,0,0,0,7.129-16.084,13.832,13.832,0,0,0-.836-3.287,2.793,2.793,0,0,1,.164-.713c.2-.407.309-.3.309-.3a9.658,9.658,0,0,1,3.372,4.041,19.265,19.265,0,0,1,1.276,5.436,4.194,4.194,0,0,0-2.762,2.257c-.991,2.07-.8,3.683-.413,5.976s-.264,3.916-1.356,3.9a1.57,1.57,0,0,1-1.552-1.664c.055-.684.314-1.128.185-1.22s-.8.717-.8,1.734a3.273,3.273,0,0,0,2.261,3.194,3.675,3.675,0,0,0,4.037-1.411c.1-.123.576.612,1.23,1.106a8.845,8.845,0,0,0,2.327,1.233,10.941,10.941,0,0,0,2.188-1.745,5.946,5.946,0,0,0,.864-1.178c.147-.13,1.177.752,2.1.761a3.445,3.445,0,0,0,3.08-2.023,3.2,3.2,0,0,0-.418-3.776c-.739-.758-1.262-.687-1.262-.687s-.082.132.362.52,1.4,2.023.2,2.913c-.829.612-1.461.645-2.57-.779s-.908-3.881-1.743-5.869A5.112,5.112,0,0,0,424.5,328a21.063,21.063,0,0,0-1.59-5.417,16.488,16.488,0,0,0-3.414-4.372l.325-.339a16.491,16.491,0,0,0,4.371,3.412,21.055,21.055,0,0,0,5.418,1.591,5.11,5.11,0,0,0,3.48,5.035c1.988.836,4.444.635,5.868,1.744s1.391,1.741.78,2.569c-.891,1.207-2.525.25-2.913-.195s-.52-.362-.52-.362-.072.522.687,1.262a3.2,3.2,0,0,0,3.776.418,3.442,3.442,0,0,0,2.022-3.08c-.009-.928-.89-1.957-.762-2.106a5.866,5.866,0,0,0,1.179-.863,10.979,10.979,0,0,0,1.745-2.188,8.844,8.844,0,0,0-1.233-2.327c-.5-.654-1.23-1.136-1.106-1.231a3.676,3.676,0,0,0,1.411-4.037,3.273,3.273,0,0,0-3.2-2.26c-1.017,0-1.826.668-1.733.8s.535-.13,1.22-.186a1.57,1.57,0,0,1,1.663,1.553c.019,1.092-1.6,1.744-3.9,1.356s-3.9-.579-5.975.413a4.2,4.2,0,0,0-2.258,2.762,19.256,19.256,0,0,1-5.436-1.276,9.655,9.655,0,0,1-4.042-3.373s-.1-.111.3-.309a2.833,2.833,0,0,1,.713-.163,13.809,13.809,0,0,0,3.287.836,18.7,18.7,0,0,0,16.084-7.129c3.823-4.69,3.567-8.935,3.8-11.158.145-1.365,1.027-2.446,1.706-2.5l2.074-.03v-5.832H437.4a20.315,20.315,0,0,1-2.35,10.721c-2.875,5.031-5.839,6.824-6.249,7.028a12.6,12.6,0,0,1-.937-2.16,8.2,8.2,0,0,0,2.764-9.039c-1.824-5.749-8.983-6.081-12.908-3.261a13.013,13.013,0,0,0-5.166,13.917c-.18.868-.464.966-.464.966a6.785,6.785,0,0,1-1.633-1.734,19.574,19.574,0,0,1-2.091-5.94c-.367-3.435-1.349-3.752-2.022-3.969s-2.134.264-2.28,1.066c-.126.694-.4.783-.451.687s-1.256-2.108-2.357-2.51a2.109,2.109,0,0,0-2.523.326l.008.008a2.121,2.121,0,0,0-.325,2.522c.4,1.1,2.413,2.31,2.509,2.358s.007.324-.686.45c-.8.146-1.283,1.606-1.067,2.28s.534,1.656,3.969,2.022a19.558,19.558,0,0,1,5.94,2.092,6.784,6.784,0,0,1,1.734,1.633s-.1.283-.966.463a13.015,13.015,0,0,0-13.917,5.166c-2.819,3.925-2.488,11.084,3.262,12.909a8.2,8.2,0,0,0,9.039-2.764,12.477,12.477,0,0,1,2.159.937c-.2.409-2,3.374-7.028,6.248a20.315,20.315,0,0,1-10.721,2.35v10.93Zm13.192-36.588,0-.008,1.21-.935c1.32,3.441,4.484,5.868,7.521,7.228l-1.287,1.358-1.061,1.006c-1.361-3.036-3.788-6.2-7.229-7.52Z" transform="translate(-392.641 -291.016)" fill="#2e3e91"/>
      <path id="Caminho_2717" data-name="Caminho 2717" d="M413.776,309.335a12.752,12.752,0,0,0,4.319,5.146,15.083,15.083,0,0,0,9.274,2.868,18.225,18.225,0,0,0,9.224-3.3c1.3-.877-.123-.071-2.669.087a16.316,16.316,0,0,1-7.759-1.439,9.22,9.22,0,0,1-4.932-4.388,6.707,6.707,0,0,1-.527-4.564c.6-1.615-.527,1.632.843,4.335a8.675,8.675,0,0,0,4.722,4.161,19.77,19.77,0,0,0,7.623,1.422,10.26,10.26,0,0,0,5.111-1.755c1.751-1.064,3.773-4.118,4.4-6.668,0,0-2.886,4.611-6.3,5.723-2.87.934-4.956,1-7.56-.889-1.167-.849-1.663-3.133-1.977-3.974a1.648,1.648,0,0,0-2.787-.462,3.319,3.319,0,0,0-.64,1.041,8.7,8.7,0,0,0,.312-3.255,2.883,2.883,0,0,0-2.9-2.821,3.093,3.093,0,0,0-3.144,2.966,3.914,3.914,0,0,0,1.115,3.02,3.029,3.029,0,0,0-1.662.379,2.656,2.656,0,0,0-1.393,2.809,3.229,3.229,0,0,0,2.352,2.364,15.393,15.393,0,0,0,2.475.423,6.517,6.517,0,0,1-2.564-.079A3.408,3.408,0,0,1,416,309.926c-.669-2.937,2.625-3.748,2.625-3.748a4,4,0,0,1-.517-3.522c.962-2.6,2.5-2.522,3.428-2.556a3.129,3.129,0,0,1,3.176,2.372,5.379,5.379,0,0,1,.127,2.632,1.549,1.549,0,0,1,.8-.448,1.931,1.931,0,0,1,.909.013,6.093,6.093,0,0,0,.764-4.156,6.211,6.211,0,0,0-3.533-4.481,6.887,6.887,0,0,0-6.823.824,12.2,12.2,0,0,0-3.635,6.444A10.271,10.271,0,0,0,413.776,309.335Zm9.62,5.7c.307-.765-.12-1.476-.022-1.51a1.465,1.465,0,0,1-1.037,2.587C422.291,316.016,423.09,315.8,423.4,315.031Zm-1.5-.506a3.637,3.637,0,0,0,.382-1.563,1.69,1.69,0,0,1-1.668,2.531C420.589,315.391,421.4,315.274,421.9,314.525Z" transform="translate(-392.997 -291.094)" fill="#4192d0"/>
      <path id="Caminho_2718" data-name="Caminho 2718" d="M427.547,311.244c-1.369-.984-3.177-2.7-3.406-3.985s.316-2.475.158-3.6a2.788,2.788,0,0,0-1.9-2.633,2.924,2.924,0,0,0-3.491,1.755,3.441,3.441,0,0,0,.6,3.423c.948,1.352.456.808.07.756A2.641,2.641,0,0,0,417,308.4a2.288,2.288,0,0,0,.632,2.844A4.769,4.769,0,0,0,421,312.367c1.579-.087,0-.418-.6-1.088-1.071-1.211-1.948-2.677-.344-4.078.155-.136-.249-1.231-.192-2.269a3.021,3.021,0,0,1,1.112-2.1c.363-.137.564,2.127,1.494,3.8a12.379,12.379,0,0,0,3.3,3.642A9.794,9.794,0,0,0,427.547,311.244Z" transform="translate(-393.061 -291.188)" fill="#fff"/>
      <path id="Caminho_2719" data-name="Caminho 2719" d="M435.959,347.475H449.1V334.337a2.4,2.4,0,0,0-2.381.813c-1.145,1.212-.943,3.121-.809,3.974s.314,1.482.2,1.5-1.212-1.459-2.469-1.706a2.5,2.5,0,0,0-2.5.577,2.538,2.538,0,0,0-.579,2.521c.247,1.257,1.728,2.357,1.706,2.469s-.65-.067-1.5-.2-2.762-.337-3.974.808A2.431,2.431,0,0,0,435.959,347.475Z" transform="translate(-393.395 -291.77)" fill="#2e3e91"/>
      <path id="Caminho_2720" data-name="Caminho 2720" d="M404.923,311.711a12.2,12.2,0,0,0-6.443,3.634,6.885,6.885,0,0,0-.825,6.823,6.214,6.214,0,0,0,4.481,3.534,6.093,6.093,0,0,0,4.156-.764,1.932,1.932,0,0,1-.013-.909,1.549,1.549,0,0,1,.448-.8,5.38,5.38,0,0,1-2.632-.127,3.13,3.13,0,0,1-2.372-3.176c.033-.926-.047-2.467,2.556-3.428a4,4,0,0,1,3.522.516s.812-3.294,3.748-2.625a3.413,3.413,0,0,1,2.56,2.739,6.523,6.523,0,0,1,.078,2.564,15.268,15.268,0,0,0-.423-2.474,3.224,3.224,0,0,0-2.363-2.352,2.656,2.656,0,0,0-2.81,1.393,3.018,3.018,0,0,0-.378,1.661,3.918,3.918,0,0,0-3.021-1.114,3.091,3.091,0,0,0-2.965,3.143,2.882,2.882,0,0,0,2.82,2.9,8.716,8.716,0,0,0,3.255-.311,3.318,3.318,0,0,0-1.041.639,1.65,1.65,0,0,0,.462,2.788c.842.313,3.126.809,3.974,1.976,1.892,2.6,1.825,4.691.889,7.561-1.112,3.414-5.722,6.3-5.722,6.3,2.549-.628,5.6-2.65,6.667-4.4a10.26,10.26,0,0,0,1.755-5.111,19.733,19.733,0,0,0-1.422-7.623,8.682,8.682,0,0,0-4.16-4.722c-2.7-1.369-5.951-.246-4.336-.842a6.7,6.7,0,0,1,4.564.527,9.212,9.212,0,0,1,4.388,4.932,16.3,16.3,0,0,1,1.439,7.758c-.157,2.546-.965,3.968-.087,2.669a18.222,18.222,0,0,0,3.3-9.224,15.085,15.085,0,0,0-2.868-9.274,12.758,12.758,0,0,0-5.146-4.318A10.271,10.271,0,0,0,404.923,311.711Zm12.81,9.019a1.465,1.465,0,0,1-2.586,1.037c.033-.1.745.328,1.509.022S417.641,320.682,417.733,320.729ZM417.118,319a1.689,1.689,0,0,1-2.53,1.668,3.623,3.623,0,0,0,1.563-.382C416.9,319.793,417.016,318.98,417.118,319Z" transform="translate(-392.719 -291.372)" fill="#4192d0"/>
      <path id="Caminho_2721" data-name="Caminho 2721" d="M412.869,325.938c-.983-1.37-2.7-3.178-3.984-3.406s-2.475.316-3.6.158a2.789,2.789,0,0,1-2.633-1.9,2.924,2.924,0,0,1,1.755-3.491,3.443,3.443,0,0,1,3.424.6c1.351.948.808.457.755.071a2.643,2.643,0,0,1,1.439-2.58,2.286,2.286,0,0,1,2.844.632,4.768,4.768,0,0,1,1.124,3.37c-.088,1.58-.418,0-1.089-.6-1.212-1.071-2.677-1.948-4.078-.345-.135.155-1.23-.249-2.269-.192a3.022,3.022,0,0,0-2.1,1.112c-.137.363,2.126.565,3.8,1.5a12.351,12.351,0,0,1,3.643,3.3A9.744,9.744,0,0,1,412.869,325.938Z" transform="translate(-392.813 -291.437)" fill="#fff"/>
      <path id="Caminho_2722" data-name="Caminho 2722" d="M441.528,342.739a14.105,14.105,0,0,0,5.56,3.867c1.175.44,1.48.341,1.48.341a3.44,3.44,0,0,0-.353-1.485,14.122,14.122,0,0,0-3.866-5.56,2,2,0,0,0-2.821,2.837Z" transform="translate(-393.485 -291.861)" fill="#4192d0"/>
    </g>
    <g id="Grupo_4219" data-name="Grupo 4219" transform="translate(-11210.658 -12701.705)">
      <path id="Caminho_2723" data-name="Caminho 2723" d="M371.638,331.858c.081-.867.79-3.409,2.146-4.423s2.738-1.08,3.608-1.514a1.409,1.409,0,0,0,.579-1.883,1.538,1.538,0,0,0-.7-.8c-.29-.185.185.381-.105.856a34.573,34.573,0,0,1-3.357,2.475,7.157,7.157,0,0,0-2.054,3.5A4.041,4.041,0,0,0,371.638,331.858Z" transform="translate(-336.565 -291.577)" fill="#fff"/>
      <rect id="Ret창ngulo_719" data-name="Ret창ngulo 719" width="55.704" height="55.704" transform="translate(0.001 55.704) rotate(-90)" fill="none"/>
      <path id="Caminho_2724" data-name="Caminho 2724" d="M335.944,296.848l2.057.03c.68.056,1.56,1.137,1.707,2.5.237,2.223-.019,6.468,3.8,11.158a18.7,18.7,0,0,0,16.084,7.129,13.821,13.821,0,0,0,3.287-.836,2.843,2.843,0,0,1,.713.163c.407.2.3.309.3.309a9.656,9.656,0,0,1-4.041,3.373,19.266,19.266,0,0,1-5.437,1.276,4.193,4.193,0,0,0-2.257-2.762c-2.07-.991-3.683-.8-5.976-.413s-3.915-.265-3.9-1.356a1.571,1.571,0,0,1,1.664-1.553c.684.056,1.128.314,1.22.186s-.717-.8-1.734-.8a3.272,3.272,0,0,0-3.194,2.26,3.675,3.675,0,0,0,1.411,4.037c.123.1-.612.577-1.106,1.231a8.844,8.844,0,0,0-1.233,2.327,10.941,10.941,0,0,0,1.745,2.188,5.95,5.95,0,0,0,1.178.863c.13.148-.752,1.178-.76,2.106a3.441,3.441,0,0,0,2.022,3.08,3.2,3.2,0,0,0,3.776-.418c.759-.74.687-1.262.687-1.262s-.132-.083-.52.362-2.022,1.4-2.913.195c-.612-.828-.645-1.46.779-2.569s3.881-.908,5.869-1.744a5.11,5.11,0,0,0,3.48-5.035,21.054,21.054,0,0,0,5.418-1.591,16.479,16.479,0,0,0,4.371-3.413l.339.325a16.49,16.49,0,0,0-3.412,4.371,21.022,21.022,0,0,0-1.59,5.418,5.111,5.111,0,0,0-5.036,3.479c-.836,1.989-.635,4.445-1.744,5.869s-1.741,1.391-2.569.779c-1.207-.89-.25-2.524.195-2.913s.362-.519.362-.519-.522-.072-1.262.686a3.2,3.2,0,0,0-.418,3.776,3.445,3.445,0,0,0,3.08,2.023c.928-.01,1.957-.891,2.106-.762a5.924,5.924,0,0,0,.864,1.179,10.906,10.906,0,0,0,2.188,1.744,8.875,8.875,0,0,0,2.327-1.233c.653-.494,1.135-1.229,1.23-1.105a3.678,3.678,0,0,0,4.037,1.411,3.274,3.274,0,0,0,2.261-3.2c0-1.017-.669-1.827-.8-1.734s.129.536.185,1.22a1.571,1.571,0,0,1-1.553,1.664c-1.091.019-1.744-1.6-1.356-3.9s.58-3.9-.412-5.975a4.2,4.2,0,0,0-2.763-2.258,19.3,19.3,0,0,1,1.276-5.436,9.655,9.655,0,0,1,3.373-4.042s.112-.1.309.3a2.831,2.831,0,0,1,.163.712,13.878,13.878,0,0,0-.836,3.288,18.7,18.7,0,0,0,7.129,16.084c4.69,3.823,8.935,3.567,11.158,3.8,1.366.145,2.446,1.027,2.5,1.706l.03,2.073h5.832V335.774a20.32,20.32,0,0,1-10.721-2.349c-5.031-2.875-6.824-5.84-7.028-6.249a12.524,12.524,0,0,1,2.16-.937A8.2,8.2,0,0,0,385.1,329c5.749-1.825,6.081-8.984,3.261-12.908a13.015,13.015,0,0,0-13.917-5.167c-.868-.18-.966-.463-.966-.463a6.786,6.786,0,0,1,1.734-1.633,19.584,19.584,0,0,1,5.941-2.091c3.434-.367,3.751-1.349,3.968-2.023s-.264-2.133-1.066-2.28c-.694-.126-.783-.4-.687-.45s2.108-1.256,2.51-2.358a2.109,2.109,0,0,0-.326-2.523l-.008.009a2.121,2.121,0,0,0-2.522-.326c-1.1.4-2.309,2.414-2.357,2.51s-.325.007-.451-.687c-.146-.8-1.605-1.283-2.28-1.066s-1.656.534-2.022,3.968a19.6,19.6,0,0,1-2.091,5.941,6.8,6.8,0,0,1-1.633,1.734s-.284-.1-.464-.966a13.014,13.014,0,0,0-5.166-13.917c-3.925-2.82-11.084-2.488-12.909,3.261a8.2,8.2,0,0,0,2.765,9.039,12.6,12.6,0,0,1-.937,2.16c-.41-.2-3.375-2-6.249-7.028a20.315,20.315,0,0,1-2.35-10.721h-10.93Zm36.588,13.191.008,0,.935,1.211c-3.441,1.32-5.868,4.484-7.228,7.521l-1.358-1.287-1.006-1.062c3.036-1.36,6.2-3.787,7.52-7.228Z" transform="translate(-335.943 -291.016)" fill="#2e3e91"/>
      <path id="Caminho_2725" data-name="Caminho 2725" d="M373.928,312.151a12.752,12.752,0,0,0-5.146,4.319,15.088,15.088,0,0,0-2.868,9.273,18.23,18.23,0,0,0,3.3,9.224c.878,1.3.071-.123-.087-2.668a16.315,16.315,0,0,1,1.439-7.759,9.216,9.216,0,0,1,4.388-4.932,6.706,6.706,0,0,1,4.564-.527c1.615.6-1.632-.527-4.335.843a8.67,8.67,0,0,0-4.16,4.721,19.757,19.757,0,0,0-1.423,7.623,10.26,10.26,0,0,0,1.755,5.111c1.064,1.752,4.118,3.774,6.668,4.4,0,0-4.611-2.886-5.723-6.3-.934-2.87-1-4.956.889-7.56.849-1.168,3.133-1.663,3.974-1.977a1.649,1.649,0,0,0,.463-2.787,3.31,3.31,0,0,0-1.042-.64,8.716,8.716,0,0,0,3.255.311,2.882,2.882,0,0,0,2.821-2.9,3.092,3.092,0,0,0-2.965-3.144,3.915,3.915,0,0,0-3.021,1.115,3.029,3.029,0,0,0-.379-1.661,2.654,2.654,0,0,0-2.809-1.393,3.224,3.224,0,0,0-2.363,2.352,15.33,15.33,0,0,0-.424,2.475,6.517,6.517,0,0,1,.079-2.564,3.411,3.411,0,0,1,2.559-2.739c2.937-.668,3.748,2.626,3.748,2.626a4,4,0,0,1,3.522-.517c2.6.961,2.522,2.5,2.556,3.428a3.129,3.129,0,0,1-2.372,3.176,5.381,5.381,0,0,1-2.632.127,1.549,1.549,0,0,1,.448.8,1.932,1.932,0,0,1-.013.909,6.093,6.093,0,0,0,4.156.764,6.216,6.216,0,0,0,4.482-3.534,6.888,6.888,0,0,0-.825-6.822,12.2,12.2,0,0,0-6.444-3.634A10.271,10.271,0,0,0,373.928,312.151Zm-5.7,9.62c.765.307,1.476-.12,1.51-.022a1.465,1.465,0,0,1-2.587-1.037C367.248,320.666,367.468,321.465,368.233,321.772Zm.506-1.5a3.621,3.621,0,0,0,1.563.382,1.69,1.69,0,0,1-2.531-1.667C367.873,318.964,367.99,319.777,368.739,320.27Z" transform="translate(-336.465 -291.372)" fill="#4192d0"/>
      <path id="Caminho_2726" data-name="Caminho 2726" d="M372.2,325.922c.984-1.37,2.7-3.178,3.985-3.406s2.475.316,3.6.158a2.787,2.787,0,0,0,2.633-1.9,2.924,2.924,0,0,0-1.754-3.491,3.443,3.443,0,0,0-3.424.6c-1.352.947-.808.456-.756.07a2.641,2.641,0,0,0-1.439-2.58A2.288,2.288,0,0,0,372.2,316a4.769,4.769,0,0,0-1.123,3.37c.087,1.58.418,0,1.088-.6,1.212-1.071,2.677-1.948,4.078-.344.136.154,1.231-.25,2.269-.193a3.025,3.025,0,0,1,2.1,1.112c.137.363-2.127.565-3.8,1.5a12.352,12.352,0,0,0-3.642,3.3A9.792,9.792,0,0,0,372.2,325.922Z" transform="translate(-336.556 -291.436)" fill="#fff"/>
      <path id="Caminho_2727" data-name="Caminho 2727" d="M335.943,334.334v13.14h13.137a2.4,2.4,0,0,0-.813-2.38c-1.212-1.146-3.121-.943-3.973-.809s-1.482.314-1.5.2,1.459-1.212,1.707-2.47a2.5,2.5,0,0,0-.578-2.5,2.536,2.536,0,0,0-2.521-.579c-1.257.247-2.357,1.728-2.469,1.706s.068-.65.2-1.5.336-2.761-.809-3.973A2.431,2.431,0,0,0,335.943,334.334Z" transform="translate(-335.943 -291.77)" fill="#2e3e91"/>
      <path id="Caminho_2728" data-name="Caminho 2728" d="M371.4,303.3a12.209,12.209,0,0,0-3.634-6.444,6.887,6.887,0,0,0-6.823-.824,6.214,6.214,0,0,0-3.534,4.481,6.1,6.1,0,0,0,.764,4.156,1.933,1.933,0,0,1,.909-.013,1.555,1.555,0,0,1,.8.448,5.369,5.369,0,0,1,.126-2.632,3.13,3.13,0,0,1,3.177-2.372c.925.033,2.466-.047,3.427,2.556a4,4,0,0,1-.516,3.522s3.294.812,2.625,3.748a3.411,3.411,0,0,1-2.739,2.559,6.512,6.512,0,0,1-2.564.079,15.41,15.41,0,0,0,2.475-.423,3.229,3.229,0,0,0,2.352-2.364,2.657,2.657,0,0,0-1.394-2.809,3.025,3.025,0,0,0-1.661-.379,3.915,3.915,0,0,0,1.114-3.02,3.092,3.092,0,0,0-3.143-2.966,2.883,2.883,0,0,0-2.9,2.821,8.705,8.705,0,0,0,.312,3.255,3.319,3.319,0,0,0-.64-1.041,1.649,1.649,0,0,0-2.788.462c-.313.841-.809,3.126-1.976,3.974-2.6,1.892-4.69,1.824-7.561.889-3.414-1.112-6.3-5.723-6.3-5.723.628,2.55,2.651,5.6,4.4,6.668a10.26,10.26,0,0,0,5.111,1.755,19.77,19.77,0,0,0,7.623-1.422,8.681,8.681,0,0,0,4.722-4.161c1.369-2.7.246-5.95.842-4.335a6.7,6.7,0,0,1-.527,4.564,9.216,9.216,0,0,1-4.932,4.388,16.311,16.311,0,0,1-7.758,1.439c-2.546-.158-3.968-.965-2.669-.087a18.222,18.222,0,0,0,9.224,3.3,15.085,15.085,0,0,0,9.274-2.868,12.75,12.75,0,0,0,4.318-5.146A10.264,10.264,0,0,0,371.4,303.3Zm-9.02,12.81a1.465,1.465,0,0,1-1.037-2.587c.1.034-.328.745-.022,1.51S362.432,316.016,362.384,316.108Zm1.729-.615a1.69,1.69,0,0,1-1.668-2.531,3.638,3.638,0,0,0,.382,1.563C363.32,315.274,364.133,315.391,364.113,315.493Z" transform="translate(-336.037 -291.094)" fill="#4192d0"/>
      <path id="Caminho_2729" data-name="Caminho 2729" d="M357.522,311.244c1.37-.984,3.178-2.7,3.406-3.985s-.315-2.475-.158-3.6a2.789,2.789,0,0,1,1.9-2.633,2.923,2.923,0,0,1,3.491,1.755,3.441,3.441,0,0,1-.6,3.423c-.948,1.352-.457.808-.071.756a2.643,2.643,0,0,1,2.581,1.439,2.287,2.287,0,0,1-.633,2.844,4.764,4.764,0,0,1-3.37,1.123c-1.58-.087,0-.418.6-1.088,1.07-1.211,1.948-2.677.344-4.078-.155-.136.249-1.231.192-2.269a3.021,3.021,0,0,0-1.112-2.1c-.363-.137-.565,2.127-1.5,3.8a12.36,12.36,0,0,1-3.3,3.642A9.813,9.813,0,0,1,357.522,311.244Z" transform="translate(-336.319 -291.188)" fill="#fff"/>
      <path id="Caminho_2730" data-name="Caminho 2730" d="M340.78,339.9a14.109,14.109,0,0,0-3.867,5.561c-.44,1.175-.341,1.48-.341,1.48a3.437,3.437,0,0,0,1.485-.353,14.113,14.113,0,0,0,5.56-3.867,2,2,0,0,0-2.837-2.821Z" transform="translate(-335.954 -291.86)" fill="#4192d0"/>
    </g>
  </g>
</svg>
