<svg xmlns="http://www.w3.org/2000/svg" width="111.408" height="111.409" viewBox="0 0 111.408 111.409">
  <g id="Grupo_4330" data-name="Grupo 4330" transform="translate(10697.968 12757.409)">
    <rect id="Retângulo_807" data-name="Retângulo 807" width="111.408" height="111.408" transform="translate(-10697.968 -12757.409)" fill="none"/>
    <g id="Grupo_4277" data-name="Grupo 4277" transform="translate(-10695.765 -12755.206)">
      <path id="Caminho_3164" data-name="Caminho 3164" d="M956.7,290.252l0,0c-.2-.864-1.993-2.524-2.724-2.989s-2.457-.465-2.357-.565a7.014,7.014,0,0,0,.1-2.889c-.2-1.528-2.624-3.421-3.288-3.354s-.4-.133-.3.631a7.236,7.236,0,0,1-.7,3.022c-.3.5-.764.564-.431-.366s-.6-2.856-1.362-3.952-3.321-1.129-4.716-.332-1.527,3.586-1.76,3.554a2.45,2.45,0,0,1-1.561-1.1,2.576,2.576,0,0,1,0-3.187,7.662,7.662,0,0,1,3.122-2.524,3.8,3.8,0,0,1,2.039-.22,1.054,1.054,0,0,0-.079-1.075,2.006,2.006,0,0,0-.83-.83s.763-.3,1.361-.5a3.907,3.907,0,0,1,1.768.173,1.475,1.475,0,0,0,.557-1.037,4.416,4.416,0,0,0-2.058-2.724c-1-.331-3.321.067-3.222-.032a10.576,10.576,0,0,1,2.013-.91,7.6,7.6,0,0,1,4.5.246,3.3,3.3,0,0,1,.8,1.726,4.294,4.294,0,0,0,1.295-1.3c.4-.73.631-3.022-.5-4.085a8.309,8.309,0,0,0-3.321-1.528,20.423,20.423,0,0,0,3.089-.963c1.3-.565,5.712-3.653,5.114-3.985s-2.856-.532-2.657-.731a8.4,8.4,0,0,0,1.959-3.353,7.918,7.918,0,0,0-.166-3.554,7.934,7.934,0,0,0-3.554-.166,8.419,8.419,0,0,0-3.353,1.959c-.2.2-.4-2.058-.731-2.656s-3.42,3.818-3.985,5.114a20.428,20.428,0,0,0-.963,3.088,8.308,8.308,0,0,0-1.528-3.321c-1.062-1.129-3.354-.9-4.085-.5a4.305,4.305,0,0,0-1.295,1.3,3.3,3.3,0,0,1,1.726.8,7.6,7.6,0,0,1,.246,4.5,10.577,10.577,0,0,1-.91,2.013c-.1.1.3-2.225-.032-3.222a4.417,4.417,0,0,0-2.724-2.058,1.478,1.478,0,0,0-1.037.557,3.906,3.906,0,0,1,.173,1.768c-.2.6-.5,1.361-.5,1.361a2,2,0,0,0-.83-.83,1.052,1.052,0,0,0-1.074-.079,3.8,3.8,0,0,1-.221,2.039,7.667,7.667,0,0,1-2.523,3.122,2.577,2.577,0,0,1-3.188,0,2.443,2.443,0,0,1-1.1-1.561c-.033-.232,2.756-.365,3.553-1.76s.763-3.952-.332-4.716-3.022-1.693-3.952-1.361-.864-.133-.366-.432a7.225,7.225,0,0,1,3.022-.7c.763.1.564.365.631-.3s-1.827-3.088-3.354-3.288a6.988,6.988,0,0,0-2.889.1c-.1.1-.1-1.628-.565-2.358s-2.125-2.524-2.989-2.724l0,0h0l0,0c-.864.2-2.524,1.993-2.989,2.724s-.465,2.457-.565,2.358a6.988,6.988,0,0,0-2.889-.1c-1.528.2-3.421,2.623-3.354,3.288s-.133.4.631.3a7.221,7.221,0,0,1,3.022.7c.5.3.565.764-.366.432s-2.856.6-3.952,1.361-1.129,3.321-.332,4.716,3.586,1.528,3.554,1.76a2.45,2.45,0,0,1-1.1,1.561,2.576,2.576,0,0,1-3.187,0,7.662,7.662,0,0,1-2.524-3.122,3.8,3.8,0,0,1-.22-2.039,1.054,1.054,0,0,0-1.075.079,2,2,0,0,0-.83.83s-.3-.763-.5-1.361a3.906,3.906,0,0,1,.173-1.768,1.475,1.475,0,0,0-1.037-.557,4.417,4.417,0,0,0-2.724,2.058c-.332,1,.067,3.321-.032,3.222a10.577,10.577,0,0,1-.91-2.013,7.6,7.6,0,0,1,.246-4.5,3.3,3.3,0,0,1,1.726-.8,4.306,4.306,0,0,0-1.3-1.3c-.731-.4-3.022-.631-4.084.5a8.309,8.309,0,0,0-1.528,3.321,20.428,20.428,0,0,0-.963-3.088c-.565-1.3-3.653-5.713-3.985-5.114s-.532,2.855-.731,2.656a8.412,8.412,0,0,0-3.354-1.959,7.934,7.934,0,0,0-3.554.166,7.934,7.934,0,0,0-.166,3.554,8.411,8.411,0,0,0,1.959,3.353c.2.2-2.058.4-2.657.731s3.819,3.42,5.114,3.985a20.46,20.46,0,0,0,3.089.963,8.309,8.309,0,0,0-3.321,1.528c-1.129,1.062-.9,3.354-.5,4.085a4.294,4.294,0,0,0,1.295,1.3,3.3,3.3,0,0,1,.8-1.726,7.607,7.607,0,0,1,4.5-.246,10.578,10.578,0,0,1,2.013.91c.1.1-2.225-.3-3.222.032a4.419,4.419,0,0,0-2.058,2.724,1.475,1.475,0,0,0,.557,1.037,3.906,3.906,0,0,1,1.768-.173c.6.2,1.361.5,1.361.5a2.006,2.006,0,0,0-.83.83,1.053,1.053,0,0,0-.078,1.075,3.791,3.791,0,0,1,2.038.22,7.662,7.662,0,0,1,3.122,2.524,2.576,2.576,0,0,1,0,3.187,2.45,2.45,0,0,1-1.561,1.1c-.232.032-.366-2.757-1.76-3.554s-3.952-.763-4.716.332-1.693,3.022-1.361,3.952-.134.864-.432.366a7.236,7.236,0,0,1-.7-3.022c.1-.763.365-.564-.3-.631s-3.088,1.827-3.288,3.354a6.988,6.988,0,0,0,.1,2.889c.1.1-1.628.1-2.358.565s-2.524,2.125-2.724,2.989l0,0h0l0,0c.2.863,1.993,2.523,2.724,2.988s2.457.465,2.358.565a6.988,6.988,0,0,0-.1,2.889c.2,1.528,2.623,3.421,3.288,3.354s.4.133.3-.631a7.236,7.236,0,0,1,.7-3.022c.3-.5.764-.564.432.366s.6,2.856,1.361,3.952,3.321,1.129,4.716.332,1.528-3.586,1.76-3.553a2.443,2.443,0,0,1,1.561,1.1,2.577,2.577,0,0,1,0,3.188,7.667,7.667,0,0,1-3.122,2.523,3.8,3.8,0,0,1-2.038.221,1.052,1.052,0,0,0,.078,1.075,2,2,0,0,0,.83.829s-.763.3-1.361.5a3.917,3.917,0,0,1-1.768-.174,1.478,1.478,0,0,0-.557,1.037,4.417,4.417,0,0,0,2.058,2.724c1,.332,3.321-.067,3.222.033a10.673,10.673,0,0,1-2.013.909,7.6,7.6,0,0,1-4.5-.246,3.3,3.3,0,0,1-.8-1.726,4.307,4.307,0,0,0-1.295,1.3c-.4.731-.631,3.022.5,4.085a8.309,8.309,0,0,0,3.321,1.528,20.458,20.458,0,0,0-3.089.963c-1.3.565-5.712,3.653-5.114,3.985s2.856.532,2.657.731a8.42,8.42,0,0,0-1.959,3.354,7.934,7.934,0,0,0,.166,3.554,7.918,7.918,0,0,0,3.554.166,8.4,8.4,0,0,0,3.354-1.959c.2-.2.4,2.058.731,2.657s3.42-3.819,3.985-5.114a20.424,20.424,0,0,0,.963-3.089,8.309,8.309,0,0,0,1.528,3.321c1.062,1.129,3.354.9,4.084.5a4.294,4.294,0,0,0,1.3-1.3,3.3,3.3,0,0,1-1.726-.8c-.466-.6-.657-3.38-.246-4.5a10.577,10.577,0,0,1,.91-2.013c.1-.1-.3,2.225.032,3.222a4.413,4.413,0,0,0,2.724,2.058,1.475,1.475,0,0,0,1.037-.557,3.906,3.906,0,0,1-.173-1.768c.2-.6.5-1.361.5-1.361a2.006,2.006,0,0,0,.83.83,1.051,1.051,0,0,0,1.075.079,3.8,3.8,0,0,1,.22-2.039,7.662,7.662,0,0,1,2.524-3.122,2.577,2.577,0,0,1,3.187,0,2.45,2.45,0,0,1,1.1,1.561c.032.233-2.757.366-3.554,1.76s-.763,3.952.332,4.716,3.022,1.693,3.952,1.362.864.133.366.431a7.237,7.237,0,0,1-3.022.7c-.763-.1-.564-.366-.631.3s1.827,3.088,3.354,3.288a6.988,6.988,0,0,0,2.889-.1c.1-.1.1,1.628.565,2.358s2.125,2.524,2.989,2.724l0,0h0l0,0c.865-.2,2.525-1.993,2.99-2.724s.465-2.457.565-2.358a6.987,6.987,0,0,0,2.889.1c1.528-.2,3.421-2.623,3.354-3.288s.133-.4-.631-.3a7.237,7.237,0,0,1-3.022-.7c-.5-.3-.564-.764.366-.431s2.856-.6,3.952-1.362,1.129-3.321.332-4.716-3.586-1.527-3.553-1.76A2.443,2.443,0,0,1,922,314.2a2.578,2.578,0,0,1,3.188,0,7.667,7.667,0,0,1,2.523,3.122,3.8,3.8,0,0,1,.221,2.039,1.049,1.049,0,0,0,1.074-.079,2,2,0,0,0,.83-.83s.3.763.5,1.361a3.906,3.906,0,0,1-.173,1.768,1.478,1.478,0,0,0,1.037.557,4.413,4.413,0,0,0,2.724-2.058c.332-1-.067-3.321.032-3.222a10.577,10.577,0,0,1,.91,2.013c.412,1.116.22,3.9-.246,4.5a3.3,3.3,0,0,1-1.726.8,4.294,4.294,0,0,0,1.295,1.3c.731.4,3.022.631,4.085-.5a8.307,8.307,0,0,0,1.528-3.321,20.424,20.424,0,0,0,.963,3.089c.565,1.3,3.653,5.712,3.985,5.114s.532-2.856.731-2.657a8.408,8.408,0,0,0,3.353,1.959,7.918,7.918,0,0,0,3.554-.166,7.918,7.918,0,0,0,.166-3.554,8.408,8.408,0,0,0-1.959-3.354c-.2-.2,2.058-.4,2.657-.731s-3.819-3.42-5.114-3.985a20.421,20.421,0,0,0-3.089-.963,8.309,8.309,0,0,0,3.321-1.528c1.129-1.062.9-3.353.5-4.085a4.307,4.307,0,0,0-1.295-1.3,3.3,3.3,0,0,1-.8,1.726,7.6,7.6,0,0,1-4.5.246,10.67,10.67,0,0,1-2.013-.909c-.1-.1,2.226.3,3.222-.033a4.413,4.413,0,0,0,2.058-2.724,1.478,1.478,0,0,0-.557-1.037,3.917,3.917,0,0,1-1.768.174c-.6-.2-1.361-.5-1.361-.5a2.014,2.014,0,0,0,.83-.83,1.054,1.054,0,0,0,.079-1.075,3.8,3.8,0,0,1-2.039-.221,7.662,7.662,0,0,1-3.122-2.524,2.576,2.576,0,0,1,0-3.187,2.443,2.443,0,0,1,1.561-1.1c.233-.033.365,2.756,1.76,3.553s3.952.763,4.716-.332,1.693-3.022,1.361-3.952.134-.864.432-.366a7.236,7.236,0,0,1,.7,3.022c-.1.763-.365.564.3.631s3.088-1.827,3.288-3.354a7.014,7.014,0,0,0-.1-2.889c-.1-.1,1.627-.1,2.357-.565s2.524-2.125,2.724-2.988l0,0Zm-24.109,5.317c-.2,1.4-.987,5.505-1.092,5.608s.462,2.461.794,4.588.73,3.852.73,3.852-1.726-.4-3.852-.73-4.483-.9-4.588-.793-4.213.892-5.609,1.091a40.132,40.132,0,0,0-5.317,1.743,40.131,40.131,0,0,0-5.317-1.743c-1.4-.2-5.505-.987-5.608-1.091s-2.461.461-4.587.793-3.853.73-3.853.73.4-1.726.731-3.852.9-4.483.793-4.588-.893-4.213-1.092-5.608a40,40,0,0,0-1.743-5.317,40,40,0,0,0,1.743-5.317c.2-1.4.987-5.505,1.092-5.608s-.461-2.461-.793-4.587-.731-3.853-.731-3.853,1.726.4,3.853.731,4.482.9,4.587.793,4.213-.893,5.608-1.092a39.988,39.988,0,0,0,5.317-1.743,39.99,39.99,0,0,0,5.317,1.743c1.4.2,5.505.987,5.609,1.092s2.461-.461,4.587-.793,3.853-.731,3.853-.731-.4,1.727-.73,3.853-.9,4.482-.794,4.587.893,4.213,1.092,5.608a39.987,39.987,0,0,0,1.743,5.317A39.986,39.986,0,0,0,932.594,295.569Z" transform="translate(-860.161 -236.751)" fill="#2e3e91"/>
      <circle id="Elipse_88" data-name="Elipse 88" cx="4.994" cy="4.994" r="4.994" transform="translate(48.507 48.507)" fill="#4192d0"/>
      <path id="Caminho_3165" data-name="Caminho 3165" d="M920.587,284.538a8.938,8.938,0,1,0,0,12.64A8.938,8.938,0,0,0,920.587,284.538Zm-11.049,11.049a6.688,6.688,0,1,1,9.458,0A6.688,6.688,0,0,1,909.538,295.586Z" transform="translate(-860.766 -237.356)" fill="#2e3e91"/>
      <path id="Caminho_3166" data-name="Caminho 3166" d="M900.927,297.734c-.074-.411-.377-1.659-.377-1.659s-.825-.563-1.162-.811-1.666.479-2.316,1.212a4.355,4.355,0,0,0-.649,2.35,4.353,4.353,0,0,0,2.4.452C899.764,299.02,901,298.146,900.927,297.734Z" transform="translate(-860.611 -237.588)" fill="#4192d0"/>
      <path id="Caminho_3167" data-name="Caminho 3167" d="M909.907,305.232c-.341-.243-1.431-.92-1.431-.92s-.985.175-1.4.234-.855,1.509-.8,2.488a1.657,1.657,0,1,0,3.209.777C909.977,306.964,910.247,305.473,909.907,305.232Z" transform="translate(-860.783 -237.747)" fill="#4192d0"/>
      <path id="Caminho_3168" data-name="Caminho 3168" d="M907.785,322.1a1.626,1.626,0,1,1,0-2.3A1.624,1.624,0,0,1,907.785,322.1Z" transform="translate(-860.761 -238.009)" fill="#d59d65"/>
      <circle id="Elipse_89" data-name="Elipse 89" cx="1.626" cy="1.626" r="1.626" transform="translate(22.566 59.633)" fill="#d59d65"/>
      <path id="Caminho_3169" data-name="Caminho 3169" d="M877.418,343.158c.257-.338.423-.825-.058-.665s-2.565-1.6-2.727-2.727.04-3.168-1.042-4.17a3.465,3.465,0,0,0-3.25-.524l-.28-.28a3.462,3.462,0,0,0-.524-3.25c-1-1.083-3.047-.882-4.17-1.043s-2.887-2.246-2.727-2.727-.326-.315-.664-.057-2.9,1.541-1.14,3.866,2.446,1.4,2.446,1.4l.521.842a8.5,8.5,0,0,1-1.365.88,5.969,5.969,0,0,0-1.883,2.448,15.077,15.077,0,0,0,1.764.481c.562.08-.521.762-1.162,1.4s-.761,2.285-.481,3.528a5.867,5.867,0,0,1,.2,1.661l-.034.032.031,0,0,.031.032-.033a5.882,5.882,0,0,1,1.661.2c1.243.281,2.887.16,3.528-.481s1.324-1.724,1.4-1.162a14.935,14.935,0,0,0,.48,1.764,5.97,5.97,0,0,0,2.448-1.883,8.5,8.5,0,0,1,.88-1.365l.842.521s-.922.682,1.4,2.447S877.159,343.495,877.418,343.158Z" transform="translate(-859.98 -238.151)" fill="#2e3e91"/>
      <path id="Caminho_3170" data-name="Caminho 3170" d="M873.341,340.269c-.08-1.123-.12-3.248-.521-3.569s-.842-1.163-1.925-.882a7.838,7.838,0,0,1-1.724.24,7.842,7.842,0,0,1,.24-1.724c.281-1.083-.561-1.523-.881-1.925s-2.447-.44-3.569-.521-2.847-1.083-2.758-.851a4.969,4.969,0,0,0,2.076,1.533c1.083.441,2.446.2,3.488.6s.4,1.924-.4,2.806-2.846.923-2.846.923a4.217,4.217,0,0,0,1.484.842s-.562.561-1.724,1.885a3.56,3.56,0,0,0-1.086,2.363l.046.046a3.558,3.558,0,0,0,2.363-1.086c1.323-1.162,1.885-1.724,1.885-1.724a4.216,4.216,0,0,0,.842,1.484s.04-2.045.923-2.846,2.405-1.443,2.806-.4.161,2.405.6,3.488a4.971,4.971,0,0,0,1.533,2.076C874.424,343.115,873.422,341.391,873.341,340.269Z" transform="translate(-860.014 -238.212)" fill="#4192d0"/>
      <path id="Caminho_3171" data-name="Caminho 3171" d="M873.592,298.338c-1-3.54-4.5-5.483-6-6a6.021,6.021,0,0,0-6.967,2.935c-2.016,3.427,1.159,6,2.57,6.4s3.578-2.066,3.578-2.066a8.771,8.771,0,0,1,1.311,2.822,34.332,34.332,0,0,1,.3,5.847l-2.066.654a8.949,8.949,0,0,0-5.67,6.376c-.83,3.553-1.175,7.305,2.555,11.135s6.642,3.534,8.154,2.93,2.32-3.2,2.227-4.505a3.048,3.048,0,0,0-5.128-1.753,4.511,4.511,0,0,0-.519.766c-.014.028-.253-.1-.243-.128a4.491,4.491,0,0,1,.515-.883,4.049,4.049,0,0,1-.939-3.474,6.5,6.5,0,0,1,3.455-3.9,5.746,5.746,0,0,1,3.354-.008s.1,1.612.857-3.578A32.636,32.636,0,0,0,873.592,298.338ZM871.555,312.8c-.434-.017-2.072.562-4.16,2.489s-1.526,4.8-1.494,5.862,1.815,3.164,1.815,3.164a.3.3,0,0,1,.176.336,1.915,1.915,0,0,0,.936,1.919,1.479,1.479,0,0,0,1.891-.311c.371-.415.256-.257.256-.065a2.315,2.315,0,0,1-1.344,1.073c-.755.273-2.265-.035-3.778-1.593a7.962,7.962,0,0,1-2.249-4.346,10.189,10.189,0,0,1,1.22-7.452c1.913-3.242,3.453-3.55,3.533-3.533s2.377,1.574,2.987,1.992S871.988,312.816,871.555,312.8Z" transform="translate(-859.976 -237.534)" fill="#2e3e91"/>
      <path id="Caminho_3172" data-name="Caminho 3172" d="M872.146,312.28a16.618,16.618,0,0,0,.673-7.969c-.716-3.279-1.759-6.043-3.6-7.593-1.344-1.133-2.51-1.6-3.53-1.452a2.884,2.884,0,0,0-2.077,1.533c-.174.522-.065,1.281.174,1.216s.174-.131.2-.587.744-1.107,1.3-1.212a2.39,2.39,0,0,1,2.231.532,10.566,10.566,0,0,1,2.5,3.589,12.4,12.4,0,0,1,.564,6.427c-.325.8-.716,1.759-1.28,1.716a6.444,6.444,0,0,0-.956,0c-.361,0,1.173,1.114,1.455.831a4.76,4.76,0,0,0,1.505-3.329,22.693,22.693,0,0,0-.622-5.188c-.151-.716.567-.519,1.318,2.41a19.667,19.667,0,0,1,.115,6.281C871.836,310.636,872.041,312.592,872.146,312.28Z" transform="translate(-860.037 -237.589)" fill="#4192d0"/>
      <path id="Caminho_3173" data-name="Caminho 3173" d="M912.434,337.577c-.516-1.5-2.458-5-6-6a32.645,32.645,0,0,0-13.57-1.349c-5.191.756-3.578.857-3.578.857a5.748,5.748,0,0,1-.008,3.354,6.5,6.5,0,0,1-3.9,3.455,4.05,4.05,0,0,1-3.474-.939,4.5,4.5,0,0,1-.882.515c-.03.012-.155-.229-.129-.243a4.506,4.506,0,0,0,.766-.519,3.049,3.049,0,0,0-1.752-5.128c-1.3-.092-3.9.715-4.506,2.227s-.9,4.424,2.93,8.154,7.583,3.386,11.135,2.555a8.947,8.947,0,0,0,6.376-5.67l.655-2.066a34.318,34.318,0,0,1,5.846.3,8.782,8.782,0,0,1,2.823,1.311s-2.47,2.168-2.067,3.578,2.974,4.587,6.4,2.57A6.021,6.021,0,0,0,912.434,337.577Zm-21.537,2.77a10.19,10.19,0,0,1-7.452,1.22,7.967,7.967,0,0,1-4.346-2.248c-1.557-1.514-1.866-3.023-1.593-3.779a2.318,2.318,0,0,1,1.073-1.344c.193,0,.35-.115-.065.256a1.48,1.48,0,0,0-.311,1.891,1.915,1.915,0,0,0,1.919.936.3.3,0,0,1,.336.176s2.1,1.782,3.164,1.815,3.935.594,5.862-1.494,2.506-3.726,2.489-4.159.048-.4.466.208,1.976,2.906,1.992,2.987S894.14,338.435,890.9,340.347Z" transform="translate(-860.238 -238.195)" fill="#2e3e91"/>
      <path id="Caminho_3174" data-name="Caminho 3174" d="M892.86,333.127a16.624,16.624,0,0,1,7.968-.673c3.279.716,6.044,1.759,7.593,3.6,1.133,1.344,1.6,2.51,1.452,3.53a2.884,2.884,0,0,1-1.533,2.077c-.521.174-1.281.065-1.216-.174s.131-.174.587-.2,1.107-.743,1.211-1.3a2.391,2.391,0,0,0-.532-2.231,10.555,10.555,0,0,0-3.589-2.5,12.4,12.4,0,0,0-6.427-.564c-.8.325-1.759.716-1.715,1.281a6.714,6.714,0,0,1,0,.955c0,.361-1.115-1.172-.832-1.455a4.765,4.765,0,0,1,3.329-1.505,22.694,22.694,0,0,1,5.188.622c.716.151.519-.567-2.41-1.317a19.64,19.64,0,0,0-6.281-.116C894.5,333.438,892.547,333.232,892.86,333.127Z" transform="translate(-860.548 -238.233)" fill="#4192d0"/>
      <path id="Caminho_3175" data-name="Caminho 3175" d="M921.144,304.435c-.411.074-1.659.377-1.659.377s-.563.825-.811,1.162.479,1.666,1.212,2.316a1.657,1.657,0,1,0,2.8-1.747C922.43,305.6,921.556,304.361,921.144,304.435Z" transform="translate(-860.998 -237.749)" fill="#4192d0"/>
      <path id="Caminho_3176" data-name="Caminho 3176" d="M945.51,297.6a1.626,1.626,0,1,1-2.3,0A1.626,1.626,0,0,1,945.51,297.6Z" transform="translate(-861.419 -237.622)" fill="#d59d65"/>
      <circle id="Elipse_90" data-name="Elipse 90" cx="1.626" cy="1.626" r="1.626" transform="translate(59.633 81.183)" fill="#d59d65"/>
      <path id="Caminho_3177" data-name="Caminho 3177" d="M966.568,327.716c-.338-.258-.825-.424-.665.057s-1.6,2.565-2.727,2.727-3.168-.04-4.17,1.043a3.465,3.465,0,0,0-.524,3.25l-.28.28a3.465,3.465,0,0,0-3.25.524c-1.083,1-.882,3.048-1.042,4.17s-2.246,2.887-2.727,2.727-.315.327-.057.665,1.541,2.9,3.866,1.14,1.4-2.447,1.4-2.447l.842-.521a8.5,8.5,0,0,1,.88,1.365,5.97,5.97,0,0,0,2.448,1.883,15.065,15.065,0,0,0,.481-1.764c.08-.562.762.521,1.4,1.162s2.285.762,3.528.481a5.886,5.886,0,0,1,1.661-.2l.032.033,0-.031.031,0-.033-.032a5.8,5.8,0,0,1,.2-1.661c.28-1.243.16-2.887-.481-3.528s-1.724-1.323-1.162-1.4a15.077,15.077,0,0,0,1.764-.481,5.969,5.969,0,0,0-1.883-2.448,8.5,8.5,0,0,1-1.365-.88l.521-.842s.682.923,2.447-1.4S966.9,327.973,966.568,327.716Z" transform="translate(-861.561 -238.151)" fill="#2e3e91"/>
      <path id="Caminho_3178" data-name="Caminho 3178" d="M963.677,331.887c-1.122.081-3.247.12-3.568.521s-1.163.842-.882,1.925a7.838,7.838,0,0,1,.24,1.724,7.838,7.838,0,0,1-1.724-.24c-1.083-.281-1.524.561-1.925.882s-.441,2.446-.521,3.569-1.083,2.846-.851,2.757a4.971,4.971,0,0,0,1.533-2.076c.441-1.083.2-2.446.6-3.488s1.924-.4,2.806.4.923,2.846.923,2.846a4.216,4.216,0,0,0,.842-1.484s.561.562,1.885,1.724a3.56,3.56,0,0,0,2.363,1.086l.046-.046a3.56,3.56,0,0,0-1.086-2.363c-1.162-1.323-1.724-1.885-1.724-1.885a4.216,4.216,0,0,0,1.484-.842s-2.045-.04-2.846-.923-1.443-2.405-.4-2.806,2.405-.16,3.488-.6a4.968,4.968,0,0,0,2.076-1.533C966.525,330.8,964.8,331.807,963.677,331.887Z" transform="translate(-861.622 -238.212)" fill="#4192d0"/>
      <path id="Caminho_3179" data-name="Caminho 3179" d="M952.784,333.81c-.605-1.512-3.2-2.32-4.505-2.227a3.048,3.048,0,0,0-1.752,5.128,4.453,4.453,0,0,0,.765.519c.028.014-.1.254-.129.243a4.5,4.5,0,0,1-.882-.515,4.05,4.05,0,0,1-3.474.939,6.5,6.5,0,0,1-3.9-3.455,5.748,5.748,0,0,1-.008-3.354s1.612-.1-3.578-.857a32.638,32.638,0,0,0-13.569,1.349c-3.54,1-5.483,4.5-6,6a6.021,6.021,0,0,0,2.935,6.967c3.427,2.016,6-1.159,6.4-2.57s-2.067-3.578-2.067-3.578a8.782,8.782,0,0,1,2.823-1.311,34.32,34.32,0,0,1,5.846-.3l.655,2.066a8.947,8.947,0,0,0,6.376,5.67c3.553.831,7.305,1.175,11.135-2.555S953.389,335.322,952.784,333.81Zm-3.7,5.509a7.967,7.967,0,0,1-4.346,2.248,10.189,10.189,0,0,1-7.452-1.22c-3.242-1.912-3.55-3.453-3.533-3.533s1.574-2.377,1.992-2.987.481-.643.466-.208.562,2.071,2.489,4.159,4.8,1.526,5.862,1.494,3.164-1.815,3.164-1.815a.3.3,0,0,1,.336-.176,1.915,1.915,0,0,0,1.919-.936,1.479,1.479,0,0,0-.311-1.891c-.415-.371-.257-.256-.065-.256a2.315,2.315,0,0,1,1.073,1.344C950.95,336.3,950.641,337.805,949.084,339.319Z" transform="translate(-860.944 -238.195)" fill="#2e3e91"/>
      <path id="Caminho_3180" data-name="Caminho 3180" d="M935.689,333.127a16.625,16.625,0,0,0-7.968-.673c-3.279.716-6.044,1.759-7.593,3.6-1.133,1.344-1.6,2.51-1.452,3.53a2.884,2.884,0,0,0,1.533,2.077c.522.174,1.281.065,1.216-.174s-.131-.174-.587-.2-1.107-.743-1.211-1.3a2.391,2.391,0,0,1,.532-2.231,10.565,10.565,0,0,1,3.589-2.5,12.4,12.4,0,0,1,6.427-.564c.8.325,1.759.716,1.715,1.281a6.7,6.7,0,0,0,0,.955c0,.361,1.115-1.172.832-1.455a4.764,4.764,0,0,0-3.329-1.505,22.694,22.694,0,0,0-5.188.622c-.716.151-.519-.567,2.41-1.317a19.64,19.64,0,0,1,6.281-.116C934.046,333.438,936,333.232,935.689,333.127Z" transform="translate(-860.999 -238.233)" fill="#4192d0"/>
      <path id="Caminho_3181" data-name="Caminho 3181" d="M962.259,308.933l-2.066-.654a34.332,34.332,0,0,1,.3-5.847,8.77,8.77,0,0,1,1.311-2.822s2.167,2.469,3.578,2.066,4.587-2.974,2.57-6.4a6.021,6.021,0,0,0-6.967-2.935c-1.5.516-5,2.458-6,6a32.637,32.637,0,0,0-1.349,13.569c.756,5.191.857,3.578.857,3.578a5.746,5.746,0,0,1,3.354.008,6.5,6.5,0,0,1,3.455,3.9,4.05,4.05,0,0,1-.939,3.474,4.5,4.5,0,0,1,.515.883c.011.029-.229.155-.243.128a4.511,4.511,0,0,0-.519-.766,3.048,3.048,0,0,0-5.128,1.753c-.092,1.3.715,3.9,2.227,4.505s4.424.9,8.154-2.93,3.386-7.582,2.555-11.135A8.947,8.947,0,0,0,962.259,308.933Zm2.719,12.395a7.962,7.962,0,0,1-2.249,4.346c-1.513,1.557-3.023,1.866-3.778,1.593a2.314,2.314,0,0,1-1.344-1.073c0-.193-.115-.35.256.065a1.479,1.479,0,0,0,1.891.311,1.915,1.915,0,0,0,.936-1.919.3.3,0,0,1,.176-.336s1.782-2.1,1.815-3.164.594-3.934-1.494-5.862-3.726-2.506-4.16-2.489-.4-.048.209-.466,2.906-1.976,2.987-1.992,1.621.291,3.533,3.533A10.189,10.189,0,0,1,964.977,321.328Z" transform="translate(-861.605 -237.534)" fill="#2e3e91"/>
      <path id="Caminho_3182" data-name="Caminho 3182" d="M956.537,312.28a16.631,16.631,0,0,1-.673-7.969c.716-3.279,1.759-6.043,3.6-7.593,1.344-1.133,2.51-1.6,3.53-1.452a2.884,2.884,0,0,1,2.077,1.533c.174.522.065,1.281-.174,1.216s-.174-.131-.2-.587-.743-1.107-1.3-1.212a2.391,2.391,0,0,0-2.231.532,10.566,10.566,0,0,0-2.5,3.589,12.4,12.4,0,0,0-.564,6.427c.325.8.716,1.759,1.28,1.716a6.442,6.442,0,0,1,.956,0c.361,0-1.173,1.114-1.455.831a4.764,4.764,0,0,1-1.505-3.329,22.693,22.693,0,0,1,.622-5.188c.151-.716-.567-.519-1.317,2.41a19.64,19.64,0,0,0-.116,6.281C956.847,310.636,956.642,312.592,956.537,312.28Z" transform="translate(-861.643 -237.589)" fill="#4192d0"/>
      <path id="Caminho_3183" data-name="Caminho 3183" d="M927.845,284.225c.074.412.377,1.659.377,1.659s.825.564,1.162.811,1.666-.479,2.316-1.212a4.355,4.355,0,0,0,.649-2.35,4.351,4.351,0,0,0-2.4-.452C929.008,282.938,927.771,283.813,927.845,284.225Z" transform="translate(-861.159 -237.369)" fill="#4192d0"/>
      <path id="Caminho_3184" data-name="Caminho 3184" d="M918.877,276.715c.341.242,1.431.92,1.431.92s.985-.176,1.4-.235.855-1.508.8-2.488a1.657,1.657,0,1,0-3.21-.777C918.808,274.982,918.537,276.472,918.877,276.715Z" transform="translate(-861 -237.197)" fill="#4192d0"/>
      <path id="Caminho_3185" data-name="Caminho 3185" d="M921.01,259.875a1.626,1.626,0,1,1,0,2.3A1.626,1.626,0,0,1,921.01,259.875Z" transform="translate(-861.032 -236.964)" fill="#d59d65"/>
      <path id="Caminho_3186" data-name="Caminho 3186" d="M945.376,284.242a1.626,1.626,0,1,0-2.3,0A1.625,1.625,0,0,0,945.376,284.242Z" transform="translate(-861.416 -237.349)" fill="#d59d65"/>
      <path id="Caminho_3187" data-name="Caminho 3187" d="M951.126,238.566c-.258.338-.424.824.057.664s2.565,1.6,2.727,2.727-.04,3.168,1.042,4.17a3.462,3.462,0,0,0,3.25.524l.28.28a3.465,3.465,0,0,0,.524,3.25c1,1.083,3.048.882,4.17,1.042s2.887,2.246,2.727,2.727.327.315.665.058,2.9-1.542,1.14-3.866-2.447-1.4-2.447-1.4l-.521-.842a8.5,8.5,0,0,1,1.365-.88,5.97,5.97,0,0,0,1.883-2.448,14.931,14.931,0,0,0-1.764-.48c-.562-.081.521-.762,1.162-1.4s.761-2.285.481-3.528a5.794,5.794,0,0,1-.2-1.661l.033-.032-.031,0,0-.031-.032.034a5.866,5.866,0,0,1-1.661-.2c-1.243-.28-2.887-.16-3.528.481s-1.324,1.724-1.4,1.163a15.041,15.041,0,0,0-.481-1.765,5.97,5.97,0,0,0-2.448,1.883,8.5,8.5,0,0,1-.88,1.365l-.842-.521s.922-.682-1.4-2.446S951.383,238.228,951.126,238.566Z" transform="translate(-861.561 -236.57)" fill="#2e3e91"/>
      <path id="Caminho_3188" data-name="Caminho 3188" d="M955.3,241.551c.08,1.122.12,3.247.521,3.569s.842,1.162,1.925.881a7.839,7.839,0,0,1,1.724-.24,7.838,7.838,0,0,1-.24,1.724c-.281,1.083.561,1.524.882,1.925s2.446.441,3.568.521,2.847,1.083,2.758.851a4.962,4.962,0,0,0-2.076-1.532c-1.083-.441-2.446-.2-3.488-.6s-.4-1.924.4-2.806,2.846-.923,2.846-.923a4.216,4.216,0,0,0-1.484-.842s.562-.561,1.724-1.885a3.557,3.557,0,0,0,1.086-2.362l-.046-.047a3.56,3.56,0,0,0-2.363,1.086c-1.324,1.162-1.885,1.724-1.885,1.724a4.217,4.217,0,0,0-.842-1.484s-.04,2.045-.923,2.846-2.405,1.443-2.806.4-.16-2.405-.6-3.488a4.971,4.971,0,0,0-1.533-2.076C954.214,238.7,955.217,240.428,955.3,241.551Z" transform="translate(-861.622 -236.604)" fill="#4192d0"/>
      <path id="Caminho_3189" data-name="Caminho 3189" d="M965.384,279.688c-1.412-.4-3.578,2.067-3.578,2.067a8.769,8.769,0,0,1-1.311-2.823,34.321,34.321,0,0,1-.3-5.846l2.066-.655a8.947,8.947,0,0,0,5.67-6.376c.831-3.553,1.175-7.3-2.555-11.135s-6.642-3.534-8.154-2.93-2.32,3.2-2.227,4.506a3.049,3.049,0,0,0,5.128,1.752,4.511,4.511,0,0,0,.519-.766c.014-.027.253.1.243.129a4.508,4.508,0,0,1-.515.882,4.051,4.051,0,0,1,.939,3.474,6.5,6.5,0,0,1-3.455,3.9,5.746,5.746,0,0,1-3.354.008s-.1-1.612-.857,3.578a32.644,32.644,0,0,0,1.349,13.57c1,3.539,4.5,5.482,6,6a6.021,6.021,0,0,0,6.967-2.935C969.971,282.662,966.8,280.092,965.384,279.688Zm-8.357-11.125c.434.017,2.072-.562,4.16-2.489s1.526-4.8,1.494-5.862-1.815-3.164-1.815-3.164a.3.3,0,0,1-.176-.336,1.915,1.915,0,0,0-.936-1.919,1.48,1.48,0,0,0-1.891.311c-.371.415-.256.257-.256.065a2.318,2.318,0,0,1,1.344-1.073c.755-.273,2.265.035,3.778,1.593a7.962,7.962,0,0,1,2.249,4.346,10.19,10.19,0,0,1-1.22,7.452c-1.912,3.242-3.453,3.55-3.533,3.533s-2.377-1.574-2.987-1.992S956.594,268.548,957.027,268.563Z" transform="translate(-861.605 -236.828)" fill="#2e3e91"/>
      <path id="Caminho_3190" data-name="Caminho 3190" d="M956.537,269.45a16.625,16.625,0,0,0-.673,7.968c.716,3.279,1.759,6.044,3.6,7.593,1.344,1.133,2.51,1.6,3.53,1.452a2.884,2.884,0,0,0,2.077-1.533c.174-.521.065-1.281-.174-1.216s-.174.131-.2.587-.743,1.107-1.3,1.212a2.391,2.391,0,0,1-2.231-.532,10.545,10.545,0,0,1-2.5-3.589,12.4,12.4,0,0,1-.564-6.427c.325-.8.716-1.758,1.28-1.715a6.716,6.716,0,0,0,.956,0c.361,0-1.173-1.115-1.455-.832a4.764,4.764,0,0,0-1.505,3.329,22.693,22.693,0,0,0,.622,5.188c.151.716-.567.519-1.317-2.41a19.64,19.64,0,0,1-.116-6.281C956.847,271.093,956.642,269.137,956.537,269.45Z" transform="translate(-861.643 -237.138)" fill="#4192d0"/>
      <path id="Caminho_3191" data-name="Caminho 3191" d="M949.854,239.8c-3.83-3.73-7.582-3.385-11.135-2.554a8.946,8.946,0,0,0-6.376,5.669l-.655,2.066a34.213,34.213,0,0,1-5.846-.3,8.782,8.782,0,0,1-2.823-1.311s2.47-2.167,2.067-3.578-2.974-4.587-6.4-2.57a6.021,6.021,0,0,0-2.935,6.967c.516,1.5,2.458,5,6,6a32.638,32.638,0,0,0,13.569,1.349c5.191-.756,3.578-.857,3.578-.857a5.747,5.747,0,0,1,.008-3.354,6.5,6.5,0,0,1,3.9-3.454,4.046,4.046,0,0,1,3.474.938,4.5,4.5,0,0,1,.882-.515c.03-.011.156.229.129.243a4.514,4.514,0,0,0-.765.519,3.048,3.048,0,0,0,1.752,5.128c1.3.092,3.9-.715,4.505-2.227S953.685,243.527,949.854,239.8Zm.822,6.424a2.315,2.315,0,0,1-1.073,1.344c-.193,0-.35.115.065-.256a1.479,1.479,0,0,0,.311-1.891,1.915,1.915,0,0,0-1.919-.936.3.3,0,0,1-.336-.176s-2.1-1.782-3.164-1.815-3.934-.593-5.862,1.493-2.506,3.726-2.489,4.16-.048.4-.466-.209-1.976-2.906-1.992-2.987.291-1.62,3.533-3.533a10.189,10.189,0,0,1,7.452-1.22,7.969,7.969,0,0,1,4.346,2.249C950.641,243.957,950.95,245.467,950.677,246.222Z" transform="translate(-860.944 -236.566)" fill="#2e3e91"/>
      <path id="Caminho_3192" data-name="Caminho 3192" d="M935.689,248.736a16.612,16.612,0,0,1-7.968.673c-3.279-.716-6.044-1.758-7.593-3.6-1.133-1.344-1.6-2.51-1.452-3.53a2.884,2.884,0,0,1,1.533-2.077c.522-.173,1.281-.065,1.216.174s-.131.174-.587.2-1.107.744-1.211,1.3a2.39,2.39,0,0,0,.532,2.231,10.565,10.565,0,0,0,3.589,2.5,12.4,12.4,0,0,0,6.427.564c.8-.325,1.759-.716,1.715-1.28a6.709,6.709,0,0,1,0-.956c0-.361,1.115,1.173.832,1.455a4.76,4.76,0,0,1-3.329,1.505,22.763,22.763,0,0,1-5.188-.621c-.716-.152-.519.566,2.41,1.317a19.666,19.666,0,0,0,6.281.115C934.046,248.426,936,248.631,935.689,248.736Z" transform="translate(-860.999 -236.628)" fill="#4192d0"/>
      <path id="Caminho_3193" data-name="Caminho 3193" d="M907.635,277.517c.412-.074,1.659-.377,1.659-.377s.564-.825.811-1.162-.479-1.666-1.213-2.316a1.657,1.657,0,1,0-2.8,1.747C906.348,276.354,907.223,277.591,907.635,277.517Z" transform="translate(-860.779 -237.201)" fill="#4192d0"/>
      <circle id="Elipse_91" data-name="Elipse 91" cx="1.626" cy="1.626" r="1.626" transform="translate(22.435 44.248)" fill="#d59d65"/>
      <path id="Caminho_3194" data-name="Caminho 3194" d="M907.652,260.009a1.626,1.626,0,1,0,0,2.3A1.627,1.627,0,0,0,907.652,260.009Z" transform="translate(-860.759 -236.966)" fill="#d59d65"/>
      <path id="Caminho_3195" data-name="Caminho 3195" d="M861.976,254.008c.338.257.824.423.664-.058s1.6-2.565,2.727-2.727,3.168.04,4.17-1.042a3.462,3.462,0,0,0,.524-3.25l.28-.28a3.462,3.462,0,0,0,3.25-.524c1.083-1,.882-3.047,1.042-4.17s2.246-2.887,2.727-2.727.315-.326.057-.664-1.541-2.9-3.865-1.14-1.4,2.446-1.4,2.446l-.842.521a8.5,8.5,0,0,1-.88-1.365,5.969,5.969,0,0,0-2.448-1.883,14.911,14.911,0,0,0-.48,1.765c-.081.561-.762-.522-1.4-1.163s-2.285-.761-3.528-.481a5.863,5.863,0,0,1-1.661.2l-.032-.034,0,.031-.031,0,.034.032a5.862,5.862,0,0,1-.2,1.661c-.28,1.243-.16,2.887.481,3.528s1.724,1.324,1.162,1.4a14.931,14.931,0,0,0-1.764.48,5.97,5.97,0,0,0,1.883,2.448,8.5,8.5,0,0,1,1.365.88l-.521.842s-.682-.922-2.446,1.4S861.638,253.749,861.976,254.008Z" transform="translate(-859.98 -236.57)" fill="#2e3e91"/>
      <path id="Caminho_3196" data-name="Caminho 3196" d="M864.961,249.931c1.122-.08,3.247-.12,3.569-.521s1.162-.842.881-1.925a7.842,7.842,0,0,1-.24-1.724,7.839,7.839,0,0,1,1.724.24c1.083.281,1.524-.561,1.925-.881s.441-2.447.521-3.569,1.083-2.847.851-2.758a4.977,4.977,0,0,0-1.533,2.076c-.44,1.083-.2,2.446-.6,3.488s-1.924.4-2.806-.4-.923-2.846-.923-2.846a4.217,4.217,0,0,0-.842,1.484s-.561-.562-1.885-1.724a3.558,3.558,0,0,0-2.363-1.086l-.046.047a3.557,3.557,0,0,0,1.086,2.362c1.162,1.324,1.724,1.885,1.724,1.885a4.217,4.217,0,0,0-1.484.842s2.045.04,2.846.923,1.443,2.405.4,2.806-2.405.161-3.488.6a4.962,4.962,0,0,0-2.076,1.532C862.114,251.014,863.838,250.012,864.961,249.931Z" transform="translate(-860.014 -236.604)" fill="#4192d0"/>
      <path id="Caminho_3197" data-name="Caminho 3197" d="M909.5,237.217c-3.427-2.016-6,1.159-6.4,2.57s2.067,3.578,2.067,3.578a8.782,8.782,0,0,1-2.823,1.311,34.211,34.211,0,0,1-5.846.3l-.655-2.066a8.946,8.946,0,0,0-6.376-5.669c-3.552-.831-7.305-1.176-11.135,2.554s-3.534,6.642-2.93,8.154,3.2,2.32,4.506,2.227a3.049,3.049,0,0,0,1.752-5.128,4.567,4.567,0,0,0-.766-.519c-.026-.014.1-.253.129-.243a4.5,4.5,0,0,1,.882.515,4.046,4.046,0,0,1,3.474-.938,6.5,6.5,0,0,1,3.9,3.454,5.747,5.747,0,0,1,.008,3.354s-1.612.1,3.578.857a32.645,32.645,0,0,0,13.57-1.349c3.539-1,5.482-4.5,6-6A6.021,6.021,0,0,0,909.5,237.217Zm-17.06,10.718c-.418.61-.481.643-.466.209s-.562-2.072-2.489-4.16-4.8-1.525-5.862-1.493-3.164,1.815-3.164,1.815a.3.3,0,0,1-.336.176,1.915,1.915,0,0,0-1.919.936,1.48,1.48,0,0,0,.311,1.891c.415.371.257.256.065.256a2.318,2.318,0,0,1-1.073-1.344c-.273-.755.035-2.265,1.593-3.778a7.97,7.97,0,0,1,4.346-2.249,10.19,10.19,0,0,1,7.452,1.22c3.242,1.913,3.55,3.453,3.533,3.533S892.857,247.325,892.439,247.935Z" transform="translate(-860.238 -236.566)" fill="#2e3e91"/>
      <path id="Caminho_3198" data-name="Caminho 3198" d="M892.86,248.736a16.611,16.611,0,0,0,7.968.673c3.279-.716,6.044-1.758,7.593-3.6,1.133-1.344,1.6-2.51,1.452-3.53a2.884,2.884,0,0,0-1.533-2.077c-.521-.173-1.281-.065-1.216.174s.131.174.587.2,1.107.744,1.211,1.3a2.39,2.39,0,0,1-.532,2.231,10.555,10.555,0,0,1-3.589,2.5,12.4,12.4,0,0,1-6.427.564c-.8-.325-1.759-.716-1.715-1.28a6.728,6.728,0,0,0,0-.956c0-.361-1.115,1.173-.832,1.455a4.76,4.76,0,0,0,3.329,1.505,22.763,22.763,0,0,0,5.188-.621c.716-.152.519.566-2.41,1.317a19.666,19.666,0,0,1-6.281.115C894.5,248.426,892.547,248.631,892.86,248.736Z" transform="translate(-860.548 -236.628)" fill="#4192d0"/>
      <path id="Caminho_3199" data-name="Caminho 3199" d="M874.941,269.457c-.756-5.191-.857-3.578-.857-3.578a5.746,5.746,0,0,1-3.354-.008,6.5,6.5,0,0,1-3.455-3.9,4.05,4.05,0,0,1,.939-3.474,4.5,4.5,0,0,1-.515-.882c-.011-.03.229-.156.243-.129a4.511,4.511,0,0,0,.519.766,3.049,3.049,0,0,0,5.128-1.752c.092-1.3-.715-3.9-2.227-4.506s-4.424-.9-8.154,2.93-3.385,7.582-2.555,11.135a8.949,8.949,0,0,0,5.67,6.376l2.066.655a34.321,34.321,0,0,1-.3,5.846,8.77,8.77,0,0,1-1.311,2.823s-2.167-2.47-3.578-2.067-4.587,2.974-2.57,6.4a6.021,6.021,0,0,0,6.967,2.935c1.5-.516,5-2.458,6-6A32.643,32.643,0,0,0,874.941,269.457Zm-3.6-.427c-.61.418-2.906,1.976-2.987,1.992s-1.62-.291-3.533-3.533a10.189,10.189,0,0,1-1.22-7.452,7.957,7.957,0,0,1,2.249-4.345c1.513-1.558,3.023-1.867,3.778-1.594a2.318,2.318,0,0,1,1.344,1.073c0,.193.115.35-.256-.065a1.48,1.48,0,0,0-1.891-.311,1.915,1.915,0,0,0-.936,1.919.3.3,0,0,1-.176.336s-1.782,2.1-1.815,3.164-.594,3.934,1.494,5.862,3.726,2.506,4.16,2.489S871.955,268.612,871.345,269.029Z" transform="translate(-859.976 -236.828)" fill="#2e3e91"/>
      <path id="Caminho_3200" data-name="Caminho 3200" d="M872.146,269.45a16.612,16.612,0,0,1,.673,7.968c-.716,3.279-1.759,6.044-3.6,7.593-1.344,1.133-2.51,1.6-3.53,1.452a2.884,2.884,0,0,1-2.077-1.533c-.174-.521-.065-1.281.174-1.216s.174.131.2.587.744,1.107,1.3,1.212a2.39,2.39,0,0,0,2.231-.532,10.545,10.545,0,0,0,2.5-3.589,12.4,12.4,0,0,0,.564-6.427c-.325-.8-.716-1.758-1.28-1.715a6.719,6.719,0,0,1-.956,0c-.361,0,1.173-1.115,1.455-.832a4.76,4.76,0,0,1,1.505,3.329,22.693,22.693,0,0,1-.622,5.188c-.151.717.567.519,1.318-2.41a19.668,19.668,0,0,0,.115-6.281C871.836,271.093,872.041,269.137,872.146,269.45Z" transform="translate(-860.037 -237.138)" fill="#4192d0"/>
      <path id="Caminho_3201" data-name="Caminho 3201" d="M952.854,290.322a3.477,3.477,0,0,0-1.114-1.425,4.819,4.819,0,0,0-3.219-.677,3.429,3.429,0,0,0,.9-1.245,4.568,4.568,0,0,0,.331-2.916,22.363,22.363,0,0,0-1.094-2.618c-.132-.133-.264,2.386-.828,3.347s-1.359,2.618-2.187,2.982A19.629,19.629,0,0,1,941,288.963a9.875,9.875,0,0,1-4.781-1.069c-.819-.621-2.468-4.722-2.323-6.5s1.006-3.831,2.266-4.626a12.846,12.846,0,0,1,4.937-1.691c.828.1-.033-.629-1.159-1.093s-1.69-.762-2.221-.431.962-1.159,3.1-1.077,2.7-.282,2.866-.049-1.061-1.658-2.32-1.658-2.916-.4-3.314,0a7.281,7.281,0,0,1,3.314-2.784,16.3,16.3,0,0,1,4.308-.862c.63.1.572-.952-.261-1.586a8.535,8.535,0,0,0-3.881-1.1c-.464.133,1.955-1.492,2.784-1.658a8.18,8.18,0,0,0,2.95-1.027,23.218,23.218,0,0,0,2.419-1.492c.3-.232-2.419-1.225-3.281-.761s.3-.166,2.088-2.486a11.257,11.257,0,0,0,2.088-3.545,11.231,11.231,0,0,0-3.546,2.087c-2.32,1.789-2.95,2.95-2.486,2.088s-.53-3.578-.761-3.281a23.338,23.338,0,0,0-1.492,2.419,8.186,8.186,0,0,0-1.027,2.95c-.166.828-1.79,3.247-1.658,2.784a8.535,8.535,0,0,0-1.1-3.881c-.633-.833-1.686-.891-1.586-.261a16.3,16.3,0,0,1-.862,4.308A7.28,7.28,0,0,1,933.283,266c.4-.4,0-2.055,0-3.314s-1.888-2.485-1.657-2.319-.133.729-.05,2.865-1.408,3.63-1.077,3.1.033-1.094-.43-2.22-1.194-1.989-1.094-1.16a12.853,12.853,0,0,1-1.69,4.937c-.8,1.26-2.85,2.12-4.627,2.266s-5.878-1.5-6.5-2.323a9.886,9.886,0,0,1-1.069-4.781,19.639,19.639,0,0,1,1.193-4.639c.365-.828,2.021-1.624,2.982-2.187s3.479-.7,3.347-.828a22.294,22.294,0,0,0-2.618-1.094,4.567,4.567,0,0,0-2.916.331,3.451,3.451,0,0,0-1.245.9,4.821,4.821,0,0,0-.677-3.219,3.477,3.477,0,0,0-1.425-1.114h0a3.477,3.477,0,0,0-1.425,1.114,4.819,4.819,0,0,0-.677,3.219,3.439,3.439,0,0,0-1.245-.9,4.567,4.567,0,0,0-2.916-.331,22.363,22.363,0,0,0-2.618,1.094c-.133.133,2.386.265,3.347.828s2.617,1.359,2.982,2.187a19.644,19.644,0,0,1,1.193,4.639,9.886,9.886,0,0,1-1.069,4.781c-.621.819-4.722,2.468-6.5,2.323s-3.831-1.006-4.627-2.266a12.853,12.853,0,0,1-1.69-4.937c.1-.828-.629.033-1.093,1.16s-.762,1.69-.431,2.22-1.159-.961-1.077-3.1-.282-2.7-.05-2.865-1.657,1.06-1.657,2.319-.4,2.916,0,3.314a7.28,7.28,0,0,1-2.784-3.314,16.3,16.3,0,0,1-.862-4.308c.1-.63-.952-.572-1.586.261a8.537,8.537,0,0,0-1.1,3.881c.133.464-1.492-1.955-1.658-2.784a8.187,8.187,0,0,0-1.027-2.95,23.221,23.221,0,0,0-1.492-2.419c-.232-.3-1.225,2.419-.761,3.281s-.166-.3-2.486-2.088a11.222,11.222,0,0,0-3.545-2.087,11.234,11.234,0,0,0,2.087,3.545c1.789,2.32,2.95,2.95,2.088,2.486s-3.578.53-3.281.761a23.34,23.34,0,0,0,2.419,1.492,8.185,8.185,0,0,0,2.95,1.027c.828.166,3.247,1.79,2.784,1.658a8.538,8.538,0,0,0-3.881,1.1c-.833.634-.891,1.686-.261,1.586a16.3,16.3,0,0,1,4.308.862,7.281,7.281,0,0,1,3.314,2.784c-.4-.4-2.055,0-3.314,0s-2.485,1.889-2.32,1.658.73.132,2.866.049,3.63,1.408,3.1,1.077-1.094-.033-2.221.431-1.988,1.193-1.159,1.094a12.834,12.834,0,0,1,4.937,1.689c1.26.8,2.12,2.85,2.266,4.627s-1.5,5.878-2.323,6.5a9.874,9.874,0,0,1-4.781,1.069,19.643,19.643,0,0,1-4.639-1.193c-.828-.365-1.624-2.021-2.187-2.982s-.7-3.479-.828-3.347a22.354,22.354,0,0,0-1.094,2.618,4.567,4.567,0,0,0,.331,2.916,3.442,3.442,0,0,0,.9,1.245,4.82,4.82,0,0,0-3.219.677,3.483,3.483,0,0,0-1.114,1.425h0a3.477,3.477,0,0,0,1.114,1.425,4.82,4.82,0,0,0,3.219.677,3.439,3.439,0,0,0-.9,1.245,4.567,4.567,0,0,0-.331,2.916,22.387,22.387,0,0,0,1.094,2.618c.133.132.265-2.387.828-3.348s1.359-2.618,2.187-2.982a19.644,19.644,0,0,1,4.639-1.193,9.885,9.885,0,0,1,4.781,1.069c.819.621,2.468,4.722,2.323,6.5s-1.006,3.831-2.266,4.627a12.855,12.855,0,0,1-4.937,1.69c-.828-.1.033.63,1.159,1.094s1.69.761,2.221.43-.961,1.159-3.1,1.077-2.7.282-2.866.05,1.061,1.657,2.32,1.657,2.916.4,3.314,0a7.281,7.281,0,0,1-3.314,2.784,16.3,16.3,0,0,1-4.308.862c-.63-.1-.572.953.261,1.586a8.539,8.539,0,0,0,3.881,1.1c.464-.133-1.955,1.491-2.784,1.658a8.186,8.186,0,0,0-2.95,1.027,23.217,23.217,0,0,0-2.419,1.492c-.3.232,2.419,1.226,3.281.761s-.3.166-2.088,2.486a11.229,11.229,0,0,0-2.087,3.546,11.244,11.244,0,0,0,3.545-2.088c2.32-1.789,2.95-2.95,2.486-2.088s.53,3.578.761,3.281a23.222,23.222,0,0,0,1.492-2.419,8.187,8.187,0,0,0,1.027-2.95c.166-.828,1.79-3.247,1.658-2.784a8.537,8.537,0,0,0,1.1,3.881c.634.833,1.686.891,1.586.261a16.3,16.3,0,0,1,.862-4.308,7.281,7.281,0,0,1,2.784-3.314c-.4.4,0,2.055,0,3.314s1.889,2.485,1.657,2.32.133-.729.05-2.866,1.408-3.629,1.077-3.1-.033,1.094.431,2.221,1.193,1.988,1.094,1.159a12.838,12.838,0,0,1,1.689-4.937c.8-1.26,2.85-2.12,4.627-2.266s5.878,1.5,6.5,2.323a9.886,9.886,0,0,1,1.069,4.781,19.632,19.632,0,0,1-1.193,4.639c-.365.828-2.021,1.624-2.982,2.187s-3.479.7-3.347.828a22.37,22.37,0,0,0,2.618,1.094,4.567,4.567,0,0,0,2.916-.331,3.442,3.442,0,0,0,1.245-.9,4.819,4.819,0,0,0,.677,3.219,3.49,3.49,0,0,0,1.425,1.114h0a3.477,3.477,0,0,0,1.425-1.114,4.817,4.817,0,0,0,.677-3.218,3.45,3.45,0,0,0,1.245.9,4.567,4.567,0,0,0,2.916.331,22.3,22.3,0,0,0,2.618-1.094c.133-.133-2.386-.264-3.347-.828s-2.618-1.359-2.982-2.187a19.626,19.626,0,0,1-1.193-4.639,9.886,9.886,0,0,1,1.069-4.781c.621-.819,4.722-2.468,6.5-2.323s3.831,1.006,4.627,2.266a12.859,12.859,0,0,1,1.69,4.937c-.1.828.63-.033,1.094-1.159s.761-1.69.43-2.221,1.159.962,1.077,3.1.282,2.7.05,2.866,1.657-1.061,1.657-2.32.4-2.916,0-3.314a7.281,7.281,0,0,1,2.784,3.314,16.3,16.3,0,0,1,.862,4.308c-.1.63.953.572,1.586-.261a8.535,8.535,0,0,0,1.1-3.881c-.133-.464,1.492,1.955,1.658,2.784a8.185,8.185,0,0,0,1.027,2.95,23.222,23.222,0,0,0,1.492,2.419c.232.3,1.226-2.419.761-3.281s.166.3,2.486,2.088a11.258,11.258,0,0,0,3.545,2.088,11.229,11.229,0,0,0-2.087-3.546c-1.789-2.32-2.95-2.95-2.088-2.486s3.578-.53,3.281-.761a23.213,23.213,0,0,0-2.419-1.492,8.18,8.18,0,0,0-2.95-1.027c-.828-.166-3.247-1.79-2.784-1.658a8.536,8.536,0,0,0,3.881-1.1c.833-.633.891-1.686.261-1.586a16.3,16.3,0,0,1-4.308-.862,7.281,7.281,0,0,1-3.314-2.784c.4.4,2.055,0,3.314,0s2.485-1.888,2.32-1.657-.729-.133-2.866-.05-3.629-1.408-3.1-1.077,1.094.033,2.221-.43,1.988-1.194,1.159-1.094a12.86,12.86,0,0,1-4.937-1.69c-1.26-.8-2.12-2.85-2.266-4.627s1.5-5.878,2.323-6.5A9.885,9.885,0,0,1,941,291.681a19.631,19.631,0,0,1,4.639,1.193c.828.365,1.624,2.021,2.187,2.982s.7,3.479.828,3.348a22.4,22.4,0,0,0,1.094-2.618,4.568,4.568,0,0,0-.331-2.916,3.45,3.45,0,0,0-.9-1.245,4.821,4.821,0,0,0,3.219-.677,3.477,3.477,0,0,0,1.114-1.425Zm-19.711,7.814c-.636,2.412.338,5.308.9,8.191s1.922,6.164,3.048,7.356c-1.193-1.126-4.474-2.485-7.356-3.048s-5.778-1.538-8.191-.9-5.693.4-6.19.835a2.924,2.924,0,0,1-3.247,0c-.5-.43-3.778-.2-6.191-.835s-5.308.338-8.191.9-6.164,1.922-7.356,3.048c1.126-1.193,2.485-4.474,3.049-7.356s1.537-5.778.9-8.191-.4-5.693-.835-6.19a2.924,2.924,0,0,1,0-3.247c.43-.5.2-3.778.835-6.191s-.338-5.308-.9-8.191-1.923-6.164-3.049-7.356c1.193,1.126,4.474,2.485,7.356,3.048s5.778,1.538,8.191.9,5.694-.4,6.191-.835a2.924,2.924,0,0,1,3.247,0c.5.43,3.777.2,6.19.835s5.308-.338,8.191-.9,6.164-1.922,7.356-3.048c-1.126,1.193-2.485,4.474-3.048,7.356s-1.538,5.778-.9,8.191.4,5.694.835,6.191a2.924,2.924,0,0,1,0,3.247C933.548,292.443,933.78,295.723,933.143,298.136Z" transform="translate(-860.231 -236.821)" fill="#4192d0"/>
      <path id="Caminho_3202" data-name="Caminho 3202" d="M929.487,275.179a21.848,21.848,0,1,0,0,30.9A21.847,21.847,0,0,0,929.487,275.179Zm-28.728,28.728a18.78,18.78,0,1,1,26.559,0A18.78,18.78,0,0,1,900.759,303.908Z" transform="translate(-860.537 -237.127)" fill="#2e3e91"/>
      <path id="Caminho_3203" data-name="Caminho 3203" d="M905.527,305.656c-.28.492-1.018-1.373-1.022-1.76s-.066.627-.894.912a11.9,11.9,0,0,1-3.344.234,13.385,13.385,0,0,1,.236-3.416c.269-.834,1.281-.916.894-.912s-2.334-.628-1.847-.918c1.147-.682,1.006-2.59,1.465-2.971a8.392,8.392,0,0,1,4.909-1.128,6.346,6.346,0,0,1,.631,1.321c-.063.129-1.574,2.678-1.574,2.678a3.747,3.747,0,0,0-.466,1.014,4.448,4.448,0,0,0,1.028-.493s2.5-1.553,2.623-1.619a6.324,6.324,0,0,1,1.333.6,8.393,8.393,0,0,1-1.031,4.93C908.1,304.6,906.186,304.5,905.527,305.656Z" transform="translate(-860.664 -237.596)" fill="#d59d65"/>
      <path id="Caminho_3204" data-name="Caminho 3204" d="M928.642,295.467c-.243.341-.92,1.432-.92,1.432s.175.984.234,1.4,1.509.855,2.488.8a4.363,4.363,0,0,0,2.132-1.183,4.35,4.35,0,0,0-1.355-2.027C930.374,295.4,928.883,295.127,928.642,295.467Z" transform="translate(-861.157 -237.59)" fill="#4192d0"/>
      <path id="Caminho_3205" data-name="Caminho 3205" d="M929.066,299.737c.492.28-1.373,1.018-1.76,1.023s.627.065.912.893a11.9,11.9,0,0,1,.234,3.344,13.386,13.386,0,0,1-3.416-.236c-.834-.269-.916-1.281-.912-.894s-.628,2.335-.918,1.847c-.682-1.147-2.591-1.006-2.971-1.465a8.4,8.4,0,0,1-1.129-4.909,6.352,6.352,0,0,1,1.322-.631c.129.064,2.678,1.574,2.678,1.574a3.748,3.748,0,0,0,1.014.466,4.432,4.432,0,0,0-.493-1.027s-1.553-2.5-1.619-2.624a6.326,6.326,0,0,1,.6-1.333,8.383,8.383,0,0,1,4.929,1.032C928.008,297.167,927.906,299.078,929.066,299.737Z" transform="translate(-861.006 -237.597)" fill="#d59d65"/>
      <path id="Caminho_3206" data-name="Caminho 3206" d="M919.377,304.639a8.386,8.386,0,0,0-2.8-4.189,6.326,6.326,0,0,0-1.365.529c-.043.138-.682,3.009-.682,3.009s-.089.392-.2.712v.024a5.019,5.019,0,0,1-.31-.979s-.67-2.886-.714-3.023a6.33,6.33,0,0,0-1.369-.519,8.394,8.394,0,0,0-2.766,4.209c-.069.592,1.352,1.875,1,3.16-.152.546,1.692-.344,1.969-.614s-.4.488-.016,1.276a13.309,13.309,0,0,0,2.192,2.632l.019-.016v.237a11.465,11.465,0,0,0,2.124-2.507c.376-.791-.3-1.546-.025-1.277s2.127,1.047,1.972.5C918.04,306.524,919.451,305.231,919.377,304.639Z" transform="translate(-860.833 -237.675)" fill="#d59d65"/>
      <path id="Caminho_3207" data-name="Caminho 3207" d="M923.147,276.2c.28-.492,1.018,1.373,1.022,1.76s.066-.627.894-.912a11.9,11.9,0,0,1,3.344-.234,13.381,13.381,0,0,1-.236,3.416c-.269.834-1.281.917-.894.913s2.335.627,1.847.917c-1.147.683-1.006,2.591-1.465,2.971a8.387,8.387,0,0,1-4.909,1.129,6.346,6.346,0,0,1-.631-1.321c.064-.13,1.574-2.679,1.574-2.679a3.746,3.746,0,0,0,.466-1.014,4.436,4.436,0,0,0-1.027.493s-2.5,1.553-2.624,1.619a6.323,6.323,0,0,1-1.333-.6,8.387,8.387,0,0,1,1.032-4.931C920.577,277.256,922.488,277.358,923.147,276.2Z" transform="translate(-861.007 -237.255)" fill="#d59d65"/>
      <path id="Caminho_3208" data-name="Caminho 3208" d="M934.5,290.926a11.465,11.465,0,0,0-2.506-2.124c-.791-.376-1.546.3-1.277.025s1.047-2.127.5-1.971c-1.283.367-2.576-1.044-3.168-.972a8.383,8.383,0,0,0-4.189,2.8,6.345,6.345,0,0,0,.529,1.365c.138.042,3.008.681,3.008.681s.394.089.713.2h.024a5.018,5.018,0,0,1-.978.31s-2.887.67-3.024.714a6.33,6.33,0,0,0-.519,1.369,8.39,8.39,0,0,0,4.209,2.766c.592.069,1.875-1.352,3.16-.994.546.151-.344-1.693-.614-1.97s.488.4,1.276.016a13.341,13.341,0,0,0,2.632-2.192l-.016-.019Z" transform="translate(-861.085 -237.426)" fill="#d59d65"/>
      <path id="Caminho_3209" data-name="Caminho 3209" d="M900.125,286.5c.242-.341.919-1.431.919-1.431s-.175-.984-.234-1.4-1.509-.855-2.488-.8a4.356,4.356,0,0,0-2.132,1.182,4.35,4.35,0,0,0,1.355,2.027C898.392,286.567,899.882,286.837,900.125,286.5Z" transform="translate(-860.607 -237.373)" fill="#4192d0"/>
      <path id="Caminho_3210" data-name="Caminho 3210" d="M899.608,282.117c-.492-.28,1.373-1.018,1.76-1.022s-.627-.066-.912-.894a11.9,11.9,0,0,1-.234-3.344,13.353,13.353,0,0,1,3.416.237c.834.268.917,1.28.913.893s.627-2.334.917-1.847c.682,1.147,2.591,1.006,2.971,1.465a8.4,8.4,0,0,1,1.129,4.909,6.343,6.343,0,0,1-1.321.631c-.13-.063-2.679-1.574-2.679-1.574a3.747,3.747,0,0,0-1.014-.466,4.445,4.445,0,0,0,.493,1.028s1.553,2.5,1.619,2.623a6.326,6.326,0,0,1-.6,1.333,8.385,8.385,0,0,1-4.929-1.031C900.666,284.687,900.768,282.776,899.608,282.117Z" transform="translate(-860.665 -237.254)" fill="#d59d65"/>
      <path id="Caminho_3211" data-name="Caminho 3211" d="M901.262,291.123s-.393-.089-.713-.2h-.023a5,5,0,0,1,.978-.31s2.886-.67,3.023-.714a6.322,6.322,0,0,0,.519-1.368,8.387,8.387,0,0,0-4.209-2.767c-.592-.069-1.875,1.352-3.16,1-.545-.152.344,1.692.615,1.969s-.489-.4-1.277-.016a13.342,13.342,0,0,0-2.632,2.192l.016.019h-.237a11.465,11.465,0,0,0,2.506,2.124c.791.376,1.546-.3,1.277-.025s-1.047,2.127-.5,1.972c1.282-.367,2.575,1.044,3.167.971a8.386,8.386,0,0,0,4.189-2.8,6.325,6.325,0,0,0-.529-1.365C904.132,291.762,901.262,291.123,901.262,291.123Z" transform="translate(-860.572 -237.424)" fill="#d59d65"/>
      <path id="Caminho_3212" data-name="Caminho 3212" d="M918.5,274.267c.151-.545-1.693.345-1.97.614s.4-.488.016-1.276a13.343,13.343,0,0,0-2.192-2.632l-.019.017v-.238a11.491,11.491,0,0,0-2.124,2.507c-.376.791.3,1.546.025,1.277s-2.127-1.046-1.971-.5c.367,1.282-1.044,2.575-.972,3.167a8.383,8.383,0,0,0,2.8,4.189,6.32,6.32,0,0,0,1.364-.529c.043-.138.682-3.008.682-3.008s.089-.393.2-.713v-.023a5,5,0,0,1,.31.978s.67,2.887.714,3.023a6.33,6.33,0,0,0,1.369.519,8.39,8.39,0,0,0,2.766-4.209C919.565,276.834,918.144,275.552,918.5,274.267Z" transform="translate(-860.836 -237.162)" fill="#d59d65"/>
    </g>
  </g>
</svg>
