<svg xmlns="http://www.w3.org/2000/svg" width="111.408" height="111.409" viewBox="0 0 111.408 111.409">
  <g id="Grupo_4331" data-name="Grupo 4331" transform="translate(11082.482 12914)">
    <rect id="Retângulo_814" data-name="Retângulo 814" width="111.408" height="111.408" transform="translate(-10971.073 -12802.592) rotate(180)" fill="none"/>
    <path id="Caminho_3447" data-name="Caminho 3447" d="M534.7,186.056h41.949l.587-.3.032.033.224-.573V143.263s-.244-.8-.626-.626-2.157,4.452-5.848,8.737-10.361,6.011-13.7,6.637-9.427-2.261-9.79-1.967c-.294.364,2.547,6.5,1.921,9.836s-2.353,10.008-6.637,13.7-8.563,5.466-8.737,5.848S534.7,186.056,534.7,186.056Zm29.485-27.849c1.687-1.331,8.673-5.666,9.908-7.038s.807-3.55,1.03-3.294a4.517,4.517,0,0,1,.238,6.074,27.985,27.985,0,0,1-4.32,3.7s.823.479,2.229,1.475,2.539,3.294,2.985,5.318-1.029,5.283-3.549,5.4a2.865,2.865,0,0,1-2.592-4.338c1.064-1.749,2.847.172,2.847.172s.412,0-.343-1.166-3.053-1.888-5.1-1.9-3.167,1.177-4.269,3.034c-1.3,2.2-1.17,4.173-.927,6.415a10.181,10.181,0,0,0,3.877,7.17c1.654,1.359,3.911,1.784,5.056.639,1.107-1.107,1.531-3.245-1.9-6.4s-5.832-2.882-5.832-2.882l.4-3.623s1.111-.519,5.16,2.181c3.169,2.113,5.449,4.482,6.243,7.479.674,2.54.892,5.283-.569,6.744-1.935,1.935-5.777,1.592-8.5-.228-2.917-1.949-5.957-5.007-7.055-12.966C558.377,164.146,562.5,159.54,564.189,158.207Zm-21.47,24.34c1.372-1.235,5.707-8.221,7.038-9.908A14.733,14.733,0,0,1,558,167.756a25.9,25.9,0,0,0-.195,3.633c-.2.1-.406.2-.611.318-1.857,1.1-3.05,2.226-3.034,4.27s.736,4.341,1.9,5.1,1.166.343,1.166.343-1.921-1.783-.172-2.847a2.948,2.948,0,0,1,3.109.1,16.32,16.32,0,0,0,1.223,2.227c0,.087.011.174.006.265-.118,2.52-3.377,4-5.4,3.549s-4.322-1.578-5.318-2.985-1.475-2.229-1.475-2.229a27.984,27.984,0,0,1-3.7,4.32,4.517,4.517,0,0,1-6.074-.238C539.169,183.354,541.347,183.782,542.719,182.547Z" transform="translate(-11550.056 -12990.134)" fill="#2e3e91"/>
    <circle id="Elipse_92" data-name="Elipse 92" cx="3.623" cy="3.623" r="3.623" transform="translate(-10999.568 -12831.041)" fill="#4192d0"/>
    <path id="Caminho_3448" data-name="Caminho 3448" d="M494.915,99.7a2.7,2.7,0,1,0,0,3.823A2.7,2.7,0,0,0,494.915,99.7Z" transform="translate(-11549.293 -12989.371)" fill="#2e3e91"/>
    <path id="Caminho_3449" data-name="Caminho 3449" d="M539.808,145.986a1.732,1.732,0,1,0-.148,2.28A1.622,1.622,0,0,0,539.808,145.986Z" transform="translate(-11550.106 -12990.186)" fill="#2e3e91"/>
    <path id="Caminho_3450" data-name="Caminho 3450" d="M489.45,98.057a4.968,4.968,0,1,1,0,7.025A4.972,4.972,0,0,1,489.45,98.057Zm6.367,6.367a4.036,4.036,0,1,0-5.709,0A4.041,4.041,0,0,0,495.817,104.424Z" transform="translate(-11549.253 -12989.331)" fill="#2e3e91"/>
    <path id="Caminho_3451" data-name="Caminho 3451" d="M528.24,149.084c.205-.172-.481-.515-.412-1.269s1.125-1,2.233-.3c1.235.784,2.459,1.778,4.34.687a3.5,3.5,0,0,0,1.5-3.788,3.5,3.5,0,0,0,3.789-1.5c1.091-1.881.1-3.1-.688-4.34-.7-1.108-.456-2.166.3-2.233s1.1.617,1.269.412a2.706,2.706,0,0,0-1.783-3.226,2.917,2.917,0,0,0-3.945,1.647c-.48,1.03-.5,3.1.171,3.774.53.529-.994.651-1.1.377a7.563,7.563,0,0,0-1.458-2.864c-.841-.738-4.562-.549-5.017-.506-.043.454-.232,4.176.506,5.017a7.568,7.568,0,0,0,2.864,1.458c.275.1.152,1.627-.377,1.1-.672-.673-2.744-.651-3.773-.172a2.916,2.916,0,0,0-1.647,3.946A2.7,2.7,0,0,0,528.24,149.084Z" transform="translate(-11549.894 -12989.97)" fill="#2e3e91"/>
    <path id="Caminho_3452" data-name="Caminho 3452" d="M532.237,122.584c.183-.043.62-.13.517-.026-.735.735-.959,4.088,1.228,5.038,4.7,2.04,5.134-3.419,5.134-3.419s2.863,3.441,5.486.809c2.581-2.591,1.257-4.358.353-5.155a.216.216,0,0,1,.136-.377c1-.051,2.976-.935,2.312-3.91-1.013-4.536-4.388-3.176-4.388-3.176a3.587,3.587,0,0,0-2.686-4.422c-2.854-.783-4.112,1.575-4.5,2.564a.287.287,0,0,1-.456.113c-.763-.659-2.481-2.89-4.942-.449-2.142,2.123-.656,4.244.111,5.082a.279.279,0,0,1-.139.46,3.334,3.334,0,0,0-2.859,3.524C527.741,123.109,530.869,122.9,532.237,122.584Zm3.342-6.472a2.575,2.575,0,1,1,0,3.641A2.574,2.574,0,0,1,535.578,116.112Z" transform="translate(-11549.942 -12989.526)" fill="#4192d0"/>
    <path id="Caminho_3453" data-name="Caminho 3453" d="M531.977,119.78a6.984,6.984,0,0,0,2.013-.4,3.554,3.554,0,0,0,1.762,1.936,7.9,7.9,0,0,1-.317,1.6.582.582,0,0,0,1.095.4,8.514,8.514,0,0,0,.348-1.621,3.722,3.722,0,0,0,3.033-.873c.742.761,1.131,1.26,1.135,1.265a.582.582,0,0,0,.923-.71,17.725,17.725,0,0,0-1.276-1.423c-.009-.009-.021-.012-.03-.02a3.735,3.735,0,0,0,.489-2.482,6.8,6.8,0,0,1,2.264-.705.582.582,0,0,0-.066-1.162,7.742,7.742,0,0,0-2.559.754,3.533,3.533,0,0,0-1.82-1.738c.05-.289.136-.846.205-1.663a.582.582,0,0,0-1.159-.1c-.06.7-.132,1.189-.179,1.474a3.724,3.724,0,0,0-2.3.509,6.587,6.587,0,0,1-1.386-1.517.583.583,0,0,0-1.014.574,7.356,7.356,0,0,0,1.5,1.712,3.709,3.709,0,0,0-.893,2.647,6.014,6.014,0,0,1-1.746.382.582.582,0,1,0-.028,1.164Zm3.669-3.589a2.575,2.575,0,1,1,1.037,4.26.575.575,0,0,0-.268-.1,2.532,2.532,0,0,1-.768-.521A2.579,2.579,0,0,1,535.646,116.191Z" transform="translate(-11550.01 -12989.604)" fill="#2e3e91"/>
    <path id="Caminho_3454" data-name="Caminho 3454" d="M469.776,106.237c1.917.869,2.778,1.105,2.241,1.373-1.169.582-3.732,2.162-3.732,2.162v16.54a72.6,72.6,0,0,0,1.592,16.431c1.994,9.533,8.508,19.167,8.551,19.811s-1.117-1.032-2.965-1.591-3.867.516-3.652.9,1.093.108,1.543,2.316c.409,2.006,1.031,4.7,5.247,4.989,3.183.218,4.255,1.5,4.577,2.429s1.1,1.353-3.947.349-7.635.961-8.408,1.649-3.137,6.058-2.444,7.784,4.119,2.057,6,1.616a18.409,18.409,0,0,0,6.318-3.48c.85-.955,4.737-1.881,4.393-1.537s-5.243,2.492-4.942,4.941,3.653,1.935,3.825,1.591.516-3.352,6.532-3.266,11.3,2.191,22.97,3.289,19.616-2.215,26.577-9.176,5.243-16.846,1.9-21.048a10.354,10.354,0,0,0-1.446-1.487c.512-.593,1.042-1.178,1.6-1.746l.445-.444q.821-.8,1.68-1.539a10.249,10.249,0,0,0,1.486,1.446c4.2,3.344,14.087,5.063,21.049-1.9s10.273-14.909,9.176-26.577-3.2-16.955-3.29-22.971,2.922-6.36,3.266-6.532.86-3.523-1.59-3.824-4.6,4.6-4.941,4.942.582-3.543,1.537-4.393a18.405,18.405,0,0,0,3.48-6.319c.44-1.88.109-5.3-1.616-6s-7.1,1.669-7.785,2.443-2.651,3.365-1.648,8.408.575,4.271-.35,3.948-2.21-1.394-2.428-4.577c-.289-4.216-2.984-4.838-4.989-5.247-2.208-.45-1.93-1.328-2.316-1.544s-1.461,1.8-.9,3.653,2.234,3.008,1.59,2.965-10.279-6.558-19.81-8.552a72.594,72.594,0,0,0-16.431-1.591h-16.54s-1.58,2.563-2.162,3.732c-.267.536-.505-.324-1.373-2.241-.624-1.38-3.185-1.78-3.637-1.68.55.065,3.078,4.2,2.083,6.528-.206.48.8,5.283.8,5.283s1.944,2.674,3.769.057c1.23-1.763-.913-3.084-.913-3.084s1.588-1.7,10.825-4.773c7.373-2.453,13.659-.935,16.5-.473s2.966.868,2.987.967a48.3,48.3,0,0,0-6.964.29c-3.259.483-5.159,1.2-7.369,1.064a9.134,9.134,0,0,1-3.541-.688,2.151,2.151,0,0,0-.935,2.528c.477,1.434,2.369,3.6,3.5,3.664s-1.792.159-2.768.218a18,18,0,0,0-6.53,3.385c-1.652,1.533-3.3,3.743-4.4,4.121s2.23,3.106,4.1,3.106.378.193-.331.469-2.344,2.187-3.526,3.132-1.911.927-2.385.493-1.084.532-1.162,1.241a2.332,2.332,0,0,0,3.114,2.246,8.949,8.949,0,0,0,3.059-1.4c.267-.143-.945,1.151-.729,2.906a21.612,21.612,0,0,0,1.261,5.132,20.425,20.425,0,0,0-5.071-1.317c-1.756-.216-3.05,1-2.906.729a8.95,8.95,0,0,0,1.4-3.059,2.332,2.332,0,0,0-2.246-3.114c-.709.08-1.674.69-1.241,1.163s.453,1.2-.493,2.384-2.856,2.818-3.132,3.527-.468,2.2-.468.331-2.728-5.2-3.106-4.1-2.588,2.747-4.122,4.4a17.978,17.978,0,0,0-3.384,6.53c-.06.976-.159,3.9-.219,2.767s-2.23-3.026-3.663-3.5a2.155,2.155,0,0,0-2.529.935,9.135,9.135,0,0,1,.688,3.542c.14,2.21-.58,4.109-1.064,7.368a48.311,48.311,0,0,0-.29,6.963c-.1-.02-.5-.143-.967-2.987s-1.981-9.129.473-16.5c3.073-9.237,4.773-10.825,4.773-10.825s1.322,2.143,3.084.913c2.617-1.825-.057-3.769-.057-3.769s-4.8-1.006-5.283-.8c-2.324,1-6.463-1.533-6.528-2.083C468,103.052,468.4,105.613,469.776,106.237Zm59.493,65.935c-.231.067-.467.128-.706.185a38.8,38.8,0,0,1,2.142-9.84,3.764,3.764,0,0,0,2.419.489,36.651,36.651,0,0,0-2.07,8.51A14.65,14.65,0,0,1,529.269,172.172Zm9.024-8.239c-.711,2.782-3.035,5.347-5.99,6.975a35.419,35.419,0,0,1,2.207-8.243,4.057,4.057,0,0,0,2.619-5.207c.034-.057.074-.112.109-.168A10.17,10.17,0,0,1,538.293,163.933Zm3.438-14.125-.007-.008-.172.172-.032.03h0l-.25.25.007.008q-.9.915-1.724,1.876a7.493,7.493,0,0,0-2.4-1q1.173-1.431,2.5-2.773h0l.208-.208q1.293-1.278,2.674-2.409a7.5,7.5,0,0,0,1,2.4C542.922,148.675,542.32,149.232,541.731,149.808Zm13.6-2.922a10.178,10.178,0,0,1-6.643-1.055c.057-.035.112-.075.168-.109a4.057,4.057,0,0,0,5.207-2.619,35.444,35.444,0,0,1,8.243-2.207C560.682,143.85,558.116,146.173,555.335,146.886Zm8.239-9.025a14.59,14.59,0,0,1-.656,1.785,36.649,36.649,0,0,0-8.51,2.069,3.778,3.778,0,0,0-.489-2.419,38.835,38.835,0,0,1,9.84-2.141C563.7,137.4,563.641,137.631,563.574,137.861Zm-75.707.775c1.965-3.365,3.395-5.764,4.241-8.607s.231-7.11-.166-7.075c-2.027.175-3.666,1.871-3.679,1.377-.024-.888,1.79-2.958,1.827-4.88.007-.331,2.059-1.447,3.857-2.5,2.521-1.481,4.992-.5,6.915,1.05a4.078,4.078,0,0,1,1.233,3.908c-.259,1.74-2.06,3.164-3.205,2.872-1.064-.271-1.869-1.821-2.192-1.672a2.617,2.617,0,0,0-1.4,1.952c-.231,2.672,1.787,3.517,1.828,3.879.425,3.879,6.13,4.433,9.544,1.936,3.295-2.411,4.056-7.269,4.468-7.749s.583.515.892,1.441,2.2,4.391,4.464,4.464a4.531,4.531,0,0,0,3.173-.78l0,0a4.568,4.568,0,0,0,.77-3.161c-.074-2.269-3.538-4.155-4.465-4.465s-1.921-.479-1.44-.891,5.337-1.173,7.748-4.468c2.5-3.413,1.943-9.119-1.936-9.545-.362-.039-1.208-2.057-3.879-1.827a2.619,2.619,0,0,0-1.951,1.4c-.148.323,1.4,1.129,1.672,2.192.291,1.145-1.133,2.947-2.873,3.205a4.08,4.08,0,0,1-3.908-1.232c-1.547-1.924-2.53-4.394-1.049-6.915,1.056-1.8,2.171-3.851,2.5-3.857,1.922-.037,3.992-1.85,4.88-1.827.494.013-1.2,1.652-1.377,3.679-.034.4,4.231,1.01,7.074.165s5.243-2.275,8.608-4.24c3.473-2.027,9.572-2.762,14.925-1.52a35.739,35.739,0,0,1,10.86,4.972.849.849,0,0,1,.464,1,9.376,9.376,0,0,0-.155,1.132c-1.057-.942-4.327-3.3-10.976-3.808a12.383,12.383,0,0,0-10.043,3.488,12.108,12.108,0,0,0-3.24,5.761,4,4,0,0,0-3.223,1.4,4.242,4.242,0,0,0-.618,5.629,4.691,4.691,0,0,0-1.4.95,4.191,4.191,0,0,0-1.175,3.287,4.628,4.628,0,0,0,1.679,3.66,4.682,4.682,0,0,0,3.059.821,5.94,5.94,0,0,0,.061,1.724,3.977,3.977,0,0,0,2.276,3.056c2.568,1.114,4.14.316,5.005-.55a5.245,5.245,0,0,0,1.164-1.893,4.978,4.978,0,0,0,2.524.908,4.039,4.039,0,0,0,3.076-1.288h0l0,0a5.2,5.2,0,0,0,1.815-3.761,3.685,3.685,0,0,0-.585-1.854,3.677,3.677,0,0,0,.946-.679,4.175,4.175,0,0,0,.908-4.118,5.219,5.219,0,0,0-2.456-3.746,3.909,3.909,0,0,0-1.823-.443,4.467,4.467,0,0,0-3.541-4.191,4.3,4.3,0,0,0-4.412,1.09,5.718,5.718,0,0,0-.87,1.134,5.231,5.231,0,0,0-1.5-.919,11.288,11.288,0,0,1,12.306-8.532,19.73,19.73,0,0,1,11.151,4.5,10.566,10.566,0,0,0,2.226,4.613c.512.656-2.734-2.559-5.157-4.083a12.832,12.832,0,0,0-7.547-1.99c-2.248.193-2.9.8-2.9.8s.691,3.874,2.939,5.866a23.2,23.2,0,0,0,8.908,4.437,14.331,14.331,0,0,1,4.015,1.513c1.037.74-1.925-.758-4.641-.527-1.557.132-3.174,1.835-3.422,3.883a5.177,5.177,0,0,0,1.81,4.278c.514.257.737-1.381,3.208-1.371,1.824.008,4.214,1.357,6.434,4.332,2.035,2.728,2.481,6.951,1.89,10.549a39.952,39.952,0,0,0-10.823,2.362,5.842,5.842,0,0,0-8.219.111,8.365,8.365,0,0,0-2.573,5.941,40.274,40.274,0,0,0-3.242,2.853l0,0-.073.073c-.041.04-.084.077-.126.117l0,0-.112.112h0c-.014.013-.026.028-.038.04l-.107.107,0,0a40.1,40.1,0,0,0-2.9,3.291,8.366,8.366,0,0,0-5.941,2.574,5.842,5.842,0,0,0-.111,8.218,40.024,40.024,0,0,0-2.362,10.823c-3.6.591-7.821.144-10.548-1.889-2.976-2.221-4.324-4.611-4.333-6.434-.01-2.471,1.628-2.7,1.371-3.209a5.177,5.177,0,0,0-4.278-1.81c-2.048.25-3.75,1.865-3.883,3.422-.231,2.716,1.267,5.677.527,4.641a14.353,14.353,0,0,1-1.513-4.014,23.176,23.176,0,0,0-4.437-8.908c-1.991-2.248-5.866-2.939-5.866-2.939s-.608.655-.8,2.9a12.839,12.839,0,0,0,1.99,7.547c1.524,2.423,4.739,5.668,4.083,5.156a10.568,10.568,0,0,0-4.612-2.225,19.729,19.729,0,0,1-4.5-11.151,11.289,11.289,0,0,1,8.533-12.306,5.194,5.194,0,0,0,.918,1.5,5.712,5.712,0,0,0-1.133.871,4.3,4.3,0,0,0-1.091,4.412,4.467,4.467,0,0,0,4.191,3.541,3.918,3.918,0,0,0,.443,1.823,5.224,5.224,0,0,0,3.746,2.457,4.178,4.178,0,0,0,4.118-.908,3.684,3.684,0,0,0,.679-.947,3.687,3.687,0,0,0,1.854.585,5.2,5.2,0,0,0,3.761-1.814l0,0h0a4.042,4.042,0,0,0,1.289-3.076,4.982,4.982,0,0,0-.909-2.524,5.257,5.257,0,0,0,1.894-1.164c.866-.866,1.663-2.437.55-5.005a3.979,3.979,0,0,0-3.056-2.275,5.912,5.912,0,0,0-1.725-.062,4.674,4.674,0,0,0-.821-3.058,4.623,4.623,0,0,0-3.66-1.679,4.185,4.185,0,0,0-3.286,1.174,4.7,4.7,0,0,0-.951,1.4,4.243,4.243,0,0,0-5.629.618,4,4,0,0,0-1.4,3.223,12.113,12.113,0,0,0-5.762,3.241,12.383,12.383,0,0,0-3.488,10.042c.505,6.649,2.867,9.92,3.808,10.976a9.318,9.318,0,0,0-1.131.155.85.85,0,0,1-1-.463,35.76,35.76,0,0,1-4.972-10.861C485.1,148.208,485.84,142.11,487.867,138.636ZM546.365,115a3.2,3.2,0,0,1-.626,3.149,2.673,2.673,0,0,1-1.686.761.217.217,0,0,0-.144.064.213.213,0,0,0,.009.313c.9.8,2.228,2.564-.353,5.155l-.006.006c-2.622,2.622-5.48-.815-5.48-.815a5.591,5.591,0,0,1-1.286,3.089c-.76.76-1.959,1.149-3.848.33-2.187-.949-1.963-4.3-1.228-5.038.1-.1-.334-.018-.517.026-1.368.317-4.5.525-4.7-3.344a3.119,3.119,0,0,1,.87-2.491,4.182,4.182,0,0,1,1.989-1.034.278.278,0,0,0,.133-.073.281.281,0,0,0,.008-.387c-.765-.836-2.245-2.948-.128-5.066l.017-.016c2.461-2.441,4.179-.21,4.942.449a.287.287,0,0,0,.391-.014.281.281,0,0,0,.065-.1,5.28,5.28,0,0,1,1.11-1.744,3.274,3.274,0,0,1,3.394-.819,3.587,3.587,0,0,1,2.686,4.422S545.352,110.465,546.365,115Zm-32.941,25.313c.735-.735,4.089-.959,5.038,1.228.82,1.888.429,3.088-.33,3.848a5.578,5.578,0,0,1-3.088,1.286s3.436,2.858.815,5.48l-.007.006c-2.59,2.581-4.358,1.257-5.155.353a.216.216,0,0,0-.376.136,2.68,2.68,0,0,1-.761,1.686,3.205,3.205,0,0,1-3.149.627c-4.536-1.013-3.176-4.389-3.176-4.389a3.587,3.587,0,0,1-4.422-2.686,3.273,3.273,0,0,1,.82-3.394,5.269,5.269,0,0,1,1.744-1.11.272.272,0,0,0,.1-.065.285.285,0,0,0,.014-.391c-.659-.763-2.89-2.481-.449-4.942l.016-.016c2.118-2.118,4.23-.639,5.066.127a.281.281,0,0,0,.387-.008.275.275,0,0,0,.073-.132,4.178,4.178,0,0,1,1.035-1.99,3.115,3.115,0,0,1,2.49-.869c3.868.2,3.661,3.331,3.344,4.7C513.407,139.981,513.32,140.418,513.423,140.314Z" transform="translate(-11548.905 -12988.983)" fill="#2e3e91"/>
    <path id="Caminho_3455" data-name="Caminho 3455" d="M475.535,80.509a31.974,31.974,0,0,0,7.714,5.578c1.815.72-.027.146-.931.509a1.693,1.693,0,0,0-.906,1.992c.242.362.16-.054.716-.222s1.99,1.669,4.2,1.64c2.112-.028,5.265-1.776,5.059-1.29-.257.61-2.595,1.652-2.926,2.926s.378,4.011,2.737,3.421,2.029-1.817,1.911-1.911-1.463.307-1.758-.035-.4-1.156.613-1.887,3.009-2.017,3.256-3.327-.152-2.692-1.227-3.035c-.2-.064.87-1.967.72-3.583-.114-1.236-1.463-3.681-2.655-4.164s-17.988-.206-17.988-.206a2.819,2.819,0,0,0-2.32,2.681C471.936,80.137,474.124,79.062,475.535,80.509Zm.54-1.6a4.98,4.98,0,0,1,2.691.145c.686.274,1.258,1.212,1.418,1.28s.252-.572-.184-1.372-.846-.984,0-.915a3.559,3.559,0,0,1,2.219,1.578,24.613,24.613,0,0,0,1.9,3.27,5.276,5.276,0,0,0,4.689,1.578,2.617,2.617,0,0,0,2.172-3.087c-.257-1.446-1.1-1.879-2.1-1.771-1.143.124-1.12,1.153-1.143,1.633s.909.907,1.463.044c.319-.5.253-.935.658-.393a1.854,1.854,0,0,1-.928,2.486c-1.369.819-3.1-.518-3.537-2.056-.53-1.847,1.564-3.7,3-3.856a4.143,4.143,0,0,1,3.982,2.2c1.075,1.807.915,3.843-1.006,5.718s-5.123.915-6.77.091-5.716-4.9-7.524-5.878C476.273,79.171,475.748,79.149,476.076,78.912Z" transform="translate(-11548.969 -12988.986)" fill="#2e3e91"/>
    <path id="Caminho_3456" data-name="Caminho 3456" d="M556.782,87.638c-.387.626,6.778,6.172,9.3,9.969s5.846,9.273,6.283,10.114-2.761-6.579-3.329-7.758-2.79-7.366-2.015-11.7,4.02-8.21,4.363-8.874a2.136,2.136,0,0,0,.075-1.472,12.761,12.761,0,0,0-4.166,2.218c-1.479,1.479-2.184,4-1.8,7.075.373,2.96.785,3.953.715,5.151-.047.826-3.322-.366-3.557-1.206s-.975-4.8-1.613-5.913a5.529,5.529,0,0,0-3.662-2.452,4.066,4.066,0,0,1-2.284-.807c-.2-.2-.908,1.042-.1,2.52S557.04,87.223,556.782,87.638Z" transform="translate(-11550.414 -12989.005)" fill="#4192d0"/>
    <path id="Caminho_3457" data-name="Caminho 3457" d="M549.9,147.489c.548.349,4.4,3.04,8.854,1.72a19.056,19.056,0,0,0,10.505-7.19c2.779-3.705,5.641-12.061,4.776-19.1a46.03,46.03,0,0,0-17.59-30.866c-4.529-3.705-14.238-8.668-20.712-9.443A40.287,40.287,0,0,0,523,82.79c-2.831.463-7.564.654-7.564.654a6.774,6.774,0,0,1-2.395-.449c-.423-.224-.969,1.376-.11,2.434a4.728,4.728,0,0,0,3.776,1.781,1.983,1.983,0,0,1,2.095,1.2c.026.175-2.792.4-4.888.7s-5.038.848-6.907,2.669-4.265,4.065-4.29,4.389,1.86,1.909,4.29,2.045a12.6,12.6,0,0,0,6.138-.985c3.777-1.359,7.079-3.4,7.927-3.554s1.671-.026.4.648a13.46,13.46,0,0,0-4.264,3.416c-.823,1.271-1.573,2.3-1.41,2.448a13.587,13.587,0,0,0,5.479-.077,27.573,27.573,0,0,0,7.307-3.4c1.714-1.145,6.672-4.209,9.249-4.536,3.385-.429,8.8-.723,13.094,1.072a35.488,35.488,0,0,1,11.322,7.682A49.27,49.27,0,0,1,570.13,113.8c1.272,3.617,2.693,8.779,2.32,9.2s-2.145-6.683-3.343-9.028-4.182-7.139-7.1-9.26-4.389-2.712-4.429-2.36c-.177,1.561.081,2.747,2.284,6.5.588,1,.094.672-.223.543-.776-.315-4.012-3.153-5.522-4.139-1.374-.9-3.889-2.629-6.408-2.405s-3.217.524-3.392.8.913,3.947,4.022,5.876c3.133,1.944,4.97,1.968,7.057,2.729,2.752,1,4.618,1.863,5.017,3.011s.291,1.578-.184,1.254-2.643-1.547-3.916-1.422a4.057,4.057,0,0,0-3.392,1.746,4.621,4.621,0,0,0,.05,3.99c.349.5.349.349,1.247-.2s6.335-.145,8.938,3.825a14.987,14.987,0,0,1,1.757,13.553c-1.168,3.77-3.263,6.962-6.181,8.584s-4.863,1.97-6.734,1.3S549.355,147.139,549.9,147.489ZM542,88.051c-7.449-1.718-18.885.313-19.981.339s1.146-.87,1.146-.87c1.548-.239,13.078-2.888,20.851-.295a50.84,50.84,0,0,1,17.13,10.81c.954.922,1.221,1.452.031.4C557.56,95.232,549.45,89.769,542,88.051Zm25.08,52.889a16.762,16.762,0,0,0,2.053-17c-4.01-9.323-8.908-11.619-9.187-12.077,0,0-.07-.511.7-.278s7.088,5.306,9.8,12.274a17.631,17.631,0,0,1-1.2,15.457C567.7,141.715,566.615,141.405,567.08,140.941Z" transform="translate(-11549.51 -12989.08)" fill="#4192d0"/>
    <path id="Caminho_3458" data-name="Caminho 3458" d="M505.436,108.217a.225.225,0,0,0-.44.076,10.449,10.449,0,0,0,3.7,7.307c4.14,3.881,8.817,3.344,11.841.9,3.346-2.7,3.355-4.793,2.961-7.051-.26-1.492-1.771-2.4-1.929-2.225s.548,1.1.03,2.908-1.2.614-.808-.744c.266-.935-.224-3.264-1.907-3.913s-2.395-.131-2.621.1.938.291,1.455,1.714.128,2.784-1.775,4.688c-1.2,1.2-3.217,1.728-5.982.742A6.833,6.833,0,0,1,505.436,108.217Z" transform="translate(-11549.549 -12989.48)" fill="#4192d0"/>
    <path id="Caminho_3459" data-name="Caminho 3459" d="M503.762,151.619s-1.361,3.376,3.177,4.389c2.973.664,3.858-1.316,3.91-2.313a.216.216,0,0,1,.376-.136c.8.9,2.564,2.228,5.156-.353,2.632-2.622-.809-5.486-.809-5.486s5.459-.428,3.418-5.133c-.948-2.188-4.3-1.964-5.038-1.229-.1.1-.017-.333.026-.517.318-1.368.525-4.5-3.344-4.7A3.335,3.335,0,0,0,507.109,139a.278.278,0,0,1-.46.14c-.838-.767-2.959-2.252-5.082-.111-2.441,2.462-.209,4.179.449,4.942a.288.288,0,0,1-.112.457c-.988.392-3.347,1.649-2.564,4.5A3.587,3.587,0,0,0,503.762,151.619Zm3.616-7.563a2.756,2.756,0,1,1,0,3.9A2.757,2.757,0,0,1,507.378,144.056Z" transform="translate(-11549.447 -12990.021)" fill="#4192d0"/>
    <path id="Caminho_3460" data-name="Caminho 3460" d="M510.581,140.012a.582.582,0,0,0-.571.593,6.023,6.023,0,0,1-.383,1.751,3.717,3.717,0,0,0-2.646.893,7.273,7.273,0,0,0-1.713-1.5.582.582,0,0,0-.7.094.645.645,0,0,0-.1.126.584.584,0,0,0,.221.794,6.618,6.618,0,0,1,1.517,1.385,3.728,3.728,0,0,0-.51,2.3c-.285.046-.772.118-1.474.178a.582.582,0,1,0,.1,1.16c.817-.07,1.374-.156,1.663-.206a3.514,3.514,0,0,0,1.738,1.82,7.757,7.757,0,0,0-.755,2.56.583.583,0,0,0,1.163.066,6.749,6.749,0,0,1,.705-2.265,3.731,3.731,0,0,0,2.482-.489.3.3,0,0,0,.02.029,17.061,17.061,0,0,0,1.423,1.276.582.582,0,0,0,.709-.923s-.5-.393-1.264-1.135a3.72,3.72,0,0,0,.872-3.032,8.489,8.489,0,0,0,1.62-.348.582.582,0,0,0-.4-1.1,7.821,7.821,0,0,1-1.6.317,3.567,3.567,0,0,0-1.936-1.761,7.071,7.071,0,0,0,.4-2.014A.583.583,0,0,0,510.581,140.012Zm.646,4.241a2.557,2.557,0,0,1,.521.768.569.569,0,0,0,.1.268,2.554,2.554,0,1,1-.619-1.037Z" transform="translate(-11549.526 -12990.088)" fill="#2e3e91"/>
    <path id="Caminho_3461" data-name="Caminho 3461" d="M470.988,80.363a2.818,2.818,0,0,0-2.682,2.319s-.277,16.8.206,17.989,2.928,2.54,4.165,2.654c1.616.149,3.519-.921,3.583-.719.343,1.075,1.725,1.475,3.034,1.227s2.6-2.242,3.327-3.256,1.546-.909,1.887-.614-.059,1.64.035,1.758,1.322.449,1.912-1.911-2.148-3.067-3.421-2.736-2.317,2.668-2.926,2.925c-.487.206,1.262-2.947,1.29-5.059.029-2.213-1.808-3.646-1.64-4.2s.584-.475.221-.715a1.693,1.693,0,0,0-1.992.9c-.362.9.211,2.746-.509.931a31.991,31.991,0,0,0-5.577-7.713C470.455,82.73,471.531,80.543,470.988,80.363ZM471,85.68c.982,1.81,5.054,5.878,5.878,7.524s1.784,4.849-.091,6.77-3.911,2.081-5.718,1.006a4.142,4.142,0,0,1-2.2-3.981c.16-1.44,2.009-3.534,3.857-3,1.539.44,2.876,2.169,2.056,3.536a1.854,1.854,0,0,1-2.486.929c-.543-.406-.1-.338.392-.657.864-.555.437-1.487-.043-1.464s-1.509,0-1.633,1.143c-.109,1,.323,1.848,1.771,2.1a2.617,2.617,0,0,0,3.087-2.172,5.276,5.276,0,0,0-1.578-4.688,24.437,24.437,0,0,0-3.271-1.9,3.569,3.569,0,0,1-1.578-2.219c-.069-.846.115-.434.915,0s1.441.343,1.373.183-1.006-.732-1.281-1.418a4.979,4.979,0,0,1-.144-2.691C470.543,84.355,470.565,84.88,471,85.68Z" transform="translate(-11548.908 -12989.047)" fill="#2e3e91"/>
    <path id="Caminho_3462" data-name="Caminho 3462" d="M479.032,165.39c.626-.387,6.173,6.777,9.97,9.3s9.273,5.846,10.113,6.283-6.579-2.762-7.758-3.33-7.366-2.79-11.7-2.015-8.21,4.02-8.875,4.364a2.13,2.13,0,0,1-1.471.074,12.75,12.75,0,0,1,2.218-4.166c1.478-1.479,4-2.184,7.075-1.8,2.96.374,3.953.785,5.151.716.825-.048-.365-3.323-1.206-3.558s-4.8-.975-5.913-1.612a5.527,5.527,0,0,1-2.453-3.663,4.072,4.072,0,0,0-.806-2.284c-.2-.2,1.042-.907,2.519-.1S478.617,165.646,479.032,165.39Z" transform="translate(-11548.927 -12990.493)" fill="#4192d0"/>
    <path id="Caminho_3463" data-name="Caminho 3463" d="M539.281,160.605c.674,1.87.324,3.815-1.3,6.733s-4.813,5.013-8.583,6.181a14.991,14.991,0,0,1-13.553-1.758c-3.972-2.6-4.374-8.04-3.826-8.937s.7-.9.2-1.247a4.616,4.616,0,0,0-3.991-.05,4.054,4.054,0,0,0-1.745,3.392c-.125,1.271,1.1,3.441,1.421,3.915s-.106.582-1.254.183-2.006-2.264-3.01-5.017c-.76-2.087-.785-3.922-2.73-7.057-1.928-3.108-5.6-4.2-5.876-4.021s-.574.873-.8,3.392,1.509,5.035,2.405,6.407c.985,1.511,3.823,4.746,4.138,5.523.129.316.457.81-.543.222-3.748-2.2-4.934-2.46-6.5-2.283-.352.039.241,1.511,2.36,4.429s6.914,5.9,9.259,7.1,9.452,2.967,9.029,3.342-5.587-1.047-9.2-2.32a49.276,49.276,0,0,1-12.869-7.88,35.476,35.476,0,0,1-7.682-11.323c-1.8-4.29-1.5-9.709-1.073-13.093.327-2.578,3.392-7.535,4.536-9.249a27.6,27.6,0,0,0,3.4-7.307,13.61,13.61,0,0,0,.077-5.48c-.146-.162-1.176.588-2.448,1.41a13.456,13.456,0,0,0-3.417,4.265c-.673,1.271-.8.449-.648-.4s2.2-4.15,3.555-7.927a12.61,12.61,0,0,0,.985-6.139c-.136-2.429-1.721-4.314-2.046-4.29s-2.568,2.419-4.389,4.29-2.369,4.814-2.669,6.908-.524,4.913-.7,4.888a1.986,1.986,0,0,1-1.2-2.095,4.728,4.728,0,0,0-1.78-3.777c-1.058-.858-2.659-.313-2.434.111a6.806,6.806,0,0,1,.449,2.394s-.192,4.734-.655,7.564a40.333,40.333,0,0,0-.18,12.737c.774,6.473,5.738,16.184,9.442,20.712a46.041,46.041,0,0,0,30.866,17.589c7.04.866,15.4-2,19.1-4.776a19.058,19.058,0,0,0,7.191-10.506c1.32-4.453-1.372-8.3-1.721-8.854S538.608,158.735,539.281,160.605Zm-49.453,9.177c1.054,1.19.523.923-.4-.03a50.833,50.833,0,0,1-10.809-17.13c-2.594-7.774.056-19.3.294-20.851,0,0,.9-2.244.871-1.147s-2.058,12.534-.34,19.982S486.626,166.166,489.828,169.782Zm40.879,8.073a17.636,17.636,0,0,1-15.457,1.2c-6.968-2.708-12.042-9.021-12.275-9.8s.279-.7.279-.7c.457.278,2.753,5.177,12.077,9.186a16.76,16.76,0,0,0,17-2.053C532.8,175.221,533.109,176.306,530.707,177.855Z" transform="translate(-11549.002 -12989.588)" fill="#4192d0"/>
    <path id="Caminho_3464" data-name="Caminho 3464" d="M499.61,114.042a.225.225,0,0,1,.077-.44,10.452,10.452,0,0,1,7.306,3.7c3.881,4.14,3.344,8.818.9,11.842-2.7,3.345-4.793,3.354-7.051,2.96-1.492-.26-2.4-1.771-2.225-1.928s1.1.548,2.908.03.614-1.2-.745-.809c-.934.267-3.263-.224-3.912-1.907s-.131-2.395.1-2.62.292.937,1.715,1.455,2.784.127,4.687-1.776c1.2-1.2,1.729-3.216.742-5.982A6.835,6.835,0,0,0,499.61,114.042Z" transform="translate(-11549.402 -12989.628)" fill="#4192d0"/>
  </g>
</svg>
