<svg xmlns="http://www.w3.org/2000/svg" width="111.409" height="111.409" viewBox="0 0 111.409 111.409">
  <g id="Grupo_4328" data-name="Grupo 4328" transform="translate(10569.792 12914)">
    <rect id="Retângulo_835" data-name="Retângulo 835" width="111.408" height="111.408" transform="translate(-10458.384 -12914) rotate(90)" fill="none"/>
    <g id="Grupo_4315" data-name="Grupo 4315" transform="translate(-10567.671 -12911.879)">
      <path id="Caminho_3564" data-name="Caminho 3564" d="M1058.786,85.72c-.46,1.25.167,36.959-.081,37.616a1.389,1.389,0,0,0,2.125,1.381c1.421-.766,2.393-.529,2.131-2.9-.208-1.873-.3-15.351-.3-24.531,0-.462,3.6-1.412,4.152-4.421.161-.89,2.584-.9,4.236-2.554,2.5-2.5,3.285-5.129,3.494-5.129,6.7,0,15.14.368,15.188.766.134,1.095,0,15.02,0,17.257s-.329,8.92-.329,9.117-1.249.263-1.578.591-.461,2.763-.461,3.026,10.892.657,11.221.591.328.855-.4,1.118-.8,4.421,2.575,4.161c.017,0,.028-.01.045-.011V78.7h-7.856c-1.052,0-33.277-1.119-34.659-.592S1059.247,84.471,1058.786,85.72Z" transform="translate(-991.52 -77.128)" fill="#2e3e91"/>
      <path id="Caminho_3565" data-name="Caminho 3565" d="M991.932,187.582h43.1c-.26-2.838-3.888-3.019-4.149-2.3s-1.184.723-1.118.394-.329-11.22-.592-11.22-2.7.132-3.025.46-.395,1.579-.592,1.579-6.881.328-9.117.328-16.162.134-17.257,0c-.4-.048-.766-8.491-.766-15.188,0-.209,2.63-1,5.129-3.493,1.652-1.653,1.662-4.075,2.553-4.237,3.009-.547,3.96-4.152,4.422-4.152,9.179,0,22.658.1,24.531.3,2.368.262,2.13-.71,2.9-2.131a1.388,1.388,0,0,0-1.38-2.125c-.658.248-36.368-.379-37.617.082s-7.084-1.876-7.611-.494.593,33.607.593,34.659Z" transform="translate(-990.358 -78.296)" fill="#2e3e91"/>
      <path id="Caminho_3566" data-name="Caminho 3566" d="M1068.8,169.179c.054-.9.989-.705,1.768-.444s1.738,1,2.806,3.618,4.707,5.592,6.242,5.946a8.4,8.4,0,0,0,5.1-.654,28.288,28.288,0,0,1-2.421-4.854,10.1,10.1,0,0,1-.3-4.25l.067-.067a10.094,10.094,0,0,1,4.249.3,28.3,28.3,0,0,1,4.855,2.421,8.4,8.4,0,0,0,.654-5.1c-.355-1.535-3.33-5.173-5.946-6.241s-3.356-2.03-3.618-2.807-.461-1.714.444-1.768-.44-.882-1.444-.634-1.723,2.479-1.568,3.741.156,1.262-2.179-1.884-15.915-9.785-17.407-9.994c0,0,0,0-.007,0-.02,0-.025.013-.033.022s-.024.014-.023.033c0,0,0,0,0,.007.208,1.493,6.847,15.073,9.993,17.408s3.146,2.335,1.885,2.178-3.492.563-3.741,1.568S1068.748,170.084,1068.8,169.179Z" transform="translate(-991.558 -78.323)" fill="#2e3e91"/>
      <path id="Caminho_3567" data-name="Caminho 3567" d="M1073.675,169.937c.935,1.039,1.585,2.416,2.443,3.377a3.729,3.729,0,0,0,3.558.961s-.441-3.559-.571-4.78,2.1-1.511,2.1-1.511l.3-.3s.291-2.232,1.511-2.1,4.78.572,4.78.572a3.733,3.733,0,0,0-.961-3.559c-.962-.858-2.339-1.507-3.377-2.442s-1.247-1.4-1.195-1.559a.964.964,0,0,0-.131,1.065,24.683,24.683,0,0,0,2.1,3.5c.681.63,1.522,1.5,1.5,1.728s-2.161-.2-2.8-.429-3.293-.851-3.969-1.527a61.915,61.915,0,0,0-4.286-4.6,92.01,92.01,0,0,0-7.889-5.516,5.281,5.281,0,0,1-.741-.339l-.045.044a5.139,5.139,0,0,1,.34.741,91.987,91.987,0,0,0,5.516,7.889,61.923,61.923,0,0,0,4.6,4.286c.676.675,1.3,3.325,1.527,3.969s.655,2.786.429,2.8-1.1-.823-1.728-1.5a24.565,24.565,0,0,0-3.5-2.1.963.963,0,0,0-1.065.13C1072.273,168.69,1072.74,168.9,1073.675,169.937Z" transform="translate(-991.662 -78.427)" fill="#4192d0"/>
      <path id="Caminho_3568" data-name="Caminho 3568" d="M1089.907,154.561c1.637-.276,3.859-1.265,3.317-1.827s-4.316-4.129-5.143-4.142-5.779-.134-6.487.578C1080.581,150.188,1088.9,154.731,1089.907,154.561Z" transform="translate(-991.933 -78.359)" fill="#2e3e91"/>
      <path id="Caminho_3569" data-name="Caminho 3569" d="M1081.513,147.8c-1.668.11-6.237-2.894-6.793-3.388s-2.433-1.455-1.175-1.959a24.13,24.13,0,0,1,5.825-1.262c1.454.388,6.249,4.889,6.4,5.215S1081.958,147.774,1081.513,147.8Z" transform="translate(-991.787 -78.23)" fill="#2e3e91"/>
      <path id="Caminho_3570" data-name="Caminho 3570" d="M1061.959,134.186c-1.4-.3-6.962-3.744-7.631-4.338s-2.932-1.75-1.416-2.355a20.532,20.532,0,0,1,6.125-1.085c1.752.468,7.928,5.427,8.115,5.819S1062.485,134.3,1061.959,134.186Z" transform="translate(-991.425 -77.972)" fill="#2e3e91"/>
      <path id="Caminho_3571" data-name="Caminho 3571" d="M1058.12,188.2c.1-5.545-4.621-7.481-7.759-7.939-3.214-.47-7.347,1.525-7.732,7.7-.006.088.011.154.007.241Z" transform="translate(-991.255 -78.91)" fill="#2e3e91"/>
      <path id="Caminho_3572" data-name="Caminho 3572" d="M1101.04,144.888c.14.008.265,0,.4,0V129.4c-5.953-.251-7.432,3.845-7.316,7.9C1094.241,141.419,1096.824,144.642,1101.04,144.888Z" transform="translate(-992.153 -78.024)" fill="#2e3e91"/>
      <path id="Caminho_3573" data-name="Caminho 3573" d="M1071.223,140.948c-1.457-.256-7.161-4.34-7.37-4.626-.652-.889,5.351-1.932,6.27-1.957s6.586,4.5,6.745,4.916S1072.014,141.087,1071.223,140.948Z" transform="translate(-991.624 -78.111)" fill="#2e3e91"/>
      <path id="Caminho_3574" data-name="Caminho 3574" d="M1101.342,136.219c-.629.374-4.584.105-4.788,0s.307-2.452,1.431-3.371,3.015-1.178,3.4-.885C1101.624,132.146,1101.342,136.219,1101.342,136.219Z" transform="translate(-992.195 -78.067)" fill="#4192d0"/>
      <path id="Caminho_3575" data-name="Caminho 3575" d="M1101.088,137.745c.374.629.1,4.584,0,4.788s-2.451-.307-3.371-1.431-1.178-3.015-.884-3.4C1097.014,137.463,1101.088,137.745,1101.088,137.745Z" transform="translate(-992.198 -78.168)" fill="#4192d0"/>
      <g id="Grupo_4313" data-name="Grupo 4313" transform="translate(28.538 7.259)">
        <path id="Caminho_3576" data-name="Caminho 3576" d="M1019.855,84.568c-.712,3.712-2.288,21.244,10.513,33.092,4.293,3.973,10.017,5.466,13.82,4.453,3.609-.962,7.164-3.614,8.58-6.082,2.19-3.815-.224-9.088-4.765-9.4-4.434-.3-5.272,3-8.19,3.623-3.206.68-4.621.737-7.3-.648-4.862-2.511-11.23-10.924-11.424-21.133C1021.048,86.44,1019.95,84.071,1019.855,84.568Z" transform="translate(-1019.388 -84.501)" fill="#2e3e91"/>
        <path id="Caminho_3577" data-name="Caminho 3577" d="M1030.069,112.53a13.307,13.307,0,0,0,10.269,6.945c3.646.333,7.3-.686,9.405-3.144s.9-6.8-3.659-6c-3.437.6-3.714,3.578-8.914,3.733C1034.51,114.144,1029.336,111.092,1030.069,112.53Z" transform="translate(-1019.573 -84.95)" fill="#d59d65"/>
        <path id="Caminho_3578" data-name="Caminho 3578" d="M1036.258,115.732c-.292.513.06,1.142.509,1.05s.738-.52.505-.832S1036.408,115.466,1036.258,115.732Z" transform="translate(-1019.68 -85.043)" fill="#fff"/>
        <path id="Caminho_3579" data-name="Caminho 3579" d="M1040.13,116.181a.894.894,0,0,0,.932,1.252c.823-.157,1.122-.776.9-1.279A1.063,1.063,0,0,0,1040.13,116.181Z" transform="translate(-1019.748 -85.044)" fill="#fff"/>
        <path id="Caminho_3580" data-name="Caminho 3580" d="M1045.151,113.178a1.736,1.736,0,0,0,.192,2.87,1.667,1.667,0,0,0,2.216-.4,1.632,1.632,0,0,0,.027-2.338A2,2,0,0,0,1045.151,113.178Z" transform="translate(-1019.825 -84.995)" fill="#fff"/>
      </g>
      <path id="Caminho_3581" data-name="Caminho 3581" d="M1066.149,117.129c-.94-.153-.544-2.908-.408-2.989s1.005-.294.979-.4.028-13.8,0-14.039a.942.942,0,0,1,.571-.934c.434-.107,15.98-.213,16.225-.134s-.136,15.16,0,15.347,1.168.213,1.195.294-.162,2.188-.19,2.562S1066.312,117.156,1066.149,117.129Z" transform="translate(-991.654 -77.487)" fill="#2e3e91"/>
      <path id="Caminho_3582" data-name="Caminho 3582" d="M1074.4,114.207a24.47,24.47,0,0,0,0-5.417c-.239-.8-4.721-.37-5.641-.211-.469.081-.339,5.16.065,5.565C1069.395,114.711,1074.245,114.367,1074.4,114.207Z" transform="translate(-991.706 -77.657)" fill="#4192d0"/>
      <path id="Caminho_3583" data-name="Caminho 3583" d="M1081.869,114.045a22.992,22.992,0,0,0,0-5.1c-.225-.75-4.444-.348-5.309-.2-.441.076-.32,4.858.061,5.238C1077.155,114.518,1081.718,114.2,1081.869,114.045Z" transform="translate(-991.842 -77.66)" fill="#4192d0"/>
      <path id="Caminho_3584" data-name="Caminho 3584" d="M1074.579,106.561a24.472,24.472,0,0,0,0-5.418c-.24-.8-4.722-.369-5.641-.211-.469.081-.34,5.16.065,5.565C1069.57,107.064,1074.418,106.72,1074.579,106.561Z" transform="translate(-991.709 -77.523)" fill="#4192d0"/>
      <path id="Caminho_3585" data-name="Caminho 3585" d="M1081.882,100.848a24.472,24.472,0,0,0-5.418,0c-.8.239-.37,4.721-.211,5.64.081.47,5.161.34,5.565-.065C1082.385,105.857,1082.041,101.008,1081.882,100.848Z" transform="translate(-991.837 -77.524)" fill="#4192d0"/>
      <path id="Caminho_3586" data-name="Caminho 3586" d="M1054.422,86.245c-.165-1.9-.755-7.82-1.69-8.083s-8.391-.194-11.52-.194h-15.172c-1.64,0-2.691,3.284-2.954,4.145s.04,4.8,1.4,4.8.6-1.708,1.572-2.5,11.214-1.978,12.4-1.97-1.793,2.236-2.319,3.549-3.854,7.592,1.005,11.742,8.928,3.235,12.6.688C1053.051,95.879,1054.98,92.659,1054.422,86.245Z" transform="translate(-990.913 -77.127)" fill="#2e3e91"/>
      <path id="Caminho_3587" data-name="Caminho 3587" d="M1044.968,89.908a2.807,2.807,0,0,0-2.118-1.059c-1.109-.03-2.855.674-2.98,2.294a4.16,4.16,0,0,0,3.117,4.609c2.661.711,6.488-2.09,7.255-5.515a7.843,7.843,0,0,0-1.644-6.658c-1.793-1.818-5.971-1.736-7.867-1.323-1.333.291-2.062.2-2.425.612-.263.3-2.719,4.622-1.939,3.2,1.437-2.613,7.495-3.107,9.4-2.142,1.368.693,3.168,2.235,3.161,4.43a5.738,5.738,0,0,1-1.787,4.365,7.238,7.238,0,0,1-3.061,1.429,1.43,1.43,0,0,1-1.232-.807c-.042-.125,1.528-.094,1.736-.31A2.549,2.549,0,0,0,1044.968,89.908Z" transform="translate(-991.143 -77.198)" fill="#4192d0"/>
      <path id="Caminho_3588" data-name="Caminho 3588" d="M1065.09,80.534c-.754.025,1.384,1.774,2.4,2.4s2.236.847,2.963,2.04c.746,1.225.721,1.6.721,1.6a2.714,2.714,0,0,0,.274-2.5,10.531,10.531,0,0,0-1.068-1.652,10.229,10.229,0,0,0,2.6.607c.972-.048,3.23-1.578,3.545-1.894s-2.817.292-4.25.073S1065.843,80.51,1065.09,80.534Z" transform="translate(-991.644 -77.172)" fill="#fff"/>
      <path id="Caminho_3589" data-name="Caminho 3589" d="M1062.923,83.636a14.379,14.379,0,0,1,2.768,3.74c.655,1.53,1.49,2.123,1.88,2.171s-.872.812-2.134-.12c-.385-.285-.78-1.2-.9-.691a27.349,27.349,0,0,1-.472,3.471,7.034,7.034,0,0,1-1.432,2.113l.025-10.709Z" transform="translate(-991.604 -77.226)" fill="#fff"/>
      <path id="Caminho_3590" data-name="Caminho 3590" d="M1064.522,83.145a38.405,38.405,0,0,0,2.444,4.386c.69.815,1.786,1.472,2.726.6s.2-2.489-.939-3.321c-.933-.681-2.712-1.51-3.7-2.193C1064.348,82.121,1064.24,82.612,1064.522,83.145Zm3.953,2.47a1.377,1.377,0,0,1,.955,1.379.983.983,0,0,1-1.644.584C1066.52,86.6,1067.6,85.311,1068.475,85.615Z" transform="translate(-991.634 -77.205)" fill="#d59d65"/>
      <path id="Caminho_3591" data-name="Caminho 3591" d="M1010.764,80.838c-1.207.6-4.085.419-7.614.233s-5.455-1.417-6.036-2.322-.036-.544-1.114-.836c-.74-.2-.626-.208-1.346.419s-.162,1.276.232,1.671,1.463,2.066,2.02,2.762a2.6,2.6,0,0,1,.45,1.36,2.586,2.586,0,0,1-1.36-.45c-.7-.557-2.368-1.625-2.763-2.019s-1.044-.952-1.671-.232-.618.606-.418,1.346c.292,1.077-.07.534.836,1.114s2.135,2.507,2.321,6.035.371,6.407-.232,7.615-2.832,2.646-3.366,3.737a4.052,4.052,0,0,0-.348,2.066,18.237,18.237,0,0,0,4.8-.487c1.787-.487,4.6-2.089,5.084-3.644a32.521,32.521,0,0,0,.789-3.947c.07-.255-.092-1.392.419.279s1.068,2.971,2.065,3.041,5.479.557,6.8.765a15.68,15.68,0,0,0,2.639.4l.017,0v-.007h.007l0-.016a15.651,15.651,0,0,0-.4-2.64c-.209-1.324-.7-5.8-.766-6.8s-1.369-1.555-3.041-2.066-.534-.348-.278-.418a32.713,32.713,0,0,0,3.946-.789c1.555-.487,3.157-3.3,3.644-5.084a18.2,18.2,0,0,0,.487-4.806,4.054,4.054,0,0,0-2.065.349C1013.41,78.006,1011.971,80.235,1010.764,80.838Z" transform="translate(-990.343 -77.113)" fill="#2e3e91"/>
      <path id="Caminho_3592" data-name="Caminho 3592" d="M1059.19,141.1a4.578,4.578,0,0,1-4.764,4.345c-2.585.074-5.209-.87-4.967-4.748s2.838-5.131,4.858-4.836S1059.4,137.422,1059.19,141.1Z" transform="translate(-991.374 -78.136)" fill="#d59d65"/>
      <path id="Caminho_3593" data-name="Caminho 3593" d="M1030.36,153.243c-.154-.939-2.909-.543-2.989-.408s-.294,1.006-.4.979-13.8.028-14.039,0a.939.939,0,0,0-.933.57c-.107.434-.214,15.98-.134,16.225s15.159-.136,15.347,0,.213,1.168.294,1.2,2.188-.163,2.562-.191S1030.387,153.406,1030.36,153.243Z" transform="translate(-990.718 -78.43)" fill="#2e3e91"/>
      <path id="Caminho_3594" data-name="Caminho 3594" d="M1067.192,179.058c-.332,1.628-1.4,3.819-1.94,3.257s-3.976-4.465-3.963-5.292.067-5.791.8-6.476C1063.146,169.568,1067.4,178.051,1067.192,179.058Z" transform="translate(-991.58 -78.741)" fill="#2e3e91"/>
      <path id="Caminho_3595" data-name="Caminho 3595" d="M1060.73,170.418c.167-1.666-2.677-6.344-3.151-6.918s-1.371-2.487-1.917-1.245a24.239,24.239,0,0,0-1.463,5.789c.338,1.47,4.671,6.426,4.99,6.593S1060.685,170.863,1060.73,170.418Z" transform="translate(-991.456 -78.59)" fill="#2e3e91"/>
      <path id="Caminho_3596" data-name="Caminho 3596" d="M1047.8,150.368c-.255-1.415-3.5-7.1-4.071-7.793s-1.648-3-2.305-1.5a20.627,20.627,0,0,0-1.3,6.1c.407,1.771,5.149,8.126,5.534,8.327S1047.893,150.9,1047.8,150.368Z" transform="translate(-991.211 -78.219)" fill="#2e3e91"/>
      <path id="Caminho_3597" data-name="Caminho 3597" d="M1054.234,159.878c-.205-1.468-4.089-7.32-4.367-7.539-.867-.685-2.116,5.29-2.173,6.209s4.265,6.75,4.68,6.925S1054.346,160.675,1054.234,159.878Z" transform="translate(-991.343 -78.424)" fill="#2e3e91"/>
      <path id="Caminho_3598" data-name="Caminho 3598" d="M1027.438,161.5a24.471,24.471,0,0,1-5.418,0c-.8-.239-.369-4.721-.211-5.64.082-.47,5.161-.34,5.566.065C1027.942,156.489,1027.6,161.338,1027.438,161.5Z" transform="translate(-990.887 -78.481)" fill="#4192d0"/>
      <path id="Caminho_3599" data-name="Caminho 3599" d="M1027.275,168.963a22.978,22.978,0,0,1-5.1,0c-.75-.225-.348-4.443-.2-5.309.077-.441,4.858-.319,5.239.061C1027.749,164.248,1027.425,168.813,1027.275,168.963Z" transform="translate(-990.891 -78.617)" fill="#4192d0"/>
      <path id="Caminho_3600" data-name="Caminho 3600" d="M1019.791,161.673a24.472,24.472,0,0,1-5.418,0c-.8-.239-.369-4.721-.211-5.64.082-.47,5.161-.34,5.566.064C1020.295,156.663,1019.95,161.513,1019.791,161.673Z" transform="translate(-990.754 -78.484)" fill="#4192d0"/>
      <path id="Caminho_3601" data-name="Caminho 3601" d="M1014.079,168.976a24.352,24.352,0,0,1,0-5.418c.239-.8,4.721-.369,5.64-.211.47.082.34,5.161-.065,5.565C1019.087,169.479,1014.238,169.135,1014.079,168.976Z" transform="translate(-990.754 -78.612)" fill="#4192d0"/>
      <path id="Caminho_3602" data-name="Caminho 3602" d="M1049.7,186.987c-.629.374-4.583.105-4.787,0s.307-2.451,1.43-3.37,3.016-1.178,3.4-.885C1049.986,182.915,1049.7,186.987,1049.7,186.987Z" transform="translate(-991.294 -78.953)" fill="#4192d0"/>
      <path id="Caminho_3603" data-name="Caminho 3603" d="M1051.447,187.452c-.374-.629-.105-4.584,0-4.788s2.452.307,3.371,1.431,1.178,3.014.884,3.4C1055.52,187.733,1051.447,187.452,1051.447,187.452Z" transform="translate(-991.405 -78.953)" fill="#4192d0"/>
      <path id="Caminho_3604" data-name="Caminho 3604" d="M993.765,152.184c.025-.753,1.772,1.384,2.4,2.4s.847,2.236,2.04,2.962c1.225.747,1.6.721,1.6.721a2.715,2.715,0,0,1-2.5.274,10.431,10.431,0,0,1-1.651-1.068,10.239,10.239,0,0,1,.607,2.6c-.049.972-1.579,3.23-1.894,3.545s.291-2.816.073-4.249S993.74,152.937,993.765,152.184Z" transform="translate(-990.403 -78.419)" fill="#fff"/>
      <path id="Caminho_3605" data-name="Caminho 3605" d="M996.867,150.017a14.357,14.357,0,0,0,3.74,2.768c1.53.656,2.123,1.491,2.172,1.88s.812-.872-.12-2.133c-.285-.386-1.2-.78-.692-.9a27.518,27.518,0,0,0,3.472-.471,7.073,7.073,0,0,0,2.113-1.433l-10.709.024Z" transform="translate(-990.456 -78.379)" fill="#fff"/>
      <path id="Caminho_3606" data-name="Caminho 3606" d="M995.842,152.15c.684.986,1.512,2.763,2.193,3.7.832,1.141,2.444,1.88,3.321.94s.219-2.037-.594-2.727a38.492,38.492,0,0,0-4.387-2.444C995.842,151.335,995.352,151.442,995.842,152.15Zm4.966,2.731a.984.984,0,0,1-.584,1.645,1.378,1.378,0,0,1-1.38-.955C998.542,154.693,999.834,153.614,1000.808,154.881Z" transform="translate(-990.435 -78.409)" fill="#d59d65"/>
      <g id="Grupo_4314" data-name="Grupo 4314" transform="translate(7.259 28.746)">
        <path id="Caminho_3607" data-name="Caminho 3607" d="M997.8,106.836c3.713-.712,21.244-2.288,33.093,10.512,3.972,4.293,5.466,10.017,4.453,13.819-.962,3.61-3.615,7.165-6.082,8.581-3.815,2.19-9.088-.224-9.4-4.766-.3-4.433,3-5.271,3.623-8.19.679-3.205.736-4.62-.648-7.3-2.511-4.862-10.924-11.23-21.133-11.424C999.671,108.029,997.3,106.931,997.8,106.836Z" transform="translate(-997.731 -106.369)" fill="#2e3e91"/>
        <path id="Caminho_3608" data-name="Caminho 3608" d="M1025.76,117.05a13.3,13.3,0,0,1,6.945,10.269c.334,3.645-.685,7.3-3.143,9.405s-6.8.9-6-3.659c.6-3.437,3.578-3.714,3.732-8.915C1027.375,121.491,1024.322,116.317,1025.76,117.05Z" transform="translate(-998.18 -106.554)" fill="#d59d65"/>
        <path id="Caminho_3609" data-name="Caminho 3609" d="M1028.963,123.239c.513-.292,1.142.059,1.05.509s-.52.738-.833.505S1028.7,123.389,1028.963,123.239Z" transform="translate(-998.274 -106.661)" fill="#fff"/>
        <path id="Caminho_3610" data-name="Caminho 3610" d="M1029.412,127.11a.9.9,0,0,1,1.252.933c-.157.823-.776,1.122-1.279.9A1.063,1.063,0,0,1,1029.412,127.11Z" transform="translate(-998.274 -106.729)" fill="#fff"/>
        <path id="Caminho_3611" data-name="Caminho 3611" d="M1026.409,132.132a1.735,1.735,0,0,1,2.869.191,1.666,1.666,0,0,1-.4,2.217,1.632,1.632,0,0,1-2.339.028A2,2,0,0,1,1026.409,132.132Z" transform="translate(-998.225 -106.806)" fill="#fff"/>
      </g>
      <path id="Caminho_3612" data-name="Caminho 3612" d="M999.476,141.4c-1.9-.165-7.821-.755-8.083-1.691s-.194-8.39-.194-11.519V113.022c0-1.641,3.284-2.691,4.145-2.954s4.8.04,4.8,1.4-1.707.6-2.495,1.571-1.979,11.215-1.971,12.4,2.236-1.793,3.55-2.319,7.592-3.855,11.741,1.005,3.236,8.928.689,12.6C1009.109,140.032,1005.89,141.961,999.476,141.4Z" transform="translate(-990.358 -77.686)" fill="#2e3e91"/>
      <path id="Caminho_3613" data-name="Caminho 3613" d="M1003.138,131.949a2.813,2.813,0,0,1-1.059-2.119c-.03-1.108.674-2.854,2.3-2.979a4.158,4.158,0,0,1,4.608,3.117c.711,2.66-2.089,6.488-5.514,7.255a7.846,7.846,0,0,1-6.659-1.644c-1.817-1.793-1.736-5.971-1.322-7.867.291-1.333.2-2.062.612-2.425.3-.263,4.623-2.719,3.2-1.939-2.614,1.437-3.108,7.495-2.143,9.4.693,1.369,2.236,3.169,4.431,3.162a5.735,5.735,0,0,0,4.364-1.787,7.214,7.214,0,0,0,1.429-3.061,1.433,1.433,0,0,0-.806-1.233c-.125-.041-.094,1.528-.31,1.737A2.55,2.55,0,0,1,1003.138,131.949Z" transform="translate(-990.429 -77.916)" fill="#4192d0"/>
      <path id="Caminho_3614" data-name="Caminho 3614" d="M1101.416,188.191V179.86c-.071,0-.133-.024-.205-.024,0,0-2.092.532-2.509,1.423-.494,1.055-.237,1.193-.876.939a12.761,12.761,0,0,0-3.29-.563,14.51,14.51,0,0,0,.629,3.368c.253.64.042.312-1.013.807a2.607,2.607,0,0,0-1.409,2.381Z" transform="translate(-992.129 -78.904)" fill="#2e3e91"/>
      <path id="Caminho_3615" data-name="Caminho 3615" d="M1091.552,187.861a21.285,21.285,0,0,1,.87-3.987,10.868,10.868,0,0,1,1.678-3.083,10.862,10.862,0,0,1,3.082-1.677,22.048,22.048,0,0,1,3.91-.863V160.926c-1.08.762-2.064,3.056-2.41,5.263a10.96,10.96,0,0,0,.707,5.967c.65,1.5,1.188,2.546.877,3.252a4.423,4.423,0,0,1-3.451,2.206c-1.839.141-2.387.612-2.819.292s-.688-1.876-1.254-3.007a7.623,7.623,0,0,0-3.818-3.422,12.9,12.9,0,0,0-4.583-.909.531.531,0,0,0-.465.465,12.914,12.914,0,0,0,.909,4.582,7.622,7.622,0,0,0,3.423,3.819c1.131.565,2.686.819,3.007,1.253s-.15.981-.292,2.82a4.422,4.422,0,0,1-2.206,3.45c-.707.311-1.754-.226-3.252-.876a10.964,10.964,0,0,0-5.968-.707c-2.26.355-4.615,1.379-5.318,2.489Z" transform="translate(-991.805 -78.574)" fill="#d59d65"/>
      <path id="Caminho_3616" data-name="Caminho 3616" d="M1069.625,188.17h9.348c0-.773-.112-3.052-1.434-4.182a3.808,3.808,0,0,0-4.086-.629c-.427.354-1.988-3.468-2.4-4.139a.964.964,0,0,0-1.747-.03,37.365,37.365,0,0,1-2.421,4.115c-.553.653.4,2.13,1.124,2.911C1068.44,186.675,1069.563,187.647,1069.625,188.17Z" transform="translate(-991.675 -78.883)" fill="#2e3e91"/>
      <path id="Caminho_3617" data-name="Caminho 3617" d="M1092.12,157.826c.67.41,4.492,1.97,4.139,2.4a3.808,3.808,0,0,0,.63,4.085c1.21,1.417,3.766,1.444,4.344,1.433h.163V156.4a.356.356,0,0,1-.123.008c-.015,0-.026.028-.04.041-.013-.014-.025-.045-.039-.041-.48.129-1.582-1.158-2.076-1.62-.782-.729-2.258-1.678-2.911-1.125a37.558,37.558,0,0,1-4.115,2.421A.964.964,0,0,0,1092.12,157.826Z" transform="translate(-992.108 -78.445)" fill="#2e3e91"/>
    </g>
  </g>
</svg>
