<svg xmlns="http://www.w3.org/2000/svg" width="78" height="60" viewBox="0 0 78 60">
  <g id="Grupo_4420" data-name="Grupo 4420" transform="translate(-59.601 -80.98)">
    <g id="Grupo_2" data-name="Grupo 2" transform="translate(59.601 112.815)">
      <path id="Caminho_2" data-name="Caminho 2" d="M160.56,228.812a2.88,2.88,0,0,0,2.647.3,4.892,4.892,0,0,0,2.007-1.428c.129-.145.22-.248.337-.242s.183.108.3.274a3.617,3.617,0,0,0,2.6,1.474c3.037.33,5.167-.582,6.364-2.491a6.3,6.3,0,0,0,.9-2.437,1.429,1.429,0,0,0-.2-1,.653.653,0,0,0-1.038-.015.817.817,0,0,0-.012.958c.089.086.235.118.232.188a3.453,3.453,0,0,1-.586,1.667,4.228,4.228,0,0,1-3.359,2,3.124,3.124,0,0,1-1.925-.306,1.986,1.986,0,0,1-.838-1.273,1.486,1.486,0,0,1-.012-.589c.014-.081.309-.022.586,0a3.385,3.385,0,0,0,3.782-2.519,2.371,2.371,0,0,0-2.295-3.027,3.3,3.3,0,0,0-1.6.439,5.872,5.872,0,0,0-3.068,5.049l0,.062a.76.76,0,0,1-.084.408,3.858,3.858,0,0,1-1.7,1.545,1.019,1.019,0,0,1-.993,0,1.075,1.075,0,0,1-.367-.955,7.343,7.343,0,0,1,.529-2.273l.007-.019q.149-.428.294-.858c.161-.473.325-.957.5-1.43a1.376,1.376,0,0,0-.3-1.3,1.511,1.511,0,0,0-1.28-.647,4.687,4.687,0,0,0-1.4.4,10.348,10.348,0,0,0-1.4.885l-.164.116c-.136.1-.264.187-.4.138-.091-.033-.155-.124-.2-.286a.446.446,0,0,0-.035-.078l-.016-.032a1.659,1.659,0,0,0-2.286-1.019,10.5,10.5,0,0,0-1.729.872l-.333.194c-.346.2-.4.173-.7-.175a3.456,3.456,0,0,0-.516-.52.931.931,0,0,0-.784-.261c-.214.061-.394.273-.534.63a29.714,29.714,0,0,0-1.409,4.463l-.017.078a1.1,1.1,0,0,1-.192.5,3.341,3.341,0,0,1-2.366,1.279.8.8,0,0,1-.243-.033c-.037-.009-.067-.017-.1-.023l-.13-.024.046-.126c.012-.033.022-.067.032-.1a.9.9,0,0,1,.1-.252,5.646,5.646,0,0,0,1.093-3.038c.084-1.906-.834-3.226-2.458-3.534a3.991,3.991,0,0,0-2.664.39,5.549,5.549,0,0,0-3.154,4.9,1,1,0,0,1-.151.553,4.386,4.386,0,0,1-3.059,1.828,2.313,2.313,0,0,1-1.751-.5,2.157,2.157,0,0,1-.753-1.484,5.5,5.5,0,0,1,1.247-4.065,2.711,2.711,0,0,1,.755-.615,1.054,1.054,0,0,1,1.047-.076.585.585,0,0,1,.343.387.567.567,0,0,1-.156.473,2.591,2.591,0,0,1-.24.242c-.058.053-.115.106-.167.161a.757.757,0,0,0-.144,1.049.982.982,0,0,0,1.238.313,1.814,1.814,0,0,0,.636-2.42,2.251,2.251,0,0,0-1.292-1.062,3.266,3.266,0,0,0-2.139.075,6,6,0,0,0-3.721,5.131,1.269,1.269,0,0,1-.139.592,4.249,4.249,0,0,1-1.388,1.4,1.581,1.581,0,0,1-1.515.158,1.472,1.472,0,0,1-.807-1.158c-.19-1.186-.268-2.317.841-3.126a1.884,1.884,0,0,0,.318-.327l.085-.1a25.626,25.626,0,0,0,3.87-6.008,6.776,6.776,0,0,0,.512-1.642,1.833,1.833,0,0,0-1.477-2.064,2.167,2.167,0,0,0-1.89.627,8.748,8.748,0,0,0-1.374,1.514,19.821,19.821,0,0,0-3.495,10.235,1.09,1.09,0,0,1-.2.582,4.38,4.38,0,0,1-2.766,1.711,2.068,2.068,0,0,1-2.463-1.515,1.036,1.036,0,0,1-.04-.5c.013-.068.31.008.581.027a3.4,3.4,0,0,0,3.759-2.625,2.315,2.315,0,0,0-.341-2.186,2.381,2.381,0,0,0-2-.942,3.427,3.427,0,0,0-1.557.453,5.663,5.663,0,0,0-2.959,4.374c-.014.1-.581.038-.973-.046-.1-.021-.072.421.008.456.562.249.888.3.888.366a3.042,3.042,0,0,0,2.443,3.134,5.482,5.482,0,0,0,5.36-1.43l.012-.012c.179-.164.28-.253.395-.235s.186.127.306.326a3.238,3.238,0,0,0,4.219,1.183,5.789,5.789,0,0,0,1.64-1.335.394.394,0,0,1,.276-.172c.111,0,.2.084.3.215a4.1,4.1,0,0,0,.926.933,4.724,4.724,0,0,0,3.748.59,6.158,6.158,0,0,0,2.9-1.553c.152-.142.252-.237.366-.237h.024c.124.014.2.123.34.339a3.391,3.391,0,0,0,1.514,1.281,3.73,3.73,0,0,0,3.619-.336,1.113,1.113,0,0,1,.657-.231,4.915,4.915,0,0,0,3.089-.656.35.35,0,0,1,.348-.051c.1.066.111.2.1.341a.883.883,0,0,0,.616.917,5.313,5.313,0,0,0,1.236.312.549.549,0,0,0,.415-.048c.076-.064.116-.2.129-.45q.011-.2.019-.4c.015-.336.032-.714.069-1.077a8.456,8.456,0,0,1,1.61-4.417,4.1,4.1,0,0,1,.807-.756.734.734,0,0,1,.872-.108.665.665,0,0,1,.219.759c0,.031-.01.06-.014.089a2.852,2.852,0,0,1-.088.387c-.059.2-.121.406-.182.609l-.016.052c-.124.409-.252.831-.362,1.249l-.014.054c-.208.793-.424,1.613-.583,2.43a1.064,1.064,0,0,0,.8,1.42,4.165,4.165,0,0,0,1.069.212.5.5,0,0,0,.379-.062.564.564,0,0,0,.113-.4,11.626,11.626,0,0,1,1.33-4.771,8.259,8.259,0,0,1,.927-1.36l.189-.242a1.634,1.634,0,0,1,.606-.444.517.517,0,0,1,.52.006.568.568,0,0,1,.221.5,1.543,1.543,0,0,1-.084.451c-.068.2-.143.405-.209.584-.117.319-.239.65-.333.98l-.019.067a14.5,14.5,0,0,0-.46,1.944A2.167,2.167,0,0,0,160.56,228.812Zm7.631-4.766A4.768,4.768,0,0,1,169.345,222a1.76,1.76,0,0,1,1.13-.675.643.643,0,0,1,.535.119.676.676,0,0,1,.149.547v.011c0,.025-.007.049-.01.074a1.316,1.316,0,0,1-.048.252,4.089,4.089,0,0,1-2.007,2.494,1.512,1.512,0,0,1-.61.121c-.088.005-.18.011-.265.023l-.141.02A6.334,6.334,0,0,1,168.192,224.047Zm-39.79-1.67h0c.079-.308.173-.666.277-1.012a25.2,25.2,0,0,1,2.188-5.166,10.414,10.414,0,0,1,.663-.994,1.577,1.577,0,0,1,.4-.38.5.5,0,0,1,.453-.074.553.553,0,0,1,.2.263,1.036,1.036,0,0,0,.048.092l.025.04-.011.046c-.028.117-.052.231-.075.342a4.512,4.512,0,0,1-.176.677,22.552,22.552,0,0,1-3.161,5.841,5.716,5.716,0,0,1-.429.484l-.051.054a.341.341,0,0,1-.15.081c-.017.006-.031.01-.044.016l-.139.06-.014-.153c0-.014,0-.029-.006-.043A.4.4,0,0,1,128.4,222.377Zm-8.378,1.544a5.6,5.6,0,0,1,1.16-1.827,1.686,1.686,0,0,1,1.243-.664.521.521,0,0,1,.511.443,2.064,2.064,0,0,1-.106.648,4.072,4.072,0,0,1-1.478,2.267,2.756,2.756,0,0,1-.821.374,1.968,1.968,0,0,1-.714.051A2.507,2.507,0,0,1,120.024,223.921Zm26.138-.894a11.609,11.609,0,0,1-.6,3.057.516.516,0,0,1-.486.4,1.266,1.266,0,0,0-.892.636.459.459,0,0,0,.006.64.365.365,0,0,1,.142.324c-.029.133-.159.193-.3.246a1.137,1.137,0,0,1-.406.076.932.932,0,0,1-.84-.48,2.519,2.519,0,0,1-.321-1.076,7.184,7.184,0,0,1,1.154-4.356,4.011,4.011,0,0,1,.84-.931,1.017,1.017,0,0,1,.97-.228,1.063,1.063,0,0,1,.625.815,4.381,4.381,0,0,1,.085.593c.008.088.017.176.028.263v.021Z" transform="translate(-97.722 -201.254)" fill="#fff"/>
      <path id="Caminho_3" data-name="Caminho 3" d="M221.615,186.366a3.437,3.437,0,0,1-2.995-1.484c-.123-.186-.2-.161-.331-.012a4.718,4.718,0,0,1-1.573,1.223,2.734,2.734,0,0,1-2.368,0,1.99,1.99,0,0,1-1.082-2.619,18.774,18.774,0,0,1,.712-1.844c.051-.127.13-.243.182-.37.1-.246.357-.555.117-.752a2.2,2.2,0,0,0-.94-.307c-.06-.012-.194.164-.239.276a21.662,21.662,0,0,1-1.831,3.55,5.344,5.344,0,0,1-2.222,2.069,2.452,2.452,0,0,1-1.785.161A1.766,1.766,0,0,1,206,185.075c-.109-.323-.114-.32-.362-.061a4.841,4.841,0,0,1-1.668,1.161,1.949,1.949,0,0,1-2.775-1.915,6.484,6.484,0,0,1,2.785-5.306,2.76,2.76,0,0,1,3.12-.227,9.4,9.4,0,0,0,1.634.822.688.688,0,0,1,.411.949c-.209.7-.466,1.382-.669,2.082a13.3,13.3,0,0,0-.379,1.646c-.1.646.268.935.885.725a2.66,2.66,0,0,0,1.271-1,14.109,14.109,0,0,0,2.035-3.847.454.454,0,0,0-.111-.512,1.814,1.814,0,0,1,.067-2.438A.849.849,0,0,1,213.4,177a1.083,1.083,0,0,1,.585,1.479c-.234.8-.115.978.7.952a6.841,6.841,0,0,0,1.162-.175c.359-.075.709-.135.985.178a.989.989,0,0,1,.161,1.119c-.27.617-.552,1.228-.822,1.845a5.013,5.013,0,0,0-.518,1.816c-.025.668.325.96.951.753a3.038,3.038,0,0,0,1.571-1.378.784.784,0,0,0,.05-.363,5.12,5.12,0,0,1,2.533-4.323,3.788,3.788,0,0,1,1.168-.457,2.157,2.157,0,0,1,2.46,2.934,2.929,2.929,0,0,1-3.315,1.989c-.425-.063-.477-.005-.386.429a1.745,1.745,0,0,0,2.282,1.282,3.856,3.856,0,0,0,2.033-1.3c.142-.167.264-.351.4-.525a.41.41,0,0,1,.711.407,3.6,3.6,0,0,1-.373.638A5.225,5.225,0,0,1,221.615,186.366Zm-18.043-2.512c.01.134.012.258.031.38.092.588.507.778,1,.447a2.186,2.186,0,0,0,.456-.407,7.927,7.927,0,0,0,1.566-2.866,3.811,3.811,0,0,0,.154-1.1.7.7,0,0,0-1.071-.673,1.676,1.676,0,0,0-.55.415A6.542,6.542,0,0,0,203.572,183.855Zm19.678-3.924c.013-.418-.166-.606-.523-.486a2.26,2.26,0,0,0-.82.495,4.083,4.083,0,0,0-1.009,1.674,3.7,3.7,0,0,0-.085.828,3.321,3.321,0,0,0,.841-.224,3.588,3.588,0,0,0,1.538-1.958A1.679,1.679,0,0,0,223.249,179.93Z" transform="translate(-154.899 -176.842)" fill="#fff"/>
      <path id="Caminho_4" data-name="Caminho 4" d="M103.088,183.1a.366.366,0,0,0-.506.116c-.142.184-.257.39-.4.573a3.235,3.235,0,0,1-1.363,1.147c-.64.24-1.036-.029-1-.716a7.093,7.093,0,0,1,.213-1.468c.209-.8.5-1.575.721-2.37.277-.98.145-1.271-.733-1.782-.035-.021-.071-.041-.108-.059-.591-.3-.953-.167-1.166.47-.256.77-.486,1.55-.74,2.321s-.49,1.55-.8,2.3a2.42,2.42,0,0,1-1.458,1.419c-.44.154-.726-.037-.691-.5a9.464,9.464,0,0,1,.274-1.747c.215-.8.523-1.565.773-2.352.33-1.036.2-1.336-.744-1.862l-.072-.039c-.593-.3-.9-.194-1.144.43a28.444,28.444,0,0,0-1.313,4.257,1.04,1.04,0,0,1-.211.476,2.855,2.855,0,0,1-1.728.93,1.672,1.672,0,0,1-.422-.054,2.881,2.881,0,0,1,.173-.355,5.126,5.126,0,0,0,.923-3.032,2.755,2.755,0,0,0-2.851-2.815,3.814,3.814,0,0,0-1.913.5,5,5,0,0,0-2.647,4.285,1.086,1.086,0,0,1-.175.566,7.493,7.493,0,0,1-1.919,1.714,1.177,1.177,0,0,1-.219.087.9.9,0,0,1-.01-.265c.175-.652.375-1.3.536-1.952.285-1.163,1.093-3.9,1.346-5.067a.736.736,0,0,0-.111-.535,2.286,2.286,0,0,0-1.106-.813.59.59,0,0,0-.864.464c-.209.714-.924,3-1.157,3.709-.277.835-.567,1.668-.913,2.475a3.045,3.045,0,0,1-2.6,1.673c-.526.013-.855-.247-.838-.774a4.924,4.924,0,0,1,.161-1.184c.283-.992.619-1.859.917-2.847.289-.958,1.012-2.115.382-2.6a5.313,5.313,0,0,0-1.272-.747c-.422-.108-1.323.479-2.552,1.5-.353.294-.765-.229-.98-.032s.206,1.656,1,1.67c.5.009,1.177-.44,1.131-.309-.164.469-.386,1.016-.619,1.82a19.046,19.046,0,0,0-.472,2.136,1.991,1.991,0,0,0,1.331,2.319,3.9,3.9,0,0,0,2.247.065,7.734,7.734,0,0,0,2.059-1.076,1.137,1.137,0,0,1,.163-.082,1,1,0,0,1,0,.16c-.012.078-.376,2.167-.75,3.744-.636,2.675-.918,4.047-1.984,7.474a21.288,21.288,0,0,1-2.127,5.1,4.156,4.156,0,0,1-1.315,1.437c-.875.533-1.464.307-1.818-.678a3.234,3.234,0,0,1-.138-.494.986.986,0,0,1,.143-.585,27.615,27.615,0,0,0,2.228-3.639,5.457,5.457,0,0,0,.494-1.78,1.144,1.144,0,0,0-1.4-1.281,2.192,2.192,0,0,0-.832.463,5.659,5.659,0,0,0-1.347,2.279,16.351,16.351,0,0,0-.746,3.329,4.707,4.707,0,0,1-.087.734,7.58,7.58,0,0,1-1.738,1.584,2.141,2.141,0,0,1-.717.347,1.73,1.73,0,0,1-1.81-.656c-.577-.98-.715-2.506.669-6.106.382-.994,1.14-2.814,1.531-3.8.538-1.364,1.011-2.431,1.542-3.8a4.711,4.711,0,0,0,.376-2.2,2.115,2.115,0,0,0-1.509-1.948,3.992,3.992,0,0,0-2.213-.044,10.185,10.185,0,0,0-5.185,2.969,4.855,4.855,0,0,0-1.122,1.76,2.248,2.248,0,0,0,.312,2.246,4.6,4.6,0,0,0,2.185,1.552,1.538,1.538,0,0,0,.549.09c.13-.007.328-.078.365-.176a.708.708,0,0,0-.076-.449c-.045-.109-.172-.178-.231-.285a4.9,4.9,0,0,1-.455-.914,2.83,2.83,0,0,1,.186-2.072,7.842,7.842,0,0,1,2.859-3.248,2.562,2.562,0,0,1,.891-.346c.756-.148,1.155.237,1.105,1.036a5.768,5.768,0,0,1-.114.826,53.464,53.464,0,0,1-2.023,5.69,55.474,55.474,0,0,0-1.923,5.633c-.936,3.394.544,5,1.269,5.482a2.889,2.889,0,0,0,2.034.467A4.714,4.714,0,0,0,68.758,204c.413-.328.794-.7,1.181-1.062.129-.121.214-.173.267.054a2.279,2.279,0,0,0,.071.239,2.378,2.378,0,0,0,2.907,1.7,3.853,3.853,0,0,0,1.633-.844,7.682,7.682,0,0,0,1.929-2.218,25.416,25.416,0,0,0,2.077-5.148c.389-1.382,1.13-4.086,1.739-6.852.179-.8.668-2.437.737-2.692a.863.863,0,0,1,.46-.583,9.819,9.819,0,0,0,2.367-1.743c.187-.189.268-.179.417.048a3.115,3.115,0,0,0,2.642,1.46,3.68,3.68,0,0,0,1.971-.59.839.839,0,0,1,.477-.166,4.444,4.444,0,0,0,2.883-.679c.167-.106.217-.047.3.1a2.84,2.84,0,0,0,.434.642,2.116,2.116,0,0,0,2.764.315,9.773,9.773,0,0,0,1.2-.912c.139-.112.2-.13.3.049a2.362,2.362,0,0,0,2.668,1.18,4.751,4.751,0,0,0,3.047-2.609.736.736,0,0,0,.032-.076A.382.382,0,0,0,103.088,183.1ZM72.6,196.537c.347-.743.914-.624.577.37a10.932,10.932,0,0,1-1.391,2.52A18.972,18.972,0,0,1,72.6,196.537Zm16.374-13.093a.34.34,0,0,1-.335.282,1.162,1.162,0,0,0-.864.623.517.517,0,0,0,.063.682c.126.132.075.207-.064.276a.761.761,0,0,1-.96-.2,1.608,1.608,0,0,1-.307-.743,6.045,6.045,0,0,1,1.2-4.307,2.115,2.115,0,0,1,.646-.55.655.655,0,0,1,1.015.448,6.672,6.672,0,0,1,.123.894A9.352,9.352,0,0,1,88.971,183.445Z" transform="translate(-59.601 -176.842)" fill="#fff"/>
    </g>
    <path id="Caminho_5" data-name="Caminho 5" d="M165.932,89.963,153.7,80.98l-12.232,8.983,1.846,2.593.928-.682v11.969h18.916V91.874l.928.682Z" transform="translate(-55.098 0)" fill="#2e3e91"/>
    <path id="Caminho_6" data-name="Caminho 6" d="M163.72,95.066a9.729,9.729,0,0,0,2.9-.394,26.3,26.3,0,0,0,2.9-1.15,13.458,13.458,0,0,1,2.762-1.051,2.728,2.728,0,0,1,2.618.759.908.908,0,0,0,1.11.116,2.083,2.083,0,0,0,.445-.419,1.8,1.8,0,0,1,1.07-.671,3.706,3.706,0,0,1,1.174.061s.806-.067.865.017c.036.05-.376.518-.421.644a2.972,2.972,0,0,1-.775,1.922c-.077.1-.047.165.01.184a5.916,5.916,0,0,1,.717.268,2.005,2.005,0,0,1,1.022,1.064,8.081,8.081,0,0,1,.478,2.137c.12.746-.016,2.287.205,3.956a39.093,39.093,0,0,0,.93,3.858c-.013.319-.091.355-.382.237a3.3,3.3,0,0,1-1.032-.737,8.676,8.676,0,0,1-2.037-2.637,9.329,9.329,0,0,0-2.2-3.081,7.452,7.452,0,0,0-.922-.691c-.126-.082-.3.082-.391.178-.243.268-.663.627-.93.869a22.167,22.167,0,0,0-2.509,2.828c-1.94,2.776-2.459,3.965-2.813,4.258-.168.139-.254-.263-.206-.481a14.045,14.045,0,0,1,1.437-3.557c.3-.529.878-1.631,1.169-2.17.162-.3-.055-.433-.245-.416a16.355,16.355,0,0,1-2.177.507,11.519,11.519,0,0,1-3.361.024,1.214,1.214,0,0,1-.883-.394c.078-.147.316-.15.768-.182a13.03,13.03,0,0,0,2.344-.336,8.07,8.07,0,0,0,3.075-1.233,5.664,5.664,0,0,0,1.19-1.385c.145-.213.371-.471.235-.559a5.83,5.83,0,0,0-1.581-.287c-.574-.036-1.187.052-1.993.016a14.5,14.5,0,0,1-3.768-.789c-.433-.139-1.783-.627-2.01-1.093C162.288,94.815,162.921,95.024,163.72,95.066Z" transform="translate(-69.227 -7.513)" fill="#fff"/>
  </g>
</svg>
