<svg xmlns="http://www.w3.org/2000/svg" width="111.409" height="111.409" viewBox="0 0 111.409 111.409">
  <g id="Grupo_4319" data-name="Grupo 4319" transform="translate(11467 12757.409)">
    <g id="Grupo_4222" data-name="Grupo 4222" transform="translate(-11392.728 -12720.273)">
      <g id="Grupo_4221" data-name="Grupo 4221">
        <rect id="Retângulo_720" data-name="Retângulo 720" width="37.136" height="37.136" fill="none"/>
        <path id="Caminho_2731" data-name="Caminho 2731" d="M150.643,272.118,163.021,284.5l-12.379,24.757Z" transform="translate(-150.643 -272.118)" fill="#4192d0"/>
        <path id="Caminho_2732" data-name="Caminho 2732" d="M188.218,309.255,175.84,296.876l12.379-24.757Z" transform="translate(-151.082 -272.118)" fill="#4192d0"/>
      </g>
      <path id="Caminho_2735" data-name="Caminho 2735" d="M150.643,309.255,163.021,284.5l24.757-12.379L175.4,296.876Z" transform="translate(-150.643 -272.118)" fill="#2e3e91"/>
    </g>
    <g id="Grupo_4224" data-name="Grupo 4224" transform="translate(-11392.728 -12683.137)">
      <g id="Grupo_4223" data-name="Grupo 4223">
        <rect id="Retângulo_721" data-name="Retângulo 721" width="37.136" height="37.136" fill="none"/>
        <path id="Caminho_2736" data-name="Caminho 2736" d="M150.643,309.914l12.379,12.379L150.643,347.05Z" transform="translate(-150.643 -309.914)" fill="#4192d0"/>
        <path id="Caminho_2737" data-name="Caminho 2737" d="M188.218,347.05,175.84,334.671l12.379-24.758Z" transform="translate(-151.082 -309.914)" fill="#4192d0"/>
      </g>
      <path id="Caminho_2740" data-name="Caminho 2740" d="M150.643,347.05l12.379-24.757,24.757-12.379L175.4,334.671Z" transform="translate(-150.643 -309.914)" fill="#2e3e91"/>
    </g>
    <g id="Grupo_4226" data-name="Grupo 4226" transform="translate(-11429.864 -12720.273)">
      <g id="Grupo_4225" data-name="Grupo 4225">
        <rect id="Retângulo_722" data-name="Retângulo 722" width="37.136" height="37.136" fill="none"/>
        <path id="Caminho_2741" data-name="Caminho 2741" d="M112.847,272.118,125.226,284.5l-12.379,24.757Z" transform="translate(-112.847 -272.118)" fill="#4192d0"/>
        <path id="Caminho_2742" data-name="Caminho 2742" d="M150.423,309.255l-12.379-12.379,12.379-24.757Z" transform="translate(-113.287 -272.118)" fill="#4192d0"/>
      </g>
      <path id="Caminho_2745" data-name="Caminho 2745" d="M112.847,309.255,125.226,284.5l24.757-12.379L137.6,296.876Z" transform="translate(-112.847 -272.118)" fill="#2e3e91"/>
    </g>
    <g id="Grupo_4228" data-name="Grupo 4228" transform="translate(-11392.728 -12757.409)">
      <g id="Grupo_4227" data-name="Grupo 4227">
        <rect id="Retângulo_723" data-name="Retângulo 723" width="37.136" height="37.136" fill="none"/>
        <path id="Caminho_2746" data-name="Caminho 2746" d="M150.643,234.323,163.021,246.7l-12.379,24.758Z" transform="translate(-150.643 -234.323)" fill="#4192d0"/>
        <path id="Caminho_2747" data-name="Caminho 2747" d="M188.218,271.459,175.84,259.081l12.379-24.757Z" transform="translate(-151.082 -234.323)" fill="#4192d0"/>
      </g>
      <path id="Caminho_2750" data-name="Caminho 2750" d="M150.643,271.459,163.021,246.7l24.757-12.379L175.4,259.081Z" transform="translate(-150.643 -234.323)" fill="#2e3e91"/>
    </g>
    <g id="Grupo_4230" data-name="Grupo 4230" transform="translate(-11429.864 -12757.409)">
      <g id="Grupo_4229" data-name="Grupo 4229">
        <rect id="Retângulo_724" data-name="Retângulo 724" width="37.136" height="37.136" fill="none"/>
        <path id="Caminho_2751" data-name="Caminho 2751" d="M112.847,234.323,125.226,246.7l-12.379,24.758Z" transform="translate(-112.847 -234.323)" fill="#4192d0"/>
        <path id="Caminho_2752" data-name="Caminho 2752" d="M150.423,271.459l-12.379-12.379,12.379-24.757Z" transform="translate(-113.287 -234.323)" fill="#4192d0"/>
      </g>
      <path id="Caminho_2755" data-name="Caminho 2755" d="M112.847,271.459,125.226,246.7l24.757-12.379L137.6,259.081Z" transform="translate(-112.847 -234.323)" fill="#2e3e91"/>
    </g>
    <g id="Grupo_4232" data-name="Grupo 4232" transform="translate(-11429.864 -12683.137)">
      <g id="Grupo_4231" data-name="Grupo 4231">
        <rect id="Retângulo_725" data-name="Retângulo 725" width="37.136" height="37.136" fill="none"/>
        <path id="Caminho_2756" data-name="Caminho 2756" d="M112.847,309.914l12.379,12.379L112.847,347.05Z" transform="translate(-112.847 -309.914)" fill="#4192d0"/>
        <path id="Caminho_2757" data-name="Caminho 2757" d="M150.423,347.05l-12.379-12.379,12.379-24.758Z" transform="translate(-113.287 -309.914)" fill="#4192d0"/>
      </g>
      <path id="Caminho_2760" data-name="Caminho 2760" d="M112.847,347.05l12.379-24.757,24.757-12.379L137.6,334.671Z" transform="translate(-112.847 -309.914)" fill="#2e3e91"/>
    </g>
    <g id="Grupo_4234" data-name="Grupo 4234" transform="translate(-11467 -12720.273)">
      <g id="Grupo_4233" data-name="Grupo 4233">
        <rect id="Retângulo_726" data-name="Retângulo 726" width="37.136" height="37.136" fill="none"/>
        <path id="Caminho_2761" data-name="Caminho 2761" d="M75.052,272.118,87.431,284.5,75.052,309.255Z" transform="translate(-75.052 -272.118)" fill="#4192d0"/>
        <path id="Caminho_2762" data-name="Caminho 2762" d="M112.628,309.255l-12.379-12.379,12.379-24.757Z" transform="translate(-75.492 -272.118)" fill="#4192d0"/>
      </g>
      <path id="Caminho_2765" data-name="Caminho 2765" d="M75.052,309.255,87.431,284.5l24.757-12.379L99.81,296.876Z" transform="translate(-75.052 -272.118)" fill="#2e3e91"/>
    </g>
    <g id="Grupo_4236" data-name="Grupo 4236" transform="translate(-11467 -12757.409)">
      <g id="Grupo_4235" data-name="Grupo 4235">
        <rect id="Retângulo_727" data-name="Retângulo 727" width="37.136" height="37.136" fill="none"/>
        <path id="Caminho_2766" data-name="Caminho 2766" d="M75.052,234.323,87.431,246.7,75.052,271.459Z" transform="translate(-75.052 -234.323)" fill="#4192d0"/>
        <path id="Caminho_2767" data-name="Caminho 2767" d="M112.628,271.459l-12.379-12.379,12.379-24.757Z" transform="translate(-75.492 -234.323)" fill="#4192d0"/>
      </g>
      <path id="Caminho_2770" data-name="Caminho 2770" d="M75.052,271.459,87.431,246.7l24.757-12.379L99.81,259.081Z" transform="translate(-75.052 -234.323)" fill="#2e3e91"/>
    </g>
    <g id="Grupo_4238" data-name="Grupo 4238" transform="translate(-11467 -12683.137)">
      <g id="Grupo_4237" data-name="Grupo 4237">
        <rect id="Retângulo_728" data-name="Retângulo 728" width="37.136" height="37.136" fill="none"/>
        <path id="Caminho_2771" data-name="Caminho 2771" d="M75.052,309.914l12.379,12.379L75.052,347.05Z" transform="translate(-75.052 -309.914)" fill="#4192d0"/>
        <path id="Caminho_2772" data-name="Caminho 2772" d="M112.628,347.05l-12.379-12.379,12.379-24.758Z" transform="translate(-75.492 -309.914)" fill="#4192d0"/>
      </g>
      <path id="Caminho_2775" data-name="Caminho 2775" d="M75.052,347.05l12.379-24.757,24.757-12.379L99.81,334.671Z" transform="translate(-75.052 -309.914)" fill="#2e3e91"/>
    </g>
  </g>
</svg>
