<svg xmlns="http://www.w3.org/2000/svg" width="111.407" height="111.409" viewBox="0 0 111.407 111.409">
  <g id="Grupo_4322" data-name="Grupo 4322" transform="translate(11210.654 12914)">
    <path id="Caminho_3419" data-name="Caminho 3419" d="M367.339,146.344c1.734.159,6.82,1.579,8.847,4.292s2.16,5.477,3.028,7.214a2.819,2.819,0,0,0,3.765,1.158,3.077,3.077,0,0,0,1.607-1.4c.368-.579-.763.368-1.712-.21s-3.5-4.9-4.95-6.715a14.326,14.326,0,0,0-7-4.107A8.072,8.072,0,0,0,367.339,146.344Z" transform="translate(-11547.148 -12990.196)" fill="#fff"/>
    <rect id="Retângulo_809" data-name="Retângulo 809" width="111.407" height="111.407" transform="translate(-11210.654 -12913.998)" fill="none"/>
    <path id="Caminho_3420" data-name="Caminho 3420" d="M435.691,74.955l-.062,4.116c-.111,1.358-2.273,3.121-5,3.412-4.445.475-12.936-.038-22.316,7.609-12.92,10.532-15.083,24.543-14.258,32.167a27.624,27.624,0,0,0,1.671,6.573,5.673,5.673,0,0,1-.326,1.427c-.394.814-.617.6-.617.6a19.318,19.318,0,0,1-6.746-8.084,38.539,38.539,0,0,1-2.552-10.872,8.392,8.392,0,0,0,5.524-4.516c1.983-4.141,1.6-7.364.824-11.95s.531-7.831,2.712-7.794a3.141,3.141,0,0,1,3.107,3.328c-.111,1.369-.629,2.256-.37,2.441s1.6-1.434,1.6-3.467-1.219-5.651-4.521-6.391a7.355,7.355,0,0,0-8.076,2.823c-.19.247-1.153-1.223-2.46-2.213a17.69,17.69,0,0,0-4.653-2.466c-.379,0-2.826,1.982-4.376,3.49a11.843,11.843,0,0,0-1.726,2.357c-.3.258-2.355-1.5-4.211-1.522a6.882,6.882,0,0,0-6.16,4.044c-1.591,3.44-.645,6.036.834,7.552S366.049,99,366.049,99s.163-.262-.724-1.04-2.8-4.045-.389-5.827c1.657-1.223,2.92-1.288,5.14,1.559s1.816,7.761,3.487,11.737c3.24,7.709,10.07,6.96,10.07,6.96a42.132,42.132,0,0,0,3.181,10.836,32.967,32.967,0,0,0,6.828,8.744l-.651.678a32.941,32.941,0,0,0-8.742-6.826,42.121,42.121,0,0,0-10.836-3.181s.749-6.831-6.96-10.07c-3.976-1.671-8.89-1.268-11.738-3.487s-2.782-3.483-1.558-5.14c1.781-2.412,5.049-.5,5.827.389s1.039.724,1.039.724.143-1.044-1.373-2.524-4.113-2.425-7.552-.834a6.885,6.885,0,0,0-4.045,6.16c.019,1.856,1.781,3.916,1.522,4.211a11.873,11.873,0,0,0-2.357,1.726c-1.508,1.55-3.489,4-3.489,4.376a17.69,17.69,0,0,0,2.466,4.653c.988,1.308,2.459,2.271,2.212,2.46a7.353,7.353,0,0,0-2.822,8.076c.74,3.3,4.356,4.521,6.39,4.521s3.653-1.336,3.468-1.6-1.073.259-2.441.37a3.141,3.141,0,0,1-3.329-3.107c-.036-2.181,3.209-3.488,7.795-2.711s7.809,1.158,11.95-.825a8.392,8.392,0,0,0,4.515-5.524,38.539,38.539,0,0,1,10.872,2.552,19.325,19.325,0,0,1,8.085,6.746s.208.223-.605.617a5.674,5.674,0,0,1-1.427.326,27.625,27.625,0,0,0-6.573-1.671c-7.623-.824-21.635,1.338-32.167,14.258-7.646,9.38-7.134,17.871-7.609,22.316-.292,2.731-2.054,4.892-3.412,5l-4.146.062v11.664h21.891s-1.049-11.38,4.7-21.44,11.68-13.648,12.5-14.058c.264-.132,1.875,4.319,1.875,4.319s-9.177,6.578-5.529,18.077,17.967,12.162,25.817,6.523c7.684-5.519,13.562-16.173,10.334-27.835.36-1.735.927-1.932.927-1.932a13.591,13.591,0,0,1,3.266,3.468c.423.621,3.677,7.156,4.182,11.881.734,6.869,2.7,7.5,4.045,7.936s4.267-.529,4.558-2.133c.253-1.386.806-1.566.9-1.374s2.51,4.215,4.715,5.021c2.171.793,3.67.737,5.046-.652l-.017-.016c1.373-1.373,1.44-2.882.651-5.044-.806-2.2-4.828-4.619-5.021-4.715s-.013-.649,1.374-.9c1.6-.292,2.566-3.211,2.133-4.559s-1.067-3.311-7.937-4.045c-4.724-.5-11.259-3.757-11.88-4.181a13.59,13.59,0,0,1-3.468-3.266s.2-.568,1.932-.928c11.662,3.23,22.316-2.649,27.835-10.333,5.639-7.851,4.975-22.169-6.523-25.817s-18.077,5.528-18.077,5.528-4.451-1.61-4.319-1.874c.41-.819,4-6.749,14.057-12.5s21.44-4.7,21.44-4.7V74.955ZM409.308,148.13l.01.017-2.421,1.871c-2.638-6.883-8.968-11.737-15.04-14.456l2.573-2.716,2.123-2.012c2.721,6.071,7.575,12.4,14.457,15.04Z" transform="translate(-11546.602 -12988.953)" fill="#2e3e91"/>
    <path id="Caminho_3421" data-name="Caminho 3421" d="M405.984,150.924c-1.651-4.4-5.946-8.363-8.638-10.29-2.394-1.714-9.429-6.2-18.548-5.736a36.438,36.438,0,0,0-18.449,6.6c-2.6,1.756.246.141,5.336-.176s9.163.352,15.518,2.879a18.44,18.44,0,0,1,9.866,8.777c.772,1.615,2.246,5.9,1.053,9.128s1.052-3.265-1.686-8.671-6.635-6.952-9.443-8.321-10.542-3.194-15.246-2.844a20.507,20.507,0,0,0-10.222,3.51c-3.5,2.127-7.548,8.235-8.8,13.334,0,0,5.772-9.221,12.6-11.446,5.74-1.87,9.911-2.006,15.12,1.778,2.335,1.7,3.327,6.266,3.953,7.949a3.3,3.3,0,0,0,5.574.924,6.629,6.629,0,0,0,1.279-2.081,17.434,17.434,0,0,0-.625,6.51c.431,3.664,2.7,5.529,5.8,5.641a6.183,6.183,0,0,0,6.287-5.931,7.833,7.833,0,0,0-2.229-6.043,6.046,6.046,0,0,0,3.322-.758,5.313,5.313,0,0,0,2.788-5.619c-.357-2.275-2.5-4.1-4.7-4.727a30.684,30.684,0,0,0-4.95-.847,13.041,13.041,0,0,1,5.128.156c2.386.669,4.748,1.91,5.478,5.117,1.338,5.875-5.251,7.5-5.251,7.5a8,8,0,0,1,1.033,7.044c-1.922,5.206-5.005,5.045-6.855,5.112a6.26,6.26,0,0,1-6.352-4.744,10.75,10.75,0,0,1-.253-5.265,3.111,3.111,0,0,1-1.6.9,3.871,3.871,0,0,1-1.818-.027,12.2,12.2,0,0,0-1.529,8.313c.759,5.039,4.481,7.514,7.069,8.963s9.453,1.962,13.645-1.65A24.4,24.4,0,0,0,406.9,163,20.536,20.536,0,0,0,405.984,150.924Zm-19.241-11.391c-.612,1.53.24,2.952.043,3.019a2.93,2.93,0,0,1,2.073-5.174C388.955,137.563,387.357,138,386.744,139.533Zm3,1.011c-.986,1.5-.561,3.083-.764,3.126a3.379,3.379,0,0,1,3.336-5.061C392.359,138.813,390.733,139.048,389.746,140.544Z" transform="translate(-11546.79 -12989.998)" fill="#4192d0"/>
    <path id="Caminho_3422" data-name="Caminho 3422" d="M379.136,147.476c2.738,1.966,6.355,5.406,6.811,7.97s-.632,4.95-.316,7.2.927,4.212,3.8,5.266,6.281-1.191,6.982-3.509.7-4.144-1.2-6.848-.913-1.614-.141-1.509a5.288,5.288,0,0,0,5.161-2.879,4.575,4.575,0,0,0-1.265-5.687,9.534,9.534,0,0,0-6.74-2.247c-3.16.176.008.835,1.194,2.176,2.141,2.423,3.9,5.353.688,8.154-.31.271.5,2.462.383,4.537a6.04,6.04,0,0,1-2.224,4.2c-.725.273-1.13-4.254-2.99-7.607a24.73,24.73,0,0,0-6.6-7.285A19.535,19.535,0,0,0,379.136,147.476Z" transform="translate(-11547.355 -12990.179)" fill="#fff"/>
    <path id="Caminho_3423" data-name="Caminho 3423" d="M362.229,74.953l-26.281,0v26.274a4.793,4.793,0,0,0,4.76-1.624c2.29-2.425,1.886-6.241,1.616-7.948s-.629-2.963-.4-3.009,2.425,2.919,4.939,3.412,3.614.014,5.006-1.154c1.167-1.392,1.652-2.528,1.157-5.043s-3.458-4.714-3.412-4.939,1.3.135,3.009.4,5.523.673,7.947-1.617A4.864,4.864,0,0,0,362.229,74.953Z" transform="translate(-11546.602 -12988.953)" fill="#2e3e91"/>
    <path id="Caminho_3424" data-name="Caminho 3424" d="M423.991,145.874a24.4,24.4,0,0,0,12.887-7.268c3.612-4.192,3.1-11.06,1.65-13.646s-3.924-6.31-8.963-7.068a12.189,12.189,0,0,0-8.313,1.529,3.869,3.869,0,0,1,.027,1.818,3.106,3.106,0,0,1-.9,1.6,10.759,10.759,0,0,1,5.265.253,6.26,6.26,0,0,1,4.744,6.351c-.067,1.851.093,4.933-5.112,6.856a8,8,0,0,1-7.044-1.033s-1.623,6.588-7.5,5.251c-3.207-.73-4.448-3.092-5.117-5.478a13.041,13.041,0,0,1-.156-5.128,30.662,30.662,0,0,0,.847,4.949c.625,2.208,2.452,4.348,4.727,4.7a5.31,5.31,0,0,0,5.618-2.787,6.043,6.043,0,0,0,.759-3.322,7.832,7.832,0,0,0,6.042,2.229,6.184,6.184,0,0,0,5.932-6.287c-.112-3.1-1.977-5.366-5.642-5.8a17.425,17.425,0,0,0-6.51.624,6.616,6.616,0,0,0,2.082-1.278,3.3,3.3,0,0,0-.924-5.574c-1.683-.627-6.252-1.618-7.949-3.954-3.785-5.208-3.648-9.38-1.778-15.12,2.225-6.83,11.446-12.6,11.446-12.6-5.1,1.257-11.207,5.3-13.334,8.8a20.5,20.5,0,0,0-3.51,10.222c-.351,4.7,1.475,12.437,2.844,15.245s2.914,6.706,8.32,9.444,11.9.491,8.672,1.685-7.513-.281-9.128-1.053a18.433,18.433,0,0,1-8.777-9.865c-2.528-6.355-3.194-10.427-2.879-15.519s1.931-7.934.176-5.336a36.442,36.442,0,0,0-6.6,18.449c-.469,9.119,4.023,16.155,5.736,18.549,1.927,2.691,5.886,6.987,10.29,8.638A20.543,20.543,0,0,0,423.991,145.874Zm-25.619-18.038a2.93,2.93,0,0,1,5.174-2.073c-.068.2-1.49-.656-3.019-.043S398.556,127.93,398.371,127.836Zm1.231,3.458a3.378,3.378,0,0,1,5.06-3.336c-.042.2-1.629-.223-3.126.763S399.806,131.334,399.6,131.294Z" transform="translate(-11547.646 -12989.141)" fill="#4192d0"/>
    <path id="Caminho_3425" data-name="Caminho 3425" d="M408.469,118.112c1.965,2.738,5.406,6.354,7.97,6.811s4.95-.633,7.2-.316,4.213.926,5.266,3.8-1.191,6.28-3.509,6.982-4.144.7-6.848-1.2-1.614-.913-1.509-.141a5.286,5.286,0,0,1-2.879,5.16,4.574,4.574,0,0,1-5.687-1.264,9.536,9.536,0,0,1-2.247-6.74c.175-3.16.835.007,2.176,1.193,2.423,2.142,5.353,3.9,8.154.689.27-.31,2.462.5,4.537.383a6.044,6.044,0,0,0,4.2-2.225c.272-.724-4.254-1.129-7.607-2.99a24.727,24.727,0,0,1-7.285-6.6A19.536,19.536,0,0,1,408.469,118.112Z" transform="translate(-11547.827 -12989.706)" fill="#fff"/>
    <path id="Caminho_3426" data-name="Caminho 3426" d="M351.294,84.627c-1.69-2.443-6.786-6.108-11.122-7.734-2.35-.881-2.959-.683-2.959-.683a6.875,6.875,0,0,0,.705,2.969c1.626,4.336,5.291,9.432,7.734,11.121a4.006,4.006,0,0,0,5.642-5.673Z" transform="translate(-11546.624 -12988.975)" fill="#4192d0"/>
  </g>
</svg>
