<svg xmlns="http://www.w3.org/2000/svg" width="111.408" height="111.409" viewBox="0 0 111.408 111.409">
  <g id="Grupo_4329" data-name="Grupo 4329" transform="translate(10569.796 12757.409)">
    <rect id="Retângulo_808" data-name="Retângulo 808" width="111.408" height="111.408" transform="translate(-10458.388 -12757.409) rotate(90)" fill="none"/>
    <g id="Grupo_4281" data-name="Grupo 4281" transform="translate(-10553.58 -12690.924)">
      <path id="Caminho_3213" data-name="Caminho 3213" d="M1065.1,340.921c.226-.612-.081-18.12.039-18.443a.681.681,0,0,0-1.041-.678c-.7.376-1.173.259-1.044,1.421.1.918.148,7.525.148,12.027,0,.227-1.768.693-2.036,2.168-.079.437-1.267.442-2.077,1.253a10.927,10.927,0,0,0-1.713,2.514c-3.284,0-7.423-.181-7.447-.376-.065-.536,0-7.364,0-8.461s.161-4.373.161-4.47.613-.129.774-.29a4.893,4.893,0,0,0,.225-1.484c0-.129-5.339-.322-5.5-.291s-.162-.419.193-.548.391-2.167-1.262-2.04c-1.416.109-1.505,1.911-1.151,2.04s.355.581.193.548-5.5.162-5.5.291a4.886,4.886,0,0,0,.225,1.484c.162.161.774.193.774.29s.161,3.373.161,4.47.066,7.924,0,8.461c-.024.2-4.163.376-7.447.376a10.851,10.851,0,0,0-1.713-2.514c-.811-.811-2-.816-2.077-1.253-.268-1.475-2.036-1.941-2.036-2.168,0-4.5.047-11.109.148-12.027.13-1.161-.348-1.044-1.044-1.421a.681.681,0,0,0-1.042.678c.121.322-.187,17.831.039,18.443s-.92,3.473-.242,3.732,16.477-.291,16.992-.291h7.547c.516,0,16.315.549,16.992.291S1064.878,341.534,1065.1,340.921Z" transform="translate(-1005.013 -302.332)" fill="#2e3e91"/>
      <path id="Caminho_3214" data-name="Caminho 3214" d="M1045,312.185a3.574,3.574,0,0,1,3.392,3.718c.057,2.017-.679,4.066-3.705,3.877s-4.005-2.216-3.775-3.792S1042.126,312.018,1045,312.185Z" transform="translate(-1005.315 -302.166)" fill="#2e3e91"/>
      <path id="Caminho_3215" data-name="Caminho 3215" d="M1021.714,311.71a2.244,2.244,0,0,1,2.13,2.336c.036,1.268-.426,2.554-2.328,2.436s-2.516-1.392-2.371-2.382A2.469,2.469,0,0,1,1021.714,311.71Z" transform="translate(-1004.935 -302.158)" fill="#d59d65"/>
      <path id="Caminho_3216" data-name="Caminho 3216" d="M1027.666,325.769c-.461.075-.266,1.426-.2,1.465s.493.144.48.2.014,6.765,0,6.883a.46.46,0,0,0,.279.458c.213.053,7.836.105,7.956.066s-.067-7.433,0-7.524.573-.1.586-.143-.08-1.073-.093-1.257S1027.745,325.755,1027.666,325.769Z" transform="translate(-1005.079 -302.403)" fill="#2e3e91"/>
      <path id="Caminho_3217" data-name="Caminho 3217" d="M1040.322,307.82c.8.163,1.873.685,1.6.951a11.823,11.823,0,0,1-2.595,1.943c-.406-.007-2.839-.032-3.175-.393C1035.669,309.8,1039.829,307.72,1040.322,307.82Z" transform="translate(-1005.231 -302.09)" fill="#2e3e91"/>
      <path id="Caminho_3218" data-name="Caminho 3218" d="M1036.086,310.983c-.818-.083-3.111,1.312-3.392,1.545s-1.219.672-.61.94a11.917,11.917,0,0,0,2.838.717,14.418,14.418,0,0,0,3.233-2.448C1038.237,311.581,1036.3,311,1036.086,310.983Z" transform="translate(-1005.158 -302.145)" fill="#2e3e91"/>
      <path id="Caminho_3219" data-name="Caminho 3219" d="M1026.256,317.314a20.537,20.537,0,0,0-3.82,2c-.339.28-1.469.808-.735,1.13a10.117,10.117,0,0,0,2.989.636,19.065,19.065,0,0,0,4.083-2.714A7.009,7.009,0,0,0,1026.256,317.314Z" transform="translate(-1004.976 -302.255)" fill="#2e3e91"/>
      <path id="Caminho_3220" data-name="Caminho 3220" d="M1030.919,314.168a17.913,17.913,0,0,0-3.7,2.141c-.335.424,2.595,1.038,3.045,1.066a14.167,14.167,0,0,0,3.395-2.3C1033.748,314.876,1031.309,314.113,1030.919,314.168Z" transform="translate(-1005.076 -302.2)" fill="#2e3e91"/>
      <path id="Caminho_3221" data-name="Caminho 3221" d="M1050.488,307.526c-.8.135-1.891.62-1.626.9a11.839,11.839,0,0,0,2.521,2.031c.406.007,2.834.066,3.181-.283C1055.061,309.669,1050.984,307.442,1050.488,307.526Z" transform="translate(-1005.453 -302.085)" fill="#2e3e91"/>
      <path id="Caminho_3222" data-name="Caminho 3222" d="M1054.6,310.833c.817-.054,3.058,1.419,3.33,1.661s1.194.713.577.96a11.836,11.836,0,0,1-2.856.619,14.415,14.415,0,0,1-3.14-2.558C1052.431,311.357,1054.379,310.848,1054.6,310.833Z" transform="translate(-1005.517 -302.142)" fill="#2e3e91"/>
      <path id="Caminho_3223" data-name="Caminho 3223" d="M1064.166,317.5a20.529,20.529,0,0,1,3.742,2.127c.328.291,1.438.858.695,1.155a10.071,10.071,0,0,1-3,.532,19.1,19.1,0,0,1-3.979-2.852A6.975,6.975,0,0,1,1064.166,317.5Z" transform="translate(-1005.676 -302.259)" fill="#2e3e91"/>
      <path id="Caminho_3224" data-name="Caminho 3224" d="M1059.638,314.195a17.906,17.906,0,0,1,3.614,2.268c.319.436-2.624.947-3.074.96a14.163,14.163,0,0,1-3.307-2.411C1056.792,314.805,1059.251,314.126,1059.638,314.195Z" transform="translate(-1005.593 -302.201)" fill="#2e3e91"/>
      <path id="Caminho_3225" data-name="Caminho 3225" d="M1031.712,327.309a11.931,11.931,0,0,1,0,2.657c-.117.391-2.315.181-2.765.1a5.887,5.887,0,0,1,.031-2.729A7.094,7.094,0,0,1,1031.712,327.309Z" transform="translate(-1005.104 -302.428)" fill="#4192d0"/>
      <path id="Caminho_3226" data-name="Caminho 3226" d="M1035.373,327.392a11.36,11.36,0,0,1,0,2.5c-.111.367-2.179.17-2.6.1a5.536,5.536,0,0,1,.03-2.568A6.674,6.674,0,0,1,1035.373,327.392Z" transform="translate(-1005.171 -302.429)" fill="#4192d0"/>
      <path id="Caminho_3227" data-name="Caminho 3227" d="M1031.8,331.059a11.967,11.967,0,0,1,0,2.656c-.117.391-2.315.182-2.765.1a5.878,5.878,0,0,1,.031-2.73A7.072,7.072,0,0,1,1031.8,331.059Z" transform="translate(-1005.105 -302.493)" fill="#4192d0"/>
      <path id="Caminho_3228" data-name="Caminho 3228" d="M1035.379,333.859a11.909,11.909,0,0,1-2.656,0c-.391-.117-.182-2.315-.1-2.765a5.879,5.879,0,0,1,2.73.031A7.094,7.094,0,0,1,1035.379,333.859Z" transform="translate(-1005.168 -302.493)" fill="#4192d0"/>
      <path id="Caminho_3229" data-name="Caminho 3229" d="M1049.337,305.87c-.328-.2-2.2-.966-2.029-1.176a1.865,1.865,0,0,0-.309-2,3.581,3.581,0,0,0-4.26,0,1.867,1.867,0,0,0-.308,2c.174.21-1.7.975-2.029,1.176a.473.473,0,0,0-.015.857,18.071,18.071,0,0,1,2.017,1.187c.32.271,1.045-.195,1.428-.552.243-.226.783-.858,1.018-.794.008,0,.014-.014.02-.021s.013.023.02.021c.235-.064.775.568,1.018.794.383.358,1.107.823,1.428.552a18.17,18.17,0,0,1,2.017-1.187A.473.473,0,0,0,1049.337,305.87Z" transform="translate(-1005.301 -301.988)" fill="#2e3e91"/>
      <path id="Caminho_3230" data-name="Caminho 3230" d="M1044.21,316.4a7.872,7.872,0,0,1,0,2.347,2.358,2.358,0,0,1-1.653-.7,2.049,2.049,0,0,1-.434-1.668A12.414,12.414,0,0,1,1044.21,316.4Z" transform="translate(-1005.335 -302.238)" fill="#4192d0"/>
      <path id="Caminho_3231" data-name="Caminho 3231" d="M1044.942,316.53a7.866,7.866,0,0,1,2.347,0,2.356,2.356,0,0,1-.7,1.653,2.044,2.044,0,0,1-1.668.433A12.406,12.406,0,0,1,1044.942,316.53Z" transform="translate(-1005.384 -302.24)" fill="#4192d0"/>
      <path id="Caminho_3232" data-name="Caminho 3232" d="M1045.07,315.779a7.876,7.876,0,0,1,0-2.347,2.355,2.355,0,0,1,1.653.7,2.047,2.047,0,0,1,.434,1.668A12.4,12.4,0,0,1,1045.07,315.779Z" transform="translate(-1005.386 -302.187)" fill="#4192d0"/>
      <path id="Caminho_3233" data-name="Caminho 3233" d="M1044.438,315.552a7.9,7.9,0,0,1-2.347,0,2.356,2.356,0,0,1,.7-1.653,2.046,2.046,0,0,1,1.667-.434A12.318,12.318,0,0,1,1044.438,315.552Z" transform="translate(-1005.335 -302.187)" fill="#4192d0"/>
      <path id="Caminho_3234" data-name="Caminho 3234" d="M1045.406,333.2c-1.451-.286-1.407,1.195-1.2,1.493a1.036,1.036,0,0,0,1.493.336C1046.263,334.631,1046.386,333.4,1045.406,333.2Z" transform="translate(-1005.371 -302.532)" fill="#fff"/>
      <path id="Caminho_3235" data-name="Caminho 3235" d="M1043.6,334.339c.1-.048.168.6.168.6a1.415,1.415,0,0,0-.4,1.087,1.746,1.746,0,0,0,1.522,1.269c.9-.035,1.823-.709,1.823-1.242a1.432,1.432,0,0,0-.361-.932c-.051-.076.283-.589.283-.589.088.019.6.47.534,1.521-.054.832-1.421,1.784-2.162,1.784a2.374,2.374,0,0,1-2.163-1.59A1.813,1.813,0,0,1,1043.6,334.339Z" transform="translate(-1005.349 -302.552)" fill="#fff"/>
      <g id="Grupo_4279" data-name="Grupo 4279" transform="translate(62.313 20.651)">
        <path id="Caminho_3236" data-name="Caminho 3236" d="M1084.64,341.565c.35-1.82,1.122-10.416-5.154-16.225-2.106-1.947-4.912-2.679-6.776-2.183a7.445,7.445,0,0,0-4.207,2.982,3.089,3.089,0,0,0,2.338,4.608c2.173.148,2.584-1.473,4.015-1.776a4.367,4.367,0,0,1,3.581.318c2.383,1.231,5.505,5.356,5.6,10.361C1084.055,340.647,1084.593,341.808,1084.64,341.565Z" transform="translate(-1068.102 -323.006)" fill="#2e3e91"/>
        <path id="Caminho_3237" data-name="Caminho 3237" d="M1079.749,328.1a6.52,6.52,0,0,0-5.035-3.4,5.4,5.4,0,0,0-4.611,1.542,1.77,1.77,0,0,0,1.794,2.94c1.685-.3,1.821-1.754,4.37-1.83C1077.572,327.313,1080.108,328.81,1079.749,328.1Z" transform="translate(-1068.128 -323.035)" fill="#d59d65"/>
        <path id="Caminho_3238" data-name="Caminho 3238" d="M1076.885,326.6c.142-.252-.03-.56-.25-.515s-.362.254-.248.408S1076.811,326.734,1076.885,326.6Z" transform="translate(-1068.246 -323.06)" fill="#fff"/>
        <path id="Caminho_3239" data-name="Caminho 3239" d="M1074.979,326.379a.439.439,0,0,0-.457-.614c-.4.078-.55.381-.441.628A.521.521,0,0,0,1074.979,326.379Z" transform="translate(-1068.206 -323.054)" fill="#fff"/>
        <path id="Caminho_3240" data-name="Caminho 3240" d="M1072.5,327.837a.851.851,0,0,0-.094-1.407.817.817,0,0,0-1.087.2.8.8,0,0,0-.014,1.147A.978.978,0,0,0,1072.5,327.837Z" transform="translate(-1068.154 -323.063)" fill="#fff"/>
      </g>
      <path id="Caminho_3241" data-name="Caminho 3241" d="M1027.147,343.819c-.369-.012.678-.869,1.178-1.178s1.1-.416,1.453-1c.365-.6.353-.786.353-.786a1.333,1.333,0,0,1,.135,1.226,5.125,5.125,0,0,1-.525.81,5.015,5.015,0,0,1,1.274-.3,4.88,4.88,0,0,1,1.738.929c.154.155-1.381-.142-2.084-.035S1027.516,343.831,1027.147,343.819Z" transform="translate(-1005.074 -302.666)" fill="#fff"/>
      <path id="Caminho_3242" data-name="Caminho 3242" d="M1026.083,342.259a7.055,7.055,0,0,0,1.357-1.833c.322-.751.731-1.042.922-1.065s-.427-.4-1.046.059c-.19.14-.383.586-.442.339a13.664,13.664,0,0,0-.231-1.7,3.463,3.463,0,0,0-.7-1.036l.012,5.251Z" transform="translate(-1005.054 -302.599)" fill="#fff"/>
      <path id="Caminho_3243" data-name="Caminho 3243" d="M1027.129,342.8c.483-.335,1.355-.742,1.813-1.076.559-.408.922-1.2.461-1.628s-1-.107-1.336.292a18.861,18.861,0,0,0-1.2,2.151C1026.73,342.8,1026.782,343.041,1027.129,342.8Zm1.339-2.435a.483.483,0,0,1,.807.286.674.674,0,0,1-.469.676C1028.376,341.477,1027.847,340.843,1028.468,340.366Z" transform="translate(-1005.069 -302.649)" fill="#d59d65"/>
      <path id="Caminho_3244" data-name="Caminho 3244" d="M1062.072,325.769c.461.075.267,1.426.2,1.465s-.493.144-.48.2-.014,6.765,0,6.883a.46.46,0,0,1-.279.458c-.213.053-7.835.105-7.955.066s.066-7.433,0-7.524-.574-.1-.586-.143.079-1.073.093-1.257S1061.993,325.755,1062.072,325.769Z" transform="translate(-1005.526 -302.403)" fill="#2e3e91"/>
      <path id="Caminho_3245" data-name="Caminho 3245" d="M1058.14,327.309a11.924,11.924,0,0,0,0,2.657c.117.391,2.315.181,2.765.1a5.873,5.873,0,0,0-.031-2.729A7.094,7.094,0,0,0,1058.14,327.309Z" transform="translate(-1005.614 -302.428)" fill="#4192d0"/>
      <path id="Caminho_3246" data-name="Caminho 3246" d="M1054.483,327.392a11.226,11.226,0,0,0,0,2.5c.11.367,2.178.17,2.6.1a5.55,5.55,0,0,0-.03-2.568A6.669,6.669,0,0,0,1054.483,327.392Z" transform="translate(-1005.551 -302.429)" fill="#4192d0"/>
      <path id="Caminho_3247" data-name="Caminho 3247" d="M1058.054,331.059a12.026,12.026,0,0,0,0,2.656c.117.391,2.315.182,2.766.1a5.893,5.893,0,0,0-.032-2.73A7.072,7.072,0,0,0,1058.054,331.059Z" transform="translate(-1005.613 -302.493)" fill="#4192d0"/>
      <path id="Caminho_3248" data-name="Caminho 3248" d="M1054.473,333.859a11.91,11.91,0,0,0,2.656,0c.391-.117.182-2.315.1-2.765a5.875,5.875,0,0,0-2.729.031A7.077,7.077,0,0,0,1054.473,333.859Z" transform="translate(-1005.549 -302.493)" fill="#4192d0"/>
      <path id="Caminho_3249" data-name="Caminho 3249" d="M1067.715,340.875c.081.93.37,3.835.828,3.964s4.114.094,5.648.094h7.439c.8,0,1.319-1.609,1.448-2.032s-.021-2.355-.687-2.355-.295.837-.77,1.224-5.5.97-6.077.966.878-1.1,1.137-1.74,1.89-3.723-.493-5.757-4.377-1.586-6.176-.338C1068.387,336.152,1067.441,337.73,1067.715,340.875Z" transform="translate(-1005.782 -302.544)" fill="#2e3e91"/>
      <path id="Caminho_3250" data-name="Caminho 3250" d="M1072.5,339.156a1.429,1.429,0,0,0,2.5-.606,2.039,2.039,0,0,0-1.529-2.259c-1.3-.349-3.181,1.024-3.557,2.7a3.846,3.846,0,0,0,.807,3.265c.878.891,2.927.851,3.856.648.653-.142,1.011-.1,1.189-.3.13-.145,1.333-2.266.951-1.569-.7,1.281-3.675,1.523-4.61,1.05a2.607,2.607,0,0,1-1.55-2.172,2.812,2.812,0,0,1,.875-2.14,3.553,3.553,0,0,1,1.5-.7.7.7,0,0,1,.6.4c.021.061-.75.046-.852.151A1.251,1.251,0,0,0,1072.5,339.156Z" transform="translate(-1005.819 -302.585)" fill="#4192d0"/>
      <g id="Grupo_4280" data-name="Grupo 4280" transform="translate(0 20.651)">
        <path id="Caminho_3251" data-name="Caminho 3251" d="M1004.912,341.565c-.349-1.82-1.121-10.416,5.154-16.225,2.1-1.947,4.911-2.679,6.776-2.183a7.442,7.442,0,0,1,4.206,2.982,3.089,3.089,0,0,1-2.336,4.608c-2.173.148-2.585-1.473-4.016-1.776a4.365,4.365,0,0,0-3.579.318c-2.384,1.231-5.505,5.356-5.6,10.361C1005.5,340.647,1004.959,341.808,1004.912,341.565Z" transform="translate(-1004.683 -323.006)" fill="#2e3e91"/>
        <path id="Caminho_3252" data-name="Caminho 3252" d="M1009.92,328.1a6.52,6.52,0,0,1,5.035-3.4,5.4,5.4,0,0,1,4.611,1.542,1.77,1.77,0,0,1-1.794,2.94c-1.685-.3-1.821-1.754-4.37-1.83C1012.1,327.313,1009.561,328.81,1009.92,328.1Z" transform="translate(-1004.774 -323.035)" fill="#d59d65"/>
        <path id="Caminho_3253" data-name="Caminho 3253" d="M1012.954,326.6c-.143-.252.029-.56.25-.515s.363.254.249.408S1013.028,326.734,1012.954,326.6Z" transform="translate(-1004.827 -323.06)" fill="#fff"/>
        <path id="Caminho_3254" data-name="Caminho 3254" d="M1014.852,326.379a.439.439,0,0,1,.458-.614c.4.078.55.381.441.628A.522.522,0,0,1,1014.852,326.379Z" transform="translate(-1004.86 -323.054)" fill="#fff"/>
        <path id="Caminho_3255" data-name="Caminho 3255" d="M1017.315,327.837a.851.851,0,0,1,.093-1.407.817.817,0,0,1,1.087.2.8.8,0,0,1,.014,1.147A.978.978,0,0,1,1017.315,327.837Z" transform="translate(-1004.898 -323.063)" fill="#fff"/>
      </g>
      <path id="Caminho_3256" data-name="Caminho 3256" d="M1021.861,340.875c-.081.93-.369,3.835-.829,3.964s-4.114.094-5.648.094h-7.438c-.8,0-1.32-1.609-1.448-2.032s.02-2.355.686-2.355.3.837.77,1.224,5.5.97,6.078.966-.879-1.1-1.137-1.74-1.889-3.723.493-5.757,4.376-1.586,6.176-.338C1021.188,336.152,1022.134,337.73,1021.861,340.875Z" transform="translate(-1004.714 -302.544)" fill="#2e3e91"/>
      <path id="Caminho_3257" data-name="Caminho 3257" d="M1017.225,339.156a1.428,1.428,0,0,1-2.5-.606,2.039,2.039,0,0,1,1.528-2.259c1.3-.349,3.181,1.024,3.557,2.7a3.843,3.843,0,0,1-.806,3.265c-.879.891-2.928.851-3.858.648-.653-.142-1.011-.1-1.189-.3-.129-.145-1.333-2.266-.95-1.569.7,1.281,3.675,1.523,4.609,1.05a2.607,2.607,0,0,0,1.55-2.172,2.813,2.813,0,0,0-.876-2.14,3.55,3.55,0,0,0-1.5-.7.7.7,0,0,0-.6.4c-.021.061.749.046.851.151A1.25,1.25,0,0,1,1017.225,339.156Z" transform="translate(-1004.827 -302.585)" fill="#4192d0"/>
      <path id="Caminho_3258" data-name="Caminho 3258" d="M1062.657,343.819c.37-.012-.678-.869-1.178-1.178s-1.1-.416-1.453-1c-.365-.6-.353-.786-.353-.786a1.33,1.33,0,0,0-.135,1.226,5.086,5.086,0,0,0,.524.81,5.013,5.013,0,0,0-1.274-.3,4.877,4.877,0,0,0-1.738.929c-.154.155,1.381-.142,2.084-.035S1062.289,343.831,1062.657,343.819Z" transform="translate(-1005.596 -302.666)" fill="#fff"/>
      <path id="Caminho_3259" data-name="Caminho 3259" d="M1063.778,342.259a7.055,7.055,0,0,1-1.357-1.833c-.322-.751-.731-1.042-.922-1.065s.427-.4,1.046.059c.189.14.382.586.441.339a13.511,13.511,0,0,1,.232-1.7,3.451,3.451,0,0,1,.7-1.036l-.012,5.251Z" transform="translate(-1005.674 -302.599)" fill="#fff"/>
      <path id="Caminho_3260" data-name="Caminho 3260" d="M1062.987,342.539a18.861,18.861,0,0,0-1.2-2.151c-.338-.4-.875-.721-1.336-.292s-.1,1.22.461,1.628c.458.334,1.329.741,1.813,1.076C1063.073,343.041,1063.125,342.8,1062.987,342.539Zm-1.939-1.212a.675.675,0,0,1-.468-.676.482.482,0,0,1,.806-.286C1062.008,340.843,1061.479,341.477,1061.049,341.328Z" transform="translate(-1005.652 -302.649)" fill="#d59d65"/>
      <path id="Caminho_3261" data-name="Caminho 3261" d="M1089.166,343.495a10.548,10.548,0,0,1,3.733-.114c1.73.091,2.675.695,2.959,1.138s.018.267.546.41c.363.1.307.1.66-.2s.08-.626-.114-.819-.717-1.013-.99-1.355a.393.393,0,1,1,.446-.446c.342.273,1.161.8,1.355.99s.512.467.819.114.3-.3.2-.66c-.142-.528.034-.261-.41-.546s-1.047-1.229-1.138-2.959a10.548,10.548,0,0,1,.114-3.733c.3-.591,1.389-1.3,1.65-1.832a1.979,1.979,0,0,0,.171-1.013,8.926,8.926,0,0,0-2.356.24c-.876.239-2.253,1.024-2.492,1.786a15.736,15.736,0,0,0-.387,1.935c-.034.126.045.683-.205-.137s-.524-1.456-1.013-1.491-2.685-.273-3.335-.375a7.713,7.713,0,0,0-1.294-.2l-.008,0v0h0l0,.008a7.631,7.631,0,0,0,.2,1.3c.1.648.341,2.844.375,3.334s.671.763,1.49,1.013.262.171.137.205a15.946,15.946,0,0,0-1.935.387c-.762.239-1.548,1.615-1.787,2.493a8.946,8.946,0,0,0-.239,2.355,1.979,1.979,0,0,0,1.013-.171C1087.868,344.883,1088.575,343.791,1089.166,343.495Z" transform="translate(-1006.107 -302.519)" fill="#2e3e91"/>
    </g>
    <path id="Caminho_3262" data-name="Caminho 3262" d="M1035.62,306.891c-.443-.027-.346-.485-.218-.867s.491-.853,1.775-1.377a6.31,6.31,0,0,0,2.915-3.061,4.12,4.12,0,0,0-.321-2.5,13.82,13.82,0,0,1-2.38,1.187,4.942,4.942,0,0,1-2.083.146l-.032-.032a4.942,4.942,0,0,1,.146-2.083,13.866,13.866,0,0,1,1.187-2.38,4.12,4.12,0,0,0-2.5-.321,6.315,6.315,0,0,0-3.061,2.915c-.524,1.283-1,1.646-1.377,1.775s-.84.225-.867-.218-.432.216-.311.708,1.215.845,1.834.768.618-.076-.924,1.068-4.8,7.8-4.9,8.536l0,0c0,.01.007.012.011.017s.007.012.017.011l0,0c.732-.1,7.391-3.357,8.536-4.9s1.145-1.543,1.068-.925.276,1.713.768,1.834S1036.064,306.918,1035.62,306.891Z" transform="translate(-11558.609 -12992.8)" fill="#2e3e91"/>
    <path id="Caminho_3263" data-name="Caminho 3263" d="M1035.992,304.589c.509-.458,1.184-.776,1.656-1.2a1.829,1.829,0,0,0,.471-1.745s-1.744.216-2.344.28-.741-1.031-.741-1.031l-.145-.145s-1.095-.142-1.031-.741.28-2.343.28-2.343a1.828,1.828,0,0,0-1.745.472c-.42.471-.738,1.146-1.2,1.656s-.688.611-.764.586a.475.475,0,0,0,.523.064,12.206,12.206,0,0,0,1.717-1.029c.308-.334.737-.747.847-.738s-.1,1.059-.21,1.375a7.314,7.314,0,0,1-.749,1.945,30.358,30.358,0,0,0-2.254,2.1,44.9,44.9,0,0,0-2.7,3.867,2.612,2.612,0,0,1-.167.364l.022.022a2.657,2.657,0,0,1,.364-.166,45.118,45.118,0,0,0,3.867-2.7,30.537,30.537,0,0,0,2.1-2.255,7.279,7.279,0,0,1,1.945-.748c.316-.112,1.366-.322,1.375-.211s-.4.538-.738.848a11.972,11.972,0,0,0-1.028,1.717.47.47,0,0,0,.063.522C1035.38,305.277,1035.482,305.048,1035.992,304.589Z" transform="translate(-11558.66 -12992.836)" fill="#4192d0"/>
    <path id="Caminho_3264" data-name="Caminho 3264" d="M1054.076,274.809c.444.026.347.485.218.867s-.491.853-1.774,1.377a6.313,6.313,0,0,0-2.916,3.061,4.121,4.121,0,0,0,.321,2.5,13.856,13.856,0,0,1,2.38-1.187,4.942,4.942,0,0,1,2.083-.146l.033.032a4.951,4.951,0,0,1-.147,2.083,13.86,13.86,0,0,1-1.187,2.38,4.122,4.122,0,0,0,2.5.321,6.314,6.314,0,0,0,3.06-2.915c.524-1.283,1-1.646,1.377-1.775s.84-.225.867.218.432-.216.311-.708-1.215-.845-1.833-.768-.619.077.924-1.068,4.8-7.8,4.9-8.536l0,0c0-.01-.006-.012-.011-.017s-.007-.012-.017-.011l0,0c-.732.1-7.39,3.357-8.534,4.9s-1.145,1.542-1.069.924-.276-1.713-.768-1.834S1053.633,274.782,1054.076,274.809Z" transform="translate(-11559.046 -12992.363)" fill="#2e3e91"/>
    <path id="Caminho_3265" data-name="Caminho 3265" d="M1053.792,277.2c-.51.458-1.185.777-1.656,1.2a1.83,1.83,0,0,0-.472,1.745s1.745-.216,2.343-.28.742,1.031.742,1.031l.144.145s1.094.142,1.031.741-.28,2.343-.28,2.343a1.83,1.83,0,0,0,1.745-.471c.421-.472.739-1.147,1.2-1.657s.688-.611.764-.586a.472.472,0,0,0-.522-.064,12.1,12.1,0,0,0-1.716,1.029c-.309.334-.737.747-.848.738s.1-1.059.211-1.375a7.276,7.276,0,0,1,.748-1.945,30.544,30.544,0,0,0,2.255-2.1,45.145,45.145,0,0,0,2.7-3.867,2.5,2.5,0,0,1,.167-.364l-.023-.022a2.6,2.6,0,0,1-.364.166,45.082,45.082,0,0,0-3.867,2.7,30.325,30.325,0,0,0-2.1,2.254,7.314,7.314,0,0,1-1.946.749c-.315.111-1.366.321-1.375.21s.4-.538.738-.847a12.182,12.182,0,0,0,1.029-1.717.473.473,0,0,0-.064-.523C1054.4,276.51,1054.3,276.739,1053.792,277.2Z" transform="translate(-11559.082 -12992.414)" fill="#4192d0"/>
    <path id="Caminho_3266" data-name="Caminho 3266" d="M1028.807,281.622c.026-.443.485-.346.867-.218s.853.491,1.377,1.775a6.315,6.315,0,0,0,3.061,2.915,4.12,4.12,0,0,0,2.5-.321,13.867,13.867,0,0,1-1.187-2.38,4.942,4.942,0,0,1-.146-2.083l.032-.032a4.942,4.942,0,0,1,2.083.146,13.822,13.822,0,0,1,2.38,1.187,4.12,4.12,0,0,0,.321-2.5,6.31,6.31,0,0,0-2.915-3.061c-1.283-.524-1.646-1-1.775-1.377s-.225-.84.218-.867-.215-.432-.708-.311-.845,1.215-.768,1.834.077.618-1.068-.924-7.8-4.8-8.536-4.9l0,0c-.01,0-.012.006-.017.011s-.012.007-.011.017l0,0c.1.732,3.357,7.391,4.9,8.536s1.542,1.145.924,1.068-1.713.276-1.834.768S1028.78,282.065,1028.807,281.622Z" transform="translate(-11558.609 -12992.363)" fill="#2e3e91"/>
    <path id="Caminho_3267" data-name="Caminho 3267" d="M1031.2,281.993c.459.51.777,1.185,1.2,1.657a1.83,1.83,0,0,0,1.745.471s-.216-1.745-.28-2.343,1.031-.741,1.031-.741l.145-.145s.142-1.095.741-1.031,2.344.28,2.344.28a1.829,1.829,0,0,0-.471-1.745c-.472-.42-1.147-.739-1.656-1.2s-.612-.688-.587-.764a.472.472,0,0,0-.063.523,12.078,12.078,0,0,0,1.028,1.717c.334.309.747.737.738.847s-1.059-.1-1.375-.21a7.315,7.315,0,0,1-1.945-.749,30.351,30.351,0,0,0-2.1-2.254,44.929,44.929,0,0,0-3.867-2.7,2.657,2.657,0,0,1-.364-.166l-.022.022a2.612,2.612,0,0,1,.167.364,44.9,44.9,0,0,0,2.7,3.867,30.358,30.358,0,0,0,2.254,2.1,7.313,7.313,0,0,1,.749,1.945c.111.315.321,1.366.21,1.375s-.538-.4-.847-.738a12.206,12.206,0,0,0-1.717-1.029.475.475,0,0,0-.523.064C1030.508,281.382,1030.737,281.484,1031.2,281.993Z" transform="translate(-11558.66 -12992.414)" fill="#4192d0"/>
    <path id="Caminho_3268" data-name="Caminho 3268" d="M1060.89,300.078c-.026.443-.485.346-.867.218s-.853-.491-1.377-1.775a6.314,6.314,0,0,0-3.06-2.915,4.122,4.122,0,0,0-2.5.321,13.859,13.859,0,0,1,1.187,2.38,4.951,4.951,0,0,1,.147,2.083l-.033.032a4.942,4.942,0,0,1-2.083-.146,13.855,13.855,0,0,1-2.38-1.187,4.121,4.121,0,0,0-.321,2.5,6.313,6.313,0,0,0,2.916,3.061c1.282.524,1.645,1,1.774,1.377s.226.84-.218.867.216.432.708.31.845-1.215.768-1.834-.076-.618,1.069.925,7.8,4.8,8.534,4.9l0,0c.01,0,.012-.007.017-.011s.012-.007.011-.017l0,0c-.1-.732-3.357-7.391-4.9-8.536s-1.543-1.144-.924-1.068,1.712-.276,1.833-.768S1060.916,299.635,1060.89,300.078Z" transform="translate(-11559.046 -12992.8)" fill="#2e3e91"/>
    <path id="Caminho_3269" data-name="Caminho 3269" d="M1058.587,299.794c-.458-.51-.776-1.185-1.2-1.656a1.828,1.828,0,0,0-1.745-.472s.216,1.745.28,2.343-1.031.741-1.031.741l-.144.145s-.144,1.095-.742,1.031-2.343-.28-2.343-.28a1.83,1.83,0,0,0,.472,1.745c.471.421,1.146.739,1.656,1.2s.611.688.586.764a.472.472,0,0,0,.064-.522,12.074,12.074,0,0,0-1.029-1.717c-.334-.31-.747-.737-.738-.848s1.059.1,1.375.211a7.278,7.278,0,0,1,1.946.748,30.51,30.51,0,0,0,2.1,2.255,45.272,45.272,0,0,0,3.867,2.7,2.6,2.6,0,0,1,.364.166l.023-.022a2.5,2.5,0,0,1-.167-.364,45.145,45.145,0,0,0-2.7-3.867,30.544,30.544,0,0,0-2.255-2.1,7.277,7.277,0,0,1-.748-1.945c-.112-.315-.322-1.366-.211-1.375s.539.4.848.738a12.1,12.1,0,0,0,1.716,1.029.472.472,0,0,0,.522-.064C1059.275,300.405,1059.046,300.3,1058.587,299.794Z" transform="translate(-11559.082 -12992.836)" fill="#4192d0"/>
    <g id="Grupo_4284" data-name="Grupo 4284" transform="translate(-10503.312 -12755.288)">
      <path id="Caminho_3270" data-name="Caminho 3270" d="M1094.778,270.04c-.612-.226-18.12.082-18.443-.039a.681.681,0,0,0-.678,1.042c.376.7.259,1.173,1.42,1.044.919-.1,7.526-.148,12.027-.148.227,0,.693,1.768,2.168,2.036.436.079.442,1.267,1.252,2.077a10.907,10.907,0,0,0,2.515,1.713c0,3.284-.181,7.423-.376,7.447-.536.066-7.364,0-8.461,0s-4.373-.161-4.47-.161-.13-.613-.291-.774a4.879,4.879,0,0,0-1.483-.225c-.13,0-.323,5.339-.291,5.5s-.419.162-.548-.193-2.167-.391-2.04,1.263c.109,1.415,1.911,1.5,2.04,1.15s.581-.355.548-.194.161,5.5.291,5.5a4.879,4.879,0,0,0,1.483-.225c.161-.162.194-.774.291-.774s3.373-.161,4.47-.161,7.924-.066,8.461,0c.2.024.376,4.163.376,7.447a10.869,10.869,0,0,0-2.515,1.713c-.81.811-.815,2-1.252,2.077-1.475.268-1.941,2.036-2.168,2.036-4.5,0-11.109-.047-12.027-.148-1.16-.13-1.043.348-1.42,1.044a.681.681,0,0,0,.678,1.042c.322-.121,17.83.187,18.443-.039s3.473.92,3.732.242-.291-16.477-.291-16.992v-7.547c0-.516.548-16.315.291-16.993S1095.391,270.266,1094.778,270.04Z" transform="translate(-1056.188 -237.059)" fill="#2e3e91"/>
      <path id="Caminho_3271" data-name="Caminho 3271" d="M1066.042,290.757a3.574,3.574,0,0,1,3.718-3.392c2.017-.057,4.065.679,3.876,3.705s-2.215,4-3.791,3.775S1065.875,293.63,1066.042,290.757Z" transform="translate(-1056.022 -237.369)" fill="#2e3e91"/>
      <path id="Caminho_3272" data-name="Caminho 3272" d="M1065.567,314.091a2.245,2.245,0,0,1,2.336-2.13c1.267-.036,2.554.426,2.435,2.328s-1.391,2.516-2.382,2.372A2.47,2.47,0,0,1,1065.567,314.091Z" transform="translate(-1056.014 -237.798)" fill="#d59d65"/>
      <path id="Caminho_3273" data-name="Caminho 3273" d="M1079.626,308.056c.075.461,1.426.266,1.465.2s.145-.493.2-.48,6.765-.014,6.883,0a.461.461,0,0,0,.458-.279c.053-.213.105-7.836.066-7.956s-7.433.067-7.524,0-.1-.573-.143-.586-1.074.08-1.257.093S1079.612,307.977,1079.626,308.056Z" transform="translate(-1056.259 -237.572)" fill="#2e3e91"/>
      <path id="Caminho_3274" data-name="Caminho 3274" d="M1061.677,295.463c.162-.8.685-1.873.951-1.6a11.845,11.845,0,0,1,1.942,2.595c-.007.406-.032,2.84-.394,3.175C1063.661,300.116,1061.577,295.956,1061.677,295.463Z" transform="translate(-1055.946 -237.482)" fill="#2e3e91"/>
      <path id="Caminho_3275" data-name="Caminho 3275" d="M1064.84,299.691c-.083.817,1.312,3.111,1.545,3.393s.672,1.218.939.609a11.88,11.88,0,0,0,.718-2.838,14.42,14.42,0,0,0-2.448-3.233C1065.438,297.54,1064.862,299.473,1064.84,299.691Z" transform="translate(-1056.001 -237.548)" fill="#2e3e91"/>
      <path id="Caminho_3276" data-name="Caminho 3276" d="M1071.17,309.5a20.586,20.586,0,0,0,2,3.82c.28.339.808,1.469,1.13.735a10.067,10.067,0,0,0,.635-2.989,19.072,19.072,0,0,0-2.713-4.083A7.021,7.021,0,0,0,1071.17,309.5Z" transform="translate(-1056.111 -237.712)" fill="#2e3e91"/>
      <path id="Caminho_3277" data-name="Caminho 3277" d="M1068.024,304.855a17.953,17.953,0,0,0,2.142,3.7c.424.335,1.038-2.595,1.065-3.045a14.181,14.181,0,0,0-2.294-3.395C1068.733,302.027,1067.97,304.465,1068.024,304.855Z" transform="translate(-1056.057 -237.627)" fill="#2e3e91"/>
      <path id="Caminho_3278" data-name="Caminho 3278" d="M1061.382,285.3c.136.8.62,1.891.9,1.626a11.837,11.837,0,0,0,2.031-2.521c.007-.406.066-2.834-.284-3.181C1063.526,280.725,1061.3,284.8,1061.382,285.3Z" transform="translate(-1055.941 -237.262)" fill="#2e3e91"/>
      <path id="Caminho_3279" data-name="Caminho 3279" d="M1064.69,281.182c-.054-.818,1.419-3.058,1.661-3.33s.713-1.194.96-.577a11.879,11.879,0,0,1,.619,2.856,14.39,14.39,0,0,1-2.558,3.14C1065.214,283.348,1064.7,281.4,1064.69,281.182Z" transform="translate(-1055.998 -237.19)" fill="#2e3e91"/>
      <path id="Caminho_3280" data-name="Caminho 3280" d="M1071.356,271.595a20.593,20.593,0,0,1,2.126-3.742c.292-.328.859-1.437,1.156-.694a10.06,10.06,0,0,1,.532,3,19.094,19.094,0,0,1-2.852,3.979A6.972,6.972,0,0,1,1071.356,271.595Z" transform="translate(-1056.115 -237.013)" fill="#2e3e91"/>
      <path id="Caminho_3281" data-name="Caminho 3281" d="M1068.051,276.137a17.906,17.906,0,0,1,2.269-3.614c.435-.319.947,2.623.959,3.074a14.169,14.169,0,0,1-2.41,3.307C1068.662,278.983,1067.983,276.525,1068.051,276.137Z" transform="translate(-1056.057 -237.11)" fill="#2e3e91"/>
      <path id="Caminho_3282" data-name="Caminho 3282" d="M1081.166,304.124a11.92,11.92,0,0,1,2.657,0c.39.117.181,2.315.1,2.765a5.888,5.888,0,0,1-2.729-.031A7.1,7.1,0,0,1,1081.166,304.124Z" transform="translate(-1056.284 -237.66)" fill="#4192d0"/>
      <path id="Caminho_3283" data-name="Caminho 3283" d="M1081.249,300.467a11.233,11.233,0,0,1,2.5,0c.368.11.17,2.178.1,2.6a5.549,5.549,0,0,1-2.568-.03A6.668,6.668,0,0,1,1081.249,300.467Z" transform="translate(-1056.285 -237.597)" fill="#4192d0"/>
      <path id="Caminho_3284" data-name="Caminho 3284" d="M1084.915,304.038a11.979,11.979,0,0,1,2.657,0c.391.117.181,2.315.1,2.765a5.874,5.874,0,0,1-2.729-.031A7.1,7.1,0,0,1,1084.915,304.038Z" transform="translate(-1056.349 -237.659)" fill="#4192d0"/>
      <path id="Caminho_3285" data-name="Caminho 3285" d="M1087.716,300.457a12.026,12.026,0,0,1,0,2.656c-.117.391-2.315.182-2.766.1a5.893,5.893,0,0,1,.032-2.73A7.093,7.093,0,0,1,1087.716,300.457Z" transform="translate(-1056.349 -237.596)" fill="#4192d0"/>
      <path id="Caminho_3286" data-name="Caminho 3286" d="M1059.727,286.383c-.2.328-.966,2.2-1.176,2.029a1.867,1.867,0,0,0-2,.309,3.58,3.58,0,0,0,0,4.26,1.869,1.869,0,0,0,2,.309c.21-.174.975,1.7,1.176,2.029a.472.472,0,0,0,.856.015,18.4,18.4,0,0,1,1.187-2.017c.272-.32-.194-1.044-.551-1.428-.226-.243-.858-.783-.795-1.018,0-.007-.013-.013-.02-.02s.022-.013.02-.02c-.063-.235.569-.775.795-1.018.358-.383.823-1.107.551-1.428a18.492,18.492,0,0,1-1.187-2.017A.472.472,0,0,0,1059.727,286.383Z" transform="translate(-1055.844 -237.347)" fill="#2e3e91"/>
      <path id="Caminho_3287" data-name="Caminho 3287" d="M1070.259,291.639a7.871,7.871,0,0,1,2.347,0,2.358,2.358,0,0,1-.7,1.653,2.049,2.049,0,0,1-1.668.434A12.409,12.409,0,0,1,1070.259,291.639Z" transform="translate(-1056.094 -237.442)" fill="#4192d0"/>
      <path id="Caminho_3288" data-name="Caminho 3288" d="M1070.387,290.9a7.87,7.87,0,0,1,0-2.347,2.36,2.36,0,0,1,1.653.7,2.047,2.047,0,0,1,.433,1.668A12.409,12.409,0,0,1,1070.387,290.9Z" transform="translate(-1056.096 -237.39)" fill="#4192d0"/>
      <path id="Caminho_3289" data-name="Caminho 3289" d="M1069.636,290.779a7.871,7.871,0,0,1-2.347,0,2.356,2.356,0,0,1,.7-1.653,2.046,2.046,0,0,1,1.667-.434A12.307,12.307,0,0,1,1069.636,290.779Z" transform="translate(-1056.043 -237.392)" fill="#4192d0"/>
      <path id="Caminho_3290" data-name="Caminho 3290" d="M1069.408,291.408a7.868,7.868,0,0,1,0,2.347,2.356,2.356,0,0,1-1.653-.7,2.047,2.047,0,0,1-.434-1.667A12.414,12.414,0,0,1,1069.408,291.408Z" transform="translate(-1056.043 -237.439)" fill="#4192d0"/>
      <path id="Caminho_3291" data-name="Caminho 3291" d="M1087.061,290.447c-.286,1.451,1.195,1.407,1.493,1.2a1.036,1.036,0,0,0,.336-1.494C1088.488,289.59,1087.254,289.466,1087.061,290.447Z" transform="translate(-1056.388 -237.41)" fill="#fff"/>
      <path id="Caminho_3292" data-name="Caminho 3292" d="M1088.2,292.215c-.048-.1.6-.168.6-.168a1.414,1.414,0,0,0,1.087.4,1.745,1.745,0,0,0,1.27-1.522c-.035-.9-.709-1.823-1.242-1.823a1.431,1.431,0,0,0-.932.361c-.076.051-.589-.283-.589-.283.019-.088.47-.6,1.521-.533.832.053,1.784,1.42,1.784,2.161a2.376,2.376,0,0,1-1.59,2.163A1.812,1.812,0,0,1,1088.2,292.215Z" transform="translate(-1056.408 -237.392)" fill="#fff"/>
      <g id="Grupo_4282" data-name="Grupo 4282" transform="translate(20.652 13.992)">
        <path id="Caminho_3293" data-name="Caminho 3293" d="M1095.422,250.952c-1.82-.35-10.416-1.122-16.225,5.155-1.948,2.1-2.679,4.911-2.183,6.775a7.444,7.444,0,0,0,2.982,4.207,3.089,3.089,0,0,0,4.608-2.337c.148-2.174-1.474-2.585-1.776-4.016a4.367,4.367,0,0,1,.318-3.58c1.231-2.383,5.356-5.505,10.361-5.6C1094.5,251.537,1095.665,251,1095.422,250.952Z" transform="translate(-1076.863 -250.723)" fill="#2e3e91"/>
        <path id="Caminho_3294" data-name="Caminho 3294" d="M1081.961,255.959a6.522,6.522,0,0,0-3.4,5.035,5.4,5.4,0,0,0,1.541,4.611,1.771,1.771,0,0,0,2.941-1.794c-.3-1.685-1.754-1.821-1.83-4.37C1081.17,258.137,1082.667,255.6,1081.961,255.959Z" transform="translate(-1076.892 -250.813)" fill="#d59d65"/>
        <path id="Caminho_3295" data-name="Caminho 3295" d="M1080.462,258.994c-.251-.142-.56.029-.515.25s.255.362.408.248S1080.592,259.068,1080.462,258.994Z" transform="translate(-1076.917 -250.866)" fill="#fff"/>
        <path id="Caminho_3296" data-name="Caminho 3296" d="M1080.236,260.892a.438.438,0,0,0-.614.457c.078.4.38.55.628.441A.521.521,0,0,0,1080.236,260.892Z" transform="translate(-1076.911 -250.899)" fill="#fff"/>
        <path id="Caminho_3297" data-name="Caminho 3297" d="M1081.693,263.354a.851.851,0,0,0-1.407.094.816.816,0,0,0,.2,1.086.8.8,0,0,0,1.147.014A.979.979,0,0,0,1081.693,263.354Z" transform="translate(-1076.92 -250.937)" fill="#fff"/>
      </g>
      <path id="Caminho_3298" data-name="Caminho 3298" d="M1097.676,308.641c-.012.369-.869-.679-1.179-1.178s-.415-1.1-1-1.453c-.6-.366-.787-.354-.787-.354a1.334,1.334,0,0,1,1.227-.134,5.166,5.166,0,0,1,.81.524,5,5,0,0,1-.3-1.274,4.87,4.87,0,0,1,.929-1.738c.155-.154-.142,1.382-.035,2.084S1097.688,308.273,1097.676,308.641Z" transform="translate(-1056.522 -237.642)" fill="#fff"/>
      <path id="Caminho_3299" data-name="Caminho 3299" d="M1096.115,309.762a7.019,7.019,0,0,0-1.833-1.357c-.75-.322-1.041-.731-1.064-.922s-.4.427.059,1.045c.14.19.586.383.338.442a13.691,13.691,0,0,0-1.7.231,3.463,3.463,0,0,0-1.036.7l5.25-.012Z" transform="translate(-1056.455 -237.72)" fill="#fff"/>
      <path id="Caminho_3300" data-name="Caminho 3300" d="M1096.657,308.71c-.336-.483-.742-1.355-1.076-1.813-.408-.559-1.2-.922-1.628-.461s-.107,1,.292,1.336a18.863,18.863,0,0,0,2.151,1.2C1096.657,309.109,1096.9,309.057,1096.657,308.71Zm-2.435-1.339a.482.482,0,0,1,.286-.806.673.673,0,0,1,.676.468C1095.334,307.463,1094.7,307.992,1094.223,307.371Z" transform="translate(-1056.505 -237.698)" fill="#d59d65"/>
      <path id="Caminho_3301" data-name="Caminho 3301" d="M1079.626,273.65c.075-.461,1.426-.267,1.465-.2s.145.493.2.48,6.765.014,6.883,0a.46.46,0,0,1,.458.279c.053.213.105,7.836.066,7.955s-7.433-.066-7.524,0-.1.574-.143.587-1.074-.08-1.257-.093S1079.612,273.729,1079.626,273.65Z" transform="translate(-1056.259 -237.125)" fill="#2e3e91"/>
      <path id="Caminho_3302" data-name="Caminho 3302" d="M1081.166,277.7a11.917,11.917,0,0,0,2.657,0c.39-.117.181-2.315.1-2.765a5.888,5.888,0,0,0-2.729.031A7.1,7.1,0,0,0,1081.166,277.7Z" transform="translate(-1056.284 -237.15)" fill="#4192d0"/>
      <path id="Caminho_3303" data-name="Caminho 3303" d="M1081.249,281.356a11.229,11.229,0,0,0,2.5,0c.368-.11.17-2.178.1-2.6a5.549,5.549,0,0,0-2.568.03A6.668,6.668,0,0,0,1081.249,281.356Z" transform="translate(-1056.285 -237.217)" fill="#4192d0"/>
      <path id="Caminho_3304" data-name="Caminho 3304" d="M1084.915,277.782a12.039,12.039,0,0,0,2.657,0c.391-.117.181-2.315.1-2.766a5.889,5.889,0,0,0-2.729.032A7.1,7.1,0,0,0,1084.915,277.782Z" transform="translate(-1056.349 -237.152)" fill="#4192d0"/>
      <path id="Caminho_3305" data-name="Caminho 3305" d="M1087.716,281.363a12.026,12.026,0,0,0,0-2.656c-.117-.391-2.315-.182-2.766-.1a5.889,5.889,0,0,0,.032,2.729A7.074,7.074,0,0,0,1087.716,281.363Z" transform="translate(-1056.349 -237.214)" fill="#4192d0"/>
      <path id="Caminho_3306" data-name="Caminho 3306" d="M1094.732,267.9c.93-.081,3.835-.369,3.963-.828s.1-4.114.1-5.648v-7.439c0-.8-1.609-1.32-2.033-1.448s-2.354.021-2.354.687.837.295,1.224.77.97,5.5.966,6.077-1.1-.878-1.74-1.137-3.723-1.889-5.757.493-1.586,4.377-.338,6.176C1090.009,267.228,1091.587,268.174,1094.732,267.9Z" transform="translate(-1056.4 -236.761)" fill="#2e3e91"/>
      <path id="Caminho_3307" data-name="Caminho 3307" d="M1093.013,263.265a1.43,1.43,0,0,0-.606-2.5,2.04,2.04,0,0,0-2.26,1.529c-.349,1.3,1.025,3.181,2.7,3.557a3.846,3.846,0,0,0,3.265-.807c.89-.878.851-2.927.648-3.857-.142-.654-.1-1.011-.3-1.189-.146-.13-2.266-1.333-1.569-.951,1.28.7,1.523,3.675,1.05,4.61a2.608,2.608,0,0,1-2.172,1.55,2.816,2.816,0,0,1-2.14-.876,3.556,3.556,0,0,1-.7-1.5.7.7,0,0,1,.4-.605c.061-.021.046.75.151.852A1.251,1.251,0,0,0,1093.013,263.265Z" transform="translate(-1056.442 -236.874)" fill="#4192d0"/>
      <g id="Grupo_4283" data-name="Grupo 4283" transform="translate(20.652 76.305)">
        <path id="Caminho_3308" data-name="Caminho 3308" d="M1095.422,330.679c-1.82.349-10.416,1.121-16.225-5.155-1.948-2.1-2.679-4.911-2.183-6.776a7.445,7.445,0,0,1,2.982-4.206,3.089,3.089,0,0,1,4.608,2.337c.148,2.173-1.474,2.585-1.776,4.016a4.366,4.366,0,0,0,.318,3.579c1.231,2.384,5.356,5.506,10.361,5.6C1094.5,330.095,1095.665,330.632,1095.422,330.679Z" transform="translate(-1076.863 -314.142)" fill="#2e3e91"/>
        <path id="Caminho_3309" data-name="Caminho 3309" d="M1081.961,325.788a6.519,6.519,0,0,1-3.4-5.035,5.4,5.4,0,0,1,1.541-4.611,1.771,1.771,0,0,1,2.941,1.794c-.3,1.685-1.754,1.822-1.83,4.37C1081.17,323.611,1082.667,326.148,1081.961,325.788Z" transform="translate(-1076.892 -314.168)" fill="#d59d65"/>
        <path id="Caminho_3310" data-name="Caminho 3310" d="M1080.462,322.924c-.251.142-.56-.029-.515-.25s.255-.363.408-.248S1080.592,322.851,1080.462,322.924Z" transform="translate(-1076.917 -314.285)" fill="#fff"/>
        <path id="Caminho_3311" data-name="Caminho 3311" d="M1080.236,321.019a.439.439,0,0,1-.614-.458c.078-.4.38-.55.628-.441A.522.522,0,0,1,1080.236,321.019Z" transform="translate(-1076.911 -314.245)" fill="#fff"/>
        <path id="Caminho_3312" data-name="Caminho 3312" d="M1081.693,318.543a.851.851,0,0,1-1.407-.093.817.817,0,0,1,.2-1.087.8.8,0,0,1,1.147-.014A.979.979,0,0,1,1081.693,318.543Z" transform="translate(-1076.92 -314.193)" fill="#fff"/>
      </g>
      <path id="Caminho_3313" data-name="Caminho 3313" d="M1094.732,313.754c.93.081,3.835.369,3.963.829s.1,4.114.1,5.648v7.438c0,.8-1.609,1.32-2.033,1.448s-2.354-.02-2.354-.686.837-.3,1.224-.77.97-5.5.966-6.078-1.1.879-1.74,1.137-3.723,1.89-5.757-.492-1.586-4.377-.338-6.176C1090.009,314.427,1091.587,313.481,1094.732,313.754Z" transform="translate(-1056.4 -237.829)" fill="#2e3e91"/>
      <path id="Caminho_3314" data-name="Caminho 3314" d="M1093.013,318.541a1.429,1.429,0,0,1-.606,2.5,2.04,2.04,0,0,1-2.26-1.528c-.349-1.3,1.025-3.181,2.7-3.557a3.843,3.843,0,0,1,3.265.806c.89.879.851,2.927.648,3.858-.142.653-.1,1.011-.3,1.189-.146.129-2.266,1.333-1.569.95,1.28-.7,1.523-3.675,1.05-4.609a2.609,2.609,0,0,0-2.172-1.55,2.813,2.813,0,0,0-2.14.876,3.55,3.55,0,0,0-.7,1.5.7.7,0,0,0,.4.6c.061.021.046-.749.151-.851A1.25,1.25,0,0,1,1093.013,318.541Z" transform="translate(-1056.442 -237.867)" fill="#4192d0"/>
      <path id="Caminho_3315" data-name="Caminho 3315" d="M1097.676,273.131c-.012-.369-.869.678-1.179,1.178s-.415,1.1-1,1.453c-.6.366-.787.353-.787.353a1.333,1.333,0,0,0,1.227.135,5.166,5.166,0,0,0,.81-.524,5,5,0,0,0-.3,1.274,4.878,4.878,0,0,0,.929,1.738c.155.154-.142-1.381-.035-2.084S1097.688,273.5,1097.676,273.131Z" transform="translate(-1056.522 -237.12)" fill="#fff"/>
      <path id="Caminho_3316" data-name="Caminho 3316" d="M1096.115,272.067a7.019,7.019,0,0,1-1.833,1.357c-.75.322-1.041.731-1.064.922s-.4-.427.059-1.045c.14-.19.586-.383.338-.442a13.68,13.68,0,0,1-1.7-.231,3.463,3.463,0,0,1-1.036-.7l5.25.012Z" transform="translate(-1056.455 -237.1)" fill="#fff"/>
      <path id="Caminho_3317" data-name="Caminho 3317" d="M1096.4,272.852a18.858,18.858,0,0,0-2.151,1.2c-.4.338-.722.875-.292,1.336s1.22.1,1.628-.461c.334-.458.74-1.329,1.076-1.813C1096.9,272.766,1096.657,272.713,1096.4,272.852Zm-1.212,1.939a.675.675,0,0,1-.676.468.482.482,0,0,1-.286-.806C1094.7,273.831,1095.334,274.36,1095.184,274.79Z" transform="translate(-1056.505 -237.115)" fill="#d59d65"/>
      <path id="Caminho_3318" data-name="Caminho 3318" d="M1097.352,246.494a10.548,10.548,0,0,1-.114-3.733c.09-1.73.694-2.675,1.138-2.959s.267-.018.41-.546c.1-.363.1-.308-.2-.66s-.626-.08-.819.114-1.013.717-1.355.99a.393.393,0,1,1-.446-.446c.273-.342.8-1.161.99-1.355s.467-.512.114-.819-.3-.3-.66-.2c-.529.142-.261-.034-.546.41s-1.229,1.046-2.959,1.138a10.548,10.548,0,0,1-3.733-.114c-.592-.3-1.3-1.388-1.833-1.65a1.978,1.978,0,0,0-1.013-.171,8.955,8.955,0,0,0,.239,2.356c.24.876,1.025,2.253,1.787,2.492a15.749,15.749,0,0,0,1.935.387c.126.034.683-.045-.137.205s-1.457.524-1.49,1.013-.273,2.685-.375,3.335a7.611,7.611,0,0,0-.2,1.294l0,.008h0v0l.006,0a7.6,7.6,0,0,0,1.3-.2c.649-.1,2.845-.341,3.335-.375s.762-.671,1.013-1.491.171-.262.205-.137a15.736,15.736,0,0,0,.387,1.935c.239.762,1.615,1.548,2.492,1.787a8.954,8.954,0,0,0,2.356.239,1.979,1.979,0,0,0-.171-1.013C1098.74,247.792,1097.648,247.086,1097.352,246.494Z" transform="translate(-1056.375 -236.482)" fill="#2e3e91"/>
    </g>
    <g id="Grupo_4287" data-name="Grupo 4287" transform="translate(-10567.675 -12755.288)">
      <path id="Caminho_3319" data-name="Caminho 3319" d="M1023.9,240.7c-.226.613.081,18.12-.04,18.444a.681.681,0,0,0,1.043.677c.7-.376,1.173-.259,1.044-1.42-.1-.919-.148-7.526-.148-12.028,0-.227,1.768-.693,2.035-2.168.08-.436,1.268-.442,2.078-1.252a10.939,10.939,0,0,0,1.713-2.515c3.284,0,7.423.181,7.447.376.065.536,0,7.364,0,8.461s-.161,4.373-.161,4.47-.613.13-.774.291a4.881,4.881,0,0,0-.226,1.483c0,.13,5.34.323,5.5.291s.161.419-.194.548-.39,2.167,1.263,2.04c1.416-.109,1.505-1.911,1.151-2.04s-.355-.581-.194-.548,5.5-.161,5.5-.291a4.881,4.881,0,0,0-.226-1.483c-.161-.161-.773-.194-.773-.291s-.161-3.373-.161-4.47-.066-7.924,0-8.461c.024-.2,4.163-.376,7.446-.376a10.935,10.935,0,0,0,1.714,2.515c.811.81,2,.816,2.077,1.252.268,1.475,2.036,1.941,2.036,2.168,0,4.5-.047,11.109-.149,12.028-.129,1.16.349,1.043,1.045,1.42a.681.681,0,0,0,1.042-.677c-.121-.323.186-17.831-.039-18.444s.919-3.473.242-3.732-16.477.291-16.993.291h-7.546c-.516,0-16.316-.548-16.993-.291S1024.123,240.089,1023.9,240.7Z" transform="translate(-990.916 -236.489)" fill="#2e3e91"/>
      <path id="Caminho_3320" data-name="Caminho 3320" d="M1044.613,269.712a3.573,3.573,0,0,1-3.391-3.718c-.057-2.017.679-4.065,3.705-3.876s4,2.215,3.775,3.791S1047.487,269.879,1044.613,269.712Z" transform="translate(-991.226 -236.929)" fill="#2e3e91"/>
      <path id="Caminho_3321" data-name="Caminho 3321" d="M1067.948,270.237a2.244,2.244,0,0,1-2.13-2.336c-.036-1.268.426-2.554,2.328-2.435s2.516,1.391,2.371,2.382A2.469,2.469,0,0,1,1067.948,270.237Z" transform="translate(-991.655 -236.987)" fill="#d59d65"/>
      <path id="Caminho_3322" data-name="Caminho 3322" d="M1061.913,256.1c.461-.076.266-1.427.2-1.466s-.492-.144-.479-.2-.014-6.765,0-6.883a.461.461,0,0,0-.28-.458c-.213-.053-7.835-.105-7.955-.066s.067,7.433,0,7.524-.573.105-.586.143.08,1.074.092,1.257S1061.834,256.116,1061.913,256.1Z" transform="translate(-991.429 -236.666)" fill="#2e3e91"/>
      <path id="Caminho_3323" data-name="Caminho 3323" d="M1049.32,274.161c-.8-.162-1.873-.685-1.6-.951a11.885,11.885,0,0,1,2.6-1.943c.406.007,2.839.032,3.175.394C1053.972,272.177,1049.813,274.261,1049.32,274.161Z" transform="translate(-991.339 -237.089)" fill="#2e3e91"/>
      <path id="Caminho_3324" data-name="Caminho 3324" d="M1053.548,270.992c.817.083,3.111-1.312,3.392-1.545s1.219-.672.61-.939a11.877,11.877,0,0,0-2.838-.718,14.4,14.4,0,0,0-3.233,2.448C1051.4,270.395,1053.33,270.97,1053.548,270.992Z" transform="translate(-991.405 -237.028)" fill="#2e3e91"/>
      <path id="Caminho_3325" data-name="Caminho 3325" d="M1063.36,264.652a20.6,20.6,0,0,0,3.82-2c.339-.279,1.469-.808.735-1.13a10.081,10.081,0,0,0-2.989-.635,19.07,19.07,0,0,0-4.083,2.713A7.013,7.013,0,0,0,1063.36,264.652Z" transform="translate(-991.569 -236.908)" fill="#2e3e91"/>
      <path id="Caminho_3326" data-name="Caminho 3326" d="M1058.712,267.808a17.914,17.914,0,0,0,3.7-2.142c.336-.424-2.594-1.038-3.044-1.065a14.169,14.169,0,0,0-3.4,2.294C1055.883,267.1,1058.322,267.862,1058.712,267.808Z" transform="translate(-991.483 -236.972)" fill="#2e3e91"/>
      <path id="Caminho_3327" data-name="Caminho 3327" d="M1039.155,274.455c.8-.136,1.891-.62,1.626-.9a11.84,11.84,0,0,0-2.521-2.031c-.406-.007-2.834-.066-3.181.284C1034.582,272.311,1038.66,274.537,1039.155,274.455Z" transform="translate(-991.119 -237.093)" fill="#2e3e91"/>
      <path id="Caminho_3328" data-name="Caminho 3328" d="M1035.039,271.141c-.818.054-3.058-1.419-3.331-1.662s-1.193-.713-.576-.96a11.885,11.885,0,0,1,2.856-.619,14.415,14.415,0,0,1,3.14,2.558C1037.2,270.618,1035.257,271.128,1035.039,271.141Z" transform="translate(-991.047 -237.03)" fill="#2e3e91"/>
      <path id="Caminho_3329" data-name="Caminho 3329" d="M1025.452,264.465a20.546,20.546,0,0,1-3.742-2.126c-.328-.292-1.437-.859-.695-1.155a10.1,10.1,0,0,1,3-.532A19.091,19.091,0,0,1,1028,263.5,6.979,6.979,0,0,1,1025.452,264.465Z" transform="translate(-990.87 -236.903)" fill="#2e3e91"/>
      <path id="Caminho_3330" data-name="Caminho 3330" d="M1029.994,267.781a17.907,17.907,0,0,1-3.614-2.269c-.319-.435,2.623-.947,3.074-.959a14.164,14.164,0,0,1,3.307,2.41C1032.84,267.17,1030.382,267.849,1029.994,267.781Z" transform="translate(-990.967 -236.972)" fill="#2e3e91"/>
      <path id="Caminho_3331" data-name="Caminho 3331" d="M1057.98,254.67a12.043,12.043,0,0,1,0-2.657c.118-.39,2.315-.181,2.766-.1a5.888,5.888,0,0,1-.031,2.729A7.1,7.1,0,0,1,1057.98,254.67Z" transform="translate(-991.517 -236.749)" fill="#4192d0"/>
      <path id="Caminho_3332" data-name="Caminho 3332" d="M1054.323,254.59a11.359,11.359,0,0,1,0-2.5c.111-.367,2.179-.17,2.6-.1a5.534,5.534,0,0,1-.03,2.568A6.675,6.675,0,0,1,1054.323,254.59Z" transform="translate(-991.454 -236.75)" fill="#4192d0"/>
      <path id="Caminho_3333" data-name="Caminho 3333" d="M1057.895,250.92a11.974,11.974,0,0,1,0-2.656c.117-.39,2.315-.181,2.765-.1a5.887,5.887,0,0,1-.031,2.729A7.073,7.073,0,0,1,1057.895,250.92Z" transform="translate(-991.516 -236.684)" fill="#4192d0"/>
      <path id="Caminho_3334" data-name="Caminho 3334" d="M1054.314,248.12a12.027,12.027,0,0,1,2.656,0c.391.117.181,2.315.1,2.766a5.893,5.893,0,0,1-2.729-.032A7.07,7.07,0,0,1,1054.314,248.12Z" transform="translate(-991.453 -236.684)" fill="#4192d0"/>
      <path id="Caminho_3335" data-name="Caminho 3335" d="M1040.24,276.055c.328.2,2.2.967,2.029,1.176a1.866,1.866,0,0,0,.308,2,3.581,3.581,0,0,0,4.26,0,1.871,1.871,0,0,0,.309-2c-.174-.209,1.7-.975,2.029-1.176a.472.472,0,0,0,.015-.856,18.491,18.491,0,0,1-2.018-1.187c-.32-.271-1.043.194-1.427.551-.243.226-.783.858-1.018.795-.008,0-.014.013-.02.02s-.013-.022-.02-.02c-.235.063-.775-.569-1.018-.795-.383-.358-1.107-.822-1.428-.551a18.588,18.588,0,0,1-2.017,1.187A.472.472,0,0,0,1040.24,276.055Z" transform="translate(-991.204 -237.135)" fill="#2e3e91"/>
      <path id="Caminho_3336" data-name="Caminho 3336" d="M1045.5,265.587a7.868,7.868,0,0,1,0-2.347,2.358,2.358,0,0,1,1.653.7,2.049,2.049,0,0,1,.434,1.668A12.31,12.31,0,0,1,1045.5,265.587Z" transform="translate(-991.299 -236.948)" fill="#4192d0"/>
      <path id="Caminho_3337" data-name="Caminho 3337" d="M1044.761,265.462a7.867,7.867,0,0,1-2.347,0,2.356,2.356,0,0,1,.7-1.653,2.05,2.05,0,0,1,1.668-.433A12.42,12.42,0,0,1,1044.761,265.462Z" transform="translate(-991.247 -236.95)" fill="#4192d0"/>
      <path id="Caminho_3338" data-name="Caminho 3338" d="M1044.636,266.21a7.872,7.872,0,0,1,0,2.347,2.355,2.355,0,0,1-1.653-.7,2.047,2.047,0,0,1-.434-1.667A12.31,12.31,0,0,1,1044.636,266.21Z" transform="translate(-991.249 -236.999)" fill="#4192d0"/>
      <path id="Caminho_3339" data-name="Caminho 3339" d="M1045.265,266.441a7.87,7.87,0,0,1,2.347,0,2.356,2.356,0,0,1-.7,1.653,2.046,2.046,0,0,1-1.667.434A12.307,12.307,0,0,1,1045.265,266.441Z" transform="translate(-991.296 -237.003)" fill="#4192d0"/>
      <path id="Caminho_3340" data-name="Caminho 3340" d="M1044.3,248.791c1.451.286,1.407-1.195,1.2-1.493a1.036,1.036,0,0,0-1.494-.336C1043.447,247.364,1043.323,248.6,1044.3,248.791Z" transform="translate(-991.267 -236.661)" fill="#fff"/>
      <path id="Caminho_3341" data-name="Caminho 3341" d="M1046.071,247.631c-.1.048-.167-.6-.167-.6a1.415,1.415,0,0,0,.4-1.087,1.745,1.745,0,0,0-1.522-1.269c-.9.035-1.823.709-1.823,1.242a1.431,1.431,0,0,0,.361.932c.05.076-.283.589-.283.589-.088-.019-.6-.47-.534-1.521.054-.832,1.421-1.784,2.162-1.784a2.376,2.376,0,0,1,2.163,1.59A1.811,1.811,0,0,1,1046.071,247.631Z" transform="translate(-991.249 -236.615)" fill="#fff"/>
      <g id="Grupo_4285" data-name="Grupo 4285" transform="translate(13.992 3.559)">
        <path id="Caminho_3342" data-name="Caminho 3342" d="M1004.809,240.137c-.35,1.82-1.122,10.416,5.154,16.225,2.1,1.947,4.912,2.679,6.776,2.183a7.439,7.439,0,0,0,4.206-2.982,3.089,3.089,0,0,0-2.337-4.608c-2.173-.148-2.584,1.474-4.015,1.776a4.367,4.367,0,0,1-3.58-.318c-2.383-1.231-5.505-5.356-5.6-10.361C1005.394,241.055,1004.855,239.894,1004.809,240.137Z" transform="translate(-1004.58 -240.105)" fill="#2e3e91"/>
        <path id="Caminho_3343" data-name="Caminho 3343" d="M1009.816,253.847a6.524,6.524,0,0,0,5.035,3.406,5.406,5.406,0,0,0,4.611-1.542,1.771,1.771,0,0,0-1.794-2.941c-1.685.3-1.821,1.754-4.37,1.83C1011.994,254.638,1009.457,253.142,1009.816,253.847Z" transform="translate(-1004.67 -240.325)" fill="#d59d65"/>
        <path id="Caminho_3344" data-name="Caminho 3344" d="M1012.851,255.417c-.143.252.03.56.25.515s.362-.254.248-.408S1012.925,255.287,1012.851,255.417Z" transform="translate(-1004.723 -240.371)" fill="#fff"/>
        <path id="Caminho_3345" data-name="Caminho 3345" d="M1014.749,255.637a.438.438,0,0,0,.457.614c.4-.077.55-.38.441-.628A.521.521,0,0,0,1014.749,255.637Z" transform="translate(-1004.756 -240.371)" fill="#fff"/>
        <path id="Caminho_3346" data-name="Caminho 3346" d="M1017.211,254.165a.851.851,0,0,0,.093,1.407.817.817,0,0,0,1.087-.2.8.8,0,0,0,.014-1.147A.979.979,0,0,0,1017.211,254.165Z" transform="translate(-1004.794 -240.347)" fill="#fff"/>
      </g>
      <path id="Caminho_3347" data-name="Caminho 3347" d="M1062.5,238.16c.37.012-.679.87-1.179,1.179s-1.1.415-1.452,1c-.366.6-.354.787-.354.787a1.333,1.333,0,0,1-.135-1.227,5.049,5.049,0,0,1,.525-.81,5.013,5.013,0,0,1-1.274.3,4.846,4.846,0,0,1-1.738-.929c-.155-.155,1.381.142,2.083.035S1062.129,238.148,1062.5,238.16Z" transform="translate(-991.499 -236.511)" fill="#fff"/>
      <path id="Caminho_3348" data-name="Caminho 3348" d="M1063.619,239.681a7.015,7.015,0,0,0-1.358,1.833c-.321.75-.731,1.041-.921,1.065s.427.4,1.046-.06c.19-.14.383-.586.442-.338a13.673,13.673,0,0,0,.231,1.7,3.462,3.462,0,0,0,.7,1.036l-.012-5.25Z" transform="translate(-991.577 -236.538)" fill="#fff"/>
      <path id="Caminho_3349" data-name="Caminho 3349" d="M1062.567,239.179c-.483.335-1.355.741-1.813,1.075-.559.408-.922,1.2-.461,1.628s1,.107,1.336-.292a18.861,18.861,0,0,0,1.2-2.151C1062.966,239.179,1062.914,238.938,1062.567,239.179Zm-1.339,2.434a.483.483,0,0,1-.807-.286.675.675,0,0,1,.469-.676C1061.319,240.5,1061.849,241.136,1061.228,241.613Z" transform="translate(-991.555 -236.527)" fill="#d59d65"/>
      <path id="Caminho_3350" data-name="Caminho 3350" d="M1027.507,256.1c-.461-.076-.267-1.427-.2-1.466s.493-.144.479-.2.014-6.765,0-6.883a.46.46,0,0,1,.279-.458c.213-.053,7.835-.105,7.955-.066s-.066,7.433,0,7.524.574.105.587.143-.08,1.074-.093,1.257S1027.586,256.116,1027.507,256.1Z" transform="translate(-990.982 -236.666)" fill="#2e3e91"/>
      <path id="Caminho_3351" data-name="Caminho 3351" d="M1031.553,254.67a11.976,11.976,0,0,0,0-2.657c-.117-.39-2.315-.181-2.765-.1a5.873,5.873,0,0,0,.031,2.729A7.094,7.094,0,0,0,1031.553,254.67Z" transform="translate(-991.007 -236.749)" fill="#4192d0"/>
      <path id="Caminho_3352" data-name="Caminho 3352" d="M1035.213,254.59a11.285,11.285,0,0,0,0-2.5c-.11-.367-2.178-.17-2.6-.1a5.547,5.547,0,0,0,.031,2.568A6.669,6.669,0,0,0,1035.213,254.59Z" transform="translate(-991.074 -236.75)" fill="#4192d0"/>
      <path id="Caminho_3353" data-name="Caminho 3353" d="M1031.639,250.92a12.033,12.033,0,0,0,0-2.656c-.117-.39-2.315-.181-2.766-.1a5.9,5.9,0,0,0,.031,2.729A7.079,7.079,0,0,0,1031.639,250.92Z" transform="translate(-991.009 -236.684)" fill="#4192d0"/>
      <path id="Caminho_3354" data-name="Caminho 3354" d="M1035.22,248.12a12.029,12.029,0,0,0-2.656,0c-.391.117-.182,2.315-.1,2.766a5.888,5.888,0,0,0,2.729-.032A7.1,7.1,0,0,0,1035.22,248.12Z" transform="translate(-991.072 -236.684)" fill="#4192d0"/>
      <path id="Caminho_3355" data-name="Caminho 3355" d="M1021.757,240.96c-.081-.93-.37-3.834-.828-3.964s-4.114-.094-5.648-.094h-7.439c-.8,0-1.32,1.61-1.448,2.033s.02,2.354.686,2.354.3-.837.771-1.224,5.5-.97,6.077-.966-.879,1.1-1.137,1.74-1.889,3.723.493,5.757,4.377,1.586,6.176.338C1021.085,245.683,1022.031,244.105,1021.757,240.96Z" transform="translate(-990.618 -236.489)" fill="#2e3e91"/>
      <path id="Caminho_3356" data-name="Caminho 3356" d="M1017.121,242.755a1.429,1.429,0,0,0-2.5.606,2.04,2.04,0,0,0,1.529,2.26c1.3.349,3.181-1.025,3.557-2.7a3.847,3.847,0,0,0-.807-3.265c-.878-.89-2.927-.851-3.857-.648-.654.142-1.012.1-1.189.3-.13.145-1.333,2.266-.951,1.569.7-1.281,3.675-1.523,4.61-1.05a2.607,2.607,0,0,1,1.55,2.172,2.811,2.811,0,0,1-.875,2.14,3.559,3.559,0,0,1-1.5.7.7.7,0,0,1-.6-.4c-.021-.061.749-.046.852-.151A1.25,1.25,0,0,0,1017.121,242.755Z" transform="translate(-990.731 -236.524)" fill="#4192d0"/>
      <g id="Grupo_4286" data-name="Grupo 4286" transform="translate(76.305 3.559)">
        <path id="Caminho_3357" data-name="Caminho 3357" d="M1084.536,240.137c.349,1.82,1.121,10.416-5.154,16.225-2.1,1.947-4.912,2.679-6.776,2.183a7.442,7.442,0,0,1-4.206-2.982,3.089,3.089,0,0,1,2.337-4.608c2.173-.148,2.584,1.474,4.016,1.776a4.365,4.365,0,0,0,3.579-.318c2.384-1.231,5.505-5.356,5.6-10.361C1083.952,241.055,1084.489,239.894,1084.536,240.137Z" transform="translate(-1067.999 -240.105)" fill="#2e3e91"/>
        <path id="Caminho_3358" data-name="Caminho 3358" d="M1079.645,253.847a6.524,6.524,0,0,1-5.035,3.406,5.407,5.407,0,0,1-4.611-1.542,1.771,1.771,0,0,1,1.794-2.941c1.685.3,1.821,1.754,4.37,1.83C1077.468,254.638,1080,253.142,1079.645,253.847Z" transform="translate(-1068.025 -240.325)" fill="#d59d65"/>
        <path id="Caminho_3359" data-name="Caminho 3359" d="M1076.781,255.417c.143.252-.029.56-.249.515s-.363-.254-.249-.408S1076.707,255.287,1076.781,255.417Z" transform="translate(-1068.142 -240.371)" fill="#fff"/>
        <path id="Caminho_3360" data-name="Caminho 3360" d="M1074.876,255.637a.439.439,0,0,1-.458.614c-.4-.077-.55-.38-.441-.628A.522.522,0,0,1,1074.876,255.637Z" transform="translate(-1068.102 -240.371)" fill="#fff"/>
        <path id="Caminho_3361" data-name="Caminho 3361" d="M1072.4,254.165a.851.851,0,0,1-.094,1.407.817.817,0,0,1-1.087-.2.8.8,0,0,1-.014-1.147A.98.98,0,0,1,1072.4,254.165Z" transform="translate(-1068.051 -240.347)" fill="#fff"/>
      </g>
      <path id="Caminho_3362" data-name="Caminho 3362" d="M1067.611,240.96c.08-.93.369-3.834.829-3.964s4.114-.094,5.648-.094h7.438c.8,0,1.319,1.61,1.448,2.033s-.02,2.354-.686,2.354-.3-.837-.771-1.224-5.5-.97-6.077-.966.879,1.1,1.137,1.74,1.89,3.723-.493,5.757-4.376,1.586-6.176.338C1068.283,245.683,1067.338,244.105,1067.611,240.96Z" transform="translate(-991.686 -236.489)" fill="#2e3e91"/>
      <path id="Caminho_3363" data-name="Caminho 3363" d="M1072.4,242.755a1.429,1.429,0,0,1,2.5.606,2.04,2.04,0,0,1-1.528,2.26c-1.3.349-3.18-1.025-3.558-2.7a3.847,3.847,0,0,1,.807-3.265c.88-.89,2.927-.851,3.857-.648.654.142,1.012.1,1.189.3.13.145,1.333,2.266.951,1.569-.7-1.281-3.675-1.523-4.61-1.05a2.607,2.607,0,0,0-1.55,2.172,2.807,2.807,0,0,0,.876,2.14,3.55,3.55,0,0,0,1.5.7.7.7,0,0,0,.6-.4c.021-.061-.749-.046-.851-.151A1.249,1.249,0,0,1,1072.4,242.755Z" transform="translate(-991.724 -236.524)" fill="#4192d0"/>
      <path id="Caminho_3364" data-name="Caminho 3364" d="M1026.988,238.16c-.37.012.678.87,1.178,1.179s1.1.415,1.452,1c.366.6.354.787.354.787a1.333,1.333,0,0,0,.135-1.227,5.172,5.172,0,0,0-.524-.81,5.015,5.015,0,0,0,1.273.3,4.861,4.861,0,0,0,1.739-.929c.154-.155-1.381.142-2.084.035S1027.356,238.148,1026.988,238.16Z" transform="translate(-990.977 -236.511)" fill="#fff"/>
      <path id="Caminho_3365" data-name="Caminho 3365" d="M1025.924,239.681a7.017,7.017,0,0,1,1.357,1.833c.321.75.731,1.041.922,1.065s-.427.4-1.046-.06c-.189-.14-.382-.586-.441-.338a13.476,13.476,0,0,1-.232,1.7,3.447,3.447,0,0,1-.7,1.036l.012-5.25Z" transform="translate(-990.957 -236.538)" fill="#fff"/>
      <path id="Caminho_3366" data-name="Caminho 3366" d="M1026.709,239.44a18.842,18.842,0,0,0,1.2,2.151c.337.4.875.722,1.336.292s.1-1.22-.461-1.628c-.458-.334-1.329-.74-1.813-1.075C1026.623,238.938,1026.57,239.179,1026.709,239.44Zm1.939,1.212a.675.675,0,0,1,.468.676.482.482,0,0,1-.806.286C1027.688,241.136,1028.217,240.5,1028.647,240.651Z" transform="translate(-990.972 -236.527)" fill="#d59d65"/>
      <path id="Caminho_3367" data-name="Caminho 3367" d="M1000.351,238.309a10.555,10.555,0,0,1-3.734.114c-1.729-.091-2.674-.694-2.958-1.138s-.019-.267-.546-.41c-.363-.1-.308-.1-.66.2s-.08.626.114.819.717,1.013.99,1.355a1.277,1.277,0,0,1,.22.666,1.263,1.263,0,0,1-.666-.22c-.342-.273-1.161-.8-1.355-.99s-.512-.467-.819-.114-.3.3-.2.66c.142.529-.034.262.41.546s1.046,1.229,1.138,2.959a10.548,10.548,0,0,1-.114,3.733c-.3.592-1.388,1.3-1.65,1.832a1.978,1.978,0,0,0-.171,1.013,8.954,8.954,0,0,0,2.356-.239c.875-.24,2.253-1.025,2.492-1.787a15.942,15.942,0,0,0,.387-1.935c.034-.126-.045-.683.205.137s.523,1.457,1.013,1.491,2.685.273,3.334.376a7.7,7.7,0,0,0,1.295.2l.008,0v0h0l0-.008a7.6,7.6,0,0,0-.2-1.294c-.1-.649-.341-2.845-.375-3.335s-.671-.762-1.49-1.013-.262-.171-.137-.205a15.747,15.747,0,0,0,1.935-.387c.762-.239,1.548-1.615,1.786-2.492a8.925,8.925,0,0,0,.24-2.356,1.978,1.978,0,0,0-1.013.171C1001.648,236.92,1000.943,238.013,1000.351,238.309Z" transform="translate(-990.339 -236.482)" fill="#2e3e91"/>
    </g>
    <g id="Grupo_4290" data-name="Grupo 4290" transform="translate(-10567.675 -12741.193)">
      <path id="Caminho_3368" data-name="Caminho 3368" d="M994.56,311.247c.612.226,18.12-.082,18.443.04a.682.682,0,0,0,.678-1.043c-.376-.7-.259-1.173-1.421-1.044-.918.1-7.526.148-12.026.148-.227,0-.693-1.768-2.168-2.036-.437-.079-.442-1.267-1.253-2.077a10.926,10.926,0,0,0-2.514-1.713c0-3.284.181-7.423.376-7.447.536-.065,7.364,0,8.461,0s4.373.161,4.47.161.13.613.29.774a4.892,4.892,0,0,0,1.484.226c.13,0,.322-5.34.291-5.5s.419-.161.548.194,2.167.39,2.04-1.263c-.109-1.415-1.911-1.505-2.04-1.151s-.581.355-.548.194-.161-5.5-.291-5.5a4.892,4.892,0,0,0-1.484.226c-.16.161-.193.773-.29.773s-3.373.161-4.47.161-7.924.066-8.461,0c-.2-.024-.376-4.163-.376-7.446a10.913,10.913,0,0,0,2.514-1.714c.811-.81.816-2,1.253-2.077,1.475-.268,1.941-2.036,2.168-2.036,4.5,0,11.109.047,12.026.149,1.161.129,1.044-.349,1.421-1.045a.681.681,0,0,0-.678-1.042c-.322.122-17.831-.186-18.443.039s-3.473-.919-3.732-.242.29,16.477.29,16.993V294.5c0,.516-.548,16.316-.29,16.993S993.946,311.021,994.56,311.247Z" transform="translate(-990.346 -251.157)" fill="#2e3e91"/>
      <path id="Caminho_3369" data-name="Caminho 3369" d="M1023.569,291.143a3.573,3.573,0,0,1-3.718,3.391c-2.017.058-4.066-.679-3.876-3.705s2.215-4,3.791-3.775S1023.736,288.269,1023.569,291.143Z" transform="translate(-990.786 -251.458)" fill="#2e3e91"/>
      <path id="Caminho_3370" data-name="Caminho 3370" d="M1024.094,267.857a2.244,2.244,0,0,1-2.335,2.13c-1.267.036-2.554-.426-2.435-2.328s1.391-2.516,2.382-2.371A2.469,2.469,0,0,1,1024.094,267.857Z" transform="translate(-990.844 -251.079)" fill="#d59d65"/>
      <path id="Caminho_3371" data-name="Caminho 3371" d="M1009.959,273.809c-.075-.461-1.426-.266-1.465-.2s-.144.492-.2.479-6.765.014-6.883,0a.461.461,0,0,0-.458.28c-.053.213-.105,7.835-.066,7.955s7.433-.067,7.524,0,.1.573.143.587,1.073-.081,1.257-.093S1009.973,273.888,1009.959,273.809Z" transform="translate(-990.523 -251.222)" fill="#2e3e91"/>
      <path id="Caminho_3372" data-name="Caminho 3372" d="M1028.018,286.465c-.163.8-.685,1.873-.951,1.6a11.846,11.846,0,0,1-1.943-2.6c.007-.406.032-2.839.393-3.175C1026.034,281.813,1028.118,285.972,1028.018,286.465Z" transform="translate(-990.946 -251.375)" fill="#2e3e91"/>
      <path id="Caminho_3373" data-name="Caminho 3373" d="M1024.849,282.229c.083-.816-1.312-3.111-1.545-3.392s-.672-1.219-.94-.61a11.917,11.917,0,0,0-.717,2.838,14.4,14.4,0,0,0,2.448,3.233C1024.251,284.38,1024.828,282.448,1024.849,282.229Z" transform="translate(-990.885 -251.301)" fill="#2e3e91"/>
      <path id="Caminho_3374" data-name="Caminho 3374" d="M1018.508,272.4a20.536,20.536,0,0,0-2-3.82c-.28-.339-.808-1.469-1.13-.735a10.116,10.116,0,0,0-.636,2.989,19.069,19.069,0,0,0,2.714,4.083A7,7,0,0,0,1018.508,272.4Z" transform="translate(-990.765 -251.119)" fill="#2e3e91"/>
      <path id="Caminho_3375" data-name="Caminho 3375" d="M1021.664,277.062a17.874,17.874,0,0,0-2.141-3.7c-.424-.336-1.038,2.594-1.065,3.044a14.171,14.171,0,0,0,2.294,3.4C1020.956,279.891,1021.719,277.452,1021.664,277.062Z" transform="translate(-990.829 -251.219)" fill="#2e3e91"/>
      <path id="Caminho_3376" data-name="Caminho 3376" d="M1028.311,296.631c-.135-.8-.619-1.891-.9-1.626a11.838,11.838,0,0,0-2.031,2.521c-.007.406-.066,2.834.283,3.181C1026.168,301.2,1028.394,297.127,1028.311,296.631Z" transform="translate(-990.95 -251.596)" fill="#2e3e91"/>
      <path id="Caminho_3377" data-name="Caminho 3377" d="M1025,300.74c.054.818-1.419,3.058-1.662,3.33s-.713,1.194-.96.577a11.837,11.837,0,0,1-.619-2.856,14.412,14.412,0,0,1,2.558-3.14C1024.475,298.574,1024.984,300.522,1025,300.74Z" transform="translate(-990.887 -251.661)" fill="#2e3e91"/>
      <path id="Caminho_3378" data-name="Caminho 3378" d="M1018.322,310.309a20.5,20.5,0,0,1-2.127,3.742c-.291.328-.858,1.438-1.154.695a10.064,10.064,0,0,1-.532-3,19.094,19.094,0,0,1,2.852-3.979A6.981,6.981,0,0,1,1018.322,310.309Z" transform="translate(-990.76 -251.82)" fill="#2e3e91"/>
      <path id="Caminho_3379" data-name="Caminho 3379" d="M1021.637,305.781a17.879,17.879,0,0,1-2.268,3.614c-.436.32-.947-2.623-.96-3.073a14.127,14.127,0,0,1,2.411-3.307C1021.027,302.935,1021.706,305.394,1021.637,305.781Z" transform="translate(-990.829 -251.737)" fill="#2e3e91"/>
      <path id="Caminho_3380" data-name="Caminho 3380" d="M1008.527,277.856a12.035,12.035,0,0,1-2.657,0c-.391-.118-.181-2.315-.1-2.766a5.888,5.888,0,0,1,2.729.031A7.1,7.1,0,0,1,1008.527,277.856Z" transform="translate(-990.606 -251.247)" fill="#4192d0"/>
      <path id="Caminho_3381" data-name="Caminho 3381" d="M1008.447,281.516a11.291,11.291,0,0,1-2.5,0c-.367-.11-.17-2.179-.1-2.6a5.535,5.535,0,0,1,2.568.03A6.673,6.673,0,0,1,1008.447,281.516Z" transform="translate(-990.607 -251.314)" fill="#4192d0"/>
      <path id="Caminho_3382" data-name="Caminho 3382" d="M1004.777,277.941a11.912,11.912,0,0,1-2.656,0c-.391-.117-.182-2.315-.1-2.765a5.888,5.888,0,0,1,2.729.031A7.093,7.093,0,0,1,1004.777,277.941Z" transform="translate(-990.541 -251.249)" fill="#4192d0"/>
      <path id="Caminho_3383" data-name="Caminho 3383" d="M1001.977,281.522a11.967,11.967,0,0,1,0-2.656c.117-.391,2.315-.182,2.765-.1a5.874,5.874,0,0,1-.031,2.729A7.073,7.073,0,0,1,1001.977,281.522Z" transform="translate(-990.541 -251.312)" fill="#4192d0"/>
      <path id="Caminho_3384" data-name="Caminho 3384" d="M1029.912,295.48c.2-.328.966-2.2,1.176-2.029a1.865,1.865,0,0,0,2-.309,3.581,3.581,0,0,0,0-4.26,1.869,1.869,0,0,0-2-.309c-.21.174-.975-1.7-1.176-2.029a.473.473,0,0,0-.857-.015,18.329,18.329,0,0,1-1.186,2.018c-.272.32.194,1.043.551,1.427.226.243.858.783.794,1.018,0,.008.014.014.021.02s-.023.013-.021.02c.064.236-.568.775-.794,1.018-.358.383-.823,1.107-.551,1.428a18.412,18.412,0,0,1,1.186,2.017A.472.472,0,0,0,1029.912,295.48Z" transform="translate(-990.992 -251.445)" fill="#2e3e91"/>
      <path id="Caminho_3385" data-name="Caminho 3385" d="M1019.444,290.353a7.87,7.87,0,0,1-2.347,0,2.358,2.358,0,0,1,.7-1.653,2.049,2.049,0,0,1,1.668-.434A12.409,12.409,0,0,1,1019.444,290.353Z" transform="translate(-990.805 -251.479)" fill="#4192d0"/>
      <path id="Caminho_3386" data-name="Caminho 3386" d="M1019.319,291.085a7.9,7.9,0,0,1,0,2.347,2.356,2.356,0,0,1-1.653-.7,2.042,2.042,0,0,1-.433-1.668A12.413,12.413,0,0,1,1019.319,291.085Z" transform="translate(-990.807 -251.528)" fill="#4192d0"/>
      <path id="Caminho_3387" data-name="Caminho 3387" d="M1020.067,291.213a7.87,7.87,0,0,1,2.347,0,2.355,2.355,0,0,1-.7,1.653,2.046,2.046,0,0,1-1.667.434A12.307,12.307,0,0,1,1020.067,291.213Z" transform="translate(-990.856 -251.529)" fill="#4192d0"/>
      <path id="Caminho_3388" data-name="Caminho 3388" d="M1020.3,290.581a7.87,7.87,0,0,1,0-2.347,2.355,2.355,0,0,1,1.653.7,2.046,2.046,0,0,1,.434,1.667A12.307,12.307,0,0,1,1020.3,290.581Z" transform="translate(-990.86 -251.479)" fill="#4192d0"/>
      <path id="Caminho_3389" data-name="Caminho 3389" d="M1002.648,291.549c.286-1.451-1.195-1.407-1.493-1.2a1.037,1.037,0,0,0-.336,1.494C1001.22,292.406,1002.455,292.529,1002.648,291.549Z" transform="translate(-990.518 -251.514)" fill="#fff"/>
      <path id="Caminho_3390" data-name="Caminho 3390" d="M1001.488,289.741c.048.1-.6.167-.6.167a1.412,1.412,0,0,0-1.087-.4,1.743,1.743,0,0,0-1.269,1.521c.035.9.709,1.823,1.242,1.823a1.432,1.432,0,0,0,.932-.361c.076-.05.589.283.589.283-.019.088-.471.6-1.521.534-.832-.054-1.784-1.421-1.784-2.162a2.37,2.37,0,0,1,1.59-2.162A1.809,1.809,0,0,1,1001.488,289.741Z" transform="translate(-990.472 -251.492)" fill="#fff"/>
      <g id="Grupo_4288" data-name="Grupo 4288" transform="translate(3.559 62.313)">
        <path id="Caminho_3391" data-name="Caminho 3391" d="M993.994,330.782c1.82.35,10.416,1.122,16.224-5.154,1.948-2.1,2.68-4.912,2.184-6.776a7.439,7.439,0,0,0-2.982-4.206,3.089,3.089,0,0,0-4.608,2.337c-.148,2.173,1.474,2.584,1.776,4.015a4.367,4.367,0,0,1-.318,3.58c-1.231,2.384-5.356,5.505-10.361,5.6C994.912,330.2,993.751,330.736,993.994,330.782Z" transform="translate(-993.962 -314.245)" fill="#2e3e91"/>
        <path id="Caminho_3392" data-name="Caminho 3392" d="M1007.7,325.892a6.521,6.521,0,0,0,3.4-5.035,5.4,5.4,0,0,0-1.541-4.611,1.771,1.771,0,0,0-2.941,1.794c.3,1.685,1.754,1.821,1.83,4.37C1008.495,323.715,1007,326.252,1007.7,325.892Z" transform="translate(-994.182 -314.272)" fill="#d59d65"/>
        <path id="Caminho_3393" data-name="Caminho 3393" d="M1009.274,323.027c.252.143.56-.029.515-.25s-.255-.362-.408-.248S1009.144,322.954,1009.274,323.027Z" transform="translate(-994.228 -314.389)" fill="#fff"/>
        <path id="Caminho_3394" data-name="Caminho 3394" d="M1009.494,321.122a.439.439,0,0,0,.614-.457c-.078-.4-.38-.55-.628-.441A.521.521,0,0,0,1009.494,321.122Z" transform="translate(-994.228 -314.349)" fill="#fff"/>
        <path id="Caminho_3395" data-name="Caminho 3395" d="M1008.022,318.647a.851.851,0,0,0,1.407-.093.817.817,0,0,0-.2-1.087.8.8,0,0,0-1.147-.014A.978.978,0,0,0,1008.022,318.647Z" transform="translate(-994.204 -314.297)" fill="#fff"/>
      </g>
      <path id="Caminho_3396" data-name="Caminho 3396" d="M992.017,273.29c.012-.369.869.679,1.178,1.179s.416,1.1,1,1.452c.6.366.786.354.786.354a1.331,1.331,0,0,1-1.226.135,5,5,0,0,1-.81-.525,5.011,5.011,0,0,1,.3,1.274,4.863,4.863,0,0,1-.929,1.738c-.155.155.142-1.381.035-2.083S992.005,273.659,992.017,273.29Z" transform="translate(-990.368 -251.217)" fill="#fff"/>
      <path id="Caminho_3397" data-name="Caminho 3397" d="M993.538,272.227a7.046,7.046,0,0,0,1.832,1.358c.751.321,1.042.731,1.065.921s.4-.426-.059-1.045c-.14-.19-.586-.382-.339-.442a13.489,13.489,0,0,0,1.7-.231,3.463,3.463,0,0,0,1.036-.7l-5.251.012Z" transform="translate(-990.395 -251.197)" fill="#fff"/>
      <path id="Caminho_3398" data-name="Caminho 3398" d="M993.035,273.272c.335.483.742,1.355,1.076,1.813.408.559,1.2.922,1.628.461s.107-1-.292-1.336a18.692,18.692,0,0,0-2.151-1.2C993.035,272.873,992.795,272.925,993.035,273.272Zm2.435,1.339a.483.483,0,0,1-.286.807.675.675,0,0,1-.676-.469C994.359,274.52,994.993,273.99,995.47,274.611Z" transform="translate(-990.384 -251.212)" fill="#d59d65"/>
      <path id="Caminho_3399" data-name="Caminho 3399" d="M1009.959,308.216c-.075.46-1.426.266-1.465.2s-.144-.493-.2-.479-6.765-.015-6.883,0a.46.46,0,0,1-.458-.279c-.053-.213-.105-7.835-.066-7.955s7.433.067,7.524,0,.1-.573.143-.587,1.073.08,1.257.093S1009.973,308.136,1009.959,308.216Z" transform="translate(-990.523 -251.669)" fill="#2e3e91"/>
      <path id="Caminho_3400" data-name="Caminho 3400" d="M1008.527,304.283a11.979,11.979,0,0,0-2.657,0c-.391.117-.181,2.315-.1,2.766a5.889,5.889,0,0,0,2.729-.032A7.1,7.1,0,0,0,1008.527,304.283Z" transform="translate(-990.606 -251.758)" fill="#4192d0"/>
      <path id="Caminho_3401" data-name="Caminho 3401" d="M1008.447,300.626a11.291,11.291,0,0,0-2.5,0c-.367.11-.17,2.178-.1,2.6a5.561,5.561,0,0,0,2.568-.029A6.673,6.673,0,0,0,1008.447,300.626Z" transform="translate(-990.607 -251.694)" fill="#4192d0"/>
      <path id="Caminho_3402" data-name="Caminho 3402" d="M1004.777,304.2a12.029,12.029,0,0,0-2.656,0c-.391.117-.182,2.315-.1,2.766a5.889,5.889,0,0,0,2.729-.032A7.093,7.093,0,0,0,1004.777,304.2Z" transform="translate(-990.541 -251.756)" fill="#4192d0"/>
      <path id="Caminho_3403" data-name="Caminho 3403" d="M1001.977,300.616a11.976,11.976,0,0,0,0,2.657c.117.39,2.315.181,2.765.1a5.874,5.874,0,0,0-.031-2.729A7.093,7.093,0,0,0,1001.977,300.616Z" transform="translate(-990.541 -251.693)" fill="#4192d0"/>
      <path id="Caminho_3404" data-name="Caminho 3404" d="M994.817,313.858c-.93.081-3.835.369-3.964.828s-.094,4.114-.094,5.648v7.439c0,.8,1.609,1.32,2.032,1.448s2.354-.02,2.354-.686-.837-.3-1.223-.771-.97-5.5-.966-6.077,1.1.878,1.74,1.137,3.723,1.889,5.757-.493,1.586-4.376.338-6.176C999.54,314.53,997.961,313.585,994.817,313.858Z" transform="translate(-990.346 -251.925)" fill="#2e3e91"/>
      <path id="Caminho_3405" data-name="Caminho 3405" d="M996.612,318.645a1.428,1.428,0,0,0,.606,2.5,2.039,2.039,0,0,0,2.259-1.528c.349-1.3-1.024-3.182-2.7-3.558a3.846,3.846,0,0,0-3.265.807c-.891.878-.851,2.927-.649,3.857.143.654.1,1.012.3,1.189.145.13,2.266,1.333,1.569.951-1.281-.7-1.523-3.675-1.05-4.61a2.607,2.607,0,0,1,2.172-1.549,2.812,2.812,0,0,1,2.14.875,3.558,3.558,0,0,1,.7,1.5.7.7,0,0,1-.4.6c-.061.021-.046-.749-.151-.851A1.249,1.249,0,0,0,996.612,318.645Z" transform="translate(-990.381 -251.963)" fill="#4192d0"/>
      <g id="Grupo_4289" data-name="Grupo 4289" transform="translate(3.559)">
        <path id="Caminho_3406" data-name="Caminho 3406" d="M993.994,251.056c1.82-.35,10.416-1.122,16.224,5.154,1.948,2.1,2.68,4.912,2.184,6.776a7.439,7.439,0,0,1-2.982,4.206,3.089,3.089,0,0,1-4.608-2.337c-.148-2.173,1.474-2.584,1.776-4.016a4.365,4.365,0,0,0-.318-3.579c-1.231-2.384-5.356-5.505-10.361-5.6C994.912,251.64,993.751,251.1,993.994,251.056Z" transform="translate(-993.962 -250.827)" fill="#2e3e91"/>
        <path id="Caminho_3407" data-name="Caminho 3407" d="M1007.7,256.063a6.521,6.521,0,0,1,3.4,5.035,5.4,5.4,0,0,1-1.541,4.611,1.771,1.771,0,0,1-2.941-1.794c.3-1.685,1.754-1.821,1.83-4.37C1008.495,258.241,1007,255.7,1007.7,256.063Z" transform="translate(-994.182 -250.917)" fill="#d59d65"/>
        <path id="Caminho_3408" data-name="Caminho 3408" d="M1009.274,259.1c.252-.143.56.029.515.25s-.255.362-.408.248S1009.144,259.172,1009.274,259.1Z" transform="translate(-994.228 -250.97)" fill="#fff"/>
        <path id="Caminho_3409" data-name="Caminho 3409" d="M1009.494,261a.439.439,0,0,1,.614.458c-.078.4-.38.55-.628.441A.522.522,0,0,1,1009.494,261Z" transform="translate(-994.228 -251.003)" fill="#fff"/>
        <path id="Caminho_3410" data-name="Caminho 3410" d="M1008.022,263.458a.851.851,0,0,1,1.407.093.817.817,0,0,1-.2,1.087.8.8,0,0,1-1.147.014A.978.978,0,0,1,1008.022,263.458Z" transform="translate(-994.204 -251.041)" fill="#fff"/>
      </g>
      <path id="Caminho_3411" data-name="Caminho 3411" d="M994.817,268c-.93-.081-3.835-.369-3.964-.828s-.094-4.114-.094-5.649v-7.438c0-.8,1.609-1.32,2.032-1.448s2.354.02,2.354.686-.837.3-1.223.77-.97,5.5-.966,6.078,1.1-.879,1.74-1.137,3.723-1.889,5.757.493,1.586,4.377.338,6.176C999.54,267.332,997.961,268.277,994.817,268Z" transform="translate(-990.346 -250.858)" fill="#2e3e91"/>
      <path id="Caminho_3412" data-name="Caminho 3412" d="M996.612,263.368a1.428,1.428,0,0,1,.606-2.5,2.039,2.039,0,0,1,2.259,1.528c.349,1.3-1.024,3.182-2.7,3.558a3.846,3.846,0,0,1-3.265-.807c-.891-.879-.851-2.927-.649-3.857.143-.654.1-1.012.3-1.189.145-.13,2.266-1.333,1.569-.951-1.281.7-1.523,3.675-1.05,4.61a2.607,2.607,0,0,0,2.172,1.549,2.809,2.809,0,0,0,2.14-.876,3.549,3.549,0,0,0,.7-1.5.7.7,0,0,0-.4-.6c-.061-.021-.046.749-.151.851A1.249,1.249,0,0,1,996.612,263.368Z" transform="translate(-990.381 -250.971)" fill="#4192d0"/>
      <path id="Caminho_3413" data-name="Caminho 3413" d="M992.017,308.8c.012.369.869-.678,1.178-1.178s.416-1.1,1-1.452c.6-.366.786-.354.786-.354a1.33,1.33,0,0,0-1.226-.135,5.116,5.116,0,0,0-.81.524,5.012,5.012,0,0,0,.3-1.274,4.88,4.88,0,0,0-.929-1.738c-.155-.154.142,1.381.035,2.084S992.005,308.432,992.017,308.8Z" transform="translate(-990.368 -251.74)" fill="#fff"/>
      <path id="Caminho_3414" data-name="Caminho 3414" d="M993.538,309.921a7.025,7.025,0,0,1,1.832-1.357c.751-.321,1.042-.731,1.065-.922s.4.427-.059,1.046c-.14.189-.586.382-.339.441a13.494,13.494,0,0,1,1.7.232,3.442,3.442,0,0,1,1.036.7l-5.251-.013Z" transform="translate(-990.395 -251.817)" fill="#fff"/>
      <path id="Caminho_3415" data-name="Caminho 3415" d="M993.3,309.13a18.842,18.842,0,0,0,2.151-1.2c.4-.338.721-.876.292-1.336s-1.22-.1-1.628.46c-.334.458-.741,1.329-1.076,1.813C992.795,309.216,993.035,309.269,993.3,309.13Zm1.211-1.939a.675.675,0,0,1,.676-.468.482.482,0,0,1,.286.806C994.993,308.151,994.359,307.622,994.508,307.192Z" transform="translate(-990.384 -251.796)" fill="#d59d65"/>
      <path id="Caminho_3416" data-name="Caminho 3416" d="M992.166,335.309a10.548,10.548,0,0,1,.114,3.733c-.091,1.73-.695,2.676-1.138,2.959s-.267.019-.41.546c-.1.363-.1.308.2.66s.626.08.819-.114,1.013-.717,1.355-.99a.393.393,0,1,1,.446.446c-.273.342-.8,1.161-.99,1.355s-.467.512-.114.819.3.3.66.2c.528-.142.261.034.546-.41s1.229-1.046,2.958-1.138a10.554,10.554,0,0,1,3.734.114c.591.3,1.3,1.388,1.832,1.651a1.984,1.984,0,0,0,1.013.17,8.925,8.925,0,0,0-.24-2.356c-.239-.876-1.024-2.253-1.786-2.492a15.944,15.944,0,0,0-1.935-.387c-.126-.034-.683.045.137-.205s1.456-.523,1.49-1.012.273-2.686.375-3.335a7.729,7.729,0,0,0,.2-1.3l0-.008h0v0l-.006,0a7.57,7.57,0,0,0-1.3.2c-.649.1-2.845.341-3.334.375s-.763.671-1.013,1.491-.171.262-.205.137a15.942,15.942,0,0,0-.387-1.935c-.239-.762-1.616-1.548-2.492-1.786a8.926,8.926,0,0,0-2.356-.24,1.978,1.978,0,0,0,.171,1.013C990.777,334.012,991.87,334.718,992.166,335.309Z" transform="translate(-990.339 -252.25)" fill="#2e3e91"/>
    </g>
    <path id="Caminho_3417" data-name="Caminho 3417" d="M1048.158,289.776c-.518-.243-.585-.117-.461-.43a6.236,6.236,0,0,0,.276-1.612,7.1,7.1,0,0,0-1.651.309c-.314.124-.153.021-.4-.5a1.292,1.292,0,0,0-1.23-.7s-1.025.26-1.23.7c-.242.518-.116.585-.429.461a6.248,6.248,0,0,0-1.613-.276,7.115,7.115,0,0,0,.308,1.652c.125.313.021.152-.5.395a1.293,1.293,0,0,0-.7,1.23s.272.987.7,1.187c.517.243.585.117.46.43a6.235,6.235,0,0,0-.275,1.612,7.1,7.1,0,0,0,1.651-.309c.313-.124.153-.021.395.5a1.294,1.294,0,0,0,1.23.7s1.026-.26,1.23-.7c.243-.518.116-.585.43-.461a6.24,6.24,0,0,0,1.612.276,7.12,7.12,0,0,0-.308-1.652c-.124-.313-.021-.152.5-.395a1.292,1.292,0,0,0,.7-1.23S1048.583,289.975,1048.158,289.776Z" transform="translate(-11558.889 -12992.648)" fill="#2e3e91"/>
    <path id="Caminho_3418" data-name="Caminho 3418" d="M1058.08,290.8h-.03a4.175,4.175,0,0,0-2.622-1.24,5.375,5.375,0,0,0-2.926.347c-.735.319-1.248.583-1.595.43a2.172,2.172,0,0,1-1.082-1.692c-.069-.9-.3-1.17-.142-1.382s.92-.337,1.474-.614a3.74,3.74,0,0,0,1.678-1.873,6.312,6.312,0,0,0,.446-2.246.261.261,0,0,0-.228-.229,6.338,6.338,0,0,0-2.247.446,3.738,3.738,0,0,0-1.872,1.678c-.278.555-.4,1.318-.615,1.474s-.48-.073-1.382-.142a2.168,2.168,0,0,1-1.691-1.082c-.152-.347.111-.86.429-1.595a5.364,5.364,0,0,0,.347-2.926,4.342,4.342,0,0,0-1.188-2.585V277.5h-.19v.068a4.346,4.346,0,0,0-1.188,2.585,5.374,5.374,0,0,0,.347,2.926c.319.735.583,1.248.43,1.595a2.172,2.172,0,0,1-1.692,1.082c-.9.07-1.17.3-1.382.142s-.337-.919-.614-1.474a3.746,3.746,0,0,0-1.873-1.678,6.309,6.309,0,0,0-2.246-.445.257.257,0,0,0-.228.228,6.334,6.334,0,0,0,.445,2.246,3.745,3.745,0,0,0,1.678,1.873c.554.277,1.318.4,1.474.614s-.074.48-.142,1.382a2.171,2.171,0,0,1-1.082,1.692c-.347.152-.86-.111-1.595-.43a5.373,5.373,0,0,0-2.926-.347,4.174,4.174,0,0,0-2.622,1.24h-.031c0,.008.011.015.015.022s-.011.014-.015.022h.031a4.174,4.174,0,0,0,2.622,1.24,5.373,5.373,0,0,0,2.926-.347c.735-.319,1.248-.583,1.595-.43a2.171,2.171,0,0,1,1.082,1.692c.069.9.3,1.17.142,1.382s-.92.337-1.474.614a3.745,3.745,0,0,0-1.678,1.873,6.334,6.334,0,0,0-.445,2.246.257.257,0,0,0,.228.228,6.308,6.308,0,0,0,2.246-.445,3.746,3.746,0,0,0,1.873-1.678c.277-.555.4-1.318.614-1.474s.48.073,1.382.142a2.172,2.172,0,0,1,1.692,1.082c.152.347-.111.86-.43,1.595a5.374,5.374,0,0,0-.347,2.926,4.346,4.346,0,0,0,1.188,2.585v.068h.19v-.068a4.342,4.342,0,0,0,1.188-2.585,5.364,5.364,0,0,0-.347-2.926c-.318-.735-.582-1.248-.429-1.595a2.168,2.168,0,0,1,1.691-1.082c.9-.07,1.17-.3,1.382-.142s.337.919.615,1.474a3.738,3.738,0,0,0,1.872,1.678,6.309,6.309,0,0,0,2.247.445.385.385,0,0,0,.153-.074.393.393,0,0,0,.075-.154,6.312,6.312,0,0,0-.446-2.246,3.74,3.74,0,0,0-1.678-1.873c-.554-.277-1.317-.4-1.474-.614s.074-.48.142-1.382a2.172,2.172,0,0,1,1.082-1.692c.347-.152.86.111,1.595.43a5.375,5.375,0,0,0,2.926.347,4.175,4.175,0,0,0,2.622-1.24h.03c0-.008-.011-.015-.015-.022S1058.077,290.808,1058.08,290.8Zm-8.99,2.018a3.039,3.039,0,0,1-2.333,2.334,4.925,4.925,0,0,1-4.036,0,3.039,3.039,0,0,1-2.333-2.334,4.837,4.837,0,0,1,0-3.993,3.039,3.039,0,0,1,2.333-2.334,4.925,4.925,0,0,1,4.036,0,3.039,3.039,0,0,1,2.333,2.334,4.836,4.836,0,0,1,0,3.993Z" transform="translate(-11558.729 -12992.485)" fill="#d59d65"/>
  </g>
</svg>
