<svg xmlns="http://www.w3.org/2000/svg" width="111.409" height="111.409" viewBox="0 0 111.409 111.409">
  <g id="Grupo_4326" data-name="Grupo 4326" transform="translate(10826.137 12914)">
    <rect id="Retângulo_815" data-name="Retângulo 815" width="111.408" height="111.408" transform="translate(-10714.729 -12913.999) rotate(90)" fill="none"/>
    <path id="Caminho_3465" data-name="Caminho 3465" d="M772.989,109.776c2.994-.919,4.725-4.051,5.01-7.11.342-3.677-3.626-5.046-5.825-4.728-1.552.225-4.319,3.122-2.857,5.537.617,1.018,2.434,1.716,1.157,1.954a3.994,3.994,0,0,1-4.149-2.473c-.33-.849.069-4.284,1.744-7.156s4.191-7.611,8.573-10.8a11.524,11.524,0,0,1,7.6-2.394V77.856a1.793,1.793,0,0,1-.2.028A21.689,21.689,0,0,0,767.275,87c-3.244,4.973-3.734,6.967-4.453,11.76a11.5,11.5,0,0,0,1.839,8.047c1.233,1.581-3.424-2.8-2.4-9.032,1.148-6.99,3.658-13.11,10.6-17.586s10.49-3.674,11.372-3.7h0v-1.1s-8.4-.277-12.594,3.034-7.712,6.74-9.827,13-.837,13.045,1.676,16.117S770,110.7,772.989,109.776Z" transform="translate(-11554.01 -12988.961)" fill="#2e3e91"/>
    <path id="Caminho_3466" data-name="Caminho 3466" d="M793.152,75.592h-3.83s-.2,9.455.081,10.213.279,4.269,5.664,4.229a6.653,6.653,0,0,0,6.543-4.867l-.319-9.575-3.83.16s.2,5.944-.039,7.14-.03,2.5-1.945,2.419-1.885-1.94-2.124-3.136S793.152,75.592,793.152,75.592Z" transform="translate(-11554.507 -12988.965)" fill="#4192d0"/>
    <path id="Caminho_3467" data-name="Caminho 3467" d="M758.367,143.1c1.233.141,3.392-1.258,4.056-2.68s1.637-1.353,1.969-.641a2.949,2.949,0,0,0,2.467,2.087c1.612.142,3.155-.119,3.321-.475s-.1-3.273.024-3.771,1.874-.261,2.751.711,1.9,2.464,1.7,3.141.2,1.128,1.529.512,2.68-1.3,2.988-2.989.475-2.8.949-2.894,1.59,1.684,2.894,2.372a10.241,10.241,0,0,0,4.649,1.281,14.536,14.536,0,0,0,4.441-.124l-.008-.013.013.008a14.554,14.554,0,0,0,.123-4.441,10.222,10.222,0,0,0-1.28-4.648c-.688-1.3-2.467-2.42-2.372-2.895s1.21-.641,2.894-.948,2.372-1.661,2.989-2.989.166-1.732-.512-1.529-2.168-.82-3.141-1.7-1.21-2.632-.711-2.751,3.415.142,3.771-.024.617-1.708.475-3.321a2.949,2.949,0,0,0-2.087-2.467c-.712-.332-.783-1.3.64-1.969s2.823-2.823,2.68-4.056a6.732,6.732,0,0,0-2.158-3.534c-.973-.926-3.013-1.447-2.823-.641a5.688,5.688,0,0,1-1.092,3.8c-.783.782-3.2.925-5.1,1.067a15.424,15.424,0,0,0-7.71,3.962c-2.087,2.087-2.49,3.439-2.632,4.388s-.475,1.186-.594,1.068.126-1.077-1.695-2.041a3.545,3.545,0,0,0-4.7.633l0,0a3.545,3.545,0,0,0-.633,4.7c.964,1.821,1.922,1.577,2.04,1.695s-.118.451-1.067.593-2.3.545-4.388,2.632a15.424,15.424,0,0,0-3.962,7.71c-.142,1.9-.285,4.316-1.067,5.1a5.689,5.689,0,0,1-3.8,1.092c-.807-.191-.285,1.85.641,2.823A6.739,6.739,0,0,0,758.367,143.1Z" transform="translate(-11553.889 -12989.413)" fill="#2e3e91"/>
    <path id="Caminho_3468" data-name="Caminho 3468" d="M727.29,80.52a10.748,10.748,0,0,0,3.531-1.905,7.171,7.171,0,0,0,2.07-3.661h-5.6Z" transform="translate(-11553.427 -12988.953)" fill="#d59d65"/>
    <path id="Caminho_3469" data-name="Caminho 3469" d="M797.513,95.02c.112-1.654-1.239-1.969-2.126-2.031s-2.259.711-2.2,1.912a2.077,2.077,0,0,0,2.045,2.132A2.179,2.179,0,0,0,797.513,95.02Z" transform="translate(-11554.576 -12989.268)" fill="#d59d65"/>
    <path id="Caminho_3470" data-name="Caminho 3470" d="M774.955,101.48a1.53,1.53,0,0,0-2.365-.092,1.631,1.631,0,1,0,2.064,2.52A1.754,1.754,0,0,0,774.955,101.48Z" transform="translate(-11554.205 -12989.405)" fill="#4192d0"/>
    <path id="Caminho_3471" data-name="Caminho 3471" d="M762.149,120.616c-.919,2.994-4.051,4.725-7.11,5.009-3.677.343-5.046-3.625-4.728-5.824.225-1.551,3.122-4.319,5.537-2.857,1.018.617,1.716,2.434,1.954,1.157a3.994,3.994,0,0,0-2.473-4.149c-.85-.33-4.284.069-7.156,1.744s-7.611,4.191-10.8,8.573a11.524,11.524,0,0,0-2.393,7.6h-4.754a1.8,1.8,0,0,0,.028-.2,21.689,21.689,0,0,1,9.115-16.766c4.973-3.244,6.967-3.734,11.76-4.453a11.5,11.5,0,0,1,8.047,1.839c1.581,1.233-2.8-3.424-9.032-2.4-6.991,1.148-13.11,3.658-17.586,10.6s-3.674,10.49-3.7,11.372h-1.1s-.277-8.4,3.034-12.593,6.74-7.712,13-9.827,13.045-.837,16.117,1.676S763.068,117.623,762.149,120.616Z" transform="translate(-11553.435 -12989.536)" fill="#2e3e91"/>
    <path id="Caminho_3472" data-name="Caminho 3472" d="M753.853,122.582a1.53,1.53,0,0,1-.092-2.365,1.631,1.631,0,1,1,2.52,2.064A1.754,1.754,0,0,1,753.853,122.582Z" transform="translate(-11553.879 -12989.731)" fill="#4192d0"/>
    <path id="Caminho_3473" data-name="Caminho 3473" d="M745.032,175.693c11.045,8.1,26.065,9.245,36.416,6.841,5.379-1.25,10.554-4.544,12.065-5.482a.6.6,0,0,0,.04-1c-.845-.627-2.361-1.724-3.988-2.768-2.467-1.581-2.467-4.744-3.1-8.919s3.352-7.021,4.808-8.1a30.119,30.119,0,0,1,7.781-3.354c1.265-.126,3.036,1.772,3.795,2.657s.254,3.8.443,4.745,2.024,1.139,2.973,1.2,2.277-.253,2.34-1.581a8.6,8.6,0,0,1,.93-2.955,8.6,8.6,0,0,1,2.955-.93c1.328-.064,1.644-1.392,1.581-2.34s-.253-2.784-1.2-2.973-3.859.316-4.745-.443-2.783-2.53-2.656-3.795a30.08,30.08,0,0,1,3.352-7.781c1.075-1.455,3.921-5.439,8.1-4.808s7.338.633,8.919,3.1c1.044,1.627,2.141,3.144,2.768,3.988a.6.6,0,0,0,1-.04c.937-1.511,4.233-6.686,5.482-12.065,2.405-10.35,1.255-25.371-6.841-36.416-6.12-8.35-13.525-17.375-25.233-17.136l.247,9.482a4.7,4.7,0,0,1,3.385-1.233c1.739.285,7.445,2.929,11.487,9.893s6.066,14.049,5.94,16.832-.449,6.86-.927,6.523a36.876,36.876,0,0,0-7.613-2.917c-.56-.121-.585-1.09-.142-1.532,1.169-1.17,2.416-5.749.076-8.975s-4.639-3.892-7.41-3.651a9.426,9.426,0,0,0-4.669,1.506c-.19.19,2.846.063,3.859,1.075a7.951,7.951,0,0,1,1.076,8.414c-1.834,3.605-7.844,8.476-9.489,12.019s-2.784,8.223-.316,10.69,3.8,1.518,4.3,2.024a2.221,2.221,0,0,1,.063,2.34c-.379.632.379,1.265.379,1.644s.633,2.151-.253,3.543-1.455,1.961-2.846.822-2.687-3.006-3.97-2.99a2.454,2.454,0,0,0-2.778,2.778c-.016,1.282,1.851,2.577,2.99,3.97s.569,1.96-.822,2.846-3.163.253-3.542.253-1.012-.759-1.645-.379a2.221,2.221,0,0,1-2.34-.063c-.506-.506.442-1.834-2.024-4.3s-7.148-1.328-10.69.316-8.414,7.654-12.019,9.489a7.953,7.953,0,0,1-8.414-1.076c-1.012-1.012-.885-4.048-1.075-3.859a9.426,9.426,0,0,0-1.506,4.669c-.241,2.772.424,5.07,3.651,7.41s7.8,1.094,8.975-.076c.442-.443,1.411-.419,1.532.141a36.876,36.876,0,0,0,2.917,7.613c.338.478-3.74.8-6.523.927s-9.868-1.9-16.832-5.94-9.608-9.748-9.893-11.487a4.7,4.7,0,0,1,1.233-3.385l-9.482-.247C727.657,162.168,736.682,169.573,745.032,175.693Z" transform="translate(-11553.437 -12988.96)" fill="#2e3e91"/>
    <path id="Caminho_3474" data-name="Caminho 3474" d="M830.018,134.994c.373-1.212-2.777-8.739-6.909-12.281-4.48-3.838-9.861-4.868-13.507-3.3-3.462,1.486-6.832,4.578-7.677,7.32s1.005,7.991,5.583,7.639c4.47-.344,4.536-3.114,7.358-4.156,3.1-1.145,5.43-1.258,8.211-.026S829.737,135.91,830.018,134.994Z" transform="translate(-11554.725 -12989.716)" fill="#4192d0"/>
    <path id="Caminho_3475" data-name="Caminho 3475" d="M823.479,127.043a12.321,12.321,0,0,0-10.342-4.99c-3.387.182-6.6,1.605-8.2,4.141s.089,6.35,4.156,5.008c3.07-1.013,2.926-3.777,7.672-4.614C819.192,126.159,824.343,128.263,823.479,127.043Z" transform="translate(-11554.771 -12989.774)" fill="#d59d65"/>
    <path id="Caminho_3476" data-name="Caminho 3476" d="M800.668,187.489a5.689,5.689,0,0,1,2.53-3.256c2.119-1.348,4.278-3.352,6.937-3.314a12.353,12.353,0,0,1,5.78,1.465c.963.578,2.7,1.387,3.545,1.233s2.043-2.659-.347-3.893-5.2-.193-5.973-1.426,1.31-2.08,1.58-3.66a13.3,13.3,0,0,0-1.079-6.32,6.669,6.669,0,0,1,.475-5.485c.121-.134.5-.508.629-.629a6.669,6.669,0,0,1,5.485-.475,13.316,13.316,0,0,0,6.32,1.079c1.58-.27,2.428-2.351,3.661-1.58s.193,3.583,1.426,5.973,3.738,1.195,3.892.347-.655-2.582-1.233-3.545a12.355,12.355,0,0,1-1.464-5.78c-.039-2.659,1.983-4.806,3.313-6.937a5.08,5.08,0,0,1,3.679-2.6v-9.108c-2.306.951-6.029,6.662-6.684,8.165s-.848,6.243-1.195,6.436-.809.423-1.849-.771-1.079-3.314-3.623-5.087-4.277,1.58-4.8,2.831,2.218,4.144,2.372,4.76.385,4.162.385,4.162-.078.385-1.195.424-3.044-2.119-4.894-2.967-3.783,1.3-5.588,3.122l-.191.191c-1.818,1.8-3.97,3.738-3.122,5.588s3.006,3.776,2.967,4.894-.424,1.194-.424,1.194-3.545-.231-4.161-.385-3.511-2.894-4.762-2.372-4.6,2.257-2.83,4.8,3.892,2.582,5.086,3.623.964,1.5.771,1.849-4.918.576-6.436,1.195c-2.276.929-7.26,4.872-7.806,6.262Z" transform="translate(-11554.552 -12990.08)" fill="#2e3e91"/>
    <path id="Caminho_3477" data-name="Caminho 3477" d="M840.47,188.135l0-11.5a3.551,3.551,0,0,0-3.414,1.887c-.674,1.437-.323,1.625-1.195,1.279a17.427,17.427,0,0,0-4.481-.766,19.727,19.727,0,0,0,.857,4.589c.345.873.057.425-1.381,1.1a3.6,3.6,0,0,0-1.94,3.418Z" transform="translate(-11555.198 -12990.727)" fill="#2e3e91"/>
    <path id="Caminho_3478" data-name="Caminho 3478" d="M758.054,141.986c.749.139,1.886,0,3.216-2.052s2.274-2.329,2.884-2.385,2.218,1.663,2.765,2.267.562.783,1.089.312.388-3.993.388-5.712-.887-2.107-1.082-4.575,1.581-1.58,2.441-.776.3,3.188.637,5.185,1.47,2.467,2.773,3.05a5.324,5.324,0,0,1,2.551,2.717c.222.72.694,1.081,1.137.582s1.414-1.137.583-3.521.083-3.077.527-3.3,1.137-.25,3.216,1.718a8.7,8.7,0,0,0,4.6,2.773,11.01,11.01,0,0,0,5.287.591l.17-.17a11.036,11.036,0,0,0-.59-5.287,8.705,8.705,0,0,0-2.773-4.6c-1.968-2.079-1.941-2.772-1.719-3.216s.915-1.359,3.3-.527,3.021-.139,3.521-.583.138-.915-.582-1.137a5.321,5.321,0,0,1-2.718-2.551c-.582-1.3-1.053-2.44-3.05-2.772s-4.38.221-5.184-.638-1.691-2.634.776-2.44,2.855,1.081,4.575,1.081,5.24.139,5.711-.388.292-.54-.311-1.088-2.322-2.156-2.267-2.766.333-1.552,2.385-2.884,2.19-2.467,2.052-3.216a5.039,5.039,0,0,0-2.108-2.939c-1.275-.831-.332.832-.471,1.359a3.282,3.282,0,0,1-2.246,2.689c-1.83.554-3.243.25-6.488,1.386s-4.408,1.525-6.21,3.77-2.357,4.021-1.414,4.963,2.994,1.33,3.937,2.274a6.082,6.082,0,0,1,1.691,2.8c-.056.388-2.108,0-3.133-.472s-2.689-1.691-2.883-2.329-.526-1.69-.831-.609.582,3.242,1.136,3.853,1.608,1.886,2.607,1.886,1.912-.084,2.162-.111a17.515,17.515,0,0,1,3.161,4.935c.372,1.115.754,2.151.958,2.719-.568-.2-1.6-.586-2.719-.958a17.518,17.518,0,0,1-4.935-3.16c.028-.25.111-1.164.111-2.163s-1.275-2.052-1.886-2.607-2.773-1.441-3.853-1.136-.029.637.609.831,1.857,1.857,2.329,2.883.86,3.078.472,3.133a6.082,6.082,0,0,1-2.8-1.691c-.943-.943-1.331-2.995-2.274-3.937s-2.717-.388-4.963,1.414-2.634,2.966-3.771,6.211-.831,4.657-1.385,6.488a3.284,3.284,0,0,1-2.689,2.245c-.528.139-2.191-.8-1.359.472A5.034,5.034,0,0,0,758.054,141.986Z" transform="translate(-11553.907 -12989.434)" fill="#4192d0"/>
    <path id="Caminho_3479" data-name="Caminho 3479" d="M772.1,120.038a3,3,0,0,0-.038-4.435,2.843,2.843,0,0,0-3.985-.062c-.723.723-1.874,2.682-.4,4.025S770.7,121.441,772.1,120.038Z" transform="translate(-11554.118 -12989.647)" fill="#4192d0"/>
    <path id="Caminho_3480" data-name="Caminho 3480" d="M817.7,125.045c.2-.509-.208-1.039-.607-.9s-.607.576-.352.831S817.6,125.308,817.7,125.045Z" transform="translate(-11554.984 -12989.811)" fill="#fff"/>
    <path id="Caminho_3481" data-name="Caminho 3481" d="M814.081,125.141a.829.829,0,0,0-1.023-1.022c-.734.253-.926.862-.653,1.293A.985.985,0,0,0,814.081,125.141Z" transform="translate(-11554.908 -12989.81)" fill="#fff"/>
    <path id="Caminho_3482" data-name="Caminho 3482" d="M809.851,128.541a1.607,1.607,0,0,0-.559-2.6,1.542,1.542,0,0,0-1.978.661,1.511,1.511,0,0,0,.288,2.147A1.848,1.848,0,0,0,809.851,128.541Z" transform="translate(-11554.816 -12989.84)" fill="#fff"/>
    <path id="Caminho_3483" data-name="Caminho 3483" d="M832.641,131.662a13.361,13.361,0,0,1-.648-1.845,10.418,10.418,0,0,0,1.819-4.412,47.643,47.643,0,0,0-.2-15.721c-1.691-8.724-4.8-15.209-11.4-22.622-5.859-6.579-4.766-5.9-1.265-2.2s10.113,11,12.607,20.589a48.234,48.234,0,0,1,1.4,19.775C834.441,129.443,832.945,131.273,832.641,131.662Z" transform="translate(-11555.01 -12989.078)" fill="#fff"/>
    <path id="Caminho_3484" data-name="Caminho 3484" d="M728.138,140.606v-3.83s9.455-.2,10.213.081,4.269.279,4.229,5.664a6.653,6.653,0,0,1-4.867,6.543l-9.575-.319.16-3.83s5.943.2,7.14-.039,2.5-.03,2.419-1.945-1.94-1.885-3.136-2.124S728.138,140.606,728.138,140.606Z" transform="translate(-11553.441 -12990.03)" fill="#4192d0"/>
    <path id="Caminho_3485" data-name="Caminho 3485" d="M747.566,144.967c-1.654.112-1.969-1.239-2.03-2.126s.711-2.259,1.911-2.2a2.077,2.077,0,0,1,2.132,2.045A2.18,2.18,0,0,1,747.566,144.967Z" transform="translate(-11553.744 -12990.099)" fill="#d59d65"/>
    <path id="Caminho_3486" data-name="Caminho 3486" d="M731.622,187.467c-1.027-.033,1.887-2.415,3.276-3.276s3.047-1.155,4.036-2.78c1.017-1.669.983-2.184.983-2.184s1.234,1.887.374,3.409a14.319,14.319,0,0,1-1.456,2.25,13.944,13.944,0,0,1,3.54-.827c1.323.067,4.4,2.151,4.83,2.581s-3.838-.4-5.79-.1S732.648,187.5,731.622,187.467Z" transform="translate(-11553.498 -12990.771)" fill="#2e3e91"/>
    <path id="Caminho_3487" data-name="Caminho 3487" d="M728.669,183.129a19.617,19.617,0,0,0,3.772-5.1c.893-2.084,2.031-2.893,2.56-2.959s-1.188-1.105-2.907.164c-.526.388-1.063,1.629-1.228.941-.231-.962-.2-3.707-.643-4.73a9.585,9.585,0,0,0-1.951-2.878l.032,14.59Z" transform="translate(-11553.443 -12990.586)" fill="#2e3e91"/>
    <path id="Caminho_3488" data-name="Caminho 3488" d="M787.54,177.472c-1.211.373-8.739-2.777-12.281-6.909-3.838-4.48-4.868-9.861-3.3-13.507,1.486-3.462,4.578-6.832,7.32-7.677s7.991,1.005,7.639,5.583c-.344,4.47-3.114,4.535-4.156,7.358-1.145,3.1-1.258,5.43-.026,8.211S788.456,177.191,787.54,177.472Z" transform="translate(-11554.193 -12990.248)" fill="#4192d0"/>
    <path id="Caminho_3489" data-name="Caminho 3489" d="M779.589,170.933a12.324,12.324,0,0,1-4.99-10.342c.182-3.387,1.605-6.6,4.141-8.2s6.35.088,5.008,4.156c-1.013,3.07-3.777,2.926-4.614,7.672C778.7,166.646,780.81,171.8,779.589,170.933Z" transform="translate(-11554.251 -12990.293)" fill="#d59d65"/>
    <path id="Caminho_3490" data-name="Caminho 3490" d="M777.591,165.157c-.509.2-1.039-.208-.9-.607s.576-.607.831-.352S777.854,165.055,777.591,165.157Z" transform="translate(-11554.287 -12990.508)" fill="#fff"/>
    <path id="Caminho_3491" data-name="Caminho 3491" d="M777.687,161.534a.828.828,0,0,1-1.022-1.022c.253-.734.862-.926,1.293-.653A.984.984,0,0,1,777.687,161.534Z" transform="translate(-11554.287 -12990.432)" fill="#fff"/>
    <path id="Caminho_3492" data-name="Caminho 3492" d="M781.087,157.305a1.607,1.607,0,0,1-2.6-.559,1.543,1.543,0,0,1,.661-1.978,1.511,1.511,0,0,1,2.147.288A1.848,1.848,0,0,1,781.087,157.305Z" transform="translate(-11554.316 -12990.34)" fill="#fff"/>
    <path id="Caminho_3493" data-name="Caminho 3493" d="M784.208,180.1a13.368,13.368,0,0,0-1.845-.648,10.433,10.433,0,0,1-4.412,1.819,47.645,47.645,0,0,1-15.721-.2c-8.724-1.691-15.209-4.8-22.622-11.4-6.579-5.859-5.9-4.766-2.2-1.265s11,10.113,20.589,12.607a48.232,48.232,0,0,0,19.775,1.4C781.989,181.9,783.82,180.4,784.208,180.1Z" transform="translate(-11553.555 -12990.533)" fill="#fff"/>
    <path id="Caminho_3494" data-name="Caminho 3494" d="M731.575,184.634c1.343-.931,3.765-2.06,5.037-2.988,1.554-1.134,2.562-3.33,1.281-4.525s-2.775-.3-3.714.811a52.255,52.255,0,0,0-3.33,5.976C730.464,184.634,730.61,185.3,731.575,184.634Zm3.721-6.766a1.34,1.34,0,0,1,2.24.8,1.876,1.876,0,0,1-1.3,1.879C735.04,180.957,733.57,179.2,735.3,177.868Z" transform="translate(-11553.485 -12990.725)" fill="#d59d65"/>
    <path id="Caminho_3495" data-name="Caminho 3495" d="M835.7,75.95c1.027.032-1.887,2.415-3.276,3.275s-3.047,1.155-4.036,2.78c-1.017,1.669-.983,2.185-.983,2.185s-1.234-1.887-.374-3.409a14.315,14.315,0,0,1,1.456-2.25,13.943,13.943,0,0,1-3.54.827c-1.323-.066-4.4-2.151-4.83-2.58s3.838.4,5.79.1S834.678,75.917,835.7,75.95Z" transform="translate(-11555.045 -12988.971)" fill="#2e3e91"/>
    <path id="Caminho_3496" data-name="Caminho 3496" d="M838.817,80.175a19.59,19.59,0,0,0-3.772,5.095c-.893,2.085-2.031,2.894-2.561,2.959s1.188,1.105,2.907-.164c.526-.388,1.063-1.628,1.228-.941.231.962.2,3.707.643,4.73a9.6,9.6,0,0,0,1.951,2.879l-.032-14.591Z" transform="translate(-11555.259 -12989.044)" fill="#2e3e91"/>
    <path id="Caminho_3497" data-name="Caminho 3497" d="M835.894,78.78c-1.343.931-3.765,2.06-5.038,2.989-1.553,1.134-2.561,3.329-1.28,4.525s2.775.3,3.714-.812a52.107,52.107,0,0,0,3.33-5.976C837,78.78,836.857,78.112,835.894,78.78Zm-3.721,6.766a1.34,1.34,0,0,1-2.24-.795,1.877,1.877,0,0,1,1.3-1.88C832.428,82.457,833.9,84.219,832.173,85.546Z" transform="translate(-11555.2 -12989.016)" fill="#d59d65"/>
    <path id="Caminho_3498" data-name="Caminho 3498" d="M754.167,86.052c-1.147.573-3.882.4-7.235.22s-5.183-1.345-5.734-2.2-.035-.518-1.059-.795c-.7-.19-.6-.2-1.279.4s-.154,1.213.221,1.589,1.389,1.963,1.919,2.624a2.466,2.466,0,0,1,.427,1.292,2.466,2.466,0,0,1-1.292-.427c-.661-.53-2.25-1.544-2.624-1.919s-.992-.9-1.588-.221-.588.577-.4,1.279c.277,1.024-.066.508.795,1.059s2.029,2.382,2.2,5.734.353,6.088-.22,7.235-2.691,2.514-3.2,3.551a3.855,3.855,0,0,0-.331,1.963,17.285,17.285,0,0,0,4.566-.464c1.7-.463,4.367-1.985,4.83-3.463a31.054,31.054,0,0,0,.75-3.749c.066-.243-.088-1.324.4.264s1.015,2.824,1.963,2.89,5.2.53,6.462.728a14.947,14.947,0,0,0,2.508.383l.016,0v-.006h.006l0-.016a14.932,14.932,0,0,0-.383-2.508c-.2-1.258-.662-5.514-.728-6.462s-1.3-1.478-2.89-1.963-.507-.331-.264-.4a31.05,31.05,0,0,0,3.75-.75c1.478-.464,3-3.132,3.463-4.83a17.285,17.285,0,0,0,.464-4.566,3.856,3.856,0,0,0-1.963.331C756.681,83.361,755.313,85.478,754.167,86.052Z" transform="translate(-11553.557 -12989.085)" fill="#2e3e91"/>
    <path id="Caminho_3499" data-name="Caminho 3499" d="M738.511,74.954c-.049.672-.313,3.51-1.381,5.065-1.215,1.772-1.251,1.945-1.563,1.91a5.234,5.234,0,0,1-1.667-1.181c-.244-.312,1.007-1.424,1.633-2.953A7.052,7.052,0,0,0,736,74.954h-1.106a5.07,5.07,0,0,1-.508,2.807,18.344,18.344,0,0,1-1.8,2.282l-.15.15a18.35,18.35,0,0,1-2.281,1.8,5.145,5.145,0,0,1-2.869.5V83.6a7.021,7.021,0,0,0,2.9-.464c1.529-.626,2.64-1.877,2.953-1.633a5.254,5.254,0,0,1,1.182,1.667c.034.312-.14.348-1.911,1.563-1.617,1.109-4.614,1.351-5.127,1.384v23.051c2.308-2.191,3.638-6.852,4.085-9.288.452-2.466-.486-7.434-1.355-9.763s.869-2.883,1.6-3.265,1.632.452,1.632.452a.429.429,0,0,0,.418-.626,2.111,2.111,0,0,1,1.285-2.119c.9-.417,2.084.9,2.414,1.095.234.136.344-.128.389-.294.167-.046.43-.156.295-.39-.191-.33-1.511-1.511-1.095-2.414a2.111,2.111,0,0,1,2.119-1.285.429.429,0,0,0,.626-.418s-.834-.9-.452-1.632.938-2.467,3.266-1.6,7.3,1.807,9.762,1.355c2.413-.441,7-1.755,9.219-4.023Z" transform="translate(-11553.427 -12988.953)" fill="#2e3e91"/>
    <path id="Caminho_3500" data-name="Caminho 3500" d="M826.723,187.681a26.948,26.948,0,0,1,1.2-5.606,14.826,14.826,0,0,1,2.285-4.2,14.772,14.772,0,0,1,4.2-2.285,26.95,26.95,0,0,1,5.607-1.2V150.6c-1.58.81-3.064,4.175-3.565,7.373a14.934,14.934,0,0,0,.963,8.132c.886,2.042,1.619,3.467,1.195,4.431a6.026,6.026,0,0,1-4.7,3.006c-2.5.193-3.25.833-3.841.4s-.937-2.556-1.708-4.1a10.387,10.387,0,0,0-5.2-4.663c-2.461-.807-5.009-1.443-6.244-1.239a.721.721,0,0,0-.633.634c-.205,1.235.431,3.782,1.238,6.243a10.388,10.388,0,0,0,4.663,5.2c1.542.771,3.661,1.118,4.1,1.708s-.2,1.337-.4,3.842a6.027,6.027,0,0,1-3.006,4.7c-.963.423-2.389-.309-4.431-1.195a14.931,14.931,0,0,0-8.131-.963c-3.2.5-6.564,1.984-7.373,3.564Z" transform="translate(-11554.746 -12990.272)" fill="#d59d65"/>
  </g>
</svg>
