<svg id="Grupo_4310" data-name="Grupo 4310" xmlns="http://www.w3.org/2000/svg" width="111.409" height="111.409" viewBox="0 0 111.409 111.409">
  <rect id="Retângulo_818" data-name="Retângulo 818" width="15.755" height="15.755" transform="translate(44.563 55.704) rotate(45)" fill="#4192d0"/>
  <rect id="Retângulo_819" data-name="Retângulo 819" width="15.755" height="15.755" transform="translate(11.141 89.126) rotate(45)" fill="#4192d0"/>
  <rect id="Retângulo_820" data-name="Retângulo 820" width="15.755" height="15.755" transform="translate(44.563 33.423) rotate(45)" fill="#4192d0"/>
  <rect id="Retângulo_821" data-name="Retângulo 821" width="15.755" height="15.755" transform="translate(11.141 0.001) rotate(45)" fill="#4192d0"/>
  <rect id="Retângulo_822" data-name="Retângulo 822" width="15.755" height="31.511" transform="translate(44.563 77.986) rotate(45)" fill="#2e3e91"/>
  <rect id="Retângulo_823" data-name="Retângulo 823" width="15.755" height="31.511" transform="translate(22.281 55.704) rotate(45)" fill="#2e3e91"/>
  <rect id="Retângulo_824" data-name="Retângulo 824" width="15.755" height="15.755" transform="translate(77.985 66.845) rotate(135)" fill="#4192d0"/>
  <path id="Caminho_3543" data-name="Caminho 3543" d="M318.688,142.589V120.308l-11.141,11.141Z" transform="translate(-207.279 -75.744)" fill="#4192d0"/>
  <path id="Caminho_3544" data-name="Caminho 3544" d="M205.5,120.308v22.281l11.141-11.141Z" transform="translate(-205.5 -75.744)" fill="#4192d0"/>
  <rect id="Retângulo_825" data-name="Retângulo 825" width="15.755" height="15.755" transform="translate(111.407 100.267) rotate(135)" fill="#4192d0"/>
  <rect id="Retângulo_826" data-name="Retângulo 826" width="15.755" height="15.755" transform="translate(77.985 44.563) rotate(135)" fill="#4192d0"/>
  <rect id="Retângulo_827" data-name="Retângulo 827" width="15.755" height="15.755" transform="translate(111.407 11.141) rotate(135)" fill="#4192d0"/>
  <rect id="Retângulo_828" data-name="Retângulo 828" width="15.755" height="31.511" transform="translate(89.126 100.267) rotate(135)" fill="#2e3e91"/>
  <rect id="Retângulo_829" data-name="Retângulo 829" width="15.755" height="31.511" transform="translate(111.407 77.986) rotate(135)" fill="#2e3e91"/>
  <rect id="Retângulo_830" data-name="Retângulo 830" width="15.755" height="31.511" transform="translate(66.844 33.423) rotate(-135)" fill="#2e3e91"/>
  <rect id="Retângulo_831" data-name="Retângulo 831" width="15.755" height="31.511" transform="translate(89.126 55.704) rotate(-135)" fill="#2e3e91"/>
  <rect id="Retângulo_832" data-name="Retângulo 832" width="15.755" height="31.511" transform="translate(22.281 11.141) rotate(-45)" fill="#2e3e91"/>
  <rect id="Retângulo_833" data-name="Retângulo 833" width="15.755" height="31.511" transform="translate(0 33.423) rotate(-45)" fill="#2e3e91"/>
  <path id="Caminho_3545" data-name="Caminho 3545" d="M250.854,188.142h22.281L261.995,177Z" transform="translate(-206.291 -76.733)" fill="#4192d0"/>
  <path id="Caminho_3546" data-name="Caminho 3546" d="M273.136,74.953H250.854l11.141,11.141Z" transform="translate(-206.291 -74.953)" fill="#4192d0"/>
</svg>
