<svg xmlns="http://www.w3.org/2000/svg" width="111.409" height="111.409" viewBox="0 0 111.409 111.409">
  <g id="Grupo_4332" data-name="Grupo 4332" transform="translate(10826.14 12757.409)">
    <g id="Grupo_4245" data-name="Grupo 4245" transform="translate(-10770.436 -12701.705)">
      <rect id="Retângulo_733" data-name="Retângulo 733" width="55.704" height="55.704" transform="translate(0 55.704) rotate(-90)" fill="none"/>
      <path id="Caminho_2845" data-name="Caminho 2845" d="M817.613,329.988a3.979,3.979,0,0,0-2.5,3.555c-.171,1.838,1.813,2.523,2.912,2.364.776-.113,2.16-1.561,1.429-2.769-.308-.509-1.216-.858-.579-.977a2,2,0,0,1,2.075,1.236,5.927,5.927,0,0,1-.872,3.578,16.454,16.454,0,0,1-4.286,5.4,5.762,5.762,0,0,1-3.8,1.2v2.377a.875.875,0,0,1,.1-.015,10.844,10.844,0,0,0,8.383-4.557A11.644,11.644,0,0,0,822.7,335.5a5.748,5.748,0,0,0-.92-4.024,5.42,5.42,0,0,1,1.2,4.516c-.574,3.495-1.83,6.556-5.3,8.793s-5.245,1.837-5.686,1.852h0v.548s4.2.139,6.3-1.517a13.173,13.173,0,0,0,4.913-6.5c1.057-3.131.42-6.522-.837-8.058A4.341,4.341,0,0,0,817.613,329.988Z" transform="translate(-784.467 -291.691)" fill="#2e3e91"/>
      <path id="Caminho_2846" data-name="Caminho 2846" d="M807.631,347.262h1.915s.1-4.728-.04-5.106-.14-2.135-2.832-2.114a3.326,3.326,0,0,0-3.272,2.433l.16,4.788,1.915-.081s-.1-2.971.02-3.57.015-1.25.973-1.21.942.97,1.062,1.568S807.631,347.262,807.631,347.262Z" transform="translate(-784.318 -291.871)" fill="#4192d0"/>
      <path id="Caminho_2847" data-name="Caminho 2847" d="M824.763,313.265a2.577,2.577,0,0,0-2.028,1.34c-.332.711-.818.676-.984.32a1.474,1.474,0,0,0-1.234-1.043c-.807-.072-1.577.059-1.661.237s.048,1.637-.012,1.886-.936.131-1.376-.356-.95-1.232-.849-1.57-.1-.564-.764-.256-1.34.652-1.494,1.494-.237,1.4-.474,1.447-.795-.842-1.447-1.186a5.113,5.113,0,0,0-2.325-.641,7.289,7.289,0,0,0-2.221.062l0,.006-.006,0a7.257,7.257,0,0,0-.062,2.221,5.113,5.113,0,0,0,.641,2.325c.344.652,1.233,1.21,1.186,1.447s-.605.32-1.447.474-1.186.831-1.494,1.494-.083.867.255.764,1.085.41,1.571.849.605,1.317.356,1.376-1.708-.071-1.886.012-.308.855-.237,1.661a1.474,1.474,0,0,0,1.044,1.234c.356.166.391.652-.32.984a2.577,2.577,0,0,0-1.34,2.028,3.36,3.36,0,0,0,1.079,1.767c.486.463,1.506.724,1.412.32a2.843,2.843,0,0,1,.545-1.9,5.271,5.271,0,0,1,2.55-.534,7.717,7.717,0,0,0,3.855-1.981,3.807,3.807,0,0,0,1.317-2.194c.072-.475.238-.593.3-.534s-.063.537.848,1.02a1.773,1.773,0,0,0,2.351-.316l0,0a1.773,1.773,0,0,0,.316-2.351c-.482-.911-.961-.788-1.021-.848s.06-.225.535-.3a3.81,3.81,0,0,0,2.194-1.317,7.717,7.717,0,0,0,1.981-3.855,5.274,5.274,0,0,1,.534-2.55,2.843,2.843,0,0,1,1.9-.545c.4.1.142-.926-.32-1.412A3.367,3.367,0,0,0,824.763,313.265Z" transform="translate(-784.366 -291.404)" fill="#2e3e91"/>
      <path id="Caminho_2848" data-name="Caminho 2848" d="M840.622,344.876a5.374,5.374,0,0,0-1.767.953,3.584,3.584,0,0,0-1.035,1.831h2.8Z" transform="translate(-784.918 -291.955)" fill="#d59d65"/>
      <path id="Caminho_2849" data-name="Caminho 2849" d="M805.522,337.639c-.056.827.619.986,1.062,1.016s1.13-.356,1.1-.956a1.038,1.038,0,0,0-1.022-1.066A1.09,1.09,0,0,0,805.522,337.639Z" transform="translate(-784.355 -291.811)" fill="#d59d65"/>
      <path id="Caminho_2850" data-name="Caminho 2850" d="M816.809,334.415a.765.765,0,0,0,1.183.046.815.815,0,1,0-1.033-1.26A.877.877,0,0,0,816.809,334.415Z" transform="translate(-784.548 -291.748)" fill="#4192d0"/>
      <path id="Caminho_2851" data-name="Caminho 2851" d="M822.932,324.669a3.981,3.981,0,0,1,3.555-2.5c1.838-.171,2.523,1.813,2.364,2.912-.112.775-1.56,2.159-2.768,1.429-.509-.309-.858-1.217-.978-.579A2,2,0,0,0,826.343,328a5.931,5.931,0,0,0,3.578-.872,16.463,16.463,0,0,0,5.4-4.287,5.762,5.762,0,0,0,1.2-3.8h2.377a.868.868,0,0,0-.014.1,10.843,10.843,0,0,1-4.558,8.382,11.622,11.622,0,0,1-5.88,2.226,5.743,5.743,0,0,1-4.024-.919,5.425,5.425,0,0,0,4.516,1.2c3.495-.573,6.555-1.829,8.793-5.3s1.836-5.245,1.852-5.686h.548s.139,4.2-1.517,6.3a13.185,13.185,0,0,1-6.5,4.913c-3.133,1.057-6.523.419-8.059-.838A4.34,4.34,0,0,1,822.932,324.669Z" transform="translate(-784.654 -291.505)" fill="#2e3e91"/>
      <path id="Caminho_2852" data-name="Caminho 2852" d="M827.36,323.865a.765.765,0,0,1,.046,1.182.815.815,0,1,1-1.261-1.032A.877.877,0,0,1,827.36,323.865Z" transform="translate(-784.711 -291.586)" fill="#4192d0"/>
      <path id="Caminho_2853" data-name="Caminho 2853" d="M830.84,296.378c-5.523-4.048-13.033-4.623-18.208-3.42a21.444,21.444,0,0,0-6.033,2.74.3.3,0,0,0-.02.5c.422.313,1.18.862,1.994,1.383,1.234.791,1.234,2.372,1.551,4.46s-1.677,3.511-2.4,4.048a15.048,15.048,0,0,1-3.89,1.676c-.633.063-1.518-.885-1.9-1.328s-.126-1.9-.221-2.372-1.012-.57-1.487-.6-1.139.127-1.17.791a1.675,1.675,0,0,1-1.942,1.942c-.664.031-.822.7-.791,1.17s.127,1.392.6,1.487,1.929-.158,2.372.222,1.391,1.265,1.328,1.9a15.08,15.08,0,0,1-1.676,3.89c-.537.728-1.961,2.721-4.048,2.4s-3.669-.316-4.46-1.551c-.522-.814-1.071-1.571-1.383-1.994a.3.3,0,0,0-.5.02,21.417,21.417,0,0,0-2.74,6.033c-1.2,5.175-.628,12.685,3.42,18.208,3.06,4.175,6.762,8.687,12.616,8.568l-.123-4.742a2.347,2.347,0,0,1-1.693.617c-.87-.142-3.722-1.464-5.743-4.946s-3.033-7.024-2.97-8.417.225-3.43.464-3.261a18.433,18.433,0,0,0,3.806,1.458c.28.061.292.545.071.766a4.046,4.046,0,0,0-.038,4.487,3.724,3.724,0,0,0,3.705,1.826,4.711,4.711,0,0,0,2.335-.754c.1-.094-1.423-.031-1.929-.537a3.975,3.975,0,0,1-.538-4.206c.918-1.8,3.922-4.239,4.745-6.009s1.391-4.112.158-5.345-1.9-.76-2.151-1.012a1.11,1.11,0,0,1-.031-1.17c.19-.316-.19-.633-.19-.822a2.545,2.545,0,0,1,.126-1.772c.443-.7.728-.98,1.424-.411s1.343,1.5,1.984,1.494a1.227,1.227,0,0,0,1.389-1.388c.008-.641-.926-1.289-1.494-1.985s-.285-.981.411-1.424a2.546,2.546,0,0,1,1.772-.126c.19,0,.506.379.822.19a1.11,1.11,0,0,1,1.17.031c.253.253-.222.917,1.012,2.151s3.574.664,5.345-.158,4.206-3.827,6.009-4.745a3.975,3.975,0,0,1,4.206.538c.506.506.443,2.024.537,1.929a4.707,4.707,0,0,0,.754-2.335,3.727,3.727,0,0,0-1.826-3.705,4.046,4.046,0,0,0-4.487.038c-.222.221-.706.209-.766-.071a18.432,18.432,0,0,0-1.458-3.806c-.169-.239,1.87-.4,3.261-.464s4.934.949,8.417,2.97,4.8,4.874,4.946,5.744a2.347,2.347,0,0,1-.617,1.692l4.742.123C839.527,303.141,835.015,299.438,830.84,296.378Z" transform="translate(-784.001 -291.04)" fill="#2e3e91"/>
      <path id="Caminho_2854" data-name="Caminho 2854" d="M789.056,317.543c-.186.606,1.389,4.369,3.456,6.141,2.24,1.919,4.931,2.434,6.753,1.651a7.125,7.125,0,0,0,3.839-3.66c.422-1.369-.5-4-2.792-3.819-2.234.172-2.268,1.556-3.679,2.078a4.952,4.952,0,0,1-4.106.013C791.136,319.329,789.2,317.085,789.056,317.543Z" transform="translate(-784.067 -291.478)" fill="#4192d0"/>
      <path id="Caminho_2855" data-name="Caminho 2855" d="M792.406,321.581a6.159,6.159,0,0,0,5.171,2.495,5.1,5.1,0,0,0,4.1-2.07,1.673,1.673,0,0,0-2.079-2.5c-1.535.506-1.462,1.888-3.835,2.307C794.55,322.023,791.974,320.97,792.406,321.581Z" transform="translate(-784.125 -291.51)" fill="#d59d65"/>
      <path id="Caminho_2856" data-name="Caminho 2856" d="M803.557,291.016a2.843,2.843,0,0,1-1.266,1.628c-1.059.675-2.138,1.676-3.468,1.658a6.17,6.17,0,0,1-2.891-.733,3.629,3.629,0,0,0-1.773-.616,1.081,1.081,0,0,0,.174,1.945c1.194.617,2.6.1,2.986.713s-.655,1.041-.79,1.831a6.658,6.658,0,0,0,.539,3.16,3.337,3.337,0,0,1-.237,2.742c-.061.067-.248.254-.314.314a3.333,3.333,0,0,1-2.742.237,6.658,6.658,0,0,0-3.16-.539c-.79.136-1.214,1.176-1.831.79s-.1-1.791-.713-2.986a1.081,1.081,0,0,0-1.945-.174,3.63,3.63,0,0,0,.616,1.773,6.175,6.175,0,0,1,.732,2.891c.02,1.329-.991,2.4-1.657,3.468a2.541,2.541,0,0,1-1.839,1.3v4.554c1.154-.476,3.014-3.332,3.343-4.083s.424-3.122.6-3.218.4-.212.926.385.539,1.658,1.811,2.544,2.139-.79,2.4-1.416-1.108-2.072-1.186-2.381-.193-2.08-.193-2.08.039-.193.6-.212,1.522,1.059,2.448,1.484,1.891-.652,2.793-1.56l.1-.1c.909-.9,1.985-1.869,1.561-2.793s-1.5-1.888-1.484-2.448.211-.6.211-.6,1.774.115,2.081.193,1.756,1.446,2.381,1.186,2.3-1.129,1.415-2.4-1.945-1.291-2.543-1.811-.482-.752-.385-.925,2.458-.288,3.218-.6c1.138-.465,3.63-2.436,3.9-3.131Z" transform="translate(-783.979 -291.016)" fill="#2e3e91"/>
      <path id="Caminho_2857" data-name="Caminho 2857" d="M783.979,291.016l0,5.753a1.777,1.777,0,0,0,1.708-.943c.336-.719.161-.813.6-.64a8.732,8.732,0,0,0,2.24.383,9.855,9.855,0,0,0-.428-2.294c-.173-.436-.029-.213.691-.549a1.8,1.8,0,0,0,.97-1.71Z" transform="translate(-783.979 -291.016)" fill="#2e3e91"/>
      <path id="Caminho_2858" data-name="Caminho 2858" d="M824.939,313.842c-.374-.069-.943,0-1.608,1.026s-1.137,1.164-1.441,1.193-1.109-.832-1.383-1.134-.28-.391-.543-.156-.195,2-.195,2.856.444,1.053.54,2.287-.79.79-1.219.388-.152-1.595-.319-2.593-.734-1.233-1.385-1.524a2.658,2.658,0,0,1-1.275-1.359c-.111-.361-.347-.54-.569-.291s-.706.568-.291,1.76-.042,1.539-.263,1.65-.569.125-1.609-.859a4.345,4.345,0,0,0-2.3-1.386,5.5,5.5,0,0,0-2.643-.3l-.086.085a5.5,5.5,0,0,0,.3,2.643,4.345,4.345,0,0,0,1.386,2.3c.984,1.04.97,1.386.859,1.608s-.457.679-1.65.263-1.51.069-1.76.291-.07.458.291.569a2.658,2.658,0,0,1,1.359,1.275c.291.651.527,1.219,1.524,1.385s2.191-.111,2.593.319.845,1.317-.388,1.219-1.428-.54-2.287-.54-2.62-.069-2.856.195-.145.27.156.543,1.161,1.078,1.134,1.383-.167.776-1.193,1.441-1.095,1.234-1.026,1.608a2.518,2.518,0,0,0,1.053,1.469c.638.416.167-.416.236-.679a1.644,1.644,0,0,1,1.123-1.345,26.037,26.037,0,0,0,3.243-.693c1.622-.569,2.2-.762,3.106-1.886s1.178-2.01.706-2.481-1.5-.666-1.968-1.137a3.045,3.045,0,0,1-.846-1.4c.028-.195,1.054,0,1.567.236a3.53,3.53,0,0,1,1.441,1.164c.1.318.262.845.416.3a2.9,2.9,0,0,0-.568-1.927c-.278-.3-.8-.942-1.3-.942s-.956.041-1.081.055a8.762,8.762,0,0,1-1.58-2.467c-.187-.558-.377-1.076-.479-1.36.284.1.8.293,1.36.479a8.762,8.762,0,0,1,2.467,1.58c-.014.125-.055.582-.055,1.081s.638,1.026.942,1.3a2.9,2.9,0,0,0,1.927.568c.54-.153.014-.319-.3-.416a3.536,3.536,0,0,1-1.164-1.441c-.236-.514-.43-1.54-.236-1.567a3.043,3.043,0,0,1,1.4.846c.472.472.665,1.5,1.137,1.968s1.358.195,2.481-.706,1.317-1.484,1.885-3.106a26.056,26.056,0,0,0,.693-3.243,1.644,1.644,0,0,1,1.345-1.123c.263-.069,1.095.4.679-.236A2.518,2.518,0,0,0,824.939,313.842Z" transform="translate(-784.376 -291.414)" fill="#4192d0"/>
      <path id="Caminho_2859" data-name="Caminho 2859" d="M818.211,325.113a1.5,1.5,0,0,0,.019,2.218,1.421,1.421,0,0,0,1.993.03c.362-.362.937-1.341.2-2.012S818.911,324.411,818.211,325.113Z" transform="translate(-784.568 -291.603)" fill="#4192d0"/>
      <path id="Caminho_2860" data-name="Caminho 2860" d="M795.456,322.654c-.1.254.1.52.3.448s.3-.288.176-.416S795.507,322.522,795.456,322.654Z" transform="translate(-784.179 -291.566)" fill="#fff"/>
      <path id="Caminho_2861" data-name="Caminho 2861" d="M797.26,322.6a.415.415,0,0,0,.512.512c.367-.127.462-.431.326-.647A.492.492,0,0,0,797.26,322.6Z" transform="translate(-784.21 -291.561)" fill="#fff"/>
      <path id="Caminho_2862" data-name="Caminho 2862" d="M799.362,320.887a.8.8,0,0,0,.279,1.3.772.772,0,0,0,.989-.331.755.755,0,0,0-.144-1.073A.923.923,0,0,0,799.362,320.887Z" transform="translate(-784.243 -291.533)" fill="#fff"/>
      <path id="Caminho_2863" data-name="Caminho 2863" d="M787.842,318.915a6.73,6.73,0,0,1,.323.923,5.2,5.2,0,0,0-.909,2.206,23.819,23.819,0,0,0,.1,7.86,21.951,21.951,0,0,0,5.7,11.311c2.929,3.29,2.383,2.948.632,1.1s-5.056-5.5-6.3-10.294a24.11,24.11,0,0,1-.7-9.888A6.1,6.1,0,0,1,787.842,318.915Z" transform="translate(-784.022 -291.503)" fill="#fff"/>
      <path id="Caminho_2864" data-name="Caminho 2864" d="M840.119,314.773v1.915s-4.727.1-5.105-.04-2.135-.14-2.115-2.832a3.326,3.326,0,0,1,2.433-3.272l4.787.16-.08,1.915s-2.972-.1-3.571.02-1.249.015-1.208.973.97.942,1.568,1.062S840.119,314.773,840.119,314.773Z" transform="translate(-784.832 -291.357)" fill="#4192d0"/>
      <path id="Caminho_2865" data-name="Caminho 2865" d="M830.5,312.664c.827-.056.986.619,1.016,1.063s-.356,1.129-.956,1.1a1.038,1.038,0,0,1-1.066-1.022A1.09,1.09,0,0,1,830.5,312.664Z" transform="translate(-784.773 -291.393)" fill="#d59d65"/>
      <path id="Caminho_2866" data-name="Caminho 2866" d="M838.365,291.379c.513.017-.943,1.209-1.638,1.638s-1.524.578-2.018,1.39c-.509.834-.491,1.092-.491,1.092a1.852,1.852,0,0,1-.188-1.7,7.157,7.157,0,0,1,.728-1.124,7.012,7.012,0,0,1-1.77.414,6.75,6.75,0,0,1-2.415-1.291c-.215-.215,1.919.2,2.895.05S837.853,291.363,838.365,291.379Z" transform="translate(-784.791 -291.022)" fill="#2e3e91"/>
      <path id="Caminho_2867" data-name="Caminho 2867" d="M839.922,293.492a9.805,9.805,0,0,0-1.886,2.548c-.446,1.043-1.015,1.446-1.28,1.48s.594.553,1.454-.082c.262-.195.532-.815.614-.471a18.81,18.81,0,0,0,.32,2.365,4.806,4.806,0,0,0,.977,1.438l-.017-7.295Z" transform="translate(-784.898 -291.059)" fill="#2e3e91"/>
      <path id="Caminho_2868" data-name="Caminho 2868" d="M810.4,296.2c.606-.187,4.37,1.388,6.14,3.455,1.92,2.24,2.435,4.931,1.652,6.753a7.125,7.125,0,0,1-3.66,3.839c-1.369.422-4-.5-3.819-2.791.172-2.235,1.556-2.269,2.078-3.68a4.95,4.95,0,0,0,.013-4.105C812.187,298.278,809.943,296.339,810.4,296.2Z" transform="translate(-784.439 -291.106)" fill="#4192d0"/>
      <path id="Caminho_2869" data-name="Caminho 2869" d="M814.439,299.548a6.162,6.162,0,0,1,2.495,5.171,5.1,5.1,0,0,1-2.07,4.1,1.673,1.673,0,0,1-2.5-2.078c.506-1.535,1.888-1.463,2.307-3.836C814.881,301.692,813.828,299.117,814.439,299.548Z" transform="translate(-784.472 -291.164)" fill="#d59d65"/>
      <path id="Caminho_2870" data-name="Caminho 2870" d="M815.512,302.6c.254-.1.52.1.448.3s-.288.3-.416.176S815.38,302.649,815.512,302.6Z" transform="translate(-784.527 -291.217)" fill="#fff"/>
      <path id="Caminho_2871" data-name="Caminho 2871" d="M815.457,304.4a.414.414,0,0,1,.512.511c-.128.366-.431.463-.647.326A.492.492,0,0,1,815.457,304.4Z" transform="translate(-784.523 -291.249)" fill="#fff"/>
      <path id="Caminho_2872" data-name="Caminho 2872" d="M813.745,306.5a.8.8,0,0,1,1.3.279.772.772,0,0,1-.331.989.755.755,0,0,1-1.073-.144A.922.922,0,0,1,813.745,306.5Z" transform="translate(-784.494 -291.282)" fill="#fff"/>
      <path id="Caminho_2873" data-name="Caminho 2873" d="M811.773,294.984a6.713,6.713,0,0,0,.922.323,5.213,5.213,0,0,1,2.207-.909,23.821,23.821,0,0,1,7.86.1,21.951,21.951,0,0,1,11.311,5.7c3.29,2.929,2.948,2.383,1.1.633s-5.5-5.057-10.294-6.3a24.128,24.128,0,0,0-9.888-.7A6.093,6.093,0,0,0,811.773,294.984Z" transform="translate(-784.464 -291.061)" fill="#fff"/>
      <path id="Caminho_2874" data-name="Caminho 2874" d="M838.46,292.795c-.671.466-1.883,1.031-2.518,1.494-.777.567-1.28,1.664-.641,2.263s1.387.149,1.857-.406a26.055,26.055,0,0,0,1.664-2.988C839.015,292.795,838.942,292.461,838.46,292.795Zm-1.86,3.383a.671.671,0,0,1-1.121-.4.941.941,0,0,1,.65-.939C836.728,294.633,837.462,295.514,836.6,296.178Z" transform="translate(-784.869 -291.045)" fill="#d59d65"/>
      <path id="Caminho_2875" data-name="Caminho 2875" d="M786.324,347.138c-.513-.017.943-1.208,1.638-1.638s1.524-.577,2.018-1.389c.509-.835.491-1.093.491-1.093a1.849,1.849,0,0,1,.187,1.7,7.224,7.224,0,0,1-.727,1.125,6.921,6.921,0,0,1,1.77-.414,6.744,6.744,0,0,1,2.415,1.29c.215.215-1.919-.2-2.895-.05S786.837,347.155,786.324,347.138Z" transform="translate(-784.018 -291.923)" fill="#2e3e91"/>
      <path id="Caminho_2876" data-name="Caminho 2876" d="M784.848,344.969a9.768,9.768,0,0,0,1.885-2.548c.447-1.043,1.016-1.446,1.28-1.48s-.593-.552-1.453.083c-.262.194-.532.815-.614.471a18.611,18.611,0,0,0-.321-2.365,4.792,4.792,0,0,0-.976-1.439l.017,7.3Z" transform="translate(-783.991 -291.83)" fill="#2e3e91"/>
      <path id="Caminho_2877" data-name="Caminho 2877" d="M786.3,345.721c.671-.466,1.883-1.03,2.518-1.494.777-.567,1.28-1.664.641-2.262s-1.387-.149-1.857.406a26.14,26.14,0,0,0-1.665,2.988C785.746,345.721,785.818,346.055,786.3,345.721Zm1.86-3.383a.67.67,0,0,1,1.12.4.938.938,0,0,1-.65.939C788.033,343.883,787.3,343,788.161,342.338Z" transform="translate(-784.011 -291.9)" fill="#d59d65"/>
      <path id="Caminho_2878" data-name="Caminho 2878" d="M827.012,341.938a10.224,10.224,0,0,1,3.618-.11,3.688,3.688,0,0,1,2.867,1.1c.275.429.018.258.529.4.352.1.3.1.64-.2s.078-.607-.11-.795-.695-.982-.959-1.312a.381.381,0,1,1,.432-.432c.33.264,1.124.771,1.312.959s.5.452.794.11.294-.288.2-.639c-.139-.512.033-.254-.4-.53a3.693,3.693,0,0,1-1.1-2.867,10.225,10.225,0,0,1,.11-3.618c.287-.573,1.346-1.257,1.6-1.775a1.919,1.919,0,0,0,.165-.982,8.681,8.681,0,0,0-2.282.232c-.849.232-2.184.992-2.415,1.731a15.564,15.564,0,0,0-.375,1.875c-.033.122.044.662-.2-.132s-.507-1.412-.982-1.445-2.6-.264-3.231-.364a7.433,7.433,0,0,0-1.255-.192l-.008,0v0h0l0,.008a7.4,7.4,0,0,0,.192,1.255c.1.629.33,2.757.364,3.231s.65.739,1.444.982.254.166.133.2a15.582,15.582,0,0,0-1.875.375c-.739.232-1.5,1.566-1.731,2.415a8.639,8.639,0,0,0-.232,2.282,1.918,1.918,0,0,0,.982-.165C825.755,343.284,826.439,342.225,827.012,341.938Z" transform="translate(-784.681 -291.717)" fill="#2e3e91"/>
      <path id="Caminho_2879" data-name="Caminho 2879" d="M834.758,347.405a6.044,6.044,0,0,1,.69-2.533c.608-.885.625-.973.782-.955a2.637,2.637,0,0,1,.833.591c.122.156-.5.712-.817,1.477a3.535,3.535,0,0,0-.234,1.421h.553a2.538,2.538,0,0,1,.254-1.4,9.144,9.144,0,0,1,.9-1.141l.076-.075a9.117,9.117,0,0,1,1.141-.9,2.572,2.572,0,0,1,1.435-.252v-.553a3.5,3.5,0,0,0-1.452.232c-.764.313-1.32.938-1.477.817a2.64,2.64,0,0,1-.59-.834c-.017-.156.07-.174.956-.781a6.1,6.1,0,0,1,2.563-.693V330.3c-1.154,1.1-1.82,3.426-2.043,4.645a12.327,12.327,0,0,0,.678,4.881c.434,1.163-.434,1.441-.8,1.632s-.817-.226-.817-.226a.214.214,0,0,0-.208.313,1.054,1.054,0,0,1-.643,1.059c-.451.208-1.042-.452-1.207-.547-.117-.068-.173.064-.2.147-.083.023-.214.078-.146.195.1.165.756.756.546,1.208a1.056,1.056,0,0,1-1.059.643.214.214,0,0,0-.312.208s.417.452.226.816-.47,1.233-1.633.8a12.326,12.326,0,0,0-4.881-.677,9.769,9.769,0,0,0-4.609,2.011Z" transform="translate(-784.664 -291.701)" fill="#2e3e91"/>
      <path id="Caminho_2880" data-name="Caminho 2880" d="M790.626,291.016a13.471,13.471,0,0,1-.6,2.8,4.222,4.222,0,0,1-3.242,3.243,13.479,13.479,0,0,1-2.8.6v11.892c.79-.4,1.532-2.088,1.782-3.687a7.465,7.465,0,0,0-.482-4.066c-.443-1.021-.81-1.734-.6-2.216a3.015,3.015,0,0,1,2.35-1.5c1.253-.1,1.626-.417,1.921-.2s.469,1.277.854,2.049a5.2,5.2,0,0,0,2.6,2.332,8.783,8.783,0,0,0,3.122.619.36.36,0,0,0,.316-.316,8.757,8.757,0,0,0-.619-3.122,5.193,5.193,0,0,0-2.332-2.6c-.77-.385-1.831-.559-2.049-.854s.1-.668.2-1.921a3.015,3.015,0,0,1,1.5-2.35c.481-.212,1.195.154,2.216.6a7.466,7.466,0,0,0,4.066.481c1.6-.251,3.282-.992,3.687-1.782Z" transform="translate(-783.979 -291.016)" fill="#d59d65"/>
    </g>
    <g id="Grupo_4246" data-name="Grupo 4246" transform="translate(-10826.14 -12701.705)">
      <rect id="Retângulo_734" data-name="Retângulo 734" width="55.704" height="55.704" transform="translate(0 0)" fill="none"/>
      <path id="Caminho_2881" data-name="Caminho 2881" d="M744.7,324.65a3.981,3.981,0,0,0-3.555-2.5c-1.839-.171-2.524,1.813-2.364,2.912.112.776,1.56,2.16,2.768,1.429.509-.309.858-1.217.978-.579a2,2,0,0,1-1.237,2.074,5.914,5.914,0,0,1-3.578-.872,16.45,16.45,0,0,1-5.4-4.287,5.762,5.762,0,0,1-1.2-3.8h-2.377a.916.916,0,0,1,.014.1,10.842,10.842,0,0,0,4.558,8.383,11.637,11.637,0,0,0,5.88,2.227,5.748,5.748,0,0,0,4.024-.92,5.427,5.427,0,0,1-4.516,1.2c-3.495-.574-6.555-1.83-8.793-5.3s-1.836-5.244-1.852-5.686H727.5s-.139,4.2,1.517,6.3a13.178,13.178,0,0,0,6.5,4.913c3.131,1.057,6.523.42,8.059-.837A4.343,4.343,0,0,0,744.7,324.65Z" transform="translate(-727.29 -291.504)" fill="#2e3e91"/>
      <path id="Caminho_2882" data-name="Caminho 2882" d="M727.606,314.668v1.915s4.727.1,5.106-.04,2.134-.14,2.115-2.833a3.327,3.327,0,0,0-2.434-3.271l-4.787.16.08,1.914s2.972-.1,3.571.021,1.249.015,1.21.972-.971.943-1.569,1.062S727.606,314.668,727.606,314.668Z" transform="translate(-727.292 -291.355)" fill="#4192d0"/>
      <path id="Caminho_2883" data-name="Caminho 2883" d="M761.359,331.8a2.574,2.574,0,0,0-1.34-2.028c-.711-.332-.676-.818-.32-.984a1.475,1.475,0,0,0,1.044-1.234c.071-.807-.06-1.577-.238-1.661s-1.636.047-1.886-.012-.131-.936.356-1.376,1.232-.95,1.571-.849.564-.1.255-.764-.652-1.34-1.495-1.494-1.4-.237-1.447-.475.843-.794,1.187-1.446a5.117,5.117,0,0,0,.64-2.325,7.264,7.264,0,0,0-.061-2.221l-.007,0,0-.006a7.216,7.216,0,0,0-2.221-.062,5.117,5.117,0,0,0-2.325.641c-.651.344-1.209,1.233-1.446,1.186s-.32-.605-.475-1.447-.83-1.186-1.495-1.494-.866-.083-.764.255-.41,1.085-.849,1.571-1.317.605-1.376.356.072-1.708-.012-1.886-.854-.309-1.661-.238a1.474,1.474,0,0,0-1.233,1.044c-.166.356-.652.391-.985-.32a2.576,2.576,0,0,0-2.028-1.34,3.364,3.364,0,0,0-1.768,1.079c-.463.486-.723,1.506-.32,1.412a2.845,2.845,0,0,1,1.9.545,5.285,5.285,0,0,1,.534,2.55,7.7,7.7,0,0,0,1.981,3.855,3.813,3.813,0,0,0,2.194,1.317c.475.072.592.238.534.3s-.538-.063-1.02.848a1.771,1.771,0,0,0,.316,2.351l0,0a1.772,1.772,0,0,0,2.352.316c.91-.481.788-.96.847-1.02s.226.06.3.535a3.818,3.818,0,0,0,1.317,2.194,7.706,7.706,0,0,0,3.855,1.98,5.269,5.269,0,0,1,2.55.535,2.844,2.844,0,0,1,.546,1.9c-.1.4.925.142,1.411-.32A3.364,3.364,0,0,0,761.359,331.8Z" transform="translate(-727.516 -291.403)" fill="#2e3e91"/>
      <path id="Caminho_2884" data-name="Caminho 2884" d="M730.07,347.659a5.383,5.383,0,0,0-.952-1.767,3.59,3.59,0,0,0-1.831-1.035v2.8Z" transform="translate(-727.287 -291.955)" fill="#d59d65"/>
      <path id="Caminho_2885" data-name="Caminho 2885" d="M737.32,312.559c-.827-.057-.985.619-1.016,1.062s.356,1.13.956,1.1a1.039,1.039,0,0,0,1.066-1.023A1.089,1.089,0,0,0,737.32,312.559Z" transform="translate(-727.444 -291.392)" fill="#d59d65"/>
      <path id="Caminho_2886" data-name="Caminho 2886" d="M740.55,323.846a.765.765,0,0,0-.046,1.182A.815.815,0,1,0,741.764,324,.878.878,0,0,0,740.55,323.846Z" transform="translate(-727.513 -291.585)" fill="#4192d0"/>
      <path id="Caminho_2887" data-name="Caminho 2887" d="M750.117,329.969a3.977,3.977,0,0,1,2.5,3.555c.172,1.838-1.812,2.523-2.912,2.364-.775-.112-2.159-1.56-1.428-2.768.309-.509,1.216-.858.579-.978a2,2,0,0,0-2.075,1.236,5.927,5.927,0,0,0,.872,3.578,16.443,16.443,0,0,0,4.286,5.4,5.762,5.762,0,0,0,3.8,1.2v2.377a.7.7,0,0,0-.1-.014,10.848,10.848,0,0,1-8.383-4.558,11.641,11.641,0,0,1-2.226-5.88,5.746,5.746,0,0,1,.92-4.024,5.415,5.415,0,0,0-1.2,4.516c.574,3.495,1.83,6.555,5.3,8.793s5.245,1.836,5.686,1.852h0v.547s-4.2.139-6.3-1.516a13.178,13.178,0,0,1-4.914-6.5c-1.057-3.131-.419-6.522.838-8.058A4.34,4.34,0,0,1,750.117,329.969Z" transform="translate(-727.578 -291.691)" fill="#2e3e91"/>
      <path id="Caminho_2888" data-name="Caminho 2888" d="M751.1,334.4a.765.765,0,0,1-1.183.045.815.815,0,1,1,1.033-1.26A.878.878,0,0,1,751.1,334.4Z" transform="translate(-727.676 -291.748)" fill="#4192d0"/>
      <path id="Caminho_2889" data-name="Caminho 2889" d="M777.656,337.876c4.047-5.522,4.622-13.032,3.42-18.207a21.436,21.436,0,0,0-2.741-6.033.3.3,0,0,0-.5-.02c-.313.422-.863,1.18-1.384,1.994-.79,1.233-2.372,1.233-4.459,1.55s-3.511-1.676-4.049-2.4a15.094,15.094,0,0,1-1.676-3.89c-.063-.633.886-1.518,1.328-1.9s1.9-.126,2.373-.221.569-1.012.6-1.487-.127-1.139-.791-1.17a1.675,1.675,0,0,1-1.942-1.942c-.031-.664-.7-.822-1.17-.791s-1.391.127-1.487.6.158,1.93-.221,2.373-1.266,1.391-1.9,1.328a15.11,15.11,0,0,1-3.89-1.676c-.727-.538-2.72-1.961-2.4-4.049s.316-3.669,1.549-4.459c.813-.522,1.572-1.071,1.995-1.384a.3.3,0,0,0-.021-.5,21.442,21.442,0,0,0-6.032-2.741c-5.175-1.2-12.686-.627-18.208,3.42-4.175,3.061-8.688,6.763-8.569,12.617l4.742-.124a2.346,2.346,0,0,1-.617-1.692c.143-.87,1.465-3.722,4.947-5.743s7.024-3.033,8.416-2.97,3.43.225,3.262.464a18.426,18.426,0,0,0-1.459,3.806c-.06.28-.544.292-.765.071a4.044,4.044,0,0,0-4.487-.038,3.724,3.724,0,0,0-1.826,3.705,4.719,4.719,0,0,0,.753,2.335c.1.1.031-1.424.537-1.93a3.977,3.977,0,0,1,4.207-.537c1.8.918,4.238,3.922,6.008,4.744s4.112,1.392,5.345.158.76-1.9,1.013-2.15a1.11,1.11,0,0,1,1.17-.032c.315.191.632-.19.821-.19a2.542,2.542,0,0,1,1.772.127c.7.443.981.727.412,1.424s-1.5,1.343-1.5,1.984a1.227,1.227,0,0,0,1.389,1.389c.641.008,1.288-.926,1.985-1.494s.98-.285,1.423.411a2.542,2.542,0,0,1,.127,1.772c0,.19-.379.506-.19.822a1.11,1.11,0,0,1-.032,1.17c-.253.253-.917-.222-2.15,1.012s-.664,3.574.158,5.345,3.826,4.206,4.744,6.009a3.976,3.976,0,0,1-.537,4.206c-.506.506-2.024.442-1.93.537a4.715,4.715,0,0,0,2.335.754,3.727,3.727,0,0,0,3.705-1.826,4.046,4.046,0,0,0-.037-4.487c-.222-.222-.209-.706.071-.766a18.51,18.51,0,0,0,3.806-1.458c.238-.169.4,1.87.463,3.261s-.949,4.933-2.97,8.416-4.873,4.8-5.743,4.947a2.347,2.347,0,0,1-1.692-.617l-.124,4.742C770.893,346.564,774.6,342.051,777.656,337.876Z" transform="translate(-727.29 -291.038)" fill="#2e3e91"/>
      <path id="Caminho_2890" data-name="Caminho 2890" d="M757.306,296.093c-.606-.186-4.369,1.388-6.14,3.456-1.919,2.239-2.435,4.93-1.652,6.753a7.123,7.123,0,0,0,3.66,3.838c1.369.422,4-.5,3.819-2.791-.172-2.234-1.556-2.268-2.077-3.679a4.948,4.948,0,0,1-.013-4.106C755.52,298.173,757.764,296.234,757.306,296.093Z" transform="translate(-727.668 -291.104)" fill="#4192d0"/>
      <path id="Caminho_2891" data-name="Caminho 2891" d="M753.332,299.443a6.163,6.163,0,0,0-2.5,5.171,5.1,5.1,0,0,0,2.07,4.1,1.673,1.673,0,0,0,2.5-2.078c-.507-1.535-1.888-1.463-2.307-3.835C752.889,301.586,753.942,299.011,753.332,299.443Z" transform="translate(-727.697 -291.162)" fill="#d59d65"/>
      <path id="Caminho_2892" data-name="Caminho 2892" d="M783.554,310.594a2.846,2.846,0,0,1-1.628-1.266c-.674-1.059-1.676-2.138-1.657-3.468a6.167,6.167,0,0,1,.732-2.89,3.645,3.645,0,0,0,.617-1.773,1.082,1.082,0,0,0-1.946.173c-.617,1.195-.1,2.6-.713,2.987s-1.041-.655-1.831-.79a6.66,6.66,0,0,0-3.16.539,3.335,3.335,0,0,1-2.741-.238c-.067-.06-.254-.248-.314-.313a3.337,3.337,0,0,1-.238-2.742,6.659,6.659,0,0,0,.539-3.16c-.135-.79-1.175-1.214-.79-1.831s1.792-.1,2.987-.713a1.081,1.081,0,0,0,.173-1.945,3.632,3.632,0,0,0-1.773.616,6.168,6.168,0,0,1-2.89.732c-1.33.02-2.4-.991-3.468-1.657a2.541,2.541,0,0,1-1.3-1.839H759.6c.475,1.153,3.331,3.015,4.083,3.342s3.121.424,3.218.6.211.4-.386.926-1.657.539-2.543,1.811.79,2.139,1.415,2.4,2.072-1.108,2.381-1.186,2.081-.193,2.081-.193.193.038.212.6-1.06,1.522-1.484,2.448.651,1.89,1.56,2.793l.1.1c.9.909,1.869,1.985,2.794,1.561s1.888-1.5,2.447-1.484.6.211.6.211-.116,1.773-.193,2.081-1.447,1.755-1.186,2.381,1.128,2.3,2.4,1.415,1.291-1.945,1.812-2.543.751-.481.925-.385.288,2.458.6,3.217c.464,1.138,2.436,3.631,3.13,3.9Z" transform="translate(-727.85 -291.016)" fill="#2e3e91"/>
      <path id="Caminho_2893" data-name="Caminho 2893" d="M783.877,291.016l-5.753,0a1.778,1.778,0,0,0,.944,1.708c.718.336.813.161.64.6a8.64,8.64,0,0,0-.383,2.24,9.865,9.865,0,0,0,2.294-.428c.435-.173.212-.029.549.691a1.8,1.8,0,0,0,1.709.97Z" transform="translate(-728.173 -291.016)" fill="#2e3e91"/>
      <path id="Caminho_2894" data-name="Caminho 2894" d="M760.8,331.976c.07-.375,0-.943-1.026-1.608s-1.164-1.137-1.192-1.441.831-1.109,1.133-1.383.392-.28.156-.543-2-.195-2.855-.195-1.054.443-2.287.54-.79-.79-.388-1.219,1.594-.152,2.592-.319,1.234-.735,1.525-1.386a2.663,2.663,0,0,1,1.359-1.275c.36-.11.54-.346.291-.568s-.569-.707-1.761-.291-1.539-.042-1.65-.263-.125-.569.86-1.608a4.356,4.356,0,0,0,1.386-2.3,5.518,5.518,0,0,0,.295-2.644l-.085-.084a5.518,5.518,0,0,0-2.644.295,4.362,4.362,0,0,0-2.3,1.386c-1.039.985-1.386.971-1.607.86s-.68-.458-.263-1.65-.07-1.511-.292-1.761-.457-.069-.568.292a2.661,2.661,0,0,1-1.275,1.358c-.651.292-1.22.527-1.386,1.525s.111,2.19-.318,2.592-1.318.846-1.22-.387.54-1.429.54-2.287.07-2.62-.194-2.856-.27-.145-.544.156S746,316.069,745.7,316.04s-.776-.166-1.442-1.192-1.233-1.1-1.608-1.026a2.523,2.523,0,0,0-1.47,1.053c-.416.638.416.167.68.236a1.642,1.642,0,0,1,1.344,1.123,25.917,25.917,0,0,0,.694,3.243c.568,1.622.763,2.2,1.885,3.1s2.01,1.179,2.482.707.665-1.5,1.137-1.968a3.034,3.034,0,0,1,1.4-.846c.194.027,0,1.053-.236,1.566a3.541,3.541,0,0,1-1.164,1.442c-.319.1-.845.262-.3.415a2.885,2.885,0,0,0,1.926-.568c.306-.277.943-.8.943-1.3s-.042-.956-.056-1.081a8.775,8.775,0,0,1,2.468-1.581c.557-.186,1.075-.376,1.359-.479-.1.284-.293.8-.479,1.36a8.784,8.784,0,0,1-1.58,2.467c-.125-.014-.583-.055-1.082-.055s-1.026.638-1.3.942a2.891,2.891,0,0,0-.568,1.927c.152.54.318.014.416-.3a3.515,3.515,0,0,1,1.441-1.164c.513-.236,1.539-.43,1.566-.236a3.048,3.048,0,0,1-.845,1.4c-.472.471-1.5.665-1.969,1.137s-.194,1.358.707,2.481,1.483,1.317,3.1,1.886a26.081,26.081,0,0,0,3.243.693,1.64,1.64,0,0,1,1.123,1.345c.07.263-.4,1.095.236.679A2.517,2.517,0,0,0,760.8,331.976Z" transform="translate(-727.527 -291.413)" fill="#4192d0"/>
      <path id="Caminho_2895" data-name="Caminho 2895" d="M749.829,325.246a1.5,1.5,0,0,0-2.218.02,1.421,1.421,0,0,0-.031,1.993c.362.362,1.341.936,2.012.2S750.53,325.948,749.829,325.246Z" transform="translate(-727.634 -291.605)" fill="#4192d0"/>
      <path id="Caminho_2896" data-name="Caminho 2896" d="M752.332,302.493c-.255-.1-.519.1-.447.3s.288.3.416.176S752.464,302.544,752.332,302.493Z" transform="translate(-727.715 -291.216)" fill="#fff"/>
      <path id="Caminho_2897" data-name="Caminho 2897" d="M752.38,304.3a.415.415,0,0,0-.512.512c.128.367.431.462.648.326A.493.493,0,0,0,752.38,304.3Z" transform="translate(-727.715 -291.247)" fill="#fff"/>
      <path id="Caminho_2898" data-name="Caminho 2898" d="M754.081,306.4a.8.8,0,0,0-1.3.28.771.771,0,0,0,.331.988.756.756,0,0,0,1.074-.143A.926.926,0,0,0,754.081,306.4Z" transform="translate(-727.73 -291.28)" fill="#fff"/>
      <path id="Caminho_2899" data-name="Caminho 2899" d="M755.641,294.878a6.648,6.648,0,0,1-.923.324,5.2,5.2,0,0,0-2.206-.909,23.792,23.792,0,0,0-7.86.1,21.937,21.937,0,0,0-11.311,5.7c-3.29,2.929-2.948,2.383-1.1.632s5.5-5.056,10.3-6.3a24.109,24.109,0,0,1,9.888-.7A6.115,6.115,0,0,1,755.641,294.878Z" transform="translate(-727.349 -291.059)" fill="#fff"/>
      <path id="Caminho_2900" data-name="Caminho 2900" d="M760.112,347.156H758.2s-.1-4.727.04-5.106.14-2.134,2.833-2.114a3.327,3.327,0,0,1,3.271,2.434l-.159,4.787-1.915-.08s.1-2.972-.021-3.571-.015-1.249-.972-1.21-.942.971-1.062,1.569S760.112,347.156,760.112,347.156Z" transform="translate(-727.825 -291.869)" fill="#4192d0"/>
      <path id="Caminho_2901" data-name="Caminho 2901" d="M762.293,337.534c.057.827-.619.985-1.062,1.016s-1.13-.356-1.1-.956a1.039,1.039,0,0,1,1.023-1.066A1.088,1.088,0,0,1,762.293,337.534Z" transform="translate(-727.859 -291.81)" fill="#d59d65"/>
      <path id="Caminho_2902" data-name="Caminho 2902" d="M783.543,345.4c-.017.514-1.208-.942-1.638-1.638s-.577-1.523-1.389-2.018c-.835-.508-1.093-.491-1.093-.491a1.85,1.85,0,0,1,1.7-.187,7.175,7.175,0,0,1,1.125.728,6.922,6.922,0,0,1-.414-1.771,6.767,6.767,0,0,1,1.29-2.415c.215-.215-.2,1.919-.049,2.9S783.56,344.889,783.543,345.4Z" transform="translate(-728.196 -291.828)" fill="#2e3e91"/>
      <path id="Caminho_2903" data-name="Caminho 2903" d="M781.374,346.958a9.81,9.81,0,0,0-2.548-1.886c-1.042-.446-1.446-1.015-1.48-1.28s-.552.593.083,1.453c.194.263.815.532.471.614a18.779,18.779,0,0,0-2.365.321,4.8,4.8,0,0,0-1.439.977l7.3-.017Z" transform="translate(-728.103 -291.936)" fill="#2e3e91"/>
      <path id="Caminho_2904" data-name="Caminho 2904" d="M778.546,317.438c.187.606-1.388,4.369-3.456,6.14-2.239,1.92-4.93,2.435-6.753,1.652a7.123,7.123,0,0,1-3.838-3.66c-.421-1.369.5-4,2.791-3.819,2.234.172,2.268,1.556,3.679,2.077a4.944,4.944,0,0,0,4.106.013C776.467,319.224,778.4,316.98,778.546,317.438Z" transform="translate(-727.934 -291.476)" fill="#4192d0"/>
      <path id="Caminho_2905" data-name="Caminho 2905" d="M775.276,321.475a6.162,6.162,0,0,1-5.171,2.5,5.1,5.1,0,0,1-4.1-2.07,1.673,1.673,0,0,1,2.078-2.5c1.535.507,1.463,1.888,3.836,2.308C773.133,321.918,775.708,320.865,775.276,321.475Z" transform="translate(-727.957 -291.508)" fill="#d59d65"/>
      <path id="Caminho_2906" data-name="Caminho 2906" d="M772.389,322.549c.1.254-.1.519-.3.447s-.3-.287-.176-.415S772.336,322.417,772.389,322.549Z" transform="translate(-728.064 -291.564)" fill="#fff"/>
      <path id="Caminho_2907" data-name="Caminho 2907" d="M770.577,322.494c.088.212-.144.639-.511.512s-.463-.431-.327-.647A.492.492,0,0,1,770.577,322.494Z" transform="translate(-728.026 -291.559)" fill="#fff"/>
      <path id="Caminho_2908" data-name="Caminho 2908" d="M768.463,320.781a.8.8,0,0,1-.28,1.3.771.771,0,0,1-.988-.331.756.756,0,0,1,.143-1.074A.926.926,0,0,1,768.463,320.781Z" transform="translate(-727.98 -291.531)" fill="#fff"/>
      <path id="Caminho_2909" data-name="Caminho 2909" d="M779.858,318.809a6.648,6.648,0,0,0-.324.923,5.214,5.214,0,0,1,.91,2.206,23.825,23.825,0,0,1-.1,7.861,21.942,21.942,0,0,1-5.7,11.311c-2.93,3.291-2.384,2.949-.633,1.1s5.056-5.5,6.3-10.3a24.122,24.122,0,0,0,.7-9.888A6.105,6.105,0,0,0,779.858,318.809Z" transform="translate(-728.076 -291.501)" fill="#fff"/>
      <path id="Caminho_2910" data-name="Caminho 2910" d="M782.126,345.5c-.466-.672-1.03-1.883-1.494-2.518-.567-.777-1.665-1.281-2.263-.641s-.149,1.387.406,1.857a25.968,25.968,0,0,0,2.988,1.664C782.126,346.052,782.46,345.979,782.126,345.5Zm-3.383-1.861a.67.67,0,0,1,.4-1.12.937.937,0,0,1,.939.65C780.288,343.764,779.408,344.5,778.743,343.636Z" transform="translate(-728.172 -291.906)" fill="#d59d65"/>
      <path id="Caminho_2911" data-name="Caminho 2911" d="M727.784,293.361c.017-.513,1.208.943,1.638,1.638s.578,1.523,1.39,2.018c.834.508,1.092.491,1.092.491a1.848,1.848,0,0,1-1.7.187,6.977,6.977,0,0,1-1.125-.728,7.033,7.033,0,0,1,.414,1.771,6.767,6.767,0,0,1-1.291,2.415c-.214.215.2-1.919.05-2.895S727.768,293.874,727.784,293.361Z" transform="translate(-727.295 -291.055)" fill="#2e3e91"/>
      <path id="Caminho_2912" data-name="Caminho 2912" d="M729.9,291.884a9.779,9.779,0,0,0,2.547,1.886c1.043.447,1.447,1.016,1.48,1.28s.553-.593-.081-1.453c-.195-.263-.815-.532-.471-.614a18.648,18.648,0,0,0,2.365-.321,4.808,4.808,0,0,0,1.439-.976l-7.3.017Z" transform="translate(-727.332 -291.028)" fill="#2e3e91"/>
      <path id="Caminho_2913" data-name="Caminho 2913" d="M729.2,293.338c.466.671,1.031,1.883,1.494,2.518.567.777,1.664,1.28,2.263.64s.149-1.387-.406-1.856a26.23,26.23,0,0,0-2.988-1.665C729.2,292.783,728.866,292.855,729.2,293.338Zm3.383,1.86a.67.67,0,0,1-.4,1.12.939.939,0,0,1-.94-.65C731.038,295.07,731.919,294.335,732.583,295.2Z" transform="translate(-727.318 -291.048)" fill="#d59d65"/>
      <path id="Caminho_2914" data-name="Caminho 2914" d="M732.836,334.049a10.218,10.218,0,0,1,.11,3.617,3.688,3.688,0,0,1-1.1,2.868c-.43.275-.258.017-.4.529-.1.352-.1.3.2.64s.606.078.794-.11.982-.695,1.313-.959a.381.381,0,1,1,.432.431c-.265.331-.772,1.125-.96,1.313s-.452.5-.11.794.288.294.64.2c.512-.139.253.033.53-.4a3.687,3.687,0,0,1,2.867-1.1,10.216,10.216,0,0,1,3.617.11c.574.287,1.258,1.345,1.775,1.6a1.931,1.931,0,0,0,.982.165,8.644,8.644,0,0,0-.232-2.283c-.231-.849-.992-2.183-1.731-2.414a15.534,15.534,0,0,0-1.875-.375c-.121-.033-.661.044.133-.2s1.411-.507,1.444-.982.265-2.6.365-3.231a7.376,7.376,0,0,0,.191-1.255l0-.007h0v0l-.006,0a7.284,7.284,0,0,0-1.256.192c-.629.1-2.757.33-3.232.364s-.739.65-.982,1.444-.165.254-.2.133a15.706,15.706,0,0,0-.374-1.875c-.232-.739-1.566-1.5-2.415-1.731a8.645,8.645,0,0,0-2.284-.232,1.925,1.925,0,0,0,.166.982C731.49,332.791,732.549,333.475,732.836,334.049Z" transform="translate(-727.353 -291.718)" fill="#2e3e91"/>
      <path id="Caminho_2915" data-name="Caminho 2915" d="M727.287,341.795a6.027,6.027,0,0,1,2.532.69c.886.608.973.625.955.781a2.614,2.614,0,0,1-.591.834c-.156.122-.711-.5-1.476-.816a3.517,3.517,0,0,0-1.421-.234v.553a2.542,2.542,0,0,1,1.4.253,9.21,9.21,0,0,1,1.141.9l.075.075a9.068,9.068,0,0,1,.9,1.142,2.572,2.572,0,0,1,.252,1.435h.554a3.529,3.529,0,0,0-.232-1.452c-.313-.764-.938-1.321-.816-1.477a2.626,2.626,0,0,1,.833-.591c.156-.017.174.07.782.956a6.107,6.107,0,0,1,.692,2.564h11.525c-1.1-1.155-3.426-1.82-4.644-2.043a12.321,12.321,0,0,0-4.881.677c-1.164.434-1.441-.434-1.633-.8s.226-.817.226-.817a.214.214,0,0,0-.312-.208,1.056,1.056,0,0,1-1.06-.643c-.208-.452.452-1.043.547-1.208.068-.117-.064-.172-.147-.195-.023-.083-.078-.214-.195-.147-.165.1-.756.756-1.207.547a1.055,1.055,0,0,1-.644-1.059.214.214,0,0,0-.208-.312s-.451.417-.817.225-1.233-.469-.8-1.632a12.325,12.325,0,0,0,.678-4.881,9.776,9.776,0,0,0-2.011-4.61Z" transform="translate(-727.287 -291.701)" fill="#2e3e91"/>
      <path id="Caminho_2916" data-name="Caminho 2916" d="M783.65,297.663a13.471,13.471,0,0,1-2.8-.6,4.225,4.225,0,0,1-3.243-3.243,13.6,13.6,0,0,1-.6-2.8H765.112c.4.79,2.087,1.532,3.687,1.782a7.463,7.463,0,0,0,4.065-.481c1.022-.443,1.734-.81,2.217-.6a3.014,3.014,0,0,1,1.5,2.35c.1,1.253.417,1.626.2,1.921s-1.277.469-2.048.854a5.189,5.189,0,0,0-2.332,2.6,8.785,8.785,0,0,0-.62,3.122.548.548,0,0,0,.1.213.533.533,0,0,0,.214.1,8.788,8.788,0,0,0,3.122-.619,5.2,5.2,0,0,0,2.6-2.332c.386-.771.559-1.831.854-2.049s.669.1,1.921.2a3.015,3.015,0,0,1,2.351,1.5c.211.481-.154,1.195-.6,2.216a7.465,7.465,0,0,0-.482,4.066c.251,1.6.992,3.282,1.782,3.687Z" transform="translate(-727.946 -291.016)" fill="#d59d65"/>
    </g>
    <g id="Grupo_4247" data-name="Grupo 4247" transform="translate(-10826.14 -12757.409)">
      <rect id="Retângulo_735" data-name="Retângulo 735" width="55.704" height="55.704" transform="translate(55.704) rotate(90)" fill="none"/>
      <path id="Caminho_2917" data-name="Caminho 2917" d="M750.136,251.734a3.978,3.978,0,0,0,2.5-3.554c.171-1.839-1.813-2.524-2.912-2.365-.775.113-2.159,1.561-1.428,2.769.307.509,1.216.858.578.978a2,2,0,0,1-2.074-1.237,5.932,5.932,0,0,1,.872-3.578,16.469,16.469,0,0,1,4.287-5.4,5.755,5.755,0,0,1,3.8-1.2v-2.377a.9.9,0,0,1-.1.014,10.844,10.844,0,0,0-8.383,4.557,11.635,11.635,0,0,0-2.227,5.881,5.743,5.743,0,0,0,.919,4.024,5.425,5.425,0,0,1-1.2-4.516c.574-3.495,1.83-6.555,5.3-8.793s5.245-1.837,5.686-1.852h0v-.548s-4.2-.139-6.3,1.517a13.184,13.184,0,0,0-4.913,6.5c-1.057,3.131-.419,6.522.838,8.059A4.34,4.34,0,0,0,750.136,251.734Z" transform="translate(-727.579 -234.327)" fill="#2e3e91"/>
      <path id="Caminho_2918" data-name="Caminho 2918" d="M760.218,234.643H758.3s-.1,4.727.039,5.106.14,2.134,2.833,2.114a3.326,3.326,0,0,0,3.271-2.434l-.159-4.787-1.915.08s.1,2.972-.02,3.571-.015,1.249-.973,1.209-.942-.97-1.062-1.568S760.218,234.643,760.218,234.643Z" transform="translate(-727.827 -234.329)" fill="#4192d0"/>
      <path id="Caminho_2919" data-name="Caminho 2919" d="M742.826,268.4a2.575,2.575,0,0,0,2.028-1.34c.332-.711.818-.676.985-.32a1.476,1.476,0,0,0,1.233,1.044c.807.071,1.578-.06,1.661-.238s-.047-1.637.012-1.886.937-.131,1.377.356.95,1.232.848,1.571.1.564.764.255,1.34-.652,1.495-1.495.238-1.4.475-1.447.795.842,1.447,1.186a5.112,5.112,0,0,0,2.325.641,7.211,7.211,0,0,0,2.22-.062l0-.006.006,0a7.232,7.232,0,0,0,.063-2.221,5.129,5.129,0,0,0-.641-2.325c-.344-.652-1.234-1.21-1.186-1.446s.6-.32,1.446-.475,1.187-.83,1.495-1.494.083-.866-.255-.764-1.085-.41-1.571-.849-.6-1.317-.356-1.376,1.709.071,1.887-.012.307-.854.237-1.661a1.473,1.473,0,0,0-1.043-1.233c-.356-.166-.392-.652.32-.985a2.578,2.578,0,0,0,1.34-2.028,3.372,3.372,0,0,0-1.08-1.768c-.486-.463-1.506-.724-1.411-.32a2.848,2.848,0,0,1-.545,1.9,5.265,5.265,0,0,1-2.551.534,7.72,7.72,0,0,0-3.855,1.981,3.824,3.824,0,0,0-1.317,2.194c-.071.475-.237.593-.3.535s.063-.538-.848-1.021a1.773,1.773,0,0,0-2.351.316l0,0a1.771,1.771,0,0,0-.316,2.351c.482.911.961.789,1.02.848s-.059.225-.534.3a3.807,3.807,0,0,0-2.194,1.317,7.708,7.708,0,0,0-1.981,3.855,5.273,5.273,0,0,1-.534,2.55,2.845,2.845,0,0,1-1.9.545c-.4-.094-.142.926.32,1.412A3.363,3.363,0,0,0,742.826,268.4Z" transform="translate(-727.518 -234.553)" fill="#2e3e91"/>
      <path id="Caminho_2920" data-name="Caminho 2920" d="M727.287,237.107a5.374,5.374,0,0,0,1.766-.953,3.583,3.583,0,0,0,1.036-1.83h-2.8Z" transform="translate(-727.287 -234.324)" fill="#d59d65"/>
      <path id="Caminho_2921" data-name="Caminho 2921" d="M762.4,244.357c.056-.827-.62-.985-1.063-1.016s-1.129.356-1.1.956a1.038,1.038,0,0,0,1.022,1.066A1.09,1.09,0,0,0,762.4,244.357Z" transform="translate(-727.861 -234.481)" fill="#d59d65"/>
      <path id="Caminho_2922" data-name="Caminho 2922" d="M751.119,247.587a.765.765,0,0,0-1.182-.046.815.815,0,1,0,1.033,1.26A.877.877,0,0,0,751.119,247.587Z" transform="translate(-727.676 -234.549)" fill="#4192d0"/>
      <path id="Caminho_2923" data-name="Caminho 2923" d="M744.716,257.154a3.978,3.978,0,0,1-3.555,2.5c-1.838.171-2.523-1.813-2.364-2.912.113-.775,1.561-2.159,2.769-1.428.509.308.858,1.216.978.578a2,2,0,0,0-1.237-2.074,5.929,5.929,0,0,0-3.578.873,16.464,16.464,0,0,0-5.4,4.286,5.758,5.758,0,0,0-1.2,3.8h-2.378a.7.7,0,0,0,.015-.1,10.844,10.844,0,0,1,4.557-8.383,11.634,11.634,0,0,1,5.881-2.226,5.743,5.743,0,0,1,4.024.919,5.425,5.425,0,0,0-4.516-1.2c-3.495.574-6.555,1.83-8.793,5.3s-1.837,5.245-1.852,5.686h-.548s-.138-4.2,1.517-6.3a13.184,13.184,0,0,1,6.5-4.913c3.131-1.057,6.522-.419,8.058.838A4.338,4.338,0,0,1,744.716,257.154Z" transform="translate(-727.291 -234.615)" fill="#2e3e91"/>
      <path id="Caminho_2924" data-name="Caminho 2924" d="M740.568,258.137a.764.764,0,0,1-.046-1.182.815.815,0,1,1,1.26,1.032A.876.876,0,0,1,740.568,258.137Z" transform="translate(-727.513 -234.713)" fill="#4192d0"/>
      <path id="Caminho_2925" data-name="Caminho 2925" d="M736.158,284.693c5.523,4.048,13.033,4.623,18.208,3.421a21.453,21.453,0,0,0,6.033-2.741.3.3,0,0,0,.02-.5c-.422-.313-1.181-.863-1.995-1.384-1.233-.79-1.233-2.372-1.549-4.459s1.676-3.512,2.4-4.049a15.1,15.1,0,0,1,3.891-1.676c.633-.063,1.518.885,1.9,1.328s.127,1.9.221,2.372,1.013.57,1.487.6,1.139-.127,1.17-.791a1.676,1.676,0,0,1,1.943-1.942c.664-.031.822-.7.79-1.17s-.126-1.391-.6-1.487-1.93.158-2.372-.221-1.392-1.266-1.328-1.9a15.046,15.046,0,0,1,1.676-3.89c.537-.727,1.961-2.72,4.048-2.4s3.669.316,4.46,1.55c.521.814,1.07,1.572,1.383,1.994a.3.3,0,0,0,.5-.02,21.414,21.414,0,0,0,2.741-6.032c1.2-5.176.627-12.686-3.42-18.208-3.061-4.176-6.763-8.688-12.617-8.569l.124,4.742a2.347,2.347,0,0,1,1.692-.617c.87.142,3.723,1.464,5.744,4.946s3.033,7.025,2.969,8.417-.224,3.43-.463,3.261a18.451,18.451,0,0,0-3.806-1.458c-.28-.061-.292-.544-.071-.766a4.045,4.045,0,0,0,.038-4.487,3.728,3.728,0,0,0-3.706-1.826,4.7,4.7,0,0,0-2.334.754c-.1.1,1.423.031,1.929.537a3.974,3.974,0,0,1,.537,4.206c-.917,1.8-3.921,4.239-4.744,6.009s-1.391,4.112-.158,5.345,1.9.759,2.151,1.012a1.112,1.112,0,0,1,.031,1.17c-.19.316.19.633.19.822a2.542,2.542,0,0,1-.127,1.772c-.442.7-.727.981-1.423.411s-1.344-1.5-1.985-1.494a1.226,1.226,0,0,0-1.388,1.389c-.009.641.925,1.288,1.495,1.984s.285.981-.412,1.424a2.545,2.545,0,0,1-1.771.127c-.19,0-.506-.38-.822-.19a1.11,1.11,0,0,1-1.17-.032c-.254-.253.221-.917-1.012-2.151s-3.575-.664-5.345.158-4.206,3.827-6.009,4.745a3.973,3.973,0,0,1-4.206-.538c-.506-.505-.443-2.024-.538-1.929a4.726,4.726,0,0,0-.753,2.335,3.724,3.724,0,0,0,1.826,3.705,4.046,4.046,0,0,0,4.487-.038c.221-.221.705-.209.765.071a18.485,18.485,0,0,0,1.459,3.806c.169.239-1.87.4-3.262.464s-4.933-.949-8.416-2.97-4.8-4.874-4.946-5.743a2.347,2.347,0,0,1,.616-1.692l-4.741-.124C727.47,277.93,731.983,281.633,736.158,284.693Z" transform="translate(-727.292 -234.327)" fill="#2e3e91"/>
      <path id="Caminho_2926" data-name="Caminho 2926" d="M778.651,264.343c.187-.606-1.388-4.369-3.455-6.14-2.24-1.92-4.93-2.435-6.754-1.652a7.126,7.126,0,0,0-3.838,3.66c-.422,1.369.5,4,2.791,3.819,2.234-.172,2.268-1.556,3.679-2.077a4.944,4.944,0,0,1,4.106-.013C776.572,262.557,778.51,264.8,778.651,264.343Z" transform="translate(-727.936 -234.705)" fill="#4192d0"/>
      <path id="Caminho_2927" data-name="Caminho 2927" d="M775.381,260.368a6.161,6.161,0,0,0-5.171-2.495,5.1,5.1,0,0,0-4.1,2.07,1.672,1.672,0,0,0,2.078,2.5c1.535-.506,1.463-1.888,3.836-2.307C773.238,259.925,775.814,260.978,775.381,260.368Z" transform="translate(-727.959 -234.734)" fill="#d59d65"/>
      <path id="Caminho_2928" data-name="Caminho 2928" d="M763.977,290.591a2.843,2.843,0,0,1,1.265-1.628c1.06-.674,2.139-1.676,3.468-1.657a6.167,6.167,0,0,1,2.89.732,3.636,3.636,0,0,0,1.773.616,1.081,1.081,0,0,0-.174-1.945c-1.195-.617-2.6-.1-2.986-.713s.654-1.041.789-1.831a6.634,6.634,0,0,0-.539-3.16,3.337,3.337,0,0,1,.238-2.742c.061-.067.248-.254.314-.314a3.341,3.341,0,0,1,2.742-.237,6.659,6.659,0,0,0,3.16.539c.79-.135,1.214-1.175,1.831-.79s.1,1.792.712,2.986a1.082,1.082,0,0,0,1.946.174,3.634,3.634,0,0,0-.617-1.773,6.188,6.188,0,0,1-.732-2.891c-.019-1.329.991-2.4,1.658-3.467a2.535,2.535,0,0,1,1.838-1.3v-4.555c-1.153.476-3.015,3.332-3.342,4.083s-.423,3.122-.6,3.218-.4.212-.925-.385-.539-1.657-1.811-2.543-2.139.79-2.4,1.415,1.109,2.072,1.186,2.381.193,2.081.193,2.081-.038.193-.6.211-1.522-1.059-2.447-1.484-1.891.652-2.793,1.561l-.1.1c-.908.9-1.984,1.869-1.56,2.793s1.5,1.888,1.484,2.448-.212.6-.212.6-1.773-.116-2.081-.193-1.755-1.447-2.38-1.186-2.3,1.128-1.416,2.4,1.946,1.291,2.544,1.811.481.752.385.926-2.458.288-3.218.6c-1.138.465-3.63,2.436-3.9,3.131Z" transform="translate(-727.85 -234.887)" fill="#2e3e91"/>
      <path id="Caminho_2929" data-name="Caminho 2929" d="M783.876,290.914v-5.753a1.776,1.776,0,0,0-1.708.944c-.337.718-.161.812-.6.64a8.654,8.654,0,0,0-2.241-.383,9.981,9.981,0,0,0,.428,2.294c.173.435.029.212-.69.549a1.8,1.8,0,0,0-.97,1.709Z" transform="translate(-728.173 -235.21)" fill="#2e3e91"/>
      <path id="Caminho_2930" data-name="Caminho 2930" d="M742.669,267.84c.374.07.942,0,1.608-1.026s1.136-1.164,1.441-1.192,1.108.831,1.382,1.133.281.392.544.156.193-2,.193-2.856-.443-1.053-.54-2.286.79-.791,1.22-.389.152,1.595.318,2.593.735,1.233,1.386,1.525a2.665,2.665,0,0,1,1.275,1.358c.111.361.347.541.569.292s.706-.569.291-1.761.041-1.539.263-1.65.568-.125,1.607.86a4.365,4.365,0,0,0,2.3,1.386,5.518,5.518,0,0,0,2.644.295l.084-.085a5.5,5.5,0,0,0-.295-2.644,4.349,4.349,0,0,0-1.386-2.3c-.984-1.04-.971-1.386-.86-1.608s.458-.679,1.65-.263,1.511-.069,1.761-.291.07-.457-.291-.568a2.663,2.663,0,0,1-1.359-1.275c-.291-.651-.527-1.22-1.525-1.386s-2.19.111-2.592-.319-.846-1.317.388-1.219,1.428.54,2.287.54,2.62.07,2.855-.195.145-.269-.155-.543-1.161-1.078-1.134-1.383.166-.776,1.192-1.441,1.1-1.233,1.026-1.607a2.515,2.515,0,0,0-1.053-1.47c-.638-.416-.166.416-.236.679a1.64,1.64,0,0,1-1.122,1.345,26.05,26.05,0,0,0-3.244.693c-1.622.569-2.2.762-3.1,1.886s-1.178,2.01-.707,2.482,1.5.665,1.969,1.136a3.039,3.039,0,0,1,.845,1.4c-.028.195-1.053,0-1.566-.236a3.522,3.522,0,0,1-1.441-1.164c-.1-.318-.262-.844-.416-.3a2.891,2.891,0,0,0,.568,1.927c.277.306.8.942,1.3.942s.957-.041,1.082-.055a8.763,8.763,0,0,1,1.58,2.467c.186.558.377,1.076.48,1.36-.284-.1-.8-.293-1.36-.479a8.769,8.769,0,0,1-2.468-1.581,10.682,10.682,0,0,0,.056-1.081c0-.5-.638-1.026-.943-1.3a2.889,2.889,0,0,0-1.926-.568c-.54.152-.015.318.3.415a3.541,3.541,0,0,1,1.164,1.442c.236.513.429,1.539.236,1.566a3.034,3.034,0,0,1-1.4-.846c-.472-.471-.665-1.5-1.137-1.968s-1.359-.195-2.482.707-1.317,1.483-1.885,3.1a25.906,25.906,0,0,0-.694,3.243,1.642,1.642,0,0,1-1.344,1.123c-.263.07-1.1-.4-.68.236A2.523,2.523,0,0,0,742.669,267.84Z" transform="translate(-727.527 -234.564)" fill="#4192d0"/>
      <path id="Caminho_2931" data-name="Caminho 2931" d="M749.694,256.866a1.5,1.5,0,0,0-.02-2.218,1.42,1.42,0,0,0-1.993-.031c-.362.362-.936,1.341-.2,2.012S748.994,257.567,749.694,256.866Z" transform="translate(-727.633 -234.671)" fill="#4192d0"/>
      <path id="Caminho_2932" data-name="Caminho 2932" d="M772.494,259.369c.1-.254-.1-.52-.3-.447s-.3.287-.176.415S772.442,259.5,772.494,259.369Z" transform="translate(-728.066 -234.752)" fill="#fff"/>
      <path id="Caminho_2933" data-name="Caminho 2933" d="M770.682,259.418a.415.415,0,0,0-.511-.512c-.366.128-.463.431-.327.647A.492.492,0,0,0,770.682,259.418Z" transform="translate(-728.028 -234.752)" fill="#fff"/>
      <path id="Caminho_2934" data-name="Caminho 2934" d="M768.568,261.118a.8.8,0,0,0-.28-1.3.771.771,0,0,0-.988.331.756.756,0,0,0,.143,1.074A.926.926,0,0,0,768.568,261.118Z" transform="translate(-727.982 -234.767)" fill="#fff"/>
      <path id="Caminho_2935" data-name="Caminho 2935" d="M779.963,262.678a6.778,6.778,0,0,1-.324-.923,5.221,5.221,0,0,0,.91-2.206,23.848,23.848,0,0,0-.1-7.86,21.957,21.957,0,0,0-5.7-11.312c-2.93-3.29-2.383-2.948-.633-1.1s5.056,5.5,6.3,10.294a24.126,24.126,0,0,1,.7,9.888A6.112,6.112,0,0,1,779.963,262.678Z" transform="translate(-728.078 -234.386)" fill="#fff"/>
      <path id="Caminho_2936" data-name="Caminho 2936" d="M727.711,267.149v-1.915s4.727-.1,5.106.04,2.134.14,2.114,2.832a3.326,3.326,0,0,1-2.434,3.272l-4.787-.16.08-1.914s2.972.1,3.571-.021,1.25-.015,1.209-.972-.97-.943-1.568-1.062S727.711,267.149,727.711,267.149Z" transform="translate(-727.294 -234.862)" fill="#4192d0"/>
      <path id="Caminho_2937" data-name="Caminho 2937" d="M737.425,269.33c-.827.057-.984-.619-1.015-1.062s.356-1.13.955-1.1a1.038,1.038,0,0,1,1.066,1.022A1.088,1.088,0,0,1,737.425,269.33Z" transform="translate(-727.446 -234.896)" fill="#d59d65"/>
      <path id="Caminho_2938" data-name="Caminho 2938" d="M729.453,290.58c-.513-.017.943-1.208,1.638-1.638s1.523-.577,2.018-1.389c.508-.835.491-1.093.491-1.093a1.85,1.85,0,0,1,.187,1.7,7.182,7.182,0,0,1-.728,1.125,6.933,6.933,0,0,1,1.771-.414,6.752,6.752,0,0,1,2.415,1.29c.215.215-1.919-.2-2.895-.05S729.966,290.6,729.453,290.58Z" transform="translate(-727.323 -235.233)" fill="#2e3e91"/>
      <path id="Caminho_2939" data-name="Caminho 2939" d="M727.977,288.411a9.788,9.788,0,0,0,1.885-2.548c.447-1.043,1.016-1.446,1.28-1.48s-.593-.552-1.453.082c-.263.195-.532.815-.614.472a18.639,18.639,0,0,0-.321-2.366,4.8,4.8,0,0,0-.976-1.438l.017,7.3Z" transform="translate(-727.295 -235.14)" fill="#2e3e91"/>
      <path id="Caminho_2940" data-name="Caminho 2940" d="M757.411,285.583c-.605.186-4.369-1.388-6.14-3.456-1.919-2.239-2.434-4.93-1.652-6.753a7.121,7.121,0,0,1,3.661-3.838c1.368-.422,4,.5,3.819,2.791-.172,2.234-1.557,2.268-2.078,3.679a4.948,4.948,0,0,0-.013,4.106C755.625,283.5,757.869,285.441,757.411,285.583Z" transform="translate(-727.67 -234.971)" fill="#4192d0"/>
      <path id="Caminho_2941" data-name="Caminho 2941" d="M753.437,282.313a6.163,6.163,0,0,1-2.5-5.171,5.107,5.107,0,0,1,2.071-4.1,1.673,1.673,0,0,1,2.5,2.079c-.507,1.535-1.888,1.462-2.307,3.835C752.994,280.17,754.047,282.746,753.437,282.313Z" transform="translate(-727.699 -234.994)" fill="#d59d65"/>
      <path id="Caminho_2942" data-name="Caminho 2942" d="M752.437,279.424c-.255.1-.519-.1-.447-.3s.288-.3.416-.175S752.568,279.373,752.437,279.424Z" transform="translate(-727.717 -235.101)" fill="#fff"/>
      <path id="Caminho_2943" data-name="Caminho 2943" d="M752.485,277.614a.414.414,0,0,1-.511-.512c.127-.367.43-.462.647-.326A.493.493,0,0,1,752.485,277.614Z" transform="translate(-727.717 -235.063)" fill="#fff"/>
      <path id="Caminho_2944" data-name="Caminho 2944" d="M754.186,275.5a.8.8,0,0,1-1.3-.279.771.771,0,0,1,.33-.988.756.756,0,0,1,1.074.143A.923.923,0,0,1,754.186,275.5Z" transform="translate(-727.732 -235.017)" fill="#fff"/>
      <path id="Caminho_2945" data-name="Caminho 2945" d="M755.746,286.895a6.645,6.645,0,0,0-.923-.324,5.2,5.2,0,0,1-2.206.909,23.792,23.792,0,0,1-7.86-.1,21.948,21.948,0,0,1-11.311-5.7c-3.29-2.929-2.948-2.383-1.1-.632s5.5,5.056,10.294,6.3a24.109,24.109,0,0,0,9.887.7A6.115,6.115,0,0,0,755.746,286.895Z" transform="translate(-727.351 -235.113)" fill="#fff"/>
      <path id="Caminho_2946" data-name="Caminho 2946" d="M729.429,289.163c.672-.466,1.884-1.031,2.519-1.494.777-.567,1.28-1.664.64-2.262s-1.387-.149-1.856.4a26.13,26.13,0,0,0-1.665,2.989C728.875,289.163,728.947,289.5,729.429,289.163Zm1.861-3.383a.67.67,0,0,1,1.12.4.938.938,0,0,1-.65.939C731.162,287.325,730.427,286.445,731.29,285.78Z" transform="translate(-727.316 -235.209)" fill="#d59d65"/>
      <path id="Caminho_2947" data-name="Caminho 2947" d="M781.493,234.821c.514.017-.942,1.208-1.637,1.638s-1.524.577-2.019,1.389c-.508.835-.491,1.093-.491,1.093a1.85,1.85,0,0,1-.187-1.7,7.07,7.07,0,0,1,.728-1.124,6.991,6.991,0,0,1-1.771.413,6.752,6.752,0,0,1-2.415-1.29c-.215-.215,1.919.2,2.9.05S780.981,234.8,781.493,234.821Z" transform="translate(-728.096 -234.332)" fill="#2e3e91"/>
      <path id="Caminho_2948" data-name="Caminho 2948" d="M783.051,236.934a9.787,9.787,0,0,0-1.887,2.548c-.446,1.042-1.015,1.446-1.28,1.48s.594.553,1.453-.082c.263-.195.532-.815.614-.471a18.838,18.838,0,0,0,.321,2.365,4.786,4.786,0,0,0,.977,1.438l-.017-7.3Z" transform="translate(-728.203 -234.369)" fill="#2e3e91"/>
      <path id="Caminho_2949" data-name="Caminho 2949" d="M781.589,236.237c-.671.466-1.883,1.031-2.518,1.494-.777.567-1.281,1.664-.641,2.262s1.387.149,1.857-.4a26.063,26.063,0,0,0,1.664-2.988C782.144,236.237,782.071,235.9,781.589,236.237Zm-1.861,3.383a.67.67,0,0,1-1.12-.4.939.939,0,0,1,.65-.939C779.856,238.075,780.59,238.956,779.728,239.62Z" transform="translate(-728.174 -234.355)" fill="#d59d65"/>
      <path id="Caminho_2950" data-name="Caminho 2950" d="M740.725,239.873a10.217,10.217,0,0,1-3.617.11,3.687,3.687,0,0,1-2.867-1.1c-.276-.43-.018-.258-.53-.4-.352-.1-.3-.1-.64.2s-.077.606.11.794.7.982.96,1.312a.381.381,0,1,1-.432.432c-.331-.264-1.125-.771-1.313-.959s-.5-.452-.794-.11-.294.288-.2.64c.139.512-.032.253.4.529a3.688,3.688,0,0,1,1.1,2.867,10.239,10.239,0,0,1-.111,3.618c-.286.574-1.345,1.257-1.6,1.775a1.918,1.918,0,0,0-.165.982,8.64,8.64,0,0,0,2.283-.232c.849-.232,2.183-.992,2.415-1.731a15.3,15.3,0,0,0,.374-1.875c.033-.122-.043-.661.2.133s.507,1.411.981,1.444,2.6.264,3.232.364a7.409,7.409,0,0,0,1.254.192l.008,0v0h0v-.008a7.535,7.535,0,0,0-.192-1.255c-.1-.628-.331-2.757-.365-3.231s-.65-.739-1.444-.982-.253-.165-.133-.2a15.539,15.539,0,0,0,1.876-.375c.739-.231,1.5-1.565,1.731-2.415a8.664,8.664,0,0,0,.231-2.282,1.931,1.931,0,0,0-.982.165C741.982,238.527,741.3,239.586,740.725,239.873Z" transform="translate(-727.352 -234.389)" fill="#2e3e91"/>
      <path id="Caminho_2951" data-name="Caminho 2951" d="M732.9,234.324a6.041,6.041,0,0,1-.69,2.532c-.608.885-.626.973-.782.955a2.64,2.64,0,0,1-.834-.591c-.121-.156.5-.712.816-1.477a3.513,3.513,0,0,0,.234-1.42h-.553a2.523,2.523,0,0,1-.253,1.4,9.1,9.1,0,0,1-.9,1.141l-.075.075a9.1,9.1,0,0,1-1.141.9,2.573,2.573,0,0,1-1.435.252v.554a3.513,3.513,0,0,0,1.451-.233c.764-.312,1.321-.937,1.477-.816a2.625,2.625,0,0,1,.591.834c.018.156-.069.174-.955.782a6.115,6.115,0,0,1-2.563.692V251.43c1.154-1.1,1.82-3.426,2.043-4.645a12.339,12.339,0,0,0-.678-4.88c-.434-1.164.434-1.442.8-1.633s.816.226.816.226a.214.214,0,0,0,.208-.313,1.056,1.056,0,0,1,.643-1.059c.452-.208,1.043.452,1.208.547.117.068.172-.064.195-.147.084-.023.215-.078.147-.195-.1-.165-.756-.756-.547-1.208a1.056,1.056,0,0,1,1.06-.643.214.214,0,0,0,.313-.208s-.418-.452-.226-.816.469-1.233,1.633-.8a12.337,12.337,0,0,0,4.88.678,9.776,9.776,0,0,0,4.61-2.011Z" transform="translate(-727.287 -234.324)" fill="#2e3e91"/>
      <path id="Caminho_2952" data-name="Caminho 2952" d="M777,290.687a13.6,13.6,0,0,1,.6-2.8,4.225,4.225,0,0,1,3.243-3.243,13.534,13.534,0,0,1,2.8-.6V272.149c-.79.4-1.532,2.087-1.782,3.687a7.463,7.463,0,0,0,.482,4.065c.443,1.022.809,1.734.6,2.216a3.013,3.013,0,0,1-2.351,1.5c-1.252.1-1.625.417-1.921.2s-.468-1.277-.854-2.049a5.2,5.2,0,0,0-2.6-2.332,8.811,8.811,0,0,0-3.122-.619.36.36,0,0,0-.317.316,8.785,8.785,0,0,0,.62,3.122,5.185,5.185,0,0,0,2.332,2.6c.77.385,1.831.559,2.048.854s-.1.668-.2,1.921a3.011,3.011,0,0,1-1.5,2.35c-.482.212-1.195-.154-2.217-.6a7.463,7.463,0,0,0-4.065-.481c-1.6.251-3.282.992-3.687,1.782Z" transform="translate(-727.946 -234.983)" fill="#d59d65"/>
    </g>
    <g id="Grupo_4248" data-name="Grupo 4248" transform="translate(-10770.436 -12757.409)">
      <rect id="Retângulo_736" data-name="Retângulo 736" width="55.704" height="55.704" transform="translate(55.704 55.704) rotate(180)" fill="none"/>
      <path id="Caminho_2953" data-name="Caminho 2953" d="M822.951,257.173a3.979,3.979,0,0,0,3.555,2.5c1.838.171,2.523-1.813,2.364-2.912-.113-.775-1.561-2.16-2.769-1.429-.509.309-.858,1.217-.977.579a2,2,0,0,1,1.236-2.074,5.925,5.925,0,0,1,3.578.872,16.459,16.459,0,0,1,5.4,4.287,5.762,5.762,0,0,1,1.2,3.8h2.377a.893.893,0,0,1-.015-.1,10.846,10.846,0,0,0-4.557-8.383,11.633,11.633,0,0,0-5.881-2.225,5.743,5.743,0,0,0-4.024.919,5.428,5.428,0,0,1,4.516-1.2c3.5.574,6.556,1.83,8.793,5.3s1.837,5.245,1.852,5.686h.548s.138-4.2-1.517-6.3a13.184,13.184,0,0,0-6.5-4.913c-3.131-1.057-6.522-.419-8.058.838A4.34,4.34,0,0,0,822.951,257.173Z" transform="translate(-784.654 -234.615)" fill="#2e3e91"/>
      <path id="Caminho_2954" data-name="Caminho 2954" d="M840.225,267.254V265.34s-4.728-.1-5.106.039-2.135.14-2.114,2.833a3.325,3.325,0,0,0,2.433,3.271l4.788-.159-.081-1.915s-2.971.1-3.57-.02-1.25-.016-1.21-.973.97-.942,1.568-1.062S840.225,267.254,840.225,267.254Z" transform="translate(-784.834 -234.864)" fill="#4192d0"/>
      <path id="Caminho_2955" data-name="Caminho 2955" d="M806.228,249.862a2.578,2.578,0,0,0,1.34,2.028c.711.332.676.818.32.985a1.473,1.473,0,0,0-1.044,1.233c-.072.807.059,1.578.237,1.661s1.637-.047,1.886.012.131.937-.356,1.376-1.232.95-1.57.849-.564.1-.256.764.652,1.34,1.494,1.495,1.4.237,1.447.475-.842.795-1.186,1.446a5.117,5.117,0,0,0-.641,2.325,7.286,7.286,0,0,0,.062,2.221l.006,0,0,.006a7.239,7.239,0,0,0,2.221.063,5.124,5.124,0,0,0,2.325-.641c.652-.344,1.21-1.234,1.447-1.187s.32.605.475,1.447.829,1.186,1.493,1.494.867.084.764-.255.41-1.085.849-1.571,1.317-.6,1.376-.356-.071,1.708.012,1.886.855.309,1.661.238a1.476,1.476,0,0,0,1.234-1.043c.166-.357.652-.392.984.32a2.574,2.574,0,0,0,2.028,1.339,3.361,3.361,0,0,0,1.767-1.079c.463-.486.724-1.506.32-1.411a2.844,2.844,0,0,1-1.9-.546,5.268,5.268,0,0,1-.534-2.55,7.717,7.717,0,0,0-1.981-3.855,3.819,3.819,0,0,0-2.194-1.317c-.475-.071-.594-.237-.534-.3s.537.063,1.02-.847a1.774,1.774,0,0,0-.316-2.352l0,0a1.771,1.771,0,0,0-2.351-.316c-.911.481-.788.961-.848,1.02s-.225-.059-.3-.534a3.81,3.81,0,0,0-1.316-2.194,7.707,7.707,0,0,0-3.856-1.981,5.286,5.286,0,0,1-2.55-.534,2.845,2.845,0,0,1-.545-1.9c.094-.4-.926-.142-1.412.32A3.369,3.369,0,0,0,806.228,249.862Z" transform="translate(-784.367 -234.555)" fill="#2e3e91"/>
      <path id="Caminho_2956" data-name="Caminho 2956" d="M837.839,234.324a5.375,5.375,0,0,0,.953,1.766,3.583,3.583,0,0,0,1.83,1.035v-2.8Z" transform="translate(-784.918 -234.324)" fill="#d59d65"/>
      <path id="Caminho_2957" data-name="Caminho 2957" d="M830.6,269.436c.826.056.985-.62,1.015-1.063s-.356-1.13-.956-1.1A1.039,1.039,0,0,0,829.6,268.3,1.09,1.09,0,0,0,830.6,269.436Z" transform="translate(-784.774 -234.898)" fill="#d59d65"/>
      <path id="Caminho_2958" data-name="Caminho 2958" d="M827.378,258.156a.764.764,0,0,0,.046-1.182.815.815,0,1,0-1.26,1.032A.876.876,0,0,0,827.378,258.156Z" transform="translate(-784.711 -234.713)" fill="#4192d0"/>
      <path id="Caminho_2959" data-name="Caminho 2959" d="M817.632,251.753a3.979,3.979,0,0,1-2.5-3.555c-.171-1.838,1.813-2.523,2.912-2.364.775.113,2.16,1.561,1.429,2.769-.309.509-1.217.858-.579.977a2,2,0,0,0,2.074-1.236,5.932,5.932,0,0,0-.872-3.578,16.472,16.472,0,0,0-4.287-5.4,5.762,5.762,0,0,0-3.8-1.2v-2.377a.908.908,0,0,0,.1.015,10.847,10.847,0,0,1,8.383,4.557,11.644,11.644,0,0,1,2.227,5.881,5.748,5.748,0,0,1-.92,4.024,5.428,5.428,0,0,0,1.2-4.516c-.574-3.495-1.828-6.556-5.3-8.793s-5.245-1.837-5.686-1.852h0v-.548s4.2-.139,6.3,1.517a13.184,13.184,0,0,1,4.913,6.5c1.057,3.131.419,6.522-.838,8.058A4.34,4.34,0,0,1,817.632,251.753Z" transform="translate(-784.468 -234.328)" fill="#2e3e91"/>
      <path id="Caminho_2960" data-name="Caminho 2960" d="M816.828,247.6a.764.764,0,0,1,1.182-.045.815.815,0,1,1-1.032,1.26A.877.877,0,0,1,816.828,247.6Z" transform="translate(-784.549 -234.55)" fill="#4192d0"/>
      <path id="Caminho_2961" data-name="Caminho 2961" d="M789.341,243.195c-4.048,5.522-4.623,13.033-3.42,18.208a21.434,21.434,0,0,0,2.74,6.032.3.3,0,0,0,.5.021c.313-.423.862-1.181,1.383-1.995.791-1.233,2.372-1.233,4.46-1.549s3.511,1.676,4.048,2.4a15.065,15.065,0,0,1,1.676,3.891c.063.632-.885,1.518-1.328,1.9s-1.9.127-2.372.221-.57,1.012-.6,1.487.127,1.139.791,1.17a1.675,1.675,0,0,1,1.942,1.942c.032.665.7.823,1.17.791s1.392-.126,1.487-.6-.158-1.93.222-2.372,1.265-1.392,1.9-1.328a15.013,15.013,0,0,1,3.89,1.676c.728.537,2.721,1.96,2.4,4.048s-.316,3.669-1.551,4.46c-.814.521-1.571,1.07-1.994,1.383a.3.3,0,0,0,.02.5,21.44,21.44,0,0,0,6.033,2.741c5.175,1.2,12.685.627,18.208-3.42,4.175-3.061,8.687-6.763,8.568-12.617l-4.741.124a2.347,2.347,0,0,1,.616,1.692c-.142.87-1.464,3.723-4.946,5.744s-7.024,3.033-8.417,2.969-3.43-.224-3.261-.463a18.453,18.453,0,0,0,1.458-3.806c.061-.28.545-.293.766-.071a4.044,4.044,0,0,0,4.487.037A3.725,3.725,0,0,0,827.3,274.7a4.717,4.717,0,0,0-.754-2.335c-.094-.094-.031,1.424-.537,1.93a3.974,3.974,0,0,1-4.206.537c-1.8-.917-4.238-3.921-6.009-4.744s-4.112-1.392-5.345-.158-.76,1.9-1.012,2.151a1.112,1.112,0,0,1-1.17.031c-.316-.19-.633.19-.822.19a2.542,2.542,0,0,1-1.772-.127c-.7-.442-.98-.727-.411-1.423s1.5-1.344,1.494-1.985a1.227,1.227,0,0,0-1.388-1.389c-.642-.008-1.289.926-1.985,1.5s-.981.284-1.424-.412a2.543,2.543,0,0,1-.126-1.771c0-.191.379-.507.19-.822a1.11,1.11,0,0,1,.031-1.17c.253-.254.917.221,2.151-1.012s.664-3.575-.158-5.345-3.827-4.207-4.745-6.009a3.977,3.977,0,0,1,.538-4.207c.506-.506,2.024-.442,1.929-.537a4.711,4.711,0,0,0-2.335-.753,3.724,3.724,0,0,0-3.705,1.826,4.046,4.046,0,0,0,.038,4.487c.221.221.209.705-.071.765a18.48,18.48,0,0,0-3.806,1.459c-.239.169-.4-1.87-.464-3.262s.949-4.933,2.97-8.416,4.873-4.8,5.743-4.947a2.352,2.352,0,0,1,1.693.617l.123-4.741C796.1,234.507,792.4,239.02,789.341,243.195Z" transform="translate(-784.003 -234.329)" fill="#2e3e91"/>
      <path id="Caminho_2962" data-name="Caminho 2962" d="M810.506,285.688c.606.187,4.369-1.388,6.141-3.455,1.919-2.24,2.434-4.93,1.651-6.754a7.126,7.126,0,0,0-3.66-3.838c-1.369-.422-4,.5-3.819,2.791.172,2.234,1.556,2.268,2.078,3.679a4.952,4.952,0,0,1,.013,4.106C812.292,283.609,810.049,285.547,810.506,285.688Z" transform="translate(-784.441 -234.973)" fill="#4192d0"/>
      <path id="Caminho_2963" data-name="Caminho 2963" d="M814.544,282.418a6.158,6.158,0,0,0,2.495-5.171,5.1,5.1,0,0,0-2.07-4.1,1.673,1.673,0,0,0-2.5,2.078c.506,1.535,1.888,1.463,2.307,3.836C814.986,280.275,813.933,282.851,814.544,282.418Z" transform="translate(-784.473 -234.995)" fill="#d59d65"/>
      <path id="Caminho_2964" data-name="Caminho 2964" d="M783.979,271.013a2.842,2.842,0,0,1,1.628,1.266c.674,1.06,1.676,2.139,1.658,3.468a6.165,6.165,0,0,1-.733,2.89,3.631,3.631,0,0,0-.616,1.773,1.081,1.081,0,0,0,1.945-.173c.617-1.195.1-2.6.713-2.987s1.041.655,1.831.79a6.646,6.646,0,0,0,3.16-.539,3.337,3.337,0,0,1,2.742.238c.067.06.253.248.314.314a3.333,3.333,0,0,1,.237,2.742,6.659,6.659,0,0,0-.539,3.16c.136.79,1.176,1.214.79,1.831s-1.791.1-2.986.712a1.082,1.082,0,0,0-.174,1.946,3.641,3.641,0,0,0,1.773-.617,6.188,6.188,0,0,1,2.891-.732c1.329-.02,2.4.991,3.468,1.658a2.539,2.539,0,0,1,1.3,1.838h4.554c-.476-1.153-3.331-3.014-4.083-3.342s-3.122-.423-3.218-.6-.212-.4.385-.925,1.658-.539,2.544-1.812-.79-2.138-1.416-2.4-2.072,1.109-2.381,1.186-2.08.193-2.08.193-.193-.038-.212-.6,1.059-1.522,1.484-2.447-.652-1.891-1.561-2.794l-.1-.1c-.9-.908-1.869-1.985-2.793-1.56s-1.888,1.5-2.448,1.484-.6-.212-.6-.212.116-1.773.194-2.081,1.446-1.755,1.186-2.381-1.129-2.3-2.4-1.415-1.291,1.946-1.811,2.544-.752.481-.925.385-.288-2.459-.6-3.218c-.465-1.138-2.436-3.631-3.131-3.9Z" transform="translate(-783.979 -234.887)" fill="#2e3e91"/>
      <path id="Caminho_2965" data-name="Caminho 2965" d="M783.979,290.913h5.753a1.775,1.775,0,0,0-.943-1.708c-.719-.337-.813-.162-.64-.6a8.74,8.74,0,0,0,.383-2.241,9.857,9.857,0,0,0-2.294.428c-.436.173-.213.029-.549-.69a1.8,1.8,0,0,0-1.71-.97Z" transform="translate(-783.979 -235.21)" fill="#2e3e91"/>
      <path id="Caminho_2966" data-name="Caminho 2966" d="M806.8,249.706c-.069.374,0,.942,1.026,1.607s1.164,1.137,1.193,1.442-.832,1.108-1.134,1.382-.391.281-.156.544,2,.194,2.856.194,1.053-.443,2.287-.54.79.79.388,1.22-1.595.152-2.593.318-1.233.735-1.525,1.386a2.662,2.662,0,0,1-1.358,1.275c-.361.111-.54.347-.291.568s.568.707,1.76.292,1.539.041,1.65.263.125.568-.859,1.607a4.349,4.349,0,0,0-1.386,2.3,5.507,5.507,0,0,0-.3,2.644l.084.084A5.517,5.517,0,0,0,811.1,266a4.355,4.355,0,0,0,2.3-1.386c1.04-.984,1.386-.971,1.608-.86s.679.458.263,1.65.069,1.511.291,1.761.458.069.569-.291a2.654,2.654,0,0,1,1.275-1.359c.651-.291,1.219-.527,1.385-1.525s-.11-2.19.319-2.592,1.317-.846,1.219.388-.54,1.428-.54,2.287-.069,2.62.195,2.855.27.145.543-.156,1.078-1.16,1.383-1.133.776.166,1.441,1.192,1.234,1.1,1.608,1.026a2.514,2.514,0,0,0,1.469-1.053c.416-.638-.416-.166-.679-.236a1.643,1.643,0,0,1-1.345-1.123,26.068,26.068,0,0,0-.693-3.243c-.569-1.622-.762-2.2-1.886-3.1s-2.01-1.179-2.481-.707-.665,1.5-1.137,1.969a3.048,3.048,0,0,1-1.4.845c-.195-.028,0-1.053.236-1.566a3.523,3.523,0,0,1,1.164-1.441c.318-.1.845-.263.3-.416a2.893,2.893,0,0,0-1.927.568c-.3.277-.942.8-.942,1.3s.041.957.055,1.082a8.783,8.783,0,0,1-2.467,1.58c-.558.186-1.076.376-1.36.479.1-.284.293-.8.479-1.36a8.762,8.762,0,0,1,1.58-2.467c.125.014.582.056,1.081.056s1.026-.638,1.3-.943a2.9,2.9,0,0,0,.568-1.926c-.153-.54-.318-.015-.416.3a3.538,3.538,0,0,1-1.441,1.164c-.514.235-1.54.429-1.567.235a3.037,3.037,0,0,1,.846-1.4c.472-.472,1.5-.666,1.968-1.137s.195-1.359-.706-2.482-1.484-1.317-3.106-1.886a26.038,26.038,0,0,0-3.243-.693,1.642,1.642,0,0,1-1.123-1.344c-.069-.263.4-1.1-.236-.68A2.523,2.523,0,0,0,806.8,249.706Z" transform="translate(-784.377 -234.564)" fill="#4192d0"/>
      <path id="Caminho_2967" data-name="Caminho 2967" d="M818.076,256.731a1.5,1.5,0,0,0,2.218-.02,1.421,1.421,0,0,0,.03-1.993c-.361-.362-1.341-.936-2.012-.2S817.374,256.03,818.076,256.731Z" transform="translate(-784.566 -234.67)" fill="#4192d0"/>
      <path id="Caminho_2968" data-name="Caminho 2968" d="M815.617,279.531c.255.1.52-.1.448-.3s-.288-.3-.416-.176S815.485,279.479,815.617,279.531Z" transform="translate(-784.529 -235.103)" fill="#fff"/>
      <path id="Caminho_2969" data-name="Caminho 2969" d="M815.563,277.719a.414.414,0,0,0,.511-.511c-.127-.367-.431-.463-.646-.327A.492.492,0,0,0,815.563,277.719Z" transform="translate(-784.524 -235.065)" fill="#fff"/>
      <path id="Caminho_2970" data-name="Caminho 2970" d="M813.85,275.6a.8.8,0,0,0,1.3-.28.771.771,0,0,0-.331-.988.755.755,0,0,0-1.073.143A.923.923,0,0,0,813.85,275.6Z" transform="translate(-784.496 -235.019)" fill="#fff"/>
      <path id="Caminho_2971" data-name="Caminho 2971" d="M811.878,287a6.6,6.6,0,0,1,.923-.324,5.213,5.213,0,0,0,2.206.91,23.848,23.848,0,0,0,7.86-.1,21.958,21.958,0,0,0,11.311-5.7c3.29-2.93,2.948-2.383,1.1-.633s-5.5,5.056-10.294,6.3a24.122,24.122,0,0,1-9.888.7A6.106,6.106,0,0,1,811.878,287Z" transform="translate(-784.466 -235.115)" fill="#fff"/>
      <path id="Caminho_2972" data-name="Caminho 2972" d="M807.736,234.748h1.915s.1,4.727-.04,5.106-.139,2.134-2.832,2.114a3.326,3.326,0,0,1-3.272-2.434l.16-4.787,1.915.08s-.1,2.972.02,3.571.015,1.249.973,1.21.942-.97,1.062-1.569S807.736,234.748,807.736,234.748Z" transform="translate(-784.32 -234.331)" fill="#4192d0"/>
      <path id="Caminho_2973" data-name="Caminho 2973" d="M805.627,244.462c-.056-.827.619-.985,1.063-1.015s1.129.356,1.1.955a1.038,1.038,0,0,1-1.022,1.066A1.089,1.089,0,0,1,805.627,244.462Z" transform="translate(-784.356 -234.483)" fill="#d59d65"/>
      <path id="Caminho_2974" data-name="Caminho 2974" d="M784.342,236.49c.017-.514,1.208.943,1.638,1.638s.578,1.523,1.389,2.018c.835.508,1.093.491,1.093.491a1.848,1.848,0,0,1-1.7.187,7.053,7.053,0,0,1-1.125-.728,7.027,7.027,0,0,1,.414,1.771,6.768,6.768,0,0,1-1.291,2.415c-.215.215.2-1.919.05-2.895S784.326,237,784.342,236.49Z" transform="translate(-783.985 -234.36)" fill="#2e3e91"/>
      <path id="Caminho_2975" data-name="Caminho 2975" d="M786.455,235.013A9.83,9.83,0,0,0,789,236.9c1.043.447,1.446,1.016,1.48,1.28s.553-.593-.082-1.453c-.195-.263-.815-.532-.471-.614a18.829,18.829,0,0,0,2.365-.321,4.794,4.794,0,0,0,1.438-.976l-7.294.017Z" transform="translate(-784.022 -234.332)" fill="#2e3e91"/>
      <path id="Caminho_2976" data-name="Caminho 2976" d="M789.162,264.448c-.187-.606,1.388-4.369,3.455-6.14,2.24-1.919,4.931-2.434,6.753-1.652a7.129,7.129,0,0,1,3.839,3.66c.422,1.369-.5,4-2.791,3.819-2.235-.171-2.268-1.556-3.68-2.077a4.946,4.946,0,0,0-4.105-.013C791.241,262.662,789.3,264.906,789.162,264.448Z" transform="translate(-784.069 -234.707)" fill="#4192d0"/>
      <path id="Caminho_2977" data-name="Caminho 2977" d="M792.511,260.474a6.163,6.163,0,0,1,5.171-2.5,5.1,5.1,0,0,1,4.1,2.07,1.673,1.673,0,0,1-2.078,2.5c-1.536-.507-1.463-1.888-3.836-2.307C794.655,260.031,792.08,261.084,792.511,260.474Z" transform="translate(-784.127 -234.736)" fill="#d59d65"/>
      <path id="Caminho_2978" data-name="Caminho 2978" d="M795.561,259.474c-.1-.254.1-.519.3-.447s.3.288.176.416S795.612,259.605,795.561,259.474Z" transform="translate(-784.181 -234.754)" fill="#fff"/>
      <path id="Caminho_2979" data-name="Caminho 2979" d="M797.365,259.523a.415.415,0,0,1,.512-.511c.367.127.463.43.326.647A.493.493,0,0,1,797.365,259.523Z" transform="translate(-784.212 -234.754)" fill="#fff"/>
      <path id="Caminho_2980" data-name="Caminho 2980" d="M799.467,261.223a.8.8,0,0,1,.279-1.3.772.772,0,0,1,.989.33.756.756,0,0,1-.144,1.074A.925.925,0,0,1,799.467,261.223Z" transform="translate(-784.245 -234.769)" fill="#fff"/>
      <path id="Caminho_2981" data-name="Caminho 2981" d="M787.947,262.783a6.767,6.767,0,0,0,.323-.923,5.205,5.205,0,0,1-.909-2.206,23.823,23.823,0,0,1,.1-7.86,21.944,21.944,0,0,1,5.7-11.311c2.929-3.29,2.383-2.948.632-1.1s-5.056,5.5-6.3,10.294a24.11,24.11,0,0,0-.7,9.888A6.1,6.1,0,0,0,787.947,262.783Z" transform="translate(-784.024 -234.388)" fill="#fff"/>
      <path id="Caminho_2982" data-name="Caminho 2982" d="M785.758,236.466c.466.672,1.031,1.883,1.494,2.519.567.776,1.664,1.28,2.262.64s.15-1.387-.4-1.857a26.192,26.192,0,0,0-2.988-1.664C785.758,235.911,785.423,235.984,785.758,236.466Zm3.383,1.861a.67.67,0,0,1-.4,1.12.938.938,0,0,1-.939-.65C787.6,238.2,788.477,237.464,789.141,238.327Z" transform="translate(-784.008 -234.353)" fill="#d59d65"/>
      <path id="Caminho_2983" data-name="Caminho 2983" d="M840.1,288.53c-.017.514-1.208-.943-1.638-1.638s-.577-1.523-1.389-2.018c-.835-.508-1.093-.491-1.093-.491a1.849,1.849,0,0,1,1.7-.187,7.183,7.183,0,0,1,1.125.728,6.933,6.933,0,0,1-.414-1.771,6.753,6.753,0,0,1,1.29-2.415c.215-.215-.2,1.919-.049,2.895S840.118,288.018,840.1,288.53Z" transform="translate(-784.886 -235.133)" fill="#2e3e91"/>
      <path id="Caminho_2984" data-name="Caminho 2984" d="M837.932,290.087a9.81,9.81,0,0,0-2.548-1.886c-1.043-.447-1.446-1.016-1.48-1.28s-.552.593.083,1.453c.193.263.814.532.471.614a18.79,18.79,0,0,0-2.365.321,4.791,4.791,0,0,0-1.439.976l7.3-.017Z" transform="translate(-784.793 -235.24)" fill="#2e3e91"/>
      <path id="Caminho_2985" data-name="Caminho 2985" d="M838.684,288.626c-.466-.672-1.03-1.883-1.495-2.519-.567-.776-1.664-1.28-2.262-.64s-.149,1.387.406,1.857a26.035,26.035,0,0,0,2.988,1.664C838.684,289.181,839.018,289.107,838.684,288.626Zm-3.383-1.861a.67.67,0,0,1,.4-1.12.937.937,0,0,1,.939.65C836.846,286.893,835.966,287.627,835.3,286.765Z" transform="translate(-784.863 -235.21)" fill="#d59d65"/>
      <path id="Caminho_2986" data-name="Caminho 2986" d="M834.9,247.762a10.24,10.24,0,0,1-.11-3.617,3.686,3.686,0,0,1,1.1-2.867c.429-.276.258-.018.4-.53.094-.352.1-.3-.2-.64s-.607-.078-.795.11-.982.695-1.312.96a.381.381,0,1,1-.432-.432c.264-.331.772-1.125.959-1.313s.453-.5.111-.794-.289-.294-.64-.2c-.512.139-.255-.033-.53.4a3.686,3.686,0,0,1-2.867,1.1,10.225,10.225,0,0,1-3.618-.11c-.573-.287-1.257-1.345-1.775-1.6a1.937,1.937,0,0,0-.982-.166,8.692,8.692,0,0,0,.232,2.283c.232.849.992,2.183,1.731,2.415a15.509,15.509,0,0,0,1.875.374c.122.033.662-.044-.132.2s-1.412.508-1.445.982-.264,2.6-.364,3.232a7.419,7.419,0,0,0-.192,1.254l0,.008h0v0h.008a7.537,7.537,0,0,0,1.255-.192c.629-.1,2.757-.331,3.231-.365s.739-.65.982-1.444.166-.253.2-.133a15.528,15.528,0,0,0,.375,1.875c.232.739,1.566,1.5,2.415,1.731a8.639,8.639,0,0,0,2.282.232,1.92,1.92,0,0,0-.165-.982C836.247,249.02,835.188,248.336,834.9,247.762Z" transform="translate(-784.68 -234.389)" fill="#2e3e91"/>
      <path id="Caminho_2987" data-name="Caminho 2987" d="M840.368,239.934a6.049,6.049,0,0,1-2.533-.691c-.885-.607-.973-.625-.955-.781a2.64,2.64,0,0,1,.591-.834c.156-.121.712.5,1.477.817a3.518,3.518,0,0,0,1.421.234v-.553a2.535,2.535,0,0,1-1.4-.253,9.1,9.1,0,0,1-1.141-.9l-.075-.075a9.206,9.206,0,0,1-.9-1.141,2.573,2.573,0,0,1-.252-1.435h-.553a3.492,3.492,0,0,0,.232,1.451c.313.764.938,1.321.817,1.477a2.64,2.64,0,0,1-.834.591c-.156.018-.174-.07-.781-.955a6.1,6.1,0,0,1-.693-2.563H823.261c1.1,1.154,3.426,1.819,4.645,2.042a12.319,12.319,0,0,0,4.88-.677c1.164-.434,1.442.434,1.633.8s-.226.817-.226.817a.214.214,0,0,0,.313.208,1.056,1.056,0,0,1,1.059.643c.208.452-.452,1.042-.547,1.208-.068.117.064.172.147.195.023.084.078.215.195.147.165-.1.756-.756,1.208-.547a1.056,1.056,0,0,1,.643,1.059.214.214,0,0,0,.208.313s.452-.418.817-.226,1.233.469.8,1.633a12.32,12.32,0,0,0-.677,4.88,9.776,9.776,0,0,0,2.011,4.61Z" transform="translate(-784.664 -234.324)" fill="#2e3e91"/>
      <path id="Caminho_2988" data-name="Caminho 2988" d="M783.979,284.04a13.536,13.536,0,0,1,2.8.6,4.221,4.221,0,0,1,3.243,3.243,13.471,13.471,0,0,1,.6,2.8h11.892c-.4-.79-2.088-1.532-3.687-1.782a7.466,7.466,0,0,0-4.066.481c-1.021.443-1.734.81-2.216.6a3.011,3.011,0,0,1-1.5-2.35c-.1-1.253-.417-1.626-.2-1.921s1.277-.469,2.049-.854a5.194,5.194,0,0,0,2.332-2.6,8.8,8.8,0,0,0,.619-3.122.534.534,0,0,0-.1-.213.548.548,0,0,0-.213-.1,8.8,8.8,0,0,0-3.122.619,5.2,5.2,0,0,0-2.6,2.332c-.385.771-.559,1.831-.854,2.049s-.668-.1-1.921-.2a3.012,3.012,0,0,1-2.35-1.5c-.212-.481.154-1.194.6-2.216a7.463,7.463,0,0,0,.482-4.065c-.251-1.6-.992-3.283-1.782-3.687Z" transform="translate(-783.979 -234.983)" fill="#d59d65"/>
    </g>
  </g>
</svg>
