<svg xmlns="http://www.w3.org/2000/svg" width="111.409" height="111.409" viewBox="0 0 111.409 111.409">
  <g id="Grupo_4327" data-name="Grupo 4327" transform="translate(10697.964 12914)">
    <rect id="Retângulo_834" data-name="Retângulo 834" width="111.409" height="111.408" transform="translate(-10697.964 -12914)" fill="none"/>
    <path id="Caminho_3547" data-name="Caminho 3547" d="M957.26,160.786c.839-.15,3.385-.77,3.385-.77s1.151-1.684,1.656-2.372-.977-3.4-2.476-4.728-4.8-1.324-4.8-1.324-1.454,2.96-.924,4.89S956.42,160.936,957.26,160.786Z" transform="translate(-11557.379 -12990.29)" fill="#4192d0"/>
    <path id="Caminho_3548" data-name="Caminho 3548" d="M907.557,174.784a3.32,3.32,0,1,1,4.695,0A3.32,3.32,0,0,1,907.557,174.784Z" transform="translate(-11556.553 -12990.596)" fill="#d59d65"/>
    <circle id="Elipse_93" data-name="Elipse 93" cx="3.319" cy="3.319" r="3.319" transform="translate(-10605.711 -12865.735)" fill="#d59d65"/>
    <path id="Caminho_3549" data-name="Caminho 3549" d="M864.061,112.8c.691.527,1.684.866,1.357-.116s3.274-5.238,5.565-5.566,6.466.083,8.512-2.127,1.474-6.057,1.07-6.635l.571-.572c.579.4,4.425.977,6.635-1.069s1.8-6.221,2.128-8.512,4.583-5.892,5.565-5.565.643-.667.117-1.357-3.145-5.928-7.892-2.326-2.865,4.992-2.865,4.992l-1.718,1.063a17.22,17.22,0,0,1-1.8-2.786c-1.313-2.288-5-3.843-5-3.843a30.516,30.516,0,0,0-.982,3.6c-.164,1.146-1.555-1.064-2.865-2.374s-4.664-1.555-7.2-.983a11.935,11.935,0,0,1-3.389.414l-.066-.068.008.064-.064-.008.068.066a11.957,11.957,0,0,1-.413,3.389c-.573,2.537-.328,5.893.982,7.2s3.52,2.7,2.374,2.865a30.576,30.576,0,0,0-3.6.982s1.554,3.684,3.843,5a17.294,17.294,0,0,1,2.787,1.8l-1.064,1.719s-1.391-1.883-4.992,2.864S863.372,112.271,864.061,112.8Z" transform="translate(-11555.748 -12989.001)" fill="#2e3e91"/>
    <path id="Caminho_3550" data-name="Caminho 3550" d="M870.154,104.478c2.292-.164,6.629-.246,7.285-1.064s2.373-1.719,1.8-3.928a15.9,15.9,0,0,1-.489-3.52,15.839,15.839,0,0,1,3.519.489c2.21.573,3.11-1.146,3.928-1.8s.9-4.992,1.064-7.285,2.21-5.811,1.736-5.629a10.158,10.158,0,0,0-3.128,4.238c-.9,2.21-.41,4.992-1.228,7.121s-3.928.818-5.728-.818-1.883-5.811-1.883-5.811-1.637,1.964-1.719,3.028c0,0-1.146-1.146-3.847-3.52s-4.822-2.215-4.822-2.215l-.094.094s-.158,2.121,2.215,4.822,3.519,3.847,3.519,3.847c-1.064.082-3.028,1.719-3.028,1.719s4.174.082,5.811,1.882,2.947,4.911.818,5.729-4.911.327-7.121,1.228a10.158,10.158,0,0,0-4.238,3.127C864.343,106.688,867.863,104.641,870.154,104.478Z" transform="translate(-11555.818 -12989.071)" fill="#4192d0"/>
    <path id="Caminho_3551" data-name="Caminho 3551" d="M961.067,78.526c-7-4.115-12.243,2.366-13.066,5.247s4.218,7.3,4.218,7.3a17.931,17.931,0,0,1-5.761,2.676c-3.293.823-11.934.617-11.934.617l-1.337-4.218a18.263,18.263,0,0,0-13.013-11.573c-7.252-1.7-14.912-2.4-22.731,5.213s-7.215,13.558-5.98,16.645,6.538,4.735,9.2,4.546,4.57-2.857,5.245-5.245c.706-2.495-1.668-5.222-1.668-5.222a9.275,9.275,0,0,0-1.563-1.059c-.056-.027.2-.518.261-.5a9.039,9.039,0,0,1,1.8,1.052,8.268,8.268,0,0,1,7.093-1.918,13.274,13.274,0,0,1,7.969,7.052c1.234,2.881.016,6.847.016,6.847s-3.293.205,7.3,1.749,20.473-.72,27.7-2.755S966,95.811,967.056,92.747A12.287,12.287,0,0,0,961.067,78.526ZM926.244,100.4c-.852,1.246-.984,1.312-.95.426s-1.148-4.229-5.081-8.49-9.8-3.114-11.966-3.049-6.458,3.7-6.458,3.7a.618.618,0,0,1-.687.36,3.907,3.907,0,0,0-3.917,1.91,3.021,3.021,0,0,0,.637,3.86c.846.76.525.525.132.525s-1.633-1.2-2.19-2.744.073-4.623,3.252-7.712a16.272,16.272,0,0,1,8.871-4.591,20.806,20.806,0,0,1,15.21,2.492c6.618,3.9,7.245,7.048,7.212,7.212S927.1,99.158,926.244,100.4Z" transform="translate(-11556.275 -12988.992)" fill="#2e3e91"/>
    <path id="Caminho_3552" data-name="Caminho 3552" d="M927.1,102.039c2.1.706,9.573,2.837,16.265,1.374s12.335-3.589,15.5-7.345c2.313-2.744,3.273-5.124,2.962-7.207a5.88,5.88,0,0,0-3.127-4.239c-1.064-.355-2.615-.134-2.482.355s.266.354,1.2.4,2.26,1.517,2.472,2.653a4.883,4.883,0,0,1-1.084,4.556,21.588,21.588,0,0,1-7.327,5.111c-3.856,1.817-11.478,1.817-13.118,1.152s-3.59-1.462-3.5-2.615a13.681,13.681,0,0,0,0-1.949c0-.737-2.276,2.393-1.7,2.969a9.723,9.723,0,0,0,6.8,3.072,46.353,46.353,0,0,0,10.59-1.268c1.462-.31,1.059,1.155-4.921,2.687a40.1,40.1,0,0,1-12.819.236C930.455,101.4,926.464,101.824,927.1,102.039Z" transform="translate(-11556.909 -12989.119)" fill="#4192d0"/>
    <path id="Caminho_3553" data-name="Caminho 3553" d="M890.528,144.333c-1.544-10.6-1.749-7.305-1.749-7.305s-3.967,1.219-6.847-.016a13.267,13.267,0,0,1-7.051-7.968,8.264,8.264,0,0,1,1.917-7.093,9.078,9.078,0,0,1-1.052-1.8c-.023-.061.469-.317.5-.261a9.173,9.173,0,0,0,1.06,1.562s2.728,2.375,5.221,1.669c2.388-.676,5.056-2.587,5.245-5.245s-1.459-7.962-4.546-9.2-9.032-1.838-16.645,5.981-6.91,15.478-5.213,22.73A18.259,18.259,0,0,0,872.935,150.4l4.218,1.337s.206,8.643-.617,11.934a17.939,17.939,0,0,1-2.675,5.762s-4.424-5.042-7.3-4.218-9.363,6.07-5.247,13.066a12.286,12.286,0,0,0,14.22,5.99c3.064-1.051,10.209-5.018,12.243-12.243S892.07,154.93,890.528,144.333Zm-7.341-.873c-1.246.852-5.934,4.032-6.1,4.065s-3.308-.594-7.212-7.212a20.806,20.806,0,0,1-2.492-15.21,16.268,16.268,0,0,1,4.591-8.871c3.089-3.18,6.17-3.809,7.711-3.252s2.744,1.8,2.744,2.19.235.714-.525-.132a3.018,3.018,0,0,0-3.859-.637,3.908,3.908,0,0,0-1.911,3.916.618.618,0,0,1-.359.687s-3.639,4.295-3.7,6.458-1.213,8.031,3.048,11.965,7.606,5.114,8.49,5.082S884.432,142.609,883.187,143.461Z" transform="translate(-11555.739 -12989.528)" fill="#2e3e91"/>
    <path id="Caminho_3554" data-name="Caminho 3554" d="M884.822,144.319c.706,2.1,2.837,9.573,1.374,16.264s-3.589,12.335-7.345,15.5c-2.744,2.313-5.124,3.273-7.207,2.962a5.883,5.883,0,0,1-4.239-3.127c-.355-1.064-.133-2.616.355-2.482s.355.265.4,1.2,1.517,2.26,2.654,2.472a4.882,4.882,0,0,0,4.555-1.084,21.562,21.562,0,0,0,5.111-7.327c1.817-3.857,1.817-11.478,1.152-13.118s-1.462-3.59-2.615-3.5a13.379,13.379,0,0,1-1.949,0c-.737,0,2.393-2.275,2.969-1.7a9.724,9.724,0,0,1,3.073,6.8,46.355,46.355,0,0,1-1.268,10.591c-.31,1.462,1.156,1.059,2.687-4.921a40.1,40.1,0,0,0,.236-12.819C884.186,147.672,884.607,143.68,884.822,144.319Z" transform="translate(-11555.866 -12990.162)" fill="#4192d0"/>
    <path id="Caminho_3555" data-name="Caminho 3555" d="M941.93,179.115c.494-.7,1.878-2.92,1.878-2.92s-.358-2.008-.479-2.852-3.078-1.745-5.077-1.643-4.353,2.414-4.353,2.414,1.036,3.132,2.765,4.138S941.436,179.811,941.93,179.115Z" transform="translate(-11557.029 -12990.641)" fill="#4192d0"/>
    <path id="Caminho_3556" data-name="Caminho 3556" d="M940.876,170.174c-1.005-.572,2.8-2.078,3.591-2.086s-1.279-.135-1.862-1.826c-.746-2.166-.491-6.811-.477-6.824s4.794-.221,6.974.481c1.7.548,1.869,2.616,1.861,1.826s1.281-4.765,1.873-3.772c1.392,2.34,5.288,2.055,6.064,2.991s2.632,5.127,2.3,10.02a12.927,12.927,0,0,1-2.7,1.287c-.264-.13-5.468-3.214-5.468-3.214a7.646,7.646,0,0,0-2.069-.949,9.054,9.054,0,0,0,1.006,2.1s3.172,5.095,3.305,5.357a12.918,12.918,0,0,1-1.233,2.721c-4.886.425-9.111-1.347-10.063-2.106S943.244,171.52,940.876,170.174Z" transform="translate(-11557.147 -12990.398)" fill="#d59d65"/>
    <path id="Caminho_3557" data-name="Caminho 3557" d="M970.941,177.965a10.192,10.192,0,0,0-10.193,10.193h10.193Z" transform="translate(-11557.497 -12990.75)" fill="#4192d0"/>
    <path id="Caminho_3558" data-name="Caminho 3558" d="M961.147,178.363a13.6,13.6,0,0,1,9.652-4v-4.592a18.243,18.243,0,0,0-18.243,18.243h4.593A13.609,13.609,0,0,1,961.147,178.363Z" transform="translate(-11557.354 -12990.607)" fill="#2e3e91"/>
    <path id="Caminho_3559" data-name="Caminho 3559" d="M929.758,188.152h12.991a10.16,10.16,0,0,1,2-.633s5.891-1.369,6.172-1.458a12.959,12.959,0,0,0,1.058-2.793c-3.146-3.764-7.383-5.507-8.592-5.648s-3.825,2.76-6.45,2.031c-1.114-.309.7,3.455,1.255,4.021s-1-.813-2.607-.032c-2.061,1-5.374,4.455-5.372,4.475l.031.038Z" transform="translate(-11556.957 -12990.744)" fill="#d59d65"/>
    <path id="Caminho_3560" data-name="Caminho 3560" d="M966.359,168.687a12.917,12.917,0,0,0,2.785-1.079c.087-.282,1.39-6.14,1.39-6.14s.185-.8.406-1.454v-.048h0V147.458h0v-.483c-.489.439-3.432,3.215-4.336,5.116-.768,1.614.621,3.154.051,2.606s-4.342-2.136-4.025-1.025c.748,2.619-2.132,5.258-1.983,6.465S962.571,165.569,966.359,168.687Z" transform="translate(-11557.495 -12990.21)" fill="#d59d65"/>
    <path id="Caminho_3561" data-name="Caminho 3561" d="M927.361,186.78c.541-1.392,3.194-8.295,3.558-10.851.406-2.848,2.016-11.238,2.228-11.449s-.941-5.025-1.619-9.363-1.491-7.863-1.491-7.863,3.524.814,7.863,1.492,9.151,1.831,9.362,1.618,8.6-1.822,11.449-2.227c2.557-.364,9.459-3.016,10.851-3.558h0V98.926h0l0,0c-1.765.407-5.154,4.068-6.1,5.559s-.949,5.016-1.153,4.813a14.309,14.309,0,0,0-5.9-.2c-3.119.407-6.983,5.355-6.846,6.711s-.271.814,1.288.61a14.757,14.757,0,0,1,6.169,1.424c1.016.61,1.152,1.559-.746.88s-5.831,1.22-8.067,2.78-2.3,6.779-.678,9.626,7.321,3.118,7.253,3.592a5,5,0,0,1-2.237,3.186,5.26,5.26,0,0,1-6.508,0,15.652,15.652,0,0,1-5.152-6.372,7.758,7.758,0,0,1-.45-4.16,2.146,2.146,0,0,0-2.194.16,4.091,4.091,0,0,0-1.694,1.695s-.61-1.559-1.017-2.78.354-3.607.354-3.607a3.016,3.016,0,0,0-2.116-1.138c-1.153.068-4.88,2.169-5.558,4.2s.136,6.779-.068,6.576a21.628,21.628,0,0,1-1.857-4.109c-.84-2.279-.448-7.957.5-9.177s3.524-1.627,3.524-1.627a8.785,8.785,0,0,0-2.643-2.644c-1.492-.814-6.168-1.288-8.338,1.017s-3.118,6.779-3.118,6.779a41.546,41.546,0,0,0-1.966-6.3c-1.153-2.644-7.457-11.659-8.135-10.439s-1.085,5.829-1.491,5.423a17.173,17.173,0,0,0-6.847-4,16.164,16.164,0,0,0-7.252.339,16.153,16.153,0,0,0-.339,7.253,17.157,17.157,0,0,0,4,6.846c.407.407-4.2.814-5.423,1.492s7.8,6.982,10.439,8.135a41.523,41.523,0,0,0,6.3,1.965s-4.474.949-6.779,3.119-1.831,6.846-1.017,8.337a8.794,8.794,0,0,0,2.644,2.644s.407-2.575,1.627-3.524,6.9-1.341,9.177-.5a21.471,21.471,0,0,1,4.108,1.857c.2.2-4.541-.61-6.574.067s-4.136,4.407-4.2,5.559a3.015,3.015,0,0,0,1.138,2.116s2.388-.761,3.608-.354,2.779,1.016,2.779,1.016a4.1,4.1,0,0,0-1.695,1.695,2.149,2.149,0,0,0-.16,2.194,7.757,7.757,0,0,1,4.16.45,15.638,15.638,0,0,1,6.372,5.152,5.259,5.259,0,0,1,0,6.507A4.992,4.992,0,0,1,917.5,172c-.475.068-.746-5.626-3.592-7.252s-8.067-1.559-9.626.678-3.457,6.169-2.779,8.066-.271,1.763-.881.746a14.748,14.748,0,0,1-1.424-6.169c.2-1.559.746-1.153-.61-1.288s-6.3,3.729-6.711,6.846a14.3,14.3,0,0,0,.2,5.9c.2.2-3.321.2-4.813,1.153s-5.152,4.338-5.558,6.1l0,.007Z" transform="translate(-11556.118 -12989.371)" fill="#2e3e91"/>
    <path id="Caminho_3562" data-name="Caminho 3562" d="M943.226,160.443a38.212,38.212,0,0,1,27.1-11.228v-6.264a44.6,44.6,0,0,0-44.6,44.6H932A38.211,38.211,0,0,1,943.226,160.443Z" transform="translate(-11556.887 -12990.14)" fill="#2e3e91"/>
    <path id="Caminho_3563" data-name="Caminho 3563" d="M927.374,186.922a6.881,6.881,0,0,1,1-3.314c.879-1.015.407-7.711,1.7-12.636s-.69-10.836-1.839-16.719-3.923-12.582-6.224-15.016c2.436,2.3,9.132,5.073,15.016,6.223s11.8,3.138,16.72,1.84,11.621-.825,12.635-1.7a6.905,6.905,0,0,1,3.314-1h0V107.065h0a7.116,7.116,0,0,0-2.908,2.275c-1.225,1.593-1.828,5.323-1.38,6.569a7.038,7.038,0,0,0-2.542-1.834c-1.962-.744-4.261-1.285-5.953-.676a46.044,46.044,0,0,0-5.342,2.231c-.271.271,4.87.541,6.831,1.691s5.344,2.774,6.088,4.465a40.1,40.1,0,0,1,2.435,9.469c.2,2.774-.917,8.086-2.183,9.76s-9.638,5.038-13.265,4.741-7.82-2.055-9.443-4.625-3.652-8.387-3.45-10.078-1.285.068-2.232,2.367-1.555,3.45-.878,4.532-2.367-1.962-2.2-6.325-.576-5.511-.1-5.85-3.382,2.165-3.382,4.735-.812,5.952,0,6.764-4.6-2.976-5.681-6.764-1.961-7.508-1.759-8.793-1.945-1.166-3.239.533-2.511,6.975-2.24,7.922-3.044-3.991-3.382-5.681a16.739,16.739,0,0,0-2.1-6.02,47.009,47.009,0,0,0-3.044-4.937c-.474-.609-2.5,4.937-1.555,6.7s-.339-.609-5.073-4.261-7.238-4.261-7.238-4.261.608,2.5,4.261,7.238,6.02,6.019,4.261,5.073-7.305,1.082-6.7,1.555a47.484,47.484,0,0,0,4.937,3.044,16.745,16.745,0,0,0,6.02,2.1c1.691.338,6.628,3.652,5.681,3.381s-6.223.947-7.921,2.241-1.819,3.441-.534,3.238,5.006.677,8.793,1.759,7.576,6.494,6.765,5.682-4.195,0-6.765,0-5.073,3.856-4.734,3.382,1.488.27,5.85.1,7.407,2.873,6.324,2.2-2.231-.067-4.531.879-4.059,2.436-2.368,2.232,7.508,1.827,10.079,3.45,4.328,5.817,4.625,9.443-3.07,12-4.742,13.265-6.986,2.386-9.759,2.182a40.109,40.109,0,0,1-9.47-2.434c-1.691-.745-3.314-4.127-4.464-6.088s-1.421-7.1-1.691-6.832a45.868,45.868,0,0,0-2.232,5.343c-.609,1.691-.068,3.991.677,5.952a7.035,7.035,0,0,0,1.834,2.543c-1.246-.448-4.977.155-6.569,1.38a7.1,7.1,0,0,0-2.276,2.908h37.526Z" transform="translate(-11556.261 -12989.514)" fill="#4192d0"/>
  </g>
</svg>
