<svg xmlns="http://www.w3.org/2000/svg" width="20" height="15" viewBox="0 0 20 15">
  <g id="Menu_Alt_2" data-name="Menu / Alt 2" transform="translate(-4 -6)">
    <g id="menu-alt-3" transform="translate(4 6)">
      <path id="Path" d="M18.75,2H1.25A1.146,1.146,0,0,1,0,1,1.146,1.146,0,0,1,1.25,0h17.5A1.146,1.146,0,0,1,20,1,1.146,1.146,0,0,1,18.75,2Z" transform="translate(0 6.5)" fill="#fff"/>
      <path id="Path-2" data-name="Path" d="M18.75,2H1.25A1.146,1.146,0,0,1,0,1,1.146,1.146,0,0,1,1.25,0h17.5A1.146,1.146,0,0,1,20,1,1.146,1.146,0,0,1,18.75,2Z" fill="#fff"/>
      <path id="Path-3" data-name="Path" d="M18.75,2H1.25A1.146,1.146,0,0,1,0,1,1.146,1.146,0,0,1,1.25,0h17.5A1.146,1.146,0,0,1,20,1,1.146,1.146,0,0,1,18.75,2Z" transform="translate(0 13)" fill="#fff"/>
    </g>
  </g>
</svg>
