<svg xmlns="http://www.w3.org/2000/svg" width="19.264" height="15.392" viewBox="0 0 19.264 15.392">
  <path id="Caminho_6" data-name="Caminho 6" d="M163.72,95.066a9.729,9.729,0,0,0,2.9-.394,26.3,26.3,0,0,0,2.9-1.15,13.458,13.458,0,0,1,2.762-1.051,2.728,2.728,0,0,1,2.618.759.908.908,0,0,0,1.11.116,2.083,2.083,0,0,0,.445-.419,1.8,1.8,0,0,1,1.07-.671,3.706,3.706,0,0,1,1.174.061s.806-.067.865.017c.036.05-.376.518-.421.644a2.972,2.972,0,0,1-.775,1.922c-.077.1-.047.165.01.184a5.916,5.916,0,0,1,.717.268,2.005,2.005,0,0,1,1.022,1.064,8.081,8.081,0,0,1,.478,2.137c.12.746-.016,2.287.205,3.956a39.093,39.093,0,0,0,.93,3.858c-.013.319-.091.355-.382.237a3.3,3.3,0,0,1-1.032-.737,8.676,8.676,0,0,1-2.037-2.637,9.329,9.329,0,0,0-2.2-3.081,7.452,7.452,0,0,0-.922-.691c-.126-.082-.3.082-.391.178-.243.268-.663.627-.93.869a22.167,22.167,0,0,0-2.509,2.828c-1.94,2.776-2.459,3.965-2.813,4.258-.168.139-.254-.263-.206-.481a14.045,14.045,0,0,1,1.437-3.557c.3-.529.878-1.631,1.169-2.17.162-.3-.055-.433-.245-.416a16.355,16.355,0,0,1-2.177.507,11.519,11.519,0,0,1-3.361.024,1.214,1.214,0,0,1-.883-.394c.078-.147.316-.15.768-.182a13.03,13.03,0,0,0,2.344-.336,8.07,8.07,0,0,0,3.075-1.233,5.664,5.664,0,0,0,1.19-1.385c.145-.213.371-.471.235-.559a5.83,5.83,0,0,0-1.581-.287c-.574-.036-1.187.052-1.993.016a14.5,14.5,0,0,1-3.768-.789c-.433-.139-1.783-.627-2.01-1.093C162.288,94.815,162.921,95.024,163.72,95.066Z" transform="translate(-162.46 -92.229)" fill="#fff"/>
</svg>
