<svg xmlns="http://www.w3.org/2000/svg" width="17.027" height="30" viewBox="0 0 17.027 30">
  <path id="_013-facebook" data-name="013-facebook" d="M11.018,30h-4.8a1.457,1.457,0,0,1-1.455-1.455V17.709h-2.8A1.457,1.457,0,0,1,.5,16.253V11.61a1.457,1.457,0,0,1,1.455-1.455h2.8V7.83A7.917,7.917,0,0,1,6.851,2.157,7.54,7.54,0,0,1,12.411,0l3.664.006a1.457,1.457,0,0,1,1.453,1.455V5.772a1.457,1.457,0,0,1-1.455,1.455H13.606c-.752,0-.944.151-.985.2-.068.077-.148.293-.148.892v1.837h3.414a1.479,1.479,0,0,1,.72.183,1.46,1.46,0,0,1,.749,1.273l0,4.643A1.457,1.457,0,0,1,15.9,17.708H12.473V28.545A1.457,1.457,0,0,1,11.018,30Zm-4.5-1.759h4.2V16.921a.973.973,0,0,1,.972-.972H15.6l0-4.036H11.685a.973.973,0,0,1-.971-.972V8.318A3,3,0,0,1,11.3,6.262a2.981,2.981,0,0,1,2.3-.792h2.163v-3.7l-3.359-.005c-3.634,0-5.893,2.326-5.893,6.071v3.112a.973.973,0,0,1-.971.972H2.259V15.95H5.545a.973.973,0,0,1,.971.972ZM16.071,1.765h0Zm0,0" transform="translate(-0.5)" fill="#fff"/>
</svg>
