<svg id="_014-instagram" data-name="014-instagram" xmlns="http://www.w3.org/2000/svg" width="30" height="30" viewBox="0 0 30 30">
  <path id="Caminho_743" data-name="Caminho 743" d="M21.879,0H8.121A8.13,8.13,0,0,0,0,8.121V21.88A8.13,8.13,0,0,0,8.121,30H21.88A8.13,8.13,0,0,0,30,21.88V8.121A8.13,8.13,0,0,0,21.879,0Zm6.362,21.88a6.369,6.369,0,0,1-6.362,6.362H8.121A6.369,6.369,0,0,1,1.759,21.88V8.121A6.369,6.369,0,0,1,8.121,1.759H21.88a6.369,6.369,0,0,1,6.362,6.362Zm0,0" fill="#fff"/>
  <path id="Caminho_744" data-name="Caminho 744" d="M124.207,116a8.2,8.2,0,1,0,8.2,8.2A8.212,8.212,0,0,0,124.207,116Zm0,14.647a6.444,6.444,0,1,1,6.444-6.444A6.452,6.452,0,0,1,124.207,130.651Zm0,0" transform="translate(-109.207 -109.207)" fill="#fff"/>
  <path id="Caminho_745" data-name="Caminho 745" d="M360.4,66.285a2.424,2.424,0,1,0,2.424,2.424A2.427,2.427,0,0,0,360.4,66.285Zm0,3.089a.665.665,0,1,1,.665-.665A.666.666,0,0,1,360.4,69.374Zm0,0" transform="translate(-337.001 -62.401)" fill="#fff"/>
</svg>
