<svg id="_015-linkedin" data-name="015-linkedin" xmlns="http://www.w3.org/2000/svg" width="26.726" height="30" viewBox="0 0 26.726 30">
  <path id="Caminho_746" data-name="Caminho 746" d="M6.586,151.625H1.528A1.029,1.029,0,0,0,.5,152.653v19.06a1.029,1.029,0,0,0,1.028,1.028H6.586a1.029,1.029,0,0,0,1.028-1.028v-19.06A1.029,1.029,0,0,0,6.586,151.625ZM5.853,170.98H2.26v-17.6H5.853Zm0,0" transform="translate(-0.471 -142.741)" fill="#fff"/>
  <path id="Caminho_747" data-name="Caminho 747" d="M3.586,0A3.586,3.586,0,1,0,7.172,3.586,3.59,3.59,0,0,0,3.586,0Zm0,5.412A1.826,1.826,0,1,1,5.412,3.586,1.828,1.828,0,0,1,3.586,5.412Zm0,0" fill="#fff"/>
  <path id="Caminho_748" data-name="Caminho 748" d="M172.116,153.863a6.562,6.562,0,0,0-4.326-1.52,6.632,6.632,0,0,0-2.81.683v-.416a.982.982,0,0,0-.982-.982h-5.149a.982.982,0,0,0-.982.982v19.152a.982.982,0,0,0,.982.982H164.1a.88.88,0,0,0,.88-.88V160.446a1.821,1.821,0,0,1,1.742-1.834,1.8,1.8,0,0,1,1.851,1.8v11.475a.862.862,0,0,0,.862.862h5.047a.862.862,0,0,0,.862-.862V160.756A8.957,8.957,0,0,0,172.116,153.863Zm1.467,17.121h-3.249V160.407a3.557,3.557,0,0,0-7.113,0v10.577h-3.593v-17.6h3.593v1.279h0a.879.879,0,0,0,1.463.659,4.876,4.876,0,0,1,3.139-1.224,4.8,4.8,0,0,1,3.166,1.111,7.2,7.2,0,0,1,2.595,5.542Zm0,0" transform="translate(-148.617 -142.744)" fill="#fff"/>
</svg>
