<svg id="_027-whatsapp" data-name="027-whatsapp" xmlns="http://www.w3.org/2000/svg" width="30" height="30" viewBox="0 0 30 30">
  <path id="Caminho_749" data-name="Caminho 749" d="M25.739,4.261A14.452,14.452,0,0,0,15.452,0h0A14.551,14.551,0,0,0,2.522,21.221L.077,28.206A1.349,1.349,0,0,0,1.344,30a1.359,1.359,0,0,0,.449-.077l6.986-2.445A14.549,14.549,0,0,0,25.739,4.261Zm-1.244,19.33A12.794,12.794,0,0,1,9.448,25.842a1.355,1.355,0,0,0-1.081-.084L2.021,27.979l2.222-6.347a1.355,1.355,0,0,0-.084-1.081A12.79,12.79,0,0,1,15.451,1.759h0a12.789,12.789,0,0,1,9.043,21.832Zm0,0" transform="translate(0)" fill="#fff"/>
  <path id="Caminho_750" data-name="Caminho 750" d="M140.744,122.966a1.718,1.718,0,0,0-2.428,0l-.732.732a10.655,10.655,0,0,1-4.279-4.279l.732-.732a1.718,1.718,0,0,0,0-2.428l-1.973-1.973a1.718,1.718,0,0,0-2.428,0l-1.578,1.578c-.9.9-.949,2.458-.127,4.376a19.205,19.205,0,0,0,8.831,8.83,6.369,6.369,0,0,0,2.456.585,2.616,2.616,0,0,0,1.919-.712l1.578-1.578h0a1.716,1.716,0,0,0,0-2.428Zm-.85,4.734c-.258.258-1.051.348-2.438-.246a17.492,17.492,0,0,1-7.906-7.906c-.594-1.387-.5-2.18-.246-2.438l1.548-1.548,1.912,1.912-.916.916a1.343,1.343,0,0,0-.249,1.563,12.413,12.413,0,0,0,5.452,5.452,1.343,1.343,0,0,0,1.564-.249l.916-.916,1.912,1.912Zm0,0" transform="translate(-119.886 -107.118)" fill="#fff"/>
</svg>
