<svg id="Grupo_4348" data-name="Grupo 4348" xmlns="http://www.w3.org/2000/svg" width="134.402" height="133.801" viewBox="0 0 134.402 133.801">
  <g id="Grupo_4294" data-name="Grupo 4294" transform="translate(67.201)">
    <g id="Grupo_4293" data-name="Grupo 4293">
      <rect id="Retângulo_810" data-name="Retângulo 810" width="67.201" height="67.201" fill="none"/>
      <path id="Caminho_3427" data-name="Caminho 3427" d="M131.745,74.953,154.012,97.22l-22.267,44.533Z" transform="translate(-131.745 -74.753)" fill="#4192d0"/>
      <path id="Caminho_3428" data-name="Caminho 3428" d="M191.807,141.754,169.54,119.487l22.267-44.533Z" transform="translate(-125.007 -74.753)" fill="#4192d0"/>
    </g>
    <path id="Caminho_3431" data-name="Caminho 3431" d="M131.745,141.754,154.012,97.22l44.533-22.267-22.267,44.533Z" transform="translate(-131.745 -74.753)" fill="#2e3e91"/>
  </g>
  <g id="Grupo_4295" data-name="Grupo 4295" transform="translate(67.201 67.001)">
    <rect id="Retângulo_811" data-name="Retângulo 811" width="67.201" height="66.198" transform="translate(0 0.2)" fill="none"/>
    <path id="Caminho_3432" data-name="Caminho 3432" d="M131.745,131.646l22.267,22.267-22.267,44.533Z" transform="translate(-131.745 -131.646)" fill="#4192d0"/>
    <path id="Caminho_3433" data-name="Caminho 3433" d="M191.807,198.447,169.54,176.18l22.267-44.533Z" transform="translate(-125.007 -131.646)" fill="#4192d0"/>
  </g>
  <path id="Caminho_3436" data-name="Caminho 3436" d="M131.745,198.447l22.267-44.533,44.533-22.267L176.279,176.18Z" transform="translate(-64.544 -64.646)" fill="#2e3e91"/>
  <g id="Grupo_4298" data-name="Grupo 4298" transform="translate(0)">
    <g id="Grupo_4297" data-name="Grupo 4297">
      <rect id="Retângulo_812" data-name="Retângulo 812" width="67.201" height="67.201" fill="none"/>
      <path id="Caminho_3437" data-name="Caminho 3437" d="M75.052,74.953,97.319,97.22,75.052,141.754Z" transform="translate(-74.651 -74.753)" fill="#4192d0"/>
      <path id="Caminho_3438" data-name="Caminho 3438" d="M135.114,141.754l-22.267-22.267,22.267-44.533Z" transform="translate(-67.913 -74.753)" fill="#4192d0"/>
    </g>
    <path id="Caminho_3441" data-name="Caminho 3441" d="M75.052,141.754,97.319,97.22l44.533-22.267-22.267,44.533Z" transform="translate(-74.651 -74.753)" fill="#2e3e91"/>
  </g>
  <g id="Grupo_4299" data-name="Grupo 4299" transform="translate(0 67.001)">
    <rect id="Retângulo_813" data-name="Retângulo 813" width="67.201" height="66.198" transform="translate(0 0.2)" fill="none"/>
    <path id="Caminho_3442" data-name="Caminho 3442" d="M75.052,131.646l22.267,22.267L75.052,198.447Z" transform="translate(-74.651 -131.646)" fill="#4192d0"/>
    <path id="Caminho_3443" data-name="Caminho 3443" d="M135.114,198.447,112.847,176.18l22.267-44.533Z" transform="translate(-67.913 -131.646)" fill="#4192d0"/>
  </g>
  <path id="Caminho_3446" data-name="Caminho 3446" d="M75.052,198.447l22.267-44.533,44.533-22.267L119.586,176.18Z" transform="translate(-74.65 -64.646)" fill="#2e3e91"/>
</svg>
