<svg xmlns="http://www.w3.org/2000/svg" width="138" height="138" viewBox="0 0 138 138">
  <g id="Grupo_4378" data-name="Grupo 4378" transform="translate(11338.828 12757.409)">
    <rect id="Retângulo_741" data-name="Retângulo 741" width="137.999" height="137.999" transform="translate(-11338.827 -12757.409)" fill="none"/>
    <rect id="Retângulo_742" data-name="Retângulo 742" width="9.758" height="9.758" transform="translate(-11311.228 -12722.909) rotate(45)" fill="#4192d0"/>
    <rect id="Retângulo_743" data-name="Retângulo 743" width="9.758" height="9.758" transform="translate(-11331.928 -12702.209) rotate(45)" fill="#4192d0"/>
    <rect id="Retângulo_744" data-name="Retângulo 744" width="9.758" height="9.758" transform="translate(-11311.228 -12736.709) rotate(45.001)" fill="#4192d0"/>
    <rect id="Retângulo_745" data-name="Retângulo 745" width="9.758" height="9.758" transform="matrix(0.707, 0.707, -0.707, 0.707, -11331.928, -12757.408)" fill="#4192d0"/>
    <rect id="Retângulo_746" data-name="Retângulo 746" width="9.758" height="19.516" transform="translate(-11311.228 -12709.109) rotate(45.001)" fill="#2e3e91"/>
    <rect id="Retângulo_747" data-name="Retângulo 747" width="9.758" height="19.516" transform="matrix(0.707, 0.707, -0.707, 0.707, -11325.027, -12722.909)" fill="#2e3e91"/>
    <rect id="Retângulo_748" data-name="Retângulo 748" width="9.758" height="9.758" transform="translate(-11290.528 -12716.009) rotate(135)" fill="#4192d0"/>
    <path id="Caminho_3157" data-name="Caminho 3157" d="M205.5,257v13.8l6.9-6.9Z" transform="translate(-11544.326 -12986.81)" fill="#4192d0"/>
    <rect id="Retângulo_749" data-name="Retângulo 749" width="29.275" height="29.275" transform="translate(-11249.128 -12688.41) rotate(135)" fill="#4192d0"/>
    <rect id="Retângulo_750" data-name="Retângulo 750" width="9.758" height="9.758" transform="translate(-11290.528 -12729.809) rotate(134.999)" fill="#4192d0"/>
    <rect id="Retângulo_751" data-name="Retângulo 751" width="9.758" height="9.758" transform="translate(-11269.828 -12750.508) rotate(135)" fill="#4192d0"/>
    <rect id="Retângulo_752" data-name="Retângulo 752" width="9.758" height="19.516" transform="translate(-11283.629 -12695.31) rotate(134.999)" fill="#2e3e91"/>
    <rect id="Retângulo_753" data-name="Retângulo 753" width="9.758" height="19.516" transform="translate(-11269.829 -12709.109) rotate(135)" fill="#2e3e91"/>
    <rect id="Retângulo_754" data-name="Retângulo 754" width="9.758" height="19.516" transform="translate(-11297.429 -12736.709) rotate(-134.999)" fill="#2e3e91"/>
    <rect id="Retângulo_755" data-name="Retângulo 755" width="9.758" height="19.516" transform="translate(-11283.629 -12722.909) rotate(-135)" fill="#2e3e91"/>
    <rect id="Retângulo_756" data-name="Retângulo 756" width="9.758" height="19.516" transform="translate(-11325.027 -12750.508) rotate(-45.001)" fill="#2e3e91"/>
    <rect id="Retângulo_757" data-name="Retângulo 757" width="9.758" height="19.516" transform="matrix(0.707, -0.707, 0.707, 0.707, -11338.827, -12736.709)" fill="#2e3e91"/>
    <rect id="Retângulo_758" data-name="Retângulo 758" width="9.758" height="9.758" transform="translate(-11242.229 -12722.909) rotate(45)" fill="#4192d0"/>
    <rect id="Retângulo_759" data-name="Retângulo 759" width="9.758" height="9.758" transform="translate(-11242.229 -12736.709) rotate(45.001)" fill="#4192d0"/>
    <rect id="Retângulo_760" data-name="Retângulo 760" width="9.758" height="9.758" transform="translate(-11262.928 -12757.408) rotate(45)" fill="#4192d0"/>
    <rect id="Retângulo_761" data-name="Retângulo 761" width="9.758" height="19.516" transform="translate(-11242.229 -12709.109) rotate(45.001)" fill="#2e3e91"/>
    <rect id="Retângulo_762" data-name="Retângulo 762" width="9.758" height="19.516" transform="translate(-11256.028 -12722.909) rotate(45)" fill="#2e3e91"/>
    <rect id="Retângulo_763" data-name="Retângulo 763" width="9.758" height="9.758" transform="translate(-11221.529 -12716.009) rotate(135)" fill="#4192d0"/>
    <path id="Caminho_3158" data-name="Caminho 3158" d="M320.116,270.8V257l-6.9,6.9Z" transform="translate(-11520.944 -12986.81)" fill="#4192d0"/>
    <rect id="Retângulo_764" data-name="Retângulo 764" width="9.758" height="9.758" transform="translate(-11276.728 -12722.909) rotate(-44.999)" fill="#4192d0"/>
    <rect id="Retângulo_765" data-name="Retângulo 765" width="9.758" height="9.758" transform="translate(-11200.828 -12695.31) rotate(134.999)" fill="#4192d0"/>
    <rect id="Retângulo_766" data-name="Retângulo 766" width="9.758" height="9.758" transform="translate(-11221.527 -12729.809) rotate(134.999)" fill="#4192d0"/>
    <rect id="Retângulo_767" data-name="Retângulo 767" width="9.758" height="9.758" transform="translate(-11200.828 -12750.508) rotate(135)" fill="#4192d0"/>
    <rect id="Retângulo_768" data-name="Retângulo 768" width="9.758" height="19.516" transform="translate(-11214.628 -12695.31) rotate(134.999)" fill="#2e3e91"/>
    <rect id="Retângulo_769" data-name="Retângulo 769" width="9.758" height="19.516" transform="translate(-11200.828 -12709.109) rotate(135)" fill="#2e3e91"/>
    <rect id="Retângulo_770" data-name="Retângulo 770" width="9.758" height="19.516" transform="translate(-11228.429 -12736.709) rotate(-134.999)" fill="#2e3e91"/>
    <rect id="Retângulo_771" data-name="Retângulo 771" width="9.758" height="19.516" transform="translate(-11214.628 -12722.909) rotate(-135)" fill="#2e3e91"/>
    <rect id="Retângulo_772" data-name="Retângulo 772" width="9.758" height="19.516" transform="translate(-11256.028 -12750.508) rotate(-45.001)" fill="#2e3e91"/>
    <rect id="Retângulo_773" data-name="Retângulo 773" width="9.758" height="19.516" transform="translate(-11269.828 -12736.709) rotate(-45)" fill="#2e3e91"/>
    <rect id="Retângulo_774" data-name="Retângulo 774" width="9.758" height="9.758" transform="translate(-11311.228 -12653.909) rotate(45)" fill="#4192d0"/>
    <rect id="Retângulo_775" data-name="Retângulo 775" width="9.758" height="9.758" transform="matrix(0.707, 0.707, -0.707, 0.707, -11331.928, -12633.21)" fill="#4192d0"/>
    <rect id="Retângulo_776" data-name="Retângulo 776" width="9.758" height="9.758" transform="translate(-11311.228 -12667.709) rotate(45.001)" fill="#4192d0"/>
    <rect id="Retângulo_777" data-name="Retângulo 777" width="9.758" height="9.758" transform="matrix(0.707, 0.707, -0.707, 0.707, -11331.928, -12688.408)" fill="#4192d0"/>
    <rect id="Retângulo_778" data-name="Retângulo 778" width="9.758" height="19.516" transform="translate(-11311.228 -12640.109) rotate(45)" fill="#2e3e91"/>
    <rect id="Retângulo_779" data-name="Retângulo 779" width="9.758" height="19.516" transform="matrix(0.707, 0.707, -0.707, 0.707, -11325.027, -12653.909)" fill="#2e3e91"/>
    <rect id="Retângulo_780" data-name="Retângulo 780" width="9.758" height="9.758" transform="translate(-11290.528 -12647.01) rotate(135)" fill="#4192d0"/>
    <path id="Caminho_3159" data-name="Caminho 3159" d="M205.5,313.693v13.8l6.9-6.9Z" transform="translate(-11544.326 -12974.503)" fill="#4192d0"/>
    <rect id="Retângulo_781" data-name="Retângulo 781" width="9.758" height="9.758" transform="translate(-11269.828 -12626.311) rotate(135)" fill="#4192d0"/>
    <rect id="Retângulo_782" data-name="Retângulo 782" width="9.758" height="9.758" transform="translate(-11290.528 -12660.81) rotate(134.999)" fill="#4192d0"/>
    <rect id="Retângulo_783" data-name="Retângulo 783" width="9.758" height="19.516" transform="translate(-11283.629 -12626.311) rotate(135)" fill="#2e3e91"/>
    <rect id="Retângulo_784" data-name="Retângulo 784" width="9.758" height="19.516" transform="translate(-11269.829 -12640.109) rotate(135)" fill="#2e3e91"/>
    <rect id="Retângulo_785" data-name="Retângulo 785" width="9.758" height="19.516" transform="translate(-11297.429 -12667.709) rotate(-135)" fill="#2e3e91"/>
    <rect id="Retângulo_786" data-name="Retângulo 786" width="9.758" height="19.516" transform="translate(-11283.629 -12653.909) rotate(-135)" fill="#2e3e91"/>
    <rect id="Retângulo_787" data-name="Retângulo 787" width="9.758" height="19.516" transform="translate(-11325.027 -12681.509) rotate(-45)" fill="#2e3e91"/>
    <rect id="Retângulo_788" data-name="Retângulo 788" width="9.758" height="19.516" transform="matrix(0.707, -0.707, 0.707, 0.707, -11338.827, -12667.709)" fill="#2e3e91"/>
    <path id="Caminho_3160" data-name="Caminho 3160" d="M228.176,348.94h13.8l-6.9-6.9Z" transform="translate(-11539.403 -12968.349)" fill="#4192d0"/>
    <rect id="Retângulo_789" data-name="Retângulo 789" width="9.758" height="9.758" transform="translate(-11242.229 -12653.909) rotate(45)" fill="#4192d0"/>
    <rect id="Retângulo_790" data-name="Retângulo 790" width="9.758" height="9.758" transform="translate(-11262.928 -12633.21) rotate(45)" fill="#4192d0"/>
    <rect id="Retângulo_791" data-name="Retângulo 791" width="9.758" height="9.758" transform="translate(-11242.229 -12667.709) rotate(45.001)" fill="#4192d0"/>
    <rect id="Retângulo_792" data-name="Retângulo 792" width="9.758" height="19.516" transform="translate(-11242.229 -12640.109) rotate(45)" fill="#2e3e91"/>
    <rect id="Retângulo_793" data-name="Retângulo 793" width="9.758" height="19.516" transform="translate(-11256.028 -12653.909) rotate(45)" fill="#2e3e91"/>
    <rect id="Retângulo_794" data-name="Retângulo 794" width="9.758" height="9.758" transform="translate(-11221.529 -12647.01) rotate(135)" fill="#4192d0"/>
    <path id="Caminho_3161" data-name="Caminho 3161" d="M320.116,327.493v-13.8l-6.9,6.9Z" transform="translate(-11520.944 -12974.503)" fill="#4192d0"/>
    <rect id="Retângulo_795" data-name="Retângulo 795" width="9.758" height="9.758" transform="translate(-11276.728 -12653.909) rotate(-45)" fill="#4192d0"/>
    <rect id="Retângulo_796" data-name="Retângulo 796" width="9.758" height="9.758" transform="translate(-11276.728 -12688.408) rotate(-45)" fill="#fff"/>
    <rect id="Retângulo_797" data-name="Retângulo 797" width="9.758" height="9.758" transform="translate(-11200.828 -12626.311) rotate(135)" fill="#4192d0"/>
    <rect id="Retângulo_798" data-name="Retângulo 798" width="9.758" height="9.758" transform="translate(-11221.527 -12660.81) rotate(134.999)" fill="#4192d0"/>
    <rect id="Retângulo_799" data-name="Retângulo 799" width="9.758" height="9.758" transform="translate(-11200.828 -12681.509) rotate(135)" fill="#4192d0"/>
    <rect id="Retângulo_800" data-name="Retângulo 800" width="9.758" height="19.516" transform="translate(-11214.628 -12626.311) rotate(135)" fill="#2e3e91"/>
    <rect id="Retângulo_801" data-name="Retângulo 801" width="9.758" height="19.516" transform="translate(-11200.828 -12640.109) rotate(135)" fill="#2e3e91"/>
    <rect id="Retângulo_802" data-name="Retângulo 802" width="9.758" height="19.516" transform="translate(-11228.429 -12667.709) rotate(-135)" fill="#2e3e91"/>
    <rect id="Retângulo_803" data-name="Retângulo 803" width="9.758" height="19.516" transform="translate(-11214.628 -12653.909) rotate(-135)" fill="#2e3e91"/>
    <rect id="Retângulo_804" data-name="Retângulo 804" width="9.758" height="19.516" transform="translate(-11256.028 -12681.509) rotate(-45)" fill="#2e3e91"/>
    <rect id="Retângulo_805" data-name="Retângulo 805" width="9.758" height="19.516" transform="translate(-11269.828 -12667.709) rotate(-45)" fill="#2e3e91"/>
    <path id="Caminho_3162" data-name="Caminho 3162" d="M284.869,348.94h13.8l-6.9-6.9Z" transform="translate(-11527.097 -12968.349)" fill="#4192d0"/>
    <g id="Grupo_4275" data-name="Grupo 4275" transform="translate(-11311.227 -12695.31)">
      <path id="Caminho_3163" data-name="Caminho 3163" d="M291.769,285.347l-6.9,6.9h0l6.9,6.9,6.9-6.9Z" transform="translate(-215.87 -285.347)" fill="#4192d0"/>
      <rect id="Retângulo_806" data-name="Retângulo 806" width="9.758" height="9.758" transform="translate(0 6.9) rotate(-44.999)" fill="#4192d0"/>
    </g>
  </g>
</svg>
