<svg id="house-4" xmlns="http://www.w3.org/2000/svg" width="56.047" height="60" viewBox="0 0 56.047 60">
  <g id="Grupo_733" data-name="Grupo 733" transform="translate(0 0)">
    <g id="Grupo_732" data-name="Grupo 732">
      <path id="Caminho_1633" data-name="Caminho 1633" d="M71.187,21.116,48.2.724a6.219,6.219,0,0,0-8.6,0l-7.7,7v-2.7h1a.944.944,0,0,0,1-1v-4a.944.944,0,0,0-1-1H20.908a.944.944,0,0,0-1,1v4a.944.944,0,0,0,1,1h1v11.5l-5.3,4.6a2.4,2.4,0,0,0-.6,2.5,2.313,2.313,0,0,0,2.1,1.4h3.8V53h-1a.944.944,0,0,0-1,1v4a.944.944,0,0,0,1,1H66.889a.975.975,0,0,0,1-1.1v-4a.944.944,0,0,0-1-1h-1V24.914h3.8a2.079,2.079,0,0,0,2.1-1.4A2.192,2.192,0,0,0,71.187,21.116Zm-1.3,1.8a.31.31,0,0,1-.2.1h-4.8a.944.944,0,0,0-1,1V54a.944.944,0,0,0,1,1h1v2H21.907V55h1a.944.944,0,0,0,1-1V24.014a.944.944,0,0,0-1-1h-4.8c-.1,0-.1,0-.2-.1a.367.367,0,0,1,.1-.3l5.6-4.8a1.135,1.135,0,0,0,.3-.8V4.023a.944.944,0,0,0-1-1h-1v-2h10v2h-1a.944.944,0,0,0-1,1v6a1.381,1.381,0,0,0,.6,1.1,1.089,1.089,0,0,0,1.1-.2l9.4-8.6a4.1,4.1,0,0,1,5.8,0l22.99,20.391C69.887,22.715,69.987,22.815,69.887,22.915Z" transform="translate(-15.875 1)" fill="#69a4d9"/>
      <path id="Caminho_1634" data-name="Caminho 1634" d="M147.327,204.867a7.3,7.3,0,0,0-6.1,3.5,7.134,7.134,0,0,0-6-3.5c-2.4,0-4.5,1-6.6,3.2-2.4,2.5-3.4,8.3.9,12.595,2,2,11,10.7,11.1,10.8l.7.6.6-.6c.1-.1,9.2-8.9,11.1-10.8,4.3-4.2,3.3-10.1.9-12.595A9.045,9.045,0,0,0,147.327,204.867Zm4.4,14.394c-1.6,1.6-8.2,8-10.4,10.1-2.1-2.1-8.7-8.5-10.3-10.1-3.4-3.5-2.6-8-.8-9.9a7.064,7.064,0,0,1,5.1-2.6c2.6,0,4.3,2.1,5.1,4.1l.9,2.4.9-2.4c.8-2,2.6-4.1,5.2-4.1a6.72,6.72,0,0,1,5.1,2.6C154.424,211.364,155.124,215.862,151.725,219.261Z" transform="translate(-113.606 -180.752)" fill="#2e3e91"/>
    </g>
  </g>
</svg>
