<svg id="house-key-2" xmlns="http://www.w3.org/2000/svg" width="56.047" height="60" viewBox="0 0 56.047 60">
  <g id="Grupo_739" data-name="Grupo 739" transform="translate(0 0)">
    <g id="Grupo_738" data-name="Grupo 738">
      <path id="Caminho_1641" data-name="Caminho 1641" d="M71.187,21.116,48.2.724a6.219,6.219,0,0,0-8.6,0l-7.7,7v-2.7h1a.944.944,0,0,0,1-1v-4a.944.944,0,0,0-1-1H20.908a.944.944,0,0,0-1,1v4a.944.944,0,0,0,1,1h1v11.5l-5.3,4.6a2.4,2.4,0,0,0-.6,2.5,2.313,2.313,0,0,0,2.1,1.4h3.8V53h-1a.944.944,0,0,0-1,1v4a.944.944,0,0,0,1,1H66.889a.975.975,0,0,0,1-1.1v-4a.944.944,0,0,0-1-1h-1V24.914h3.8a2.079,2.079,0,0,0,2.1-1.4A2.192,2.192,0,0,0,71.187,21.116Zm-1.3,1.8a.31.31,0,0,1-.2.1h-4.8a.944.944,0,0,0-1,1V54a.944.944,0,0,0,1,1h1v2H21.907V55h1a.944.944,0,0,0,1-1V24.014a.944.944,0,0,0-1-1h-4.8c-.1,0-.1,0-.2-.1a.367.367,0,0,1,.1-.3l5.6-4.8a1.135,1.135,0,0,0,.3-.8V4.023a.944.944,0,0,0-1-1h-1v-2h10v2h-1a.944.944,0,0,0-1,1v6a1.381,1.381,0,0,0,.6,1.1,1.089,1.089,0,0,0,1.1-.2l9.4-8.6a4.1,4.1,0,0,1,5.8,0l22.99,20.391C69.887,22.715,69.987,22.815,69.887,22.915Z" transform="translate(-15.875 1)" fill="#69a4d9"/>
      <path id="Caminho_1642" data-name="Caminho 1642" d="M142.281,161.347a8.959,8.959,0,0,0-9,9,9.167,9.167,0,0,0,.164,1.724l-14.858,14.47a.806.806,0,0,0-.3.9l1,5a.973.973,0,0,0,1,.8h5a1.107,1.107,0,0,0,1.1-.8v-3h4a.944.944,0,0,0,1-1v-3h3a.944.944,0,0,0,1-1v-3h3a1.234,1.234,0,0,0,.8-.4s.83-.981,1.573-1.829a9.179,9.179,0,0,0,1.526.129,9,9,0,0,0,0-17.992Zm-4.5,17.892h-3.5a.944.944,0,0,0-1,1v3h-3a.944.944,0,0,0-1,1v3h-4a.944.944,0,0,0-1,1v3h-3.2l-.7-3.6,13.694-13.494a8.432,8.432,0,0,0,.727,1.242l.008.012c.029.041.058.083.088.124a8.948,8.948,0,0,0,3.528,2.969C138.162,178.771,137.972,179.05,137.782,179.239Zm4.5-1.9a7.141,7.141,0,0,1-1.773-.222,7.014,7.014,0,0,1-4.924-4.976,1,1,0,0,0-.13-.249,7.154,7.154,0,0,1-.17-1.55,7,7,0,1,1,7,7Z" transform="translate(-106.261 -142.33)" fill="#2e3e91"/>
      <path id="Caminho_1643" data-name="Caminho 1643" d="M301.772,195.48a4,4,0,1,0,4,4A4.01,4.01,0,0,0,301.772,195.48Zm0,6a2,2,0,1,1,2-2A2.005,2.005,0,0,1,301.772,201.477Z" transform="translate(-264.753 -172.465)" fill="#2e3e91"/>
    </g>
  </g>
</svg>
