<svg id="lock-alt-2-lock" xmlns="http://www.w3.org/2000/svg" width="20" height="28.571" viewBox="0 0 20 28.571">
  <path id="Path" d="M13.75,14.417a1.221,1.221,0,0,1-1.25-1.19V7.143a4.885,4.885,0,0,0-5-4.762,4.885,4.885,0,0,0-5,4.762v6.071A1.221,1.221,0,0,1,1.25,14.4,1.221,1.221,0,0,1,0,13.214V7.143A7.328,7.328,0,0,1,7.5,0,7.328,7.328,0,0,1,15,7.143v6.083A1.221,1.221,0,0,1,13.75,14.417Z" transform="translate(2.5 0)" fill="#fff"/>
  <path id="Path-2" data-name="Path" d="M1.25,4.762A1.221,1.221,0,0,1,0,3.571V1.19A1.221,1.221,0,0,1,1.25,0,1.221,1.221,0,0,1,2.5,1.19V3.571A1.221,1.221,0,0,1,1.25,4.762Z" transform="translate(8.75 17.857)" fill="#fff"/>
  <path id="Shape" d="M10,19.048A9.782,9.782,0,0,1,0,9.524,9.782,9.782,0,0,1,10,0,9.782,9.782,0,0,1,20,9.524a9.239,9.239,0,0,1-2.929,6.734A10.191,10.191,0,0,1,10,19.048ZM10,2.381A7.337,7.337,0,0,0,2.5,9.524,7.337,7.337,0,0,0,10,16.667a7.337,7.337,0,0,0,7.5-7.143A7.337,7.337,0,0,0,10,2.381Z" transform="translate(0 9.524)" fill="#fff"/>
</svg>
